%TF.GenerationSoftware,KiCad,Pcbnew,7.0.9*%
%TF.CreationDate,2024-10-09T10:00:48+02:00*%
%TF.ProjectId,_ramk_r V2,c172616d-6bf6-4722-9056-322e6b696361,rev?*%
%TF.SameCoordinates,Original*%
%TF.FileFunction,Copper,L1,Top*%
%TF.FilePolarity,Positive*%
%FSLAX46Y46*%
G04 Gerber Fmt 4.6, Leading zero omitted, Abs format (unit mm)*
G04 Created by KiCad (PCBNEW 7.0.9) date 2024-10-09 10:00:48*
%MOMM*%
%LPD*%
G01*
G04 APERTURE LIST*
G04 Aperture macros list*
%AMRoundRect*
0 Rectangle with rounded corners*
0 $1 Rounding radius*
0 $2 $3 $4 $5 $6 $7 $8 $9 X,Y pos of 4 corners*
0 Add a 4 corners polygon primitive as box body*
4,1,4,$2,$3,$4,$5,$6,$7,$8,$9,$2,$3,0*
0 Add four circle primitives for the rounded corners*
1,1,$1+$1,$2,$3*
1,1,$1+$1,$4,$5*
1,1,$1+$1,$6,$7*
1,1,$1+$1,$8,$9*
0 Add four rect primitives between the rounded corners*
20,1,$1+$1,$2,$3,$4,$5,0*
20,1,$1+$1,$4,$5,$6,$7,0*
20,1,$1+$1,$6,$7,$8,$9,0*
20,1,$1+$1,$8,$9,$2,$3,0*%
%AMRotRect*
0 Rectangle, with rotation*
0 The origin of the aperture is its center*
0 $1 length*
0 $2 width*
0 $3 Rotation angle, in degrees counterclockwise*
0 Add horizontal line*
21,1,$1,$2,0,0,$3*%
G04 Aperture macros list end*
%TA.AperFunction,ComponentPad*%
%ADD10C,1.508000*%
%TD*%
%TA.AperFunction,ComponentPad*%
%ADD11R,1.508000X1.508000*%
%TD*%
%TA.AperFunction,SMDPad,CuDef*%
%ADD12RoundRect,0.237500X-0.300000X-0.237500X0.300000X-0.237500X0.300000X0.237500X-0.300000X0.237500X0*%
%TD*%
%TA.AperFunction,SMDPad,CuDef*%
%ADD13RoundRect,0.250000X0.350000X0.450000X-0.350000X0.450000X-0.350000X-0.450000X0.350000X-0.450000X0*%
%TD*%
%TA.AperFunction,SMDPad,CuDef*%
%ADD14RoundRect,0.237500X0.008839X0.344715X-0.344715X-0.008839X-0.008839X-0.344715X0.344715X0.008839X0*%
%TD*%
%TA.AperFunction,SMDPad,CuDef*%
%ADD15RoundRect,0.155000X-0.040659X-0.259862X0.259862X0.040659X0.040659X0.259862X-0.259862X-0.040659X0*%
%TD*%
%TA.AperFunction,SMDPad,CuDef*%
%ADD16RoundRect,0.250000X0.450000X-0.350000X0.450000X0.350000X-0.450000X0.350000X-0.450000X-0.350000X0*%
%TD*%
%TA.AperFunction,ComponentPad*%
%ADD17RoundRect,0.250000X0.725000X-0.600000X0.725000X0.600000X-0.725000X0.600000X-0.725000X-0.600000X0*%
%TD*%
%TA.AperFunction,ComponentPad*%
%ADD18O,1.950000X1.700000*%
%TD*%
%TA.AperFunction,SMDPad,CuDef*%
%ADD19RoundRect,0.237500X-0.035355X-0.371231X0.371231X0.035355X0.035355X0.371231X-0.371231X-0.035355X0*%
%TD*%
%TA.AperFunction,SMDPad,CuDef*%
%ADD20RoundRect,0.075000X-0.910000X-0.225000X0.910000X-0.225000X0.910000X0.225000X-0.910000X0.225000X0*%
%TD*%
%TA.AperFunction,SMDPad,CuDef*%
%ADD21RoundRect,0.237500X-0.287500X-0.237500X0.287500X-0.237500X0.287500X0.237500X-0.287500X0.237500X0*%
%TD*%
%TA.AperFunction,SMDPad,CuDef*%
%ADD22RoundRect,0.250000X-1.500000X-0.550000X1.500000X-0.550000X1.500000X0.550000X-1.500000X0.550000X0*%
%TD*%
%TA.AperFunction,ComponentPad*%
%ADD23R,2.100000X2.100000*%
%TD*%
%TA.AperFunction,ComponentPad*%
%ADD24C,1.950000*%
%TD*%
%TA.AperFunction,ComponentPad*%
%ADD25RoundRect,0.250000X0.750000X-0.600000X0.750000X0.600000X-0.750000X0.600000X-0.750000X-0.600000X0*%
%TD*%
%TA.AperFunction,ComponentPad*%
%ADD26O,2.000000X1.700000*%
%TD*%
%TA.AperFunction,SMDPad,CuDef*%
%ADD27RoundRect,0.073750X-0.221250X0.911250X-0.221250X-0.911250X0.221250X-0.911250X0.221250X0.911250X0*%
%TD*%
%TA.AperFunction,SMDPad,CuDef*%
%ADD28RoundRect,0.155000X0.040659X0.259862X-0.259862X-0.040659X-0.040659X-0.259862X0.259862X0.040659X0*%
%TD*%
%TA.AperFunction,SMDPad,CuDef*%
%ADD29RoundRect,0.250000X-0.574524X-0.097227X-0.097227X-0.574524X0.574524X0.097227X0.097227X0.574524X0*%
%TD*%
%TA.AperFunction,ComponentPad*%
%ADD30RoundRect,0.250000X1.550000X-0.650000X1.550000X0.650000X-1.550000X0.650000X-1.550000X-0.650000X0*%
%TD*%
%TA.AperFunction,ComponentPad*%
%ADD31O,3.600000X1.800000*%
%TD*%
%TA.AperFunction,SMDPad,CuDef*%
%ADD32RoundRect,0.237500X0.002821X0.344816X-0.344508X-0.014854X-0.002821X-0.344816X0.344508X0.014854X0*%
%TD*%
%TA.AperFunction,SMDPad,CuDef*%
%ADD33RoundRect,0.250000X-0.450000X0.350000X-0.450000X-0.350000X0.450000X-0.350000X0.450000X0.350000X0*%
%TD*%
%TA.AperFunction,SMDPad,CuDef*%
%ADD34RoundRect,0.237500X-0.380070X0.044194X0.044194X-0.380070X0.380070X-0.044194X-0.044194X0.380070X0*%
%TD*%
%TA.AperFunction,ComponentPad*%
%ADD35C,3.800000*%
%TD*%
%TA.AperFunction,SMDPad,CuDef*%
%ADD36RoundRect,0.150000X0.150000X-0.587500X0.150000X0.587500X-0.150000X0.587500X-0.150000X-0.587500X0*%
%TD*%
%TA.AperFunction,SMDPad,CuDef*%
%ADD37RoundRect,0.237500X0.044194X0.380070X-0.380070X-0.044194X-0.044194X-0.380070X0.380070X0.044194X0*%
%TD*%
%TA.AperFunction,SMDPad,CuDef*%
%ADD38RoundRect,0.237500X0.250000X0.237500X-0.250000X0.237500X-0.250000X-0.237500X0.250000X-0.237500X0*%
%TD*%
%TA.AperFunction,SMDPad,CuDef*%
%ADD39RoundRect,0.237500X0.237500X-0.300000X0.237500X0.300000X-0.237500X0.300000X-0.237500X-0.300000X0*%
%TD*%
%TA.AperFunction,SMDPad,CuDef*%
%ADD40RotRect,1.100000X0.900000X225.000000*%
%TD*%
%TA.AperFunction,SMDPad,CuDef*%
%ADD41RoundRect,0.237500X0.380070X-0.044194X-0.044194X0.380070X-0.380070X0.044194X0.044194X-0.380070X0*%
%TD*%
%TA.AperFunction,ComponentPad*%
%ADD42R,1.350000X1.350000*%
%TD*%
%TA.AperFunction,ComponentPad*%
%ADD43O,1.350000X1.350000*%
%TD*%
%TA.AperFunction,SMDPad,CuDef*%
%ADD44RoundRect,0.062500X-0.309359X0.220971X0.220971X-0.309359X0.309359X-0.220971X-0.220971X0.309359X0*%
%TD*%
%TA.AperFunction,SMDPad,CuDef*%
%ADD45RoundRect,0.062500X-0.309359X-0.220971X-0.220971X-0.309359X0.309359X0.220971X0.220971X0.309359X0*%
%TD*%
%TA.AperFunction,SMDPad,CuDef*%
%ADD46RotRect,5.600000X5.600000X315.000000*%
%TD*%
%TA.AperFunction,ComponentPad*%
%ADD47RoundRect,0.250000X-0.600000X-0.725000X0.600000X-0.725000X0.600000X0.725000X-0.600000X0.725000X0*%
%TD*%
%TA.AperFunction,ComponentPad*%
%ADD48O,1.700000X1.950000*%
%TD*%
%TA.AperFunction,ComponentPad*%
%ADD49RoundRect,0.250000X-0.600000X-0.750000X0.600000X-0.750000X0.600000X0.750000X-0.600000X0.750000X0*%
%TD*%
%TA.AperFunction,ComponentPad*%
%ADD50O,1.700000X2.000000*%
%TD*%
%TA.AperFunction,SMDPad,CuDef*%
%ADD51R,0.650000X1.560000*%
%TD*%
%TA.AperFunction,SMDPad,CuDef*%
%ADD52RoundRect,0.200000X0.200000X-0.900000X0.200000X0.900000X-0.200000X0.900000X-0.200000X-0.900000X0*%
%TD*%
%TA.AperFunction,SMDPad,CuDef*%
%ADD53RoundRect,0.250000X1.125000X-1.275000X1.125000X1.275000X-1.125000X1.275000X-1.125000X-1.275000X0*%
%TD*%
%TA.AperFunction,SMDPad,CuDef*%
%ADD54RoundRect,0.249997X2.650003X-2.950003X2.650003X2.950003X-2.650003X2.950003X-2.650003X-2.950003X0*%
%TD*%
%TA.AperFunction,SMDPad,CuDef*%
%ADD55RoundRect,0.237500X-0.250000X-0.237500X0.250000X-0.237500X0.250000X0.237500X-0.250000X0.237500X0*%
%TD*%
%TA.AperFunction,SMDPad,CuDef*%
%ADD56RoundRect,0.250001X-0.462499X-0.624999X0.462499X-0.624999X0.462499X0.624999X-0.462499X0.624999X0*%
%TD*%
%TA.AperFunction,ComponentPad*%
%ADD57C,1.860000*%
%TD*%
%TA.AperFunction,SMDPad,CuDef*%
%ADD58RoundRect,0.160000X0.026517X0.252791X-0.252791X-0.026517X-0.026517X-0.252791X0.252791X0.026517X0*%
%TD*%
%TA.AperFunction,SMDPad,CuDef*%
%ADD59RoundRect,0.225000X0.375000X-0.225000X0.375000X0.225000X-0.375000X0.225000X-0.375000X-0.225000X0*%
%TD*%
%TA.AperFunction,SMDPad,CuDef*%
%ADD60RoundRect,0.075000X0.650000X0.075000X-0.650000X0.075000X-0.650000X-0.075000X0.650000X-0.075000X0*%
%TD*%
%TA.AperFunction,SMDPad,CuDef*%
%ADD61RoundRect,0.237500X0.237500X-0.250000X0.237500X0.250000X-0.237500X0.250000X-0.237500X-0.250000X0*%
%TD*%
%TA.AperFunction,ViaPad*%
%ADD62C,0.800000*%
%TD*%
%TA.AperFunction,ViaPad*%
%ADD63C,0.600000*%
%TD*%
%TA.AperFunction,ViaPad*%
%ADD64C,1.000000*%
%TD*%
%TA.AperFunction,Conductor*%
%ADD65C,0.250000*%
%TD*%
%TA.AperFunction,Conductor*%
%ADD66C,0.254000*%
%TD*%
%TA.AperFunction,Conductor*%
%ADD67C,0.203200*%
%TD*%
%TA.AperFunction,Conductor*%
%ADD68C,0.457200*%
%TD*%
%TA.AperFunction,Conductor*%
%ADD69C,0.711200*%
%TD*%
%TA.AperFunction,Conductor*%
%ADD70C,0.600000*%
%TD*%
%TA.AperFunction,Conductor*%
%ADD71C,1.200000*%
%TD*%
%TA.AperFunction,Conductor*%
%ADD72C,1.016000*%
%TD*%
%TA.AperFunction,Conductor*%
%ADD73C,1.800000*%
%TD*%
G04 APERTURE END LIST*
D10*
%TO.P,U5,40,GPIO21*%
%TO.N,unconnected-(U5-GPIO21-Pad40)*%
X179070000Y-75184000D03*
%TO.P,U5,39,GND_39*%
%TO.N,unconnected-(U5-GND_39-Pad39)*%
X179070000Y-72644000D03*
%TO.P,U5,38,GPIO20*%
%TO.N,unconnected-(U5-GPIO20-Pad38)*%
X176530000Y-75184000D03*
%TO.P,U5,37,GPIO26*%
%TO.N,unconnected-(U5-GPIO26-Pad37)*%
X176530000Y-72644000D03*
%TO.P,U5,36,GPIO16*%
%TO.N,unconnected-(U5-GPIO16-Pad36)*%
X173990000Y-75184000D03*
%TO.P,U5,35,GPIO19*%
%TO.N,unconnected-(U5-GPIO19-Pad35)*%
X173990000Y-72644000D03*
%TO.P,U5,34,GND_34*%
%TO.N,unconnected-(U5-GND_34-Pad34)*%
X171450000Y-75184000D03*
%TO.P,U5,33,GPIO13*%
%TO.N,unconnected-(U5-GPIO13-Pad33)*%
X171450000Y-72644000D03*
%TO.P,U5,32,GPIO12*%
%TO.N,/STM32_BOOT*%
X168910000Y-75184000D03*
%TO.P,U5,31,GPIO6*%
%TO.N,unconnected-(U5-GPIO6-Pad31)*%
X168910000Y-72644000D03*
%TO.P,U5,30,GND_30*%
%TO.N,unconnected-(U5-GND_30-Pad30)*%
X166370000Y-75184000D03*
%TO.P,U5,29,GPIO5*%
%TO.N,unconnected-(U5-GPIO5-Pad29)*%
X166370000Y-72644000D03*
%TO.P,U5,28,ID_SC*%
%TO.N,unconnected-(U5-ID_SC-Pad28)*%
X163830000Y-75184000D03*
%TO.P,U5,27,ID_SD*%
%TO.N,unconnected-(U5-ID_SD-Pad27)*%
X163830000Y-72644000D03*
%TO.P,U5,26,GPIO7/SPI_~{CE1}*%
%TO.N,unconnected-(U5-GPIO7{slash}SPI_~{CE1}-Pad26)*%
X161290000Y-75184000D03*
%TO.P,U5,25,GND_25*%
%TO.N,unconnected-(U5-GND_25-Pad25)*%
X161290000Y-72644000D03*
%TO.P,U5,24,GPIO8/SPI_~{CE0}*%
%TO.N,unconnected-(U5-GPIO8{slash}SPI_~{CE0}-Pad24)*%
X158750000Y-75184000D03*
%TO.P,U5,23,GPIO11/SPI_SCLK*%
%TO.N,unconnected-(U5-GPIO11{slash}SPI_SCLK-Pad23)*%
X158750000Y-72644000D03*
%TO.P,U5,22,GPIO25/GPIO_GEN6*%
%TO.N,unconnected-(U5-GPIO25{slash}GPIO_GEN6-Pad22)*%
X156210000Y-75184000D03*
%TO.P,U5,21,GPIO9/SPI_MISO*%
%TO.N,unconnected-(U5-GPIO9{slash}SPI_MISO-Pad21)*%
X156210000Y-72644000D03*
%TO.P,U5,20,GND_20*%
%TO.N,unconnected-(U5-GND_20-Pad20)*%
X153670000Y-75184000D03*
%TO.P,U5,19,GPIO10/SPI_MOSI*%
%TO.N,unconnected-(U5-GPIO10{slash}SPI_MOSI-Pad19)*%
X153670000Y-72644000D03*
%TO.P,U5,18,GPIO24/GPIO_GEN5*%
%TO.N,unconnected-(U5-GPIO24{slash}GPIO_GEN5-Pad18)*%
X151130000Y-75184000D03*
%TO.P,U5,17,3V3_17*%
%TO.N,/RPI 3.3V*%
X151130000Y-72644000D03*
%TO.P,U5,16,GPIO23/GPIO_GEN4*%
%TO.N,unconnected-(U5-GPIO23{slash}GPIO_GEN4-Pad16)*%
X148590000Y-75184000D03*
%TO.P,U5,15,GPIO22/GPIO_GEN3*%
%TO.N,unconnected-(U5-GPIO22{slash}GPIO_GEN3-Pad15)*%
X148590000Y-72644000D03*
%TO.P,U5,14,GND_14*%
%TO.N,unconnected-(U5-GND_14-Pad14)*%
X146050000Y-75184000D03*
%TO.P,U5,13,GPIO27/GPIO_GEN2*%
%TO.N,unconnected-(U5-GPIO27{slash}GPIO_GEN2-Pad13)*%
X146050000Y-72644000D03*
%TO.P,U5,12,GPIO18/GPIO_GEN1*%
%TO.N,/STM32_RESET*%
X143510000Y-75184000D03*
%TO.P,U5,11,GPIO17/GPIO_GEN0*%
%TO.N,unconnected-(U5-GPIO17{slash}GPIO_GEN0-Pad11)*%
X143510000Y-72644000D03*
%TO.P,U5,10,GPIO15/RXD0*%
%TO.N,/STM32_TX-RPI_RX*%
X140970000Y-75184000D03*
%TO.P,U5,9,GND_9*%
%TO.N,unconnected-(U5-GND_9-Pad9)*%
X140970000Y-72644000D03*
%TO.P,U5,8,GPIO14/TXD0*%
%TO.N,/STM32_RX-RPI_TX*%
X138430000Y-75184000D03*
%TO.P,U5,7,GPIO4/GPIO_GCLK*%
%TO.N,unconnected-(U5-GPIO4{slash}GPIO_GCLK-Pad7)*%
X138430000Y-72644000D03*
%TO.P,U5,6,GND_6*%
%TO.N,GND*%
X135890000Y-75184000D03*
%TO.P,U5,5,GPIO3/SCL*%
%TO.N,/STM32-RASPBERRY_SCL*%
X135890000Y-72644000D03*
%TO.P,U5,4,5V_4*%
%TO.N,+5V*%
X133350000Y-75184000D03*
%TO.P,U5,3,GPIO2/SDA1*%
%TO.N,/STM32-RASPBERRY_SDA*%
X133350000Y-72644000D03*
%TO.P,U5,2,5V_2*%
%TO.N,+5V*%
X130810000Y-75184000D03*
D11*
%TO.P,U5,1,3V3_1*%
%TO.N,/RPI 3.3V*%
X130810000Y-72644000D03*
%TD*%
D12*
%TO.P,C8,1*%
%TO.N,Net-(U2-VDD)*%
X184049500Y-101600000D03*
%TO.P,C8,2*%
%TO.N,GND*%
X185774500Y-101600000D03*
%TD*%
D13*
%TO.P,R1,1*%
%TO.N,/ALERT_RDY*%
X183880000Y-96520000D03*
%TO.P,R1,2*%
%TO.N,/3.3V*%
X181880000Y-96520000D03*
%TD*%
D14*
%TO.P,R14,1*%
%TO.N,Net-(J11-Pin_2)*%
X178953235Y-84698765D03*
%TO.P,R14,2*%
%TO.N,/Steam_Switch*%
X177662765Y-85989235D03*
%TD*%
D15*
%TO.P,C2,1*%
%TO.N,GND*%
X158755117Y-87370883D03*
%TO.P,C2,2*%
%TO.N,/MCU_OSC_IN*%
X159557683Y-86568317D03*
%TD*%
D16*
%TO.P,R2,1*%
%TO.N,/STM32-ADS_SDA*%
X179476400Y-100085400D03*
%TO.P,R2,2*%
%TO.N,/3.3V*%
X179476400Y-98085400D03*
%TD*%
D17*
%TO.P,J6,1,Pin_1*%
%TO.N,/POSB*%
X198043800Y-91400000D03*
D18*
%TO.P,J6,2,Pin_2*%
%TO.N,+5V*%
X198043800Y-88900000D03*
%TO.P,J6,3,Pin_3*%
%TO.N,GND*%
X198043800Y-86400000D03*
%TD*%
D19*
%TO.P,FB2,1*%
%TO.N,/3.3V*%
X154041882Y-92084118D03*
%TO.P,FB2,2*%
%TO.N,/VREF*%
X155279318Y-90846682D03*
%TD*%
D20*
%TO.P,U7,1,OUTA*%
%TO.N,/NEGA*%
X185490000Y-90805000D03*
%TO.P,U7,2,NEGA*%
X185490000Y-92075000D03*
%TO.P,U7,3,POSA*%
%TO.N,/AN0*%
X185490000Y-93345000D03*
%TO.P,U7,4,V-*%
%TO.N,GND*%
X185490000Y-94615000D03*
%TO.P,U7,5,POSB*%
%TO.N,/POSB*%
X190430000Y-94615000D03*
%TO.P,U7,6,NEGB*%
%TO.N,/NEGB*%
X190430000Y-93345000D03*
%TO.P,U7,7,OUTB*%
X190430000Y-92075000D03*
%TO.P,U7,8,V+*%
%TO.N,+5V*%
X190430000Y-90805000D03*
%TD*%
D21*
%TO.P,FB1,1*%
%TO.N,/3.3V*%
X182010000Y-99060000D03*
%TO.P,FB1,2*%
%TO.N,Net-(U2-VDD)*%
X183760000Y-99060000D03*
%TD*%
D22*
%TO.P,C10,1*%
%TO.N,+5V*%
X140075000Y-97326800D03*
%TO.P,C10,2*%
%TO.N,GND*%
X145675000Y-97326800D03*
%TD*%
D23*
%TO.P,S1,1*%
%TO.N,/Valve*%
X110220000Y-57650000D03*
D24*
%TO.P,S1,2*%
%TO.N,Net-(D1-K)*%
X108220000Y-51650000D03*
%TO.P,S1,3*%
%TO.N,unconnected-(S1-Pad3)*%
X96020000Y-51650000D03*
%TO.P,S1,4*%
%TO.N,/L*%
X96020000Y-63650000D03*
%TO.P,S1,5*%
%TO.N,+5V*%
X108220000Y-63650000D03*
%TD*%
D25*
%TO.P,J11,1,Pin_1*%
%TO.N,/3.3V*%
X197820000Y-79990000D03*
D26*
%TO.P,J11,2,Pin_2*%
%TO.N,Net-(J11-Pin_2)*%
X197820000Y-77490000D03*
%TD*%
D27*
%TO.P,U9,1,GND*%
%TO.N,GND*%
X192393000Y-64173000D03*
%TO.P,U9,2,T-*%
X191123000Y-64173000D03*
%TO.P,U9,3,T+*%
%TO.N,/+T*%
X189853000Y-64173000D03*
%TO.P,U9,4,VCC*%
%TO.N,/3.3V*%
X188583000Y-64173000D03*
%TO.P,U9,5,SCK*%
%TO.N,/STM32-MAX6675_SCK*%
X188583000Y-69123000D03*
%TO.P,U9,6,~{CS}*%
%TO.N,/STM32-MAX6675_CS*%
X189853000Y-69123000D03*
%TO.P,U9,7,SO*%
%TO.N,/STM32-MAX6675_MISO*%
X191123000Y-69123000D03*
%TO.P,U9,8,N.C.*%
%TO.N,unconnected-(U9-N.C.-Pad8)*%
X192393000Y-69123000D03*
%TD*%
D28*
%TO.P,C3,1*%
%TO.N,/XTAL_IN*%
X157474883Y-88498717D03*
%TO.P,C3,2*%
%TO.N,GND*%
X156672317Y-89301283D03*
%TD*%
D29*
%TO.P,C7,1*%
%TO.N,Net-(U1-VCAP1)*%
X158524377Y-98453377D03*
%TO.P,C7,2*%
%TO.N,GND*%
X159991623Y-99920623D03*
%TD*%
D30*
%TO.P,J3,1,Pin_1*%
%TO.N,/L*%
X89662000Y-62720500D03*
D31*
%TO.P,J3,2,Pin_2*%
%TO.N,/Valve*%
X89662000Y-57640500D03*
%TD*%
D32*
%TO.P,R13,1*%
%TO.N,Net-(J10-Pin_2)*%
X177671876Y-83671602D03*
%TO.P,R13,2*%
%TO.N,/Brew_Switch*%
X176404124Y-84984398D03*
%TD*%
D12*
%TO.P,C11,1*%
%TO.N,+5V*%
X147220600Y-94030800D03*
%TO.P,C11,2*%
%TO.N,GND*%
X148945600Y-94030800D03*
%TD*%
D33*
%TO.P,R9,1*%
%TO.N,Net-(Q1-B)*%
X119634000Y-62830200D03*
%TO.P,R9,2*%
%TO.N,/Relay*%
X119634000Y-64830200D03*
%TD*%
D34*
%TO.P,C4,1*%
%TO.N,/3.3V*%
X164286920Y-86359720D03*
%TO.P,C4,2*%
%TO.N,GND*%
X165506680Y-87579480D03*
%TD*%
D17*
%TO.P,J1,1,Pin_1*%
%TO.N,/AN3*%
X198170800Y-106244400D03*
D18*
%TO.P,J1,2,Pin_2*%
%TO.N,/AN2*%
X198170800Y-103744400D03*
%TO.P,J1,3,Pin_3*%
%TO.N,GND*%
X198170800Y-101244400D03*
%TO.P,J1,4,Pin_4*%
%TO.N,/AN1*%
X198170800Y-98744400D03*
%TD*%
D35*
%TO.P,H2,1*%
%TO.N,N/C*%
X197860000Y-50610000D03*
%TD*%
D25*
%TO.P,J10,1,Pin_1*%
%TO.N,/3.3V*%
X197612000Y-71374000D03*
D26*
%TO.P,J10,2,Pin_2*%
%TO.N,Net-(J10-Pin_2)*%
X197612000Y-68874000D03*
%TD*%
D36*
%TO.P,Q1,1,E*%
%TO.N,GND*%
X117668000Y-60373500D03*
%TO.P,Q1,2,B*%
%TO.N,Net-(Q1-B)*%
X119568000Y-60373500D03*
%TO.P,Q1,3,C*%
%TO.N,Net-(D1-K)*%
X118618000Y-58498500D03*
%TD*%
D37*
%TO.P,C1,1*%
%TO.N,/3.3V*%
X162179280Y-86512120D03*
%TO.P,C1,2*%
%TO.N,GND*%
X160959520Y-87731880D03*
%TD*%
D35*
%TO.P,H1,1*%
%TO.N,N/C*%
X87630000Y-50139600D03*
%TD*%
D38*
%TO.P,R7,1*%
%TO.N,/AN0*%
X187450100Y-89052400D03*
%TO.P,R7,2*%
%TO.N,Net-(U6-VREF)*%
X185625100Y-89052400D03*
%TD*%
D37*
%TO.P,C6,1*%
%TO.N,/3.3V*%
X171170880Y-92785920D03*
%TO.P,C6,2*%
%TO.N,GND*%
X169951120Y-94005680D03*
%TD*%
D25*
%TO.P,J4,1,Pin_1*%
%TO.N,/+T*%
X197460000Y-62670000D03*
D26*
%TO.P,J4,2,Pin_2*%
%TO.N,GND*%
X197460000Y-60170000D03*
%TD*%
D39*
%TO.P,C15,1*%
%TO.N,GND*%
X186906600Y-66166500D03*
%TO.P,C15,2*%
%TO.N,/3.3V*%
X186906600Y-64441500D03*
%TD*%
D40*
%TO.P,Y1,1,1*%
%TO.N,/MCU_OSC_IN*%
X156757821Y-85553340D03*
%TO.P,Y1,2,2*%
%TO.N,GND*%
X155555740Y-86755421D03*
%TO.P,Y1,3,3*%
%TO.N,/XTAL_IN*%
X156474979Y-87674660D03*
%TO.P,Y1,4,4*%
%TO.N,GND*%
X157677060Y-86472579D03*
%TD*%
D41*
%TO.P,C5,1*%
%TO.N,/3.3V*%
X163042880Y-100177880D03*
%TO.P,C5,2*%
%TO.N,GND*%
X161823120Y-98958120D03*
%TD*%
D42*
%TO.P,J9,1,Pin_1*%
%TO.N,/SWCLK*%
X176006000Y-91440000D03*
D43*
%TO.P,J9,2,Pin_2*%
%TO.N,/SWDIO*%
X174006000Y-91440000D03*
%TD*%
D44*
%TO.P,U1,1,VBAT*%
%TO.N,/3.3V*%
X163063813Y-88894878D03*
%TO.P,U1,2,PC13*%
%TO.N,unconnected-(U1-PC13-Pad2)*%
X162710260Y-89248431D03*
%TO.P,U1,3,PC14*%
%TO.N,unconnected-(U1-PC14-Pad3)*%
X162356706Y-89601985D03*
%TO.P,U1,4,PC15*%
%TO.N,unconnected-(U1-PC15-Pad4)*%
X162003153Y-89955538D03*
%TO.P,U1,5,PH0*%
%TO.N,/MCU_OSC_IN*%
X161649600Y-90309091D03*
%TO.P,U1,6,PH1*%
%TO.N,/MCU_OSC_OUT*%
X161296046Y-90662645D03*
%TO.P,U1,7,NRST*%
%TO.N,/STM32_RESET*%
X160942493Y-91016198D03*
%TO.P,U1,8,VSSA*%
%TO.N,GND*%
X160588939Y-91369752D03*
%TO.P,U1,9,VDDA*%
%TO.N,/VREF*%
X160235386Y-91723305D03*
%TO.P,U1,10,PA0*%
%TO.N,/BOILER_PWM*%
X159881833Y-92076858D03*
%TO.P,U1,11,PA1*%
%TO.N,/DIMMER_PWM*%
X159528279Y-92430412D03*
%TO.P,U1,12,PA2*%
%TO.N,/ZC_DIMMER*%
X159174726Y-92783965D03*
D45*
%TO.P,U1,13,PA3*%
%TO.N,/Relay*%
X159174726Y-93756237D03*
%TO.P,U1,14,PA4*%
%TO.N,unconnected-(U1-PA4-Pad14)*%
X159528279Y-94109790D03*
%TO.P,U1,15,PA5*%
%TO.N,unconnected-(U1-PA5-Pad15)*%
X159881833Y-94463344D03*
%TO.P,U1,16,PA6*%
%TO.N,unconnected-(U1-PA6-Pad16)*%
X160235386Y-94816897D03*
%TO.P,U1,17,PA7*%
%TO.N,/Scaled_Pressure*%
X160588939Y-95170450D03*
%TO.P,U1,18,PB0*%
%TO.N,unconnected-(U1-PB0-Pad18)*%
X160942493Y-95524004D03*
%TO.P,U1,19,PB1*%
%TO.N,unconnected-(U1-PB1-Pad19)*%
X161296046Y-95877557D03*
%TO.P,U1,20,PB2*%
%TO.N,unconnected-(U1-PB2-Pad20)*%
X161649600Y-96231111D03*
%TO.P,U1,21,PB10*%
%TO.N,unconnected-(U1-PB10-Pad21)*%
X162003153Y-96584664D03*
%TO.P,U1,22,VCAP1*%
%TO.N,Net-(U1-VCAP1)*%
X162356706Y-96938217D03*
%TO.P,U1,23,VSS*%
%TO.N,GND*%
X162710260Y-97291771D03*
%TO.P,U1,24,VDD*%
%TO.N,/3.3V*%
X163063813Y-97645324D03*
D44*
%TO.P,U1,25,PB12*%
%TO.N,/HX711_SCK*%
X164036085Y-97645324D03*
%TO.P,U1,26,PB13*%
%TO.N,/HX711_1_DATA*%
X164389638Y-97291771D03*
%TO.P,U1,27,PB14*%
%TO.N,/HX711_2_DATA*%
X164743192Y-96938217D03*
%TO.P,U1,28,PB15*%
%TO.N,/ALERT_RDY*%
X165096745Y-96584664D03*
%TO.P,U1,29,PA8*%
%TO.N,/STM32-ADS_SCL*%
X165450298Y-96231111D03*
%TO.P,U1,30,PA9*%
%TO.N,/STM32_TX-RPI_RX*%
X165803852Y-95877557D03*
%TO.P,U1,31,PA10*%
%TO.N,/STM32_RX-RPI_TX*%
X166157405Y-95524004D03*
%TO.P,U1,32,PA11*%
%TO.N,unconnected-(U1-PA11-Pad32)*%
X166510959Y-95170450D03*
%TO.P,U1,33,PA12*%
%TO.N,/SWCLK*%
X166864512Y-94816897D03*
%TO.P,U1,34,PA13*%
%TO.N,/SWDIO*%
X167218065Y-94463344D03*
%TO.P,U1,35,VSS*%
%TO.N,GND*%
X167571619Y-94109790D03*
%TO.P,U1,36,VDD*%
%TO.N,/3.3V*%
X167925172Y-93756237D03*
D45*
%TO.P,U1,37,PA14*%
%TO.N,/Steam_Switch*%
X167925172Y-92783965D03*
%TO.P,U1,38,PA15*%
%TO.N,/Brew_Switch*%
X167571619Y-92430412D03*
%TO.P,U1,39,PB3*%
%TO.N,/STM32-MAX6675_SCK*%
X167218065Y-92076858D03*
%TO.P,U1,40,PB4*%
%TO.N,/STM32-MAX6675_MISO*%
X166864512Y-91723305D03*
%TO.P,U1,41,PB5*%
%TO.N,/STM32-MAX6675_CS*%
X166510959Y-91369752D03*
%TO.P,U1,42,PB6*%
%TO.N,/STM32-RASPBERRY_SCL*%
X166157405Y-91016198D03*
%TO.P,U1,43,PB7*%
%TO.N,/STM32-RASPBERRY_SDA*%
X165803852Y-90662645D03*
%TO.P,U1,44,BOOT0*%
%TO.N,/STM32_BOOT*%
X165450298Y-90309091D03*
%TO.P,U1,45,PB8*%
%TO.N,/STM32-ADS_SDA*%
X165096745Y-89955538D03*
%TO.P,U1,46,PB9*%
%TO.N,unconnected-(U1-PB9-Pad46)*%
X164743192Y-89601985D03*
%TO.P,U1,47,VSS*%
%TO.N,GND*%
X164389638Y-89248431D03*
%TO.P,U1,48,VDD*%
%TO.N,/3.3V*%
X164036085Y-88894878D03*
D46*
%TO.P,U1,49,VSS*%
%TO.N,GND*%
X163549949Y-93270101D03*
%TD*%
D12*
%TO.P,C13,1*%
%TO.N,+5V*%
X181409000Y-89458800D03*
%TO.P,C13,2*%
%TO.N,/NEGA*%
X183134000Y-89458800D03*
%TD*%
D35*
%TO.P,H3,1*%
%TO.N,N/C*%
X181559200Y-106908600D03*
%TD*%
D30*
%TO.P,J2,1,Pin_1*%
%TO.N,/POWER_L*%
X89591700Y-75826900D03*
D31*
%TO.P,J2,2,Pin_2*%
%TO.N,/POWER_N*%
X89591700Y-70746900D03*
%TD*%
D12*
%TO.P,C12,1*%
%TO.N,/3.3V*%
X150675000Y-94030800D03*
%TO.P,C12,2*%
%TO.N,GND*%
X152400000Y-94030800D03*
%TD*%
D38*
%TO.P,R8,1*%
%TO.N,/AN1*%
X191539500Y-98806000D03*
%TO.P,R8,2*%
%TO.N,/AN0*%
X189714500Y-98806000D03*
%TD*%
D47*
%TO.P,J7,1,Pin_1*%
%TO.N,/3.3V*%
X166370000Y-106426000D03*
D48*
%TO.P,J7,2,Pin_2*%
%TO.N,GND*%
X168870000Y-106426000D03*
%TO.P,J7,3,Pin_3*%
%TO.N,/HX711_SCK*%
X171370000Y-106426000D03*
%TO.P,J7,4,Pin_4*%
%TO.N,/HX711_1_DATA*%
X173870000Y-106426000D03*
%TO.P,J7,5,Pin_5*%
%TO.N,/HX711_2_DATA*%
X176370000Y-106426000D03*
%TD*%
D49*
%TO.P,J5,1,Pin_1*%
%TO.N,/BOILER_PWM*%
X143550000Y-106476800D03*
D50*
%TO.P,J5,2,Pin_2*%
%TO.N,GND*%
X146050000Y-106476800D03*
%TD*%
D12*
%TO.P,C14,1*%
%TO.N,GND*%
X186665700Y-96469200D03*
%TO.P,C14,2*%
%TO.N,+5V*%
X188390700Y-96469200D03*
%TD*%
D47*
%TO.P,J8,1,Pin_1*%
%TO.N,/DIMMER_PWM*%
X152520000Y-106426000D03*
D48*
%TO.P,J8,2,Pin_2*%
%TO.N,/ZC_DIMMER*%
X155020000Y-106426000D03*
%TO.P,J8,3,Pin_3*%
%TO.N,/3.3V*%
X157520000Y-106426000D03*
%TO.P,J8,4,Pin_4*%
%TO.N,GND*%
X160020000Y-106426000D03*
%TD*%
D51*
%TO.P,U6,1,NC*%
%TO.N,unconnected-(U6-NC-Pad1)*%
X183950000Y-84806800D03*
%TO.P,U6,2,GND*%
%TO.N,/NEGA*%
X183000000Y-84806800D03*
%TO.P,U6,3,EN*%
%TO.N,+5V*%
X182050000Y-84806800D03*
%TO.P,U6,4,VIN*%
X182050000Y-87506800D03*
%TO.P,U6,5,VREF*%
%TO.N,Net-(U6-VREF)*%
X183950000Y-87506800D03*
%TD*%
D52*
%TO.P,U3,1,VI*%
%TO.N,+5V*%
X146310000Y-91400000D03*
%TO.P,U3,2,EN*%
X147450000Y-91400000D03*
%TO.P,U3,3,GND*%
%TO.N,GND*%
X148590000Y-91400000D03*
D53*
X147065000Y-86775000D03*
X150115000Y-86775000D03*
D54*
X148590000Y-85100000D03*
D53*
X147065000Y-83425000D03*
X150115000Y-83425000D03*
D52*
%TO.P,U3,4,FB/NC*%
%TO.N,unconnected-(U3-FB{slash}NC-Pad4)*%
X149730000Y-91400000D03*
%TO.P,U3,5,VO*%
%TO.N,/3.3V*%
X150870000Y-91400000D03*
%TD*%
D16*
%TO.P,R4,1*%
%TO.N,/STM32-ADS_SCL*%
X177175000Y-100060000D03*
%TO.P,R4,2*%
%TO.N,/3.3V*%
X177175000Y-98060000D03*
%TD*%
D55*
%TO.P,R12,1*%
%TO.N,/Scaled_Pressure*%
X180265700Y-94107000D03*
%TO.P,R12,2*%
%TO.N,GND*%
X182090700Y-94107000D03*
%TD*%
D56*
%TO.P,D1,1,K*%
%TO.N,Net-(D1-K)*%
X114412700Y-49961800D03*
%TO.P,D1,2,A*%
%TO.N,Net-(D1-A)*%
X117387700Y-49961800D03*
%TD*%
D57*
%TO.P,PS1,+V,+V*%
%TO.N,+5V*%
X133452000Y-97904000D03*
%TO.P,PS1,-V,-V*%
%TO.N,GND*%
X133452000Y-105904000D03*
%TO.P,PS1,AC/L,AC/L*%
%TO.N,/POWER_L*%
X88452000Y-85104000D03*
%TO.P,PS1,AC/N,AC/N*%
%TO.N,/POWER_N*%
X88452000Y-105904000D03*
%TD*%
D58*
%TO.P,R3,1*%
%TO.N,/MCU_OSC_OUT*%
X159020096Y-88528304D03*
%TO.P,R3,2*%
%TO.N,/XTAL_IN*%
X158175104Y-89373296D03*
%TD*%
D59*
%TO.P,D2,1,K*%
%TO.N,+5V*%
X115316000Y-59054000D03*
%TO.P,D2,2,A*%
%TO.N,Net-(D1-K)*%
X115316000Y-55754000D03*
%TD*%
D60*
%TO.P,U2,1,ADDR*%
%TO.N,GND*%
X190160000Y-105505000D03*
%TO.P,U2,2,ALERT_RDY*%
%TO.N,/ALERT_RDY*%
X190160000Y-105005000D03*
%TO.P,U2,3,GND*%
%TO.N,GND*%
X190160000Y-104505000D03*
%TO.P,U2,4,AIN0*%
%TO.N,/AN0*%
X190160000Y-104005000D03*
%TO.P,U2,5,AIN1*%
%TO.N,/AN1*%
X190160000Y-103505000D03*
%TO.P,U2,6,AIN2*%
%TO.N,/AN2*%
X185760000Y-103505000D03*
%TO.P,U2,7,AIN3*%
%TO.N,/AN3*%
X185760000Y-104005000D03*
%TO.P,U2,8,VDD*%
%TO.N,Net-(U2-VDD)*%
X185760000Y-104505000D03*
%TO.P,U2,9,SDA*%
%TO.N,/STM32-ADS_SDA*%
X185760000Y-105005000D03*
%TO.P,U2,10,SCL*%
%TO.N,/STM32-ADS_SCL*%
X185760000Y-105505000D03*
%TD*%
D16*
%TO.P,R10,1*%
%TO.N,+5V*%
X119634000Y-52028600D03*
%TO.P,R10,2*%
%TO.N,Net-(D1-A)*%
X119634000Y-50028600D03*
%TD*%
D38*
%TO.P,R11,1*%
%TO.N,/NEGB*%
X182090700Y-92583000D03*
%TO.P,R11,2*%
%TO.N,/Scaled_Pressure*%
X180265700Y-92583000D03*
%TD*%
D61*
%TO.P,R6,1*%
%TO.N,/STM32-RASPBERRY_SCL*%
X137160000Y-70000500D03*
%TO.P,R6,2*%
%TO.N,/RPI 3.3V*%
X137160000Y-68175500D03*
%TD*%
%TO.P,R5,1*%
%TO.N,/STM32-RASPBERRY_SDA*%
X152654000Y-78890500D03*
%TO.P,R5,2*%
%TO.N,/RPI 3.3V*%
X152654000Y-77065500D03*
%TD*%
D15*
%TO.P,C9,1*%
%TO.N,/VREF*%
X158551917Y-90723683D03*
%TO.P,C9,2*%
%TO.N,GND*%
X159354483Y-89921117D03*
%TD*%
D62*
%TO.N,/STM32_TX-RPI_RX*%
X149733000Y-80198300D03*
X168023307Y-97776693D03*
%TO.N,/STM32_RX-RPI_TX*%
X168910000Y-96990500D03*
X156235400Y-82296000D03*
D63*
%TO.N,/STM32_BOOT*%
X166530900Y-86969600D03*
X167640000Y-84886800D03*
%TO.N,GND*%
X149860000Y-87630000D03*
X163322000Y-94742000D03*
D62*
X158877000Y-100457000D03*
D63*
X146050000Y-83820000D03*
X147320000Y-85090000D03*
X147320000Y-86360000D03*
X148590000Y-82550000D03*
X159659200Y-89250000D03*
X163830000Y-92710000D03*
X162560000Y-93980000D03*
D62*
X154051000Y-86857021D03*
X117652800Y-61849000D03*
D63*
X149860000Y-82550000D03*
X146050000Y-87630000D03*
X162560000Y-95504000D03*
D62*
X170942000Y-94472700D03*
D63*
X149860000Y-83820000D03*
X164084000Y-95504000D03*
X161036000Y-93980000D03*
D62*
X186588400Y-100253800D03*
D63*
X163068000Y-91948000D03*
X148590000Y-87630000D03*
X148590000Y-83820000D03*
X146050000Y-85090000D03*
X161798000Y-94742000D03*
X146050000Y-86360000D03*
X162306000Y-91186000D03*
X186512200Y-97764600D03*
X151130000Y-85090000D03*
X163322000Y-96266000D03*
X166878000Y-93218000D03*
X164592000Y-90932000D03*
X151130000Y-86360000D03*
X151130000Y-83820000D03*
X151130000Y-82550000D03*
X146050000Y-82550000D03*
X163576000Y-90017600D03*
D62*
X148691600Y-97688400D03*
D63*
X149860000Y-85090000D03*
X161798000Y-93218000D03*
X149860000Y-86360000D03*
X166116000Y-92456000D03*
D62*
X165506680Y-86701867D03*
D63*
X151130000Y-87630000D03*
X160274000Y-93218000D03*
X147320000Y-82550000D03*
X161036000Y-92456000D03*
X165354000Y-91694000D03*
X147320000Y-87630000D03*
X165354000Y-94488000D03*
X148590000Y-86360000D03*
X147320000Y-83820000D03*
X164592000Y-93472000D03*
D62*
X155448000Y-88849200D03*
D63*
X148590000Y-85090000D03*
D62*
X185916000Y-66648000D03*
X182829200Y-94665800D03*
%TO.N,/STM32-ADS_SDA*%
X175086499Y-95330499D03*
D63*
X165658800Y-88900000D03*
D62*
%TO.N,/STM32-MAX6675_SCK*%
X188650000Y-70840000D03*
X190709000Y-73959000D03*
%TO.N,/ALERT_RDY*%
X185470800Y-99771200D03*
X179895047Y-103314953D03*
%TO.N,/Scaled_Pressure*%
X180136800Y-95691900D03*
X160121600Y-96189800D03*
D63*
%TO.N,/Relay*%
X138912600Y-87122000D03*
D62*
X157327600Y-94564200D03*
%TO.N,/3.3V*%
X169672000Y-83312000D03*
D64*
X176573784Y-96586817D03*
D62*
X165208586Y-85489414D03*
D64*
X156210000Y-99060000D03*
D62*
X165608000Y-101244400D03*
X172020630Y-93513072D03*
D64*
X150723600Y-95148400D03*
D62*
X182372000Y-76814211D03*
X183134000Y-75946000D03*
D64*
%TO.N,+5V*%
X140075000Y-83814000D03*
X182118000Y-82964250D03*
D62*
X116535200Y-57327800D03*
X119405400Y-54406800D03*
D63*
%TO.N,/STM32_RESET*%
X160260300Y-90144600D03*
D62*
X154495500Y-81013300D03*
%TO.N,/NEGB*%
X189067500Y-92760800D03*
X183743600Y-92913200D03*
%TD*%
D65*
%TO.N,/STM32_TX-RPI_RX*%
X167702988Y-97776693D02*
X165803852Y-95877557D01*
X145984300Y-80198300D02*
X140970000Y-75184000D01*
X168023307Y-97776693D02*
X167702988Y-97776693D01*
X149733000Y-80198300D02*
X145984300Y-80198300D01*
%TO.N,/STM32_RX-RPI_TX*%
X168910000Y-96990500D02*
X167623901Y-96990500D01*
X154178000Y-82296000D02*
X153162000Y-81280000D01*
X153162000Y-81280000D02*
X144526000Y-81280000D01*
X167623901Y-96990500D02*
X166157405Y-95524004D01*
X156235400Y-82296000D02*
X154178000Y-82296000D01*
X144526000Y-81280000D02*
X138430000Y-75184000D01*
D66*
%TO.N,/STM32_BOOT*%
X166530900Y-89228489D02*
X166530900Y-86969600D01*
D67*
X168910000Y-75184000D02*
X168910000Y-83616800D01*
D66*
X165450298Y-90309091D02*
X166530900Y-89228489D01*
D67*
X168910000Y-83616800D02*
X167640000Y-84886800D01*
D68*
%TO.N,GND*%
X117668000Y-61833800D02*
X117652800Y-61849000D01*
X148691600Y-97688400D02*
X148330000Y-97326800D01*
D66*
X191123000Y-64173000D02*
X191123000Y-64881708D01*
D68*
X159659200Y-89250000D02*
X159659200Y-89616400D01*
X159360160Y-100457000D02*
X158877000Y-100457000D01*
D66*
X167918150Y-94456321D02*
X167571619Y-94109790D01*
X186153132Y-101600000D02*
X189058132Y-104505000D01*
X161188120Y-87935080D02*
X161188120Y-87004954D01*
D68*
X152400000Y-94844755D02*
X149917955Y-97326800D01*
D65*
X160588939Y-91369752D02*
X159354483Y-90135296D01*
D68*
X186490700Y-96469200D02*
X186490700Y-95615700D01*
X148330000Y-97326800D02*
X145675000Y-97326800D01*
D67*
X155555740Y-86755421D02*
X155645208Y-86665953D01*
D68*
X186490700Y-97743100D02*
X186512200Y-97764600D01*
D65*
X158561966Y-84378800D02*
X156413200Y-84378800D01*
D68*
X161823120Y-98958120D02*
X160859040Y-98958120D01*
D65*
X155454140Y-86857021D02*
X155555740Y-86755421D01*
D67*
X190919672Y-105505000D02*
X191186600Y-105238072D01*
D68*
X149917955Y-97326800D02*
X145675000Y-97326800D01*
D66*
X164740920Y-88345240D02*
X164740920Y-88897149D01*
D69*
X182829200Y-94665800D02*
X182573300Y-94665800D01*
X148590000Y-92811600D02*
X148945600Y-93167200D01*
D66*
X161188120Y-87004954D02*
X159120766Y-84937600D01*
D67*
X157856813Y-86472579D02*
X158755117Y-87370883D01*
X191186600Y-105238072D02*
X191186600Y-104771928D01*
D66*
X156672317Y-89301283D02*
X155900083Y-89301283D01*
D69*
X148945600Y-94030800D02*
X148945600Y-94056200D01*
D65*
X154051000Y-86741000D02*
X154051000Y-86857021D01*
D68*
X186490700Y-96469200D02*
X186490700Y-97743100D01*
D69*
X186397500Y-66166500D02*
X185916000Y-66648000D01*
D68*
X152400000Y-94030800D02*
X152400000Y-94844755D01*
D66*
X169500479Y-94456321D02*
X167918150Y-94456321D01*
D69*
X170418140Y-94472700D02*
X169951120Y-94005680D01*
D67*
X155645208Y-86665953D02*
X157483686Y-86665953D01*
D66*
X169951120Y-94005680D02*
X169500479Y-94456321D01*
D67*
X157677060Y-86549915D02*
X157677060Y-86472579D01*
D70*
X165506680Y-86701867D02*
X165506680Y-87579480D01*
D69*
X148590000Y-91400000D02*
X148590000Y-92811600D01*
D66*
X165506680Y-87579480D02*
X164740920Y-88345240D01*
D69*
X170942000Y-94472700D02*
X170418140Y-94472700D01*
D66*
X191123000Y-64881708D02*
X189838208Y-66166500D01*
X191123000Y-64173000D02*
X192393000Y-64173000D01*
D69*
X148945600Y-93167200D02*
X148945600Y-94030800D01*
D68*
X160859040Y-98958120D02*
X159360160Y-100457000D01*
D67*
X157483686Y-86665953D02*
X157677060Y-86472579D01*
D68*
X186490700Y-95615700D02*
X185490000Y-94615000D01*
D65*
X159354483Y-90135296D02*
X159354483Y-89921117D01*
X161823120Y-98178911D02*
X162710260Y-97291771D01*
D71*
X137097800Y-105904000D02*
X145675000Y-97326800D01*
D66*
X189838208Y-66166500D02*
X186906600Y-66166500D01*
D65*
X159120766Y-84937600D02*
X158561966Y-84378800D01*
D67*
X190160000Y-105505000D02*
X190919672Y-105505000D01*
D66*
X189058132Y-104505000D02*
X190160000Y-104505000D01*
D69*
X148945600Y-94056200D02*
X145675000Y-97326800D01*
X185774500Y-101600000D02*
X185774500Y-101067700D01*
D65*
X154051000Y-86857021D02*
X155454140Y-86857021D01*
D66*
X155900083Y-89301283D02*
X155448000Y-88849200D01*
D67*
X157677060Y-86472579D02*
X157856813Y-86472579D01*
D68*
X117668000Y-60373500D02*
X117668000Y-61833800D01*
D66*
X185774500Y-101600000D02*
X186153132Y-101600000D01*
X164740920Y-88897149D02*
X164389638Y-89248431D01*
D69*
X185774500Y-101067700D02*
X186588400Y-100253800D01*
D67*
X191186600Y-104771928D02*
X190919672Y-104505000D01*
D65*
X156413200Y-84378800D02*
X154051000Y-86741000D01*
D72*
X133452000Y-105904000D02*
X137097800Y-105904000D01*
D69*
X182573300Y-94665800D02*
X182065300Y-94157800D01*
D67*
X155749114Y-86562047D02*
X155555740Y-86755421D01*
D69*
X186906600Y-66166500D02*
X186397500Y-66166500D01*
D68*
X159659200Y-89616400D02*
X159354483Y-89921117D01*
D67*
X190919672Y-104505000D02*
X190160000Y-104505000D01*
D65*
X161823120Y-98958120D02*
X161823120Y-98178911D01*
D66*
%TO.N,/SWCLK*%
X172918000Y-95814000D02*
X176006000Y-92726000D01*
X176006000Y-92726000D02*
X176006000Y-91440000D01*
X166864512Y-94884779D02*
X167793733Y-95814000D01*
X167793733Y-95814000D02*
X172918000Y-95814000D01*
X166864512Y-94816897D02*
X166864512Y-94884779D01*
%TO.N,/STM32-ADS_SDA*%
X165658800Y-88900000D02*
X165658800Y-89393483D01*
D67*
X184396000Y-105005000D02*
X179476400Y-100085400D01*
D66*
X165658800Y-89393483D02*
X165096745Y-89955538D01*
D67*
X185760000Y-105005000D02*
X184396000Y-105005000D01*
X175086499Y-97565699D02*
X175086499Y-95330499D01*
X176679200Y-99158400D02*
X175086499Y-97565699D01*
X178549400Y-99158400D02*
X176679200Y-99158400D01*
X179476400Y-100085400D02*
X178549400Y-99158400D01*
D66*
X175086499Y-95342633D02*
X175086499Y-95330499D01*
%TO.N,/STM32-RASPBERRY_SDA*%
X167157400Y-89309097D02*
X167157400Y-86410800D01*
X159588200Y-78841600D02*
X158699200Y-78841600D01*
X134340600Y-73914000D02*
X133350000Y-72923400D01*
X158826200Y-78841600D02*
X150495000Y-78841600D01*
X167157400Y-86410800D02*
X159588200Y-78841600D01*
X133350000Y-72923400D02*
X133350000Y-72644000D01*
X165803852Y-90662645D02*
X167157400Y-89309097D01*
X150495000Y-78841600D02*
X147320000Y-75666600D01*
X147320000Y-74726800D02*
X146507200Y-73914000D01*
X147320000Y-75666600D02*
X147320000Y-74726800D01*
X146507200Y-73914000D02*
X134340600Y-73914000D01*
%TO.N,/STM32-RASPBERRY_SCL*%
X166157405Y-91016198D02*
X167640000Y-89533603D01*
X167640000Y-89533603D02*
X167640000Y-85953600D01*
X157480000Y-75793600D02*
X157480000Y-71880000D01*
X157480000Y-71880000D02*
X155720000Y-70120000D01*
X135890000Y-71270500D02*
X135890000Y-72644000D01*
X167640000Y-85953600D02*
X157480000Y-75793600D01*
X137040500Y-70120000D02*
X135890000Y-71270500D01*
X155720000Y-70120000D02*
X137040500Y-70120000D01*
%TO.N,/STM32-MAX6675_CS*%
X166510959Y-91369752D02*
X168325800Y-89554911D01*
X168325800Y-89001600D02*
X179786689Y-77540711D01*
X189853000Y-69123000D02*
X189853000Y-68691708D01*
X184079289Y-77540711D02*
X189853000Y-71767000D01*
X168325800Y-89554911D02*
X168325800Y-89001600D01*
X179786689Y-77540711D02*
X184079289Y-77540711D01*
X189853000Y-71767000D02*
X189853000Y-69123000D01*
%TO.N,/STM32-MAX6675_MISO*%
X166864512Y-91723305D02*
X168779800Y-89808017D01*
X179908200Y-78409800D02*
X184734200Y-78409800D01*
X184734200Y-78409800D02*
X191123000Y-72021000D01*
X191123000Y-72021000D02*
X191123000Y-69123000D01*
X168779800Y-89538200D02*
X179908200Y-78409800D01*
X168779800Y-89808017D02*
X168779800Y-89538200D01*
D67*
%TO.N,/STM32-ADS_SCL*%
X179149992Y-101346000D02*
X177863992Y-100060000D01*
X177175000Y-100060000D02*
X173720000Y-100060000D01*
X183711600Y-105505000D02*
X179552600Y-101346000D01*
X172212000Y-98552000D02*
X167771187Y-98552000D01*
X167771187Y-98552000D02*
X165450298Y-96231111D01*
X179552600Y-101346000D02*
X179149992Y-101346000D01*
X177863992Y-100060000D02*
X177175000Y-100060000D01*
X173720000Y-100060000D02*
X172212000Y-98552000D01*
X185760000Y-105505000D02*
X183711600Y-105505000D01*
D65*
%TO.N,/HX711_2_DATA*%
X168231600Y-100431600D02*
X170375600Y-100431600D01*
X164743192Y-96938217D02*
X164743192Y-96943192D01*
X170375600Y-100431600D02*
X176370000Y-106426000D01*
X164743192Y-96943192D02*
X168231600Y-100431600D01*
X176370000Y-106426000D02*
X176370000Y-106680000D01*
%TO.N,/HX711_1_DATA*%
X168990000Y-101290000D02*
X173870000Y-106170000D01*
X173870000Y-106170000D02*
X173870000Y-106680000D01*
X164389638Y-97291771D02*
X168387867Y-101290000D01*
X168387867Y-101290000D02*
X168990000Y-101290000D01*
D66*
%TO.N,/HX711_SCK*%
X165323761Y-98933000D02*
X165323761Y-99537761D01*
X165323761Y-99537761D02*
X171370000Y-105584000D01*
X171370000Y-105584000D02*
X171370000Y-106680000D01*
X164036085Y-97645324D02*
X165323761Y-98933000D01*
%TO.N,/STM32-MAX6675_SCK*%
X185420000Y-79248000D02*
X180542000Y-79248000D01*
X171704923Y-87590000D02*
X167218065Y-92076858D01*
D68*
X188583000Y-69123000D02*
X188583000Y-70773000D01*
D66*
X180542000Y-79248000D02*
X172200000Y-87590000D01*
D68*
X188583000Y-70773000D02*
X188650000Y-70840000D01*
D66*
X172200000Y-87590000D02*
X171704923Y-87590000D01*
X190709000Y-73959000D02*
X185420000Y-79248000D01*
D65*
%TO.N,/ALERT_RDY*%
X168093000Y-99568000D02*
X165109664Y-96584664D01*
D67*
X184912000Y-100402800D02*
X184912000Y-102311200D01*
X185150000Y-100164800D02*
X184948400Y-100366400D01*
X185470800Y-99771200D02*
X185470800Y-99844000D01*
D65*
X171798194Y-99568000D02*
X168093000Y-99568000D01*
D67*
X187000400Y-103053400D02*
X188952000Y-105005000D01*
X185150000Y-97790000D02*
X185150000Y-100164800D01*
X185654200Y-103053400D02*
X187000400Y-103053400D01*
X184912000Y-102311200D02*
X185654200Y-103053400D01*
X185470800Y-99844000D02*
X184948400Y-100366400D01*
D65*
X165109664Y-96584664D02*
X165096745Y-96584664D01*
X175545147Y-103314953D02*
X171798194Y-99568000D01*
D67*
X184948400Y-100366400D02*
X184912000Y-100402800D01*
D65*
X179895047Y-103314953D02*
X175545147Y-103314953D01*
D67*
X183880000Y-96520000D02*
X185150000Y-97790000D01*
X188952000Y-105005000D02*
X190160000Y-105005000D01*
D65*
%TO.N,/Scaled_Pressure*%
X180265700Y-92583000D02*
X180265700Y-94107000D01*
X180136800Y-95691900D02*
X180136800Y-94235900D01*
X180136800Y-94235900D02*
X180265700Y-94107000D01*
X160121600Y-95637789D02*
X160121600Y-96189800D01*
X160588939Y-95170450D02*
X160121600Y-95637789D01*
D66*
%TO.N,/Relay*%
X128549400Y-76758800D02*
X138912600Y-87122000D01*
X119634000Y-64830200D02*
X120151400Y-64830200D01*
X128549400Y-73228200D02*
X128549400Y-76758800D01*
D67*
X158853595Y-94079605D02*
X158369000Y-94564200D01*
X158853595Y-94077368D02*
X158853595Y-94079605D01*
X158369000Y-94564200D02*
X157327600Y-94564200D01*
X159174726Y-93756237D02*
X158853595Y-94077368D01*
D66*
X120151400Y-64830200D02*
X128549400Y-73228200D01*
D65*
%TO.N,/ZC_DIMMER*%
X158846761Y-92456000D02*
X157988000Y-92456000D01*
X159174726Y-92783965D02*
X158846761Y-92456000D01*
X155020000Y-95424000D02*
X155020000Y-106634000D01*
X157988000Y-92456000D02*
X155020000Y-95424000D01*
%TO.N,/BOILER_PWM*%
X156609200Y-91548800D02*
X159353775Y-91548800D01*
X143550000Y-104608000D02*
X156609200Y-91548800D01*
X159353775Y-91548800D02*
X159881833Y-92076858D01*
X143550000Y-106680000D02*
X143550000Y-104608000D01*
D66*
%TO.N,/+T*%
X189853000Y-63741708D02*
X189853000Y-64173000D01*
X197600000Y-62530000D02*
X197340000Y-62270000D01*
X197340000Y-62270000D02*
X191324708Y-62270000D01*
X191324708Y-62270000D02*
X189853000Y-63741708D01*
D65*
%TO.N,/DIMMER_PWM*%
X152520000Y-96654000D02*
X152520000Y-106634000D01*
X157175200Y-91998800D02*
X152520000Y-96654000D01*
X159096667Y-91998800D02*
X157175200Y-91998800D01*
X159528279Y-92430412D02*
X159096667Y-91998800D01*
D68*
%TO.N,/3.3V*%
X178435000Y-77851000D02*
X180086000Y-76200000D01*
X166370000Y-103530400D02*
X163626800Y-100787200D01*
X157530800Y-83794600D02*
X159487160Y-83794600D01*
X181952000Y-68072000D02*
X185582500Y-64441500D01*
D69*
X171293478Y-92785920D02*
X172020630Y-93513072D01*
D66*
X179471789Y-76814211D02*
X178435000Y-77851000D01*
X167925172Y-93756237D02*
X168171256Y-94002321D01*
D68*
X153357764Y-91400000D02*
X154041882Y-92084118D01*
X159670160Y-83977600D02*
X161861780Y-86169220D01*
X150610600Y-93178600D02*
X150610600Y-93980000D01*
X180086000Y-76200000D02*
X180932889Y-75353111D01*
D66*
X169900880Y-92785920D02*
X171170880Y-92785920D01*
D68*
X162915600Y-84988400D02*
X164286920Y-86359720D01*
X150876000Y-91394000D02*
X150876000Y-89916000D01*
X150870000Y-91400000D02*
X150876000Y-91394000D01*
D66*
X164286920Y-88644043D02*
X164036085Y-88894878D01*
D68*
X155168600Y-83794600D02*
X157530800Y-83794600D01*
X176573784Y-96586817D02*
X176640601Y-96520000D01*
X179585000Y-98060000D02*
X180585000Y-99060000D01*
X164084000Y-101244400D02*
X165608000Y-101244400D01*
X180585000Y-99060000D02*
X181855000Y-99060000D01*
X163626800Y-100787200D02*
X163296880Y-100457280D01*
D66*
X162407880Y-86715320D02*
X162699980Y-87007420D01*
D68*
X150870000Y-92919200D02*
X150610600Y-93178600D01*
X152519500Y-88272500D02*
X152519500Y-86443700D01*
X150723600Y-91546400D02*
X150870000Y-91400000D01*
D66*
X164286920Y-86359720D02*
X164286920Y-88644043D01*
X186906600Y-64441500D02*
X188314500Y-64441500D01*
D68*
X150723600Y-95148400D02*
X150610600Y-95035400D01*
D66*
X188314500Y-64441500D02*
X188583000Y-64173000D01*
D68*
X152519500Y-86443700D02*
X155168600Y-83794600D01*
D66*
X182372000Y-76814211D02*
X179471789Y-76814211D01*
D68*
X158750000Y-101600000D02*
X157520000Y-100370000D01*
X176640601Y-96520000D02*
X181372000Y-96520000D01*
D66*
X162788600Y-97920537D02*
X162788600Y-99923600D01*
D68*
X185582500Y-64441500D02*
X186906600Y-64441500D01*
X150876000Y-89916000D02*
X152519500Y-88272500D01*
X165157226Y-85489414D02*
X164286920Y-86359720D01*
X156210000Y-99060000D02*
X157520000Y-100370000D01*
X176573784Y-96586817D02*
X176573784Y-97458784D01*
X163296880Y-100457280D02*
X163296880Y-100050880D01*
X176573784Y-97458784D02*
X177175000Y-98060000D01*
X180932889Y-75353111D02*
X180932889Y-69091111D01*
X169672000Y-83312000D02*
X172974000Y-83312000D01*
X150870000Y-91400000D02*
X153357764Y-91400000D01*
D66*
X162788600Y-99923600D02*
X163042880Y-100177880D01*
X183134000Y-75946000D02*
X180340000Y-75946000D01*
X162699980Y-87007420D02*
X162699980Y-88531045D01*
D68*
X159487160Y-83794600D02*
X159670160Y-83977600D01*
X157520000Y-100370000D02*
X157520000Y-106426000D01*
D66*
X165208586Y-85489414D02*
X165157226Y-85489414D01*
D68*
X150610600Y-95035400D02*
X150610600Y-93980000D01*
D66*
X180340000Y-75946000D02*
X180086000Y-76200000D01*
D68*
X166370000Y-106426000D02*
X166370000Y-103530400D01*
D69*
X171170880Y-92785920D02*
X171293478Y-92785920D01*
D68*
X163626800Y-100787200D02*
X164084000Y-101244400D01*
X161747760Y-101600000D02*
X158750000Y-101600000D01*
X172974000Y-83312000D02*
X178435000Y-77851000D01*
X157530800Y-83794600D02*
X161721800Y-83794600D01*
X161861780Y-86169220D02*
X162407880Y-86715320D01*
D66*
X163063813Y-97645324D02*
X162788600Y-97920537D01*
D68*
X150870000Y-91400000D02*
X150870000Y-92919200D01*
X161721800Y-83794600D02*
X162915600Y-84988400D01*
D66*
X168684479Y-94002321D02*
X169900880Y-92785920D01*
X168171256Y-94002321D02*
X168684479Y-94002321D01*
X162699980Y-88531045D02*
X163063813Y-88894878D01*
D68*
X177175000Y-98060000D02*
X179585000Y-98060000D01*
X180932889Y-69091111D02*
X181952000Y-68072000D01*
X163296880Y-100050880D02*
X161747760Y-101600000D01*
D66*
%TO.N,/RPI 3.3V*%
X152425400Y-73939400D02*
X152425400Y-76836900D01*
X151130000Y-72644000D02*
X152425400Y-73939400D01*
X152425400Y-76836900D02*
X152654000Y-77065500D01*
X130810000Y-70713600D02*
X130810000Y-72644000D01*
X133348100Y-68175500D02*
X130810000Y-70713600D01*
X137160000Y-68175500D02*
X133348100Y-68175500D01*
D69*
%TO.N,Net-(D1-K)*%
X115240000Y-55372200D02*
X115621800Y-55754000D01*
X117476000Y-55754000D02*
X118618000Y-56896000D01*
X114412700Y-52192700D02*
X114412700Y-49961800D01*
X118618000Y-56896000D02*
X118618000Y-58498500D01*
X115240000Y-53020000D02*
X115240000Y-55372200D01*
X115240000Y-53020000D02*
X114412700Y-52192700D01*
X115621800Y-55754000D02*
X117476000Y-55754000D01*
X113878000Y-51658000D02*
X115240000Y-53020000D01*
X108224000Y-51658000D02*
X113878000Y-51658000D01*
D68*
%TO.N,Net-(D1-A)*%
X117387700Y-49961800D02*
X119567200Y-49961800D01*
D67*
X119567200Y-49961800D02*
X119634000Y-50028600D01*
D73*
%TO.N,/Valve*%
X110224000Y-57658000D02*
X89679500Y-57658000D01*
D72*
X89679500Y-57658000D02*
X89662000Y-57640500D01*
D73*
%TO.N,/L*%
X93122000Y-63658000D02*
X96024000Y-63658000D01*
X92184500Y-62720500D02*
X93122000Y-63658000D01*
X89662000Y-62720500D02*
X92184500Y-62720500D01*
D67*
%TO.N,Net-(Q1-B)*%
X119568000Y-60373500D02*
X119568000Y-62764200D01*
X119568000Y-62764200D02*
X119634000Y-62830200D01*
D66*
%TO.N,/SWDIO*%
X167953921Y-95199200D02*
X172008800Y-95199200D01*
X174006000Y-93202000D02*
X174006000Y-91440000D01*
X167218065Y-94463344D02*
X167953921Y-95199200D01*
X172008800Y-95199200D02*
X174006000Y-93202000D01*
D67*
%TO.N,/AN0*%
X189435001Y-104005000D02*
X188899800Y-103469799D01*
X188899800Y-103469799D02*
X188899800Y-98806000D01*
X186900000Y-93345000D02*
X186817000Y-93345000D01*
X187450100Y-92711900D02*
X186817000Y-93345000D01*
X188899800Y-98806000D02*
X189714500Y-98806000D01*
X187528200Y-93973200D02*
X186900000Y-93345000D01*
X188899800Y-98806000D02*
X187528200Y-97434400D01*
X187528200Y-97434400D02*
X187528200Y-93973200D01*
X190160000Y-104005000D02*
X189435001Y-104005000D01*
X187450100Y-89052400D02*
X187450100Y-92711900D01*
X185490000Y-93345000D02*
X186817000Y-93345000D01*
D66*
X187450100Y-89052400D02*
X187147200Y-89355300D01*
D67*
%TO.N,/AN1*%
X191539500Y-103481500D02*
X191516000Y-103505000D01*
D65*
X198882000Y-98806000D02*
X193040000Y-98806000D01*
X191516000Y-103505000D02*
X190160000Y-103505000D01*
D67*
X191539500Y-98806000D02*
X191539500Y-103481500D01*
D65*
X199136000Y-99060000D02*
X198882000Y-98806000D01*
D66*
X191539500Y-98806000D02*
X193040000Y-98806000D01*
D69*
%TO.N,+5V*%
X115316000Y-66979800D02*
X115316000Y-59054000D01*
X137896600Y-95148400D02*
X137896600Y-89560400D01*
X133350000Y-77089000D02*
X133350000Y-75184000D01*
X142913800Y-94488000D02*
X146763400Y-94488000D01*
X108224000Y-63658000D02*
X111994200Y-63658000D01*
D68*
X187590100Y-86004400D02*
X186809850Y-85224150D01*
D67*
X182050000Y-88817800D02*
X181409000Y-89458800D01*
D68*
X182050000Y-83032250D02*
X182050000Y-84806800D01*
X190430000Y-90805000D02*
X189445001Y-90805000D01*
X189413350Y-87827650D02*
X190430000Y-88844300D01*
D69*
X140075000Y-97326800D02*
X137896600Y-95148400D01*
D71*
X136919000Y-97904000D02*
X137496200Y-97326800D01*
D68*
X119634000Y-52028600D02*
X119634000Y-54178200D01*
D69*
X132715000Y-77089000D02*
X130810000Y-75184000D01*
D67*
X182050000Y-87506800D02*
X182050000Y-88817800D01*
D71*
X137496200Y-97326800D02*
X140075000Y-97326800D01*
D68*
X184549950Y-82964250D02*
X186809850Y-85224150D01*
D69*
X115316000Y-58547000D02*
X116535200Y-57327800D01*
X133350000Y-77089000D02*
X132715000Y-77089000D01*
X146763400Y-94488000D02*
X147220600Y-94030800D01*
D68*
X182118000Y-82964250D02*
X182050000Y-83032250D01*
D69*
X133350000Y-77089000D02*
X140075000Y-83814000D01*
X147220600Y-93474200D02*
X146310000Y-92563600D01*
D66*
X182050000Y-84806800D02*
X182050000Y-87280500D01*
D68*
X188239400Y-96142900D02*
X188565700Y-96469200D01*
D69*
X146310000Y-92563600D02*
X146310000Y-91400000D01*
X147220600Y-94030800D02*
X147220600Y-93474200D01*
D68*
X186809850Y-85224150D02*
X189413350Y-87827650D01*
X188239400Y-92010601D02*
X188239400Y-96142900D01*
D69*
X140075000Y-97326800D02*
X142913800Y-94488000D01*
D68*
X189445001Y-90805000D02*
X188239400Y-92010601D01*
D69*
X147450000Y-91400000D02*
X146310000Y-91400000D01*
D71*
X133452000Y-97904000D02*
X136919000Y-97904000D01*
D68*
X190485700Y-88900000D02*
X189413350Y-87827650D01*
X198043800Y-88900000D02*
X190485700Y-88900000D01*
X182118000Y-82964250D02*
X184549950Y-82964250D01*
X190430000Y-88844300D02*
X190430000Y-90805000D01*
D69*
X140075000Y-83814000D02*
X140075000Y-97326800D01*
X115316000Y-59054000D02*
X115316000Y-58547000D01*
D68*
X119634000Y-54178200D02*
X119405400Y-54406800D01*
D69*
X137896600Y-89560400D02*
X115316000Y-66979800D01*
X111994200Y-63658000D02*
X115316000Y-66979800D01*
D65*
%TO.N,/NEGA*%
X183000000Y-89274000D02*
X183000000Y-84806800D01*
X184531000Y-90805000D02*
X183000000Y-89274000D01*
X185490000Y-90805000D02*
X185490000Y-92075000D01*
X185490000Y-90805000D02*
X184531000Y-90805000D01*
%TO.N,/VREF*%
X155600680Y-90728520D02*
X155600680Y-90694842D01*
D66*
X155371800Y-90754200D02*
X155279318Y-90846682D01*
D67*
X158623000Y-90779600D02*
X159291681Y-90779600D01*
D66*
X158623000Y-90779600D02*
X158597600Y-90754200D01*
X158597600Y-90754200D02*
X155371800Y-90754200D01*
D67*
X159291681Y-90779600D02*
X160235386Y-91723305D01*
D73*
%TO.N,/POWER_N*%
X96316800Y-72821800D02*
X96316800Y-98039200D01*
X89617100Y-70721500D02*
X94216500Y-70721500D01*
X89591700Y-70746900D02*
X89617100Y-70721500D01*
X94216500Y-70721500D02*
X96316800Y-72821800D01*
X96316800Y-98039200D02*
X88452000Y-105904000D01*
%TO.N,/POWER_L*%
X89591700Y-75826900D02*
X87698300Y-77720300D01*
X87698300Y-77720300D02*
X87698300Y-84350300D01*
X87698300Y-84350300D02*
X88452000Y-85104000D01*
D67*
%TO.N,/MCU_OSC_IN*%
X161264600Y-89924091D02*
X161649600Y-90309091D01*
X161264600Y-89396590D02*
X161264600Y-89924091D01*
X158204597Y-85266031D02*
X159994600Y-87056034D01*
X159994600Y-87056034D02*
X159993114Y-87057520D01*
X159993114Y-88125104D02*
X161264600Y-89396590D01*
X159993114Y-87057520D02*
X159993114Y-88125104D01*
X157349930Y-85266031D02*
X158204597Y-85266031D01*
X156961021Y-85654940D02*
X157349930Y-85266031D01*
%TO.N,/XTAL_IN*%
X156476468Y-87674660D02*
X158175104Y-89373296D01*
X156474979Y-87674660D02*
X156476468Y-87674660D01*
%TO.N,/MCU_OSC_OUT*%
X160861400Y-90227999D02*
X160861400Y-89563600D01*
X161296046Y-90662645D02*
X160861400Y-90227999D01*
X160861400Y-89563600D02*
X159826104Y-88528304D01*
X159826104Y-88528304D02*
X159020096Y-88528304D01*
D65*
%TO.N,/AN2*%
X195580000Y-106045000D02*
X189350000Y-106045000D01*
X199136000Y-104060000D02*
X197565000Y-104060000D01*
X186810000Y-103505000D02*
X185760000Y-103505000D01*
X189350000Y-106045000D02*
X186810000Y-103505000D01*
X197565000Y-104060000D02*
X195580000Y-106045000D01*
D66*
%TO.N,/AN3*%
X187147200Y-104596608D02*
X187147200Y-105613200D01*
X187147200Y-105613200D02*
X188772800Y-107238800D01*
X186555592Y-104005000D02*
X187147200Y-104596608D01*
X188772800Y-107238800D02*
X197176400Y-107238800D01*
X185760000Y-104005000D02*
X186555592Y-104005000D01*
X197176400Y-107238800D02*
X198170800Y-106244400D01*
D65*
%TO.N,Net-(U1-VCAP1)*%
X161911323Y-97383600D02*
X159594154Y-97383600D01*
X159594154Y-97383600D02*
X158524377Y-98453377D01*
X162356706Y-96938217D02*
X161911323Y-97383600D01*
D67*
%TO.N,/STM32_RESET*%
X154495500Y-81013300D02*
X153878400Y-80396200D01*
X160260300Y-90334005D02*
X160942493Y-91016198D01*
X160260300Y-90144600D02*
X160260300Y-90334005D01*
X151270139Y-80396200D02*
X148343939Y-77470000D01*
X148343939Y-77470000D02*
X145796000Y-77470000D01*
X153878400Y-80396200D02*
X151270139Y-80396200D01*
X145796000Y-77470000D02*
X143510000Y-75184000D01*
D66*
%TO.N,Net-(J10-Pin_2)*%
X181356000Y-80010000D02*
X186476000Y-80010000D01*
X180086000Y-81280000D02*
X181356000Y-80010000D01*
X180086000Y-81280000D02*
X180063478Y-81280000D01*
X186476000Y-80010000D02*
X197612000Y-68874000D01*
X180063478Y-81280000D02*
X177671876Y-83671602D01*
%TO.N,Net-(J11-Pin_2)*%
X193294000Y-80772000D02*
X196576000Y-77490000D01*
X181864000Y-80772000D02*
X193294000Y-80772000D01*
X178953235Y-83682765D02*
X181864000Y-80772000D01*
X178953235Y-84698765D02*
X178953235Y-83682765D01*
X196576000Y-77490000D02*
X197820000Y-77490000D01*
%TO.N,/Brew_Switch*%
X167571619Y-92430412D02*
X171610031Y-88392000D01*
X172996522Y-88392000D02*
X176404124Y-84984398D01*
X171610031Y-88392000D02*
X172996522Y-88392000D01*
%TO.N,/Steam_Switch*%
X171555137Y-89154000D02*
X174498000Y-89154000D01*
X174498000Y-89154000D02*
X177662765Y-85989235D01*
X167925172Y-92783965D02*
X171555137Y-89154000D01*
D67*
%TO.N,/POSB*%
X196382000Y-91400000D02*
X193167000Y-94615000D01*
X193167000Y-94615000D02*
X190430000Y-94615000D01*
X198043800Y-91400000D02*
X196382000Y-91400000D01*
D65*
%TO.N,/NEGB*%
X182420900Y-92913200D02*
X182090700Y-92583000D01*
D66*
X189067500Y-92760800D02*
X189651700Y-93345000D01*
D65*
X183743600Y-92913200D02*
X182420900Y-92913200D01*
D66*
X189651700Y-93345000D02*
X190430000Y-93345000D01*
D65*
X190430000Y-92075000D02*
X190430000Y-93345000D01*
D66*
%TO.N,Net-(U2-VDD)*%
X183874500Y-101600000D02*
X183874500Y-103621836D01*
X184757664Y-104505000D02*
X185760000Y-104505000D01*
D67*
X183874500Y-99090500D02*
X183874500Y-101600000D01*
X183905000Y-99060000D02*
X183874500Y-99090500D01*
D66*
X183874500Y-103621836D02*
X184757664Y-104505000D01*
%TO.N,Net-(U6-VREF)*%
X183950000Y-88700000D02*
X184302400Y-89052400D01*
X183950000Y-87506800D02*
X183950000Y-88700000D01*
X184302400Y-89052400D02*
X185625100Y-89052400D01*
%TD*%
M02*
