%TF.GenerationSoftware,KiCad,Pcbnew,7.0.9*%
%TF.CreationDate,2024-10-09T10:00:49+02:00*%
%TF.ProjectId,_ramk_r V2,c172616d-6bf6-4722-9056-322e6b696361,rev?*%
%TF.SameCoordinates,Original*%
%TF.FileFunction,Soldermask,Bot*%
%TF.FilePolarity,Negative*%
%FSLAX46Y46*%
G04 Gerber Fmt 4.6, Leading zero omitted, Abs format (unit mm)*
G04 Created by KiCad (PCBNEW 7.0.9) date 2024-10-09 10:00:49*
%MOMM*%
%LPD*%
G01*
G04 APERTURE LIST*
G04 Aperture macros list*
%AMRoundRect*
0 Rectangle with rounded corners*
0 $1 Rounding radius*
0 $2 $3 $4 $5 $6 $7 $8 $9 X,Y pos of 4 corners*
0 Add a 4 corners polygon primitive as box body*
4,1,4,$2,$3,$4,$5,$6,$7,$8,$9,$2,$3,0*
0 Add four circle primitives for the rounded corners*
1,1,$1+$1,$2,$3*
1,1,$1+$1,$4,$5*
1,1,$1+$1,$6,$7*
1,1,$1+$1,$8,$9*
0 Add four rect primitives between the rounded corners*
20,1,$1+$1,$2,$3,$4,$5,0*
20,1,$1+$1,$4,$5,$6,$7,0*
20,1,$1+$1,$6,$7,$8,$9,0*
20,1,$1+$1,$8,$9,$2,$3,0*%
G04 Aperture macros list end*
%ADD10C,1.712000*%
%ADD11RoundRect,0.102000X-0.754000X-0.754000X0.754000X-0.754000X0.754000X0.754000X-0.754000X0.754000X0*%
%ADD12C,2.750000*%
%ADD13RoundRect,0.250000X0.725000X-0.600000X0.725000X0.600000X-0.725000X0.600000X-0.725000X-0.600000X0*%
%ADD14O,1.950000X1.700000*%
%ADD15RoundRect,0.102000X1.050000X1.050000X-1.050000X1.050000X-1.050000X-1.050000X1.050000X-1.050000X0*%
%ADD16C,2.154000*%
%ADD17RoundRect,0.250000X0.750000X-0.600000X0.750000X0.600000X-0.750000X0.600000X-0.750000X-0.600000X0*%
%ADD18O,2.000000X1.700000*%
%ADD19RoundRect,0.250000X1.550000X-0.650000X1.550000X0.650000X-1.550000X0.650000X-1.550000X-0.650000X0*%
%ADD20O,3.600000X1.800000*%
%ADD21C,3.800000*%
%ADD22R,1.350000X1.350000*%
%ADD23O,1.350000X1.350000*%
%ADD24RoundRect,0.250000X-0.600000X-0.725000X0.600000X-0.725000X0.600000X0.725000X-0.600000X0.725000X0*%
%ADD25O,1.700000X1.950000*%
%ADD26RoundRect,0.250000X-0.600000X-0.750000X0.600000X-0.750000X0.600000X0.750000X-0.600000X0.750000X0*%
%ADD27O,1.700000X2.000000*%
%ADD28C,2.064000*%
G04 APERTURE END LIST*
D10*
%TO.C,U5*%
X179070000Y-75184000D03*
X179070000Y-72644000D03*
X176530000Y-75184000D03*
X176530000Y-72644000D03*
X173990000Y-75184000D03*
X173990000Y-72644000D03*
X171450000Y-75184000D03*
X171450000Y-72644000D03*
X168910000Y-75184000D03*
X168910000Y-72644000D03*
X166370000Y-75184000D03*
X166370000Y-72644000D03*
X163830000Y-75184000D03*
X163830000Y-72644000D03*
X161290000Y-75184000D03*
X161290000Y-72644000D03*
X158750000Y-75184000D03*
X158750000Y-72644000D03*
X156210000Y-75184000D03*
X156210000Y-72644000D03*
X153670000Y-75184000D03*
X153670000Y-72644000D03*
X151130000Y-75184000D03*
X151130000Y-72644000D03*
X148590000Y-75184000D03*
X148590000Y-72644000D03*
X146050000Y-75184000D03*
X146050000Y-72644000D03*
X143510000Y-75184000D03*
X143510000Y-72644000D03*
X140970000Y-75184000D03*
X140970000Y-72644000D03*
X138430000Y-75184000D03*
X138430000Y-72644000D03*
X135890000Y-75184000D03*
X135890000Y-72644000D03*
X133350000Y-75184000D03*
X133350000Y-72644000D03*
X130810000Y-75184000D03*
D11*
X130810000Y-72644000D03*
D12*
X183940000Y-73914000D03*
X183940000Y-50914000D03*
X125940000Y-73914000D03*
X125940000Y-50914000D03*
%TD*%
D13*
%TO.C,J6*%
X198043800Y-91400000D03*
D14*
X198043800Y-88900000D03*
X198043800Y-86400000D03*
%TD*%
D15*
%TO.C,S1*%
X110220000Y-57650000D03*
D16*
X108220000Y-51650000D03*
X96020000Y-51650000D03*
X96020000Y-63650000D03*
X108220000Y-63650000D03*
%TD*%
D17*
%TO.C,J11*%
X197820000Y-79990000D03*
D18*
X197820000Y-77490000D03*
%TD*%
D19*
%TO.C,J3*%
X89662000Y-62720500D03*
D20*
X89662000Y-57640500D03*
%TD*%
D13*
%TO.C,J1*%
X198170800Y-106244400D03*
D14*
X198170800Y-103744400D03*
X198170800Y-101244400D03*
X198170800Y-98744400D03*
%TD*%
D21*
%TO.C,H2*%
X197860000Y-50610000D03*
%TD*%
D17*
%TO.C,J10*%
X197612000Y-71374000D03*
D18*
X197612000Y-68874000D03*
%TD*%
D21*
%TO.C,H1*%
X87630000Y-50139600D03*
%TD*%
D17*
%TO.C,J4*%
X197460000Y-62670000D03*
D18*
X197460000Y-60170000D03*
%TD*%
D22*
%TO.C,J9*%
X176006000Y-91440000D03*
D23*
X174006000Y-91440000D03*
%TD*%
D21*
%TO.C,H3*%
X181559200Y-106908600D03*
%TD*%
D19*
%TO.C,J2*%
X89591700Y-75826900D03*
D20*
X89591700Y-70746900D03*
%TD*%
D24*
%TO.C,J7*%
X166370000Y-106426000D03*
D25*
X168870000Y-106426000D03*
X171370000Y-106426000D03*
X173870000Y-106426000D03*
X176370000Y-106426000D03*
%TD*%
D26*
%TO.C,J5*%
X143550000Y-106476800D03*
D27*
X146050000Y-106476800D03*
%TD*%
D24*
%TO.C,J8*%
X152520000Y-106426000D03*
D25*
X155020000Y-106426000D03*
X157520000Y-106426000D03*
X160020000Y-106426000D03*
%TD*%
D28*
%TO.C,PS1*%
X133452000Y-97904000D03*
X133452000Y-105904000D03*
X88452000Y-85104000D03*
X88452000Y-105904000D03*
%TD*%
M02*
