%TF.GenerationSoftware,KiCad,Pcbnew,7.0.9*%
%TF.CreationDate,2024-09-23T19:58:59+02:00*%
%TF.ProjectId,SmartCaso,536d6172-7443-4617-936f-2e6b69636164,rev?*%
%TF.SameCoordinates,Original*%
%TF.FileFunction,Legend,Top*%
%TF.FilePolarity,Positive*%
%FSLAX46Y46*%
G04 Gerber Fmt 4.6, Leading zero omitted, Abs format (unit mm)*
G04 Created by KiCad (PCBNEW 7.0.9) date 2024-09-23 19:58:59*
%MOMM*%
%LPD*%
G01*
G04 APERTURE LIST*
%ADD10C,0.200000*%
%ADD11C,0.150000*%
%ADD12C,0.127000*%
%ADD13C,0.120000*%
%ADD14C,0.152400*%
G04 APERTURE END LIST*
D10*
G36*
X52689648Y-87807749D02*
G01*
X52738128Y-87856229D01*
X52791742Y-87963456D01*
X52791742Y-88411279D01*
X52206028Y-88411279D01*
X52206028Y-87963458D01*
X52259644Y-87856226D01*
X52308120Y-87807749D01*
X52415349Y-87754136D01*
X52582421Y-87754136D01*
X52689648Y-87807749D01*
G37*
G36*
X53285407Y-83819915D02*
G01*
X53403937Y-83879181D01*
X53452414Y-83927657D01*
X53506028Y-84034885D01*
X53506028Y-84130529D01*
X53452413Y-84237758D01*
X53403937Y-84286234D01*
X53285407Y-84345500D01*
X53022291Y-84411279D01*
X52689766Y-84411279D01*
X52426647Y-84345500D01*
X52308119Y-84286235D01*
X52259642Y-84237757D01*
X52206028Y-84130529D01*
X52206028Y-84034887D01*
X52259643Y-83927657D01*
X52308119Y-83879180D01*
X52426646Y-83819916D01*
X52689766Y-83754136D01*
X53022290Y-83754136D01*
X53285407Y-83819915D01*
G37*
G36*
X53285407Y-82391344D02*
G01*
X53403937Y-82450610D01*
X53452414Y-82499086D01*
X53506028Y-82606314D01*
X53506028Y-82701958D01*
X53452413Y-82809187D01*
X53403937Y-82857663D01*
X53285407Y-82916929D01*
X53022291Y-82982708D01*
X52689766Y-82982708D01*
X52426647Y-82916929D01*
X52308119Y-82857664D01*
X52259642Y-82809186D01*
X52206028Y-82701958D01*
X52206028Y-82606316D01*
X52259643Y-82499086D01*
X52308119Y-82450609D01*
X52426646Y-82391345D01*
X52689766Y-82325565D01*
X53022290Y-82325565D01*
X53285407Y-82391344D01*
G37*
G36*
X53920314Y-88825565D02*
G01*
X51791742Y-88825565D01*
X51791742Y-88511279D01*
X52006028Y-88511279D01*
X52010922Y-88526341D01*
X52010922Y-88542181D01*
X52020231Y-88554994D01*
X52025126Y-88570058D01*
X52037939Y-88579367D01*
X52047249Y-88592181D01*
X52062312Y-88597075D01*
X52075126Y-88606385D01*
X52090965Y-88606385D01*
X52106028Y-88611279D01*
X53606028Y-88611279D01*
X53664807Y-88592181D01*
X53701134Y-88542181D01*
X53701134Y-88480377D01*
X53664807Y-88430377D01*
X53606028Y-88411279D01*
X52991742Y-88411279D01*
X52991742Y-87939850D01*
X52984618Y-87917926D01*
X52981185Y-87895129D01*
X52909757Y-87752272D01*
X52898383Y-87740724D01*
X52891025Y-87726282D01*
X52819596Y-87654853D01*
X52805153Y-87647494D01*
X52793606Y-87636121D01*
X52650749Y-87564693D01*
X52627951Y-87561259D01*
X52606028Y-87554136D01*
X52391742Y-87554136D01*
X52369818Y-87561259D01*
X52347021Y-87564693D01*
X52204164Y-87636121D01*
X52192615Y-87647495D01*
X52178174Y-87654854D01*
X52106746Y-87726283D01*
X52099388Y-87740723D01*
X52088014Y-87752272D01*
X52016585Y-87895128D01*
X52013151Y-87917926D01*
X52006028Y-87939850D01*
X52006028Y-88511279D01*
X51791742Y-88511279D01*
X51791742Y-87225564D01*
X52006028Y-87225564D01*
X52025126Y-87284343D01*
X52075126Y-87320670D01*
X52136930Y-87320670D01*
X52186930Y-87284343D01*
X52206028Y-87225564D01*
X52206028Y-86896993D01*
X53606028Y-86896993D01*
X53664807Y-86877895D01*
X53701134Y-86827895D01*
X53701134Y-86766091D01*
X53664807Y-86716091D01*
X53606028Y-86696993D01*
X52206028Y-86696993D01*
X52206028Y-86368422D01*
X52186930Y-86309643D01*
X52136930Y-86273316D01*
X52075126Y-86273316D01*
X52025126Y-86309643D01*
X52006028Y-86368422D01*
X52006028Y-87225564D01*
X51791742Y-87225564D01*
X51791742Y-85484236D01*
X52009754Y-85484236D01*
X52010922Y-85513191D01*
X52010922Y-85542181D01*
X52012160Y-85543885D01*
X52012245Y-85545989D01*
X52030206Y-85568723D01*
X52047249Y-85592181D01*
X52049252Y-85592832D01*
X52050558Y-85594484D01*
X52256603Y-85731847D01*
X52380984Y-85856227D01*
X52445157Y-85984571D01*
X52488526Y-86028604D01*
X52549493Y-86038735D01*
X52604772Y-86011095D01*
X52633248Y-85956243D01*
X52624043Y-85895128D01*
X52552614Y-85752271D01*
X52541238Y-85740721D01*
X52533881Y-85726282D01*
X52418879Y-85611279D01*
X53506028Y-85611279D01*
X53506028Y-85939850D01*
X53525126Y-85998629D01*
X53575126Y-86034956D01*
X53636930Y-86034956D01*
X53686930Y-85998629D01*
X53706028Y-85939850D01*
X53706028Y-85082707D01*
X53686930Y-85023928D01*
X53636930Y-84987601D01*
X53575126Y-84987601D01*
X53525126Y-85023928D01*
X53506028Y-85082707D01*
X53506028Y-85411279D01*
X52106028Y-85411279D01*
X52104025Y-85411929D01*
X52101997Y-85411360D01*
X52074812Y-85421421D01*
X52047249Y-85430377D01*
X52046010Y-85432081D01*
X52044036Y-85432812D01*
X52027962Y-85456922D01*
X52010922Y-85480377D01*
X52010922Y-85482483D01*
X52009754Y-85484236D01*
X51791742Y-85484236D01*
X51791742Y-84154136D01*
X52006028Y-84154136D01*
X52013151Y-84176059D01*
X52016585Y-84198857D01*
X52088014Y-84341715D01*
X52099387Y-84353262D01*
X52106746Y-84367705D01*
X52178174Y-84439132D01*
X52192613Y-84446489D01*
X52204163Y-84457865D01*
X52347020Y-84529294D01*
X52358042Y-84530954D01*
X52367489Y-84536865D01*
X52653204Y-84608293D01*
X52665619Y-84607432D01*
X52677457Y-84611279D01*
X53034600Y-84611279D01*
X53046437Y-84607432D01*
X53058853Y-84608293D01*
X53344567Y-84536865D01*
X53354013Y-84530954D01*
X53365036Y-84529294D01*
X53507892Y-84457865D01*
X53519440Y-84446490D01*
X53533881Y-84439133D01*
X53605310Y-84367705D01*
X53612668Y-84353264D01*
X53624043Y-84341715D01*
X53695471Y-84198857D01*
X53698904Y-84176059D01*
X53706028Y-84154136D01*
X53706028Y-84011279D01*
X53698904Y-83989355D01*
X53695471Y-83966558D01*
X53624043Y-83823701D01*
X53612668Y-83812152D01*
X53605310Y-83797711D01*
X53533881Y-83726283D01*
X53519440Y-83718925D01*
X53507892Y-83707551D01*
X53365036Y-83636122D01*
X53354012Y-83634461D01*
X53344567Y-83628551D01*
X53058854Y-83557122D01*
X53046437Y-83557982D01*
X53034600Y-83554136D01*
X52677457Y-83554136D01*
X52665619Y-83557982D01*
X52653203Y-83557122D01*
X52367488Y-83628551D01*
X52358041Y-83634461D01*
X52347020Y-83636122D01*
X52204163Y-83707551D01*
X52192613Y-83718926D01*
X52178174Y-83726284D01*
X52106746Y-83797711D01*
X52099387Y-83812153D01*
X52088014Y-83823701D01*
X52016585Y-83966557D01*
X52013151Y-83989355D01*
X52006028Y-84011279D01*
X52006028Y-84154136D01*
X51791742Y-84154136D01*
X51791742Y-82725565D01*
X52006028Y-82725565D01*
X52013151Y-82747488D01*
X52016585Y-82770286D01*
X52088014Y-82913144D01*
X52099387Y-82924691D01*
X52106746Y-82939134D01*
X52178174Y-83010561D01*
X52192613Y-83017918D01*
X52204163Y-83029294D01*
X52347020Y-83100723D01*
X52358042Y-83102383D01*
X52367489Y-83108294D01*
X52653204Y-83179722D01*
X52665619Y-83178861D01*
X52677457Y-83182708D01*
X53034600Y-83182708D01*
X53046437Y-83178861D01*
X53058853Y-83179722D01*
X53344567Y-83108294D01*
X53354013Y-83102383D01*
X53365036Y-83100723D01*
X53507892Y-83029294D01*
X53519440Y-83017919D01*
X53533881Y-83010562D01*
X53605310Y-82939134D01*
X53612668Y-82924693D01*
X53624043Y-82913144D01*
X53695471Y-82770286D01*
X53698904Y-82747488D01*
X53706028Y-82725565D01*
X53706028Y-82582708D01*
X53698904Y-82560784D01*
X53695471Y-82537987D01*
X53624043Y-82395130D01*
X53612668Y-82383581D01*
X53605310Y-82369140D01*
X53533881Y-82297712D01*
X53519440Y-82290354D01*
X53507892Y-82278980D01*
X53365036Y-82207551D01*
X53354012Y-82205890D01*
X53344567Y-82199980D01*
X53058854Y-82128551D01*
X53046437Y-82129411D01*
X53034600Y-82125565D01*
X52677457Y-82125565D01*
X52665619Y-82129411D01*
X52653203Y-82128551D01*
X52367488Y-82199980D01*
X52358041Y-82205890D01*
X52347020Y-82207551D01*
X52204163Y-82278980D01*
X52192613Y-82290355D01*
X52178174Y-82297713D01*
X52106746Y-82369140D01*
X52099387Y-82383582D01*
X52088014Y-82395130D01*
X52016585Y-82537986D01*
X52013151Y-82560784D01*
X52006028Y-82582708D01*
X52006028Y-82725565D01*
X51791742Y-82725565D01*
X51791742Y-81911279D01*
X53920314Y-81911279D01*
X53920314Y-88825565D01*
G37*
D11*
X155957142Y-65854819D02*
X155623809Y-65378628D01*
X155385714Y-65854819D02*
X155385714Y-64854819D01*
X155385714Y-64854819D02*
X155766666Y-64854819D01*
X155766666Y-64854819D02*
X155861904Y-64902438D01*
X155861904Y-64902438D02*
X155909523Y-64950057D01*
X155909523Y-64950057D02*
X155957142Y-65045295D01*
X155957142Y-65045295D02*
X155957142Y-65188152D01*
X155957142Y-65188152D02*
X155909523Y-65283390D01*
X155909523Y-65283390D02*
X155861904Y-65331009D01*
X155861904Y-65331009D02*
X155766666Y-65378628D01*
X155766666Y-65378628D02*
X155385714Y-65378628D01*
X156909523Y-65854819D02*
X156338095Y-65854819D01*
X156623809Y-65854819D02*
X156623809Y-64854819D01*
X156623809Y-64854819D02*
X156528571Y-64997676D01*
X156528571Y-64997676D02*
X156433333Y-65092914D01*
X156433333Y-65092914D02*
X156338095Y-65140533D01*
X157528571Y-64854819D02*
X157623809Y-64854819D01*
X157623809Y-64854819D02*
X157719047Y-64902438D01*
X157719047Y-64902438D02*
X157766666Y-64950057D01*
X157766666Y-64950057D02*
X157814285Y-65045295D01*
X157814285Y-65045295D02*
X157861904Y-65235771D01*
X157861904Y-65235771D02*
X157861904Y-65473866D01*
X157861904Y-65473866D02*
X157814285Y-65664342D01*
X157814285Y-65664342D02*
X157766666Y-65759580D01*
X157766666Y-65759580D02*
X157719047Y-65807200D01*
X157719047Y-65807200D02*
X157623809Y-65854819D01*
X157623809Y-65854819D02*
X157528571Y-65854819D01*
X157528571Y-65854819D02*
X157433333Y-65807200D01*
X157433333Y-65807200D02*
X157385714Y-65759580D01*
X157385714Y-65759580D02*
X157338095Y-65664342D01*
X157338095Y-65664342D02*
X157290476Y-65473866D01*
X157290476Y-65473866D02*
X157290476Y-65235771D01*
X157290476Y-65235771D02*
X157338095Y-65045295D01*
X157338095Y-65045295D02*
X157385714Y-64950057D01*
X157385714Y-64950057D02*
X157433333Y-64902438D01*
X157433333Y-64902438D02*
X157528571Y-64854819D01*
X171433333Y-66254819D02*
X171100000Y-65778628D01*
X170861905Y-66254819D02*
X170861905Y-65254819D01*
X170861905Y-65254819D02*
X171242857Y-65254819D01*
X171242857Y-65254819D02*
X171338095Y-65302438D01*
X171338095Y-65302438D02*
X171385714Y-65350057D01*
X171385714Y-65350057D02*
X171433333Y-65445295D01*
X171433333Y-65445295D02*
X171433333Y-65588152D01*
X171433333Y-65588152D02*
X171385714Y-65683390D01*
X171385714Y-65683390D02*
X171338095Y-65731009D01*
X171338095Y-65731009D02*
X171242857Y-65778628D01*
X171242857Y-65778628D02*
X170861905Y-65778628D01*
X172004762Y-65683390D02*
X171909524Y-65635771D01*
X171909524Y-65635771D02*
X171861905Y-65588152D01*
X171861905Y-65588152D02*
X171814286Y-65492914D01*
X171814286Y-65492914D02*
X171814286Y-65445295D01*
X171814286Y-65445295D02*
X171861905Y-65350057D01*
X171861905Y-65350057D02*
X171909524Y-65302438D01*
X171909524Y-65302438D02*
X172004762Y-65254819D01*
X172004762Y-65254819D02*
X172195238Y-65254819D01*
X172195238Y-65254819D02*
X172290476Y-65302438D01*
X172290476Y-65302438D02*
X172338095Y-65350057D01*
X172338095Y-65350057D02*
X172385714Y-65445295D01*
X172385714Y-65445295D02*
X172385714Y-65492914D01*
X172385714Y-65492914D02*
X172338095Y-65588152D01*
X172338095Y-65588152D02*
X172290476Y-65635771D01*
X172290476Y-65635771D02*
X172195238Y-65683390D01*
X172195238Y-65683390D02*
X172004762Y-65683390D01*
X172004762Y-65683390D02*
X171909524Y-65731009D01*
X171909524Y-65731009D02*
X171861905Y-65778628D01*
X171861905Y-65778628D02*
X171814286Y-65873866D01*
X171814286Y-65873866D02*
X171814286Y-66064342D01*
X171814286Y-66064342D02*
X171861905Y-66159580D01*
X171861905Y-66159580D02*
X171909524Y-66207200D01*
X171909524Y-66207200D02*
X172004762Y-66254819D01*
X172004762Y-66254819D02*
X172195238Y-66254819D01*
X172195238Y-66254819D02*
X172290476Y-66207200D01*
X172290476Y-66207200D02*
X172338095Y-66159580D01*
X172338095Y-66159580D02*
X172385714Y-66064342D01*
X172385714Y-66064342D02*
X172385714Y-65873866D01*
X172385714Y-65873866D02*
X172338095Y-65778628D01*
X172338095Y-65778628D02*
X172290476Y-65731009D01*
X172290476Y-65731009D02*
X172195238Y-65683390D01*
D10*
G36*
X54669337Y-115537144D02*
G01*
X54717814Y-115585620D01*
X54771428Y-115692848D01*
X54771428Y-115859921D01*
X54717814Y-115967148D01*
X54669334Y-116015628D01*
X54562107Y-116069242D01*
X54114285Y-116069242D01*
X54114285Y-115483528D01*
X54562106Y-115483528D01*
X54669337Y-115537144D01*
G37*
G36*
X51455051Y-115537144D02*
G01*
X51503528Y-115585620D01*
X51557142Y-115692848D01*
X51557142Y-115859921D01*
X51503528Y-115967148D01*
X51455048Y-116015628D01*
X51347821Y-116069242D01*
X50899999Y-116069242D01*
X50899999Y-115483528D01*
X51347820Y-115483528D01*
X51455051Y-115537144D01*
G37*
G36*
X55185714Y-117197671D02*
G01*
X50485713Y-117197671D01*
X50485713Y-116883528D01*
X50699999Y-116883528D01*
X50719097Y-116942307D01*
X50769097Y-116978634D01*
X50830901Y-116978634D01*
X50880901Y-116942307D01*
X50899999Y-116883528D01*
X50899999Y-116269242D01*
X51371428Y-116269242D01*
X51393351Y-116262118D01*
X51416149Y-116258685D01*
X51559006Y-116187257D01*
X51570553Y-116175883D01*
X51584996Y-116168525D01*
X51656425Y-116097096D01*
X51663783Y-116082653D01*
X51675157Y-116071106D01*
X51746585Y-115928249D01*
X51750018Y-115905451D01*
X51757142Y-115883528D01*
X51757142Y-115669242D01*
X51750018Y-115647318D01*
X51746585Y-115624521D01*
X51675157Y-115481664D01*
X51663782Y-115470115D01*
X51656424Y-115455674D01*
X51607439Y-115406690D01*
X52059861Y-115406690D01*
X52417004Y-116906690D01*
X52420600Y-116912583D01*
X52420970Y-116919477D01*
X52436422Y-116938513D01*
X52449197Y-116959447D01*
X52455570Y-116962101D01*
X52459921Y-116967460D01*
X52483613Y-116973778D01*
X52506252Y-116983205D01*
X52512967Y-116981606D01*
X52519638Y-116983385D01*
X52542522Y-116974569D01*
X52566375Y-116968890D01*
X52570867Y-116963649D01*
X52577310Y-116961168D01*
X52590639Y-116940587D01*
X52606601Y-116921970D01*
X52607155Y-116915087D01*
X52610908Y-116909294D01*
X52799999Y-116200202D01*
X52989090Y-116909294D01*
X52992843Y-116915088D01*
X52993398Y-116921970D01*
X53009357Y-116940585D01*
X53022689Y-116961168D01*
X53029131Y-116963649D01*
X53033624Y-116968890D01*
X53057476Y-116974569D01*
X53080361Y-116983385D01*
X53087031Y-116981606D01*
X53093747Y-116983205D01*
X53116385Y-116973778D01*
X53140078Y-116967460D01*
X53144428Y-116962101D01*
X53150802Y-116959447D01*
X53163576Y-116938513D01*
X53179029Y-116919477D01*
X53179398Y-116912583D01*
X53182995Y-116906690D01*
X53188510Y-116883528D01*
X53914285Y-116883528D01*
X53933383Y-116942307D01*
X53983383Y-116978634D01*
X54045187Y-116978634D01*
X54095187Y-116942307D01*
X54114285Y-116883528D01*
X54114285Y-116269242D01*
X54319363Y-116269242D01*
X54789505Y-116940874D01*
X54838858Y-116978076D01*
X54900652Y-116979163D01*
X54951284Y-116943721D01*
X54971413Y-116885287D01*
X54953351Y-116826182D01*
X54563493Y-116269242D01*
X54585714Y-116269242D01*
X54607637Y-116262118D01*
X54630435Y-116258685D01*
X54773292Y-116187257D01*
X54784839Y-116175883D01*
X54799282Y-116168525D01*
X54870711Y-116097096D01*
X54878069Y-116082653D01*
X54889443Y-116071106D01*
X54960871Y-115928249D01*
X54964304Y-115905451D01*
X54971428Y-115883528D01*
X54971428Y-115669242D01*
X54964304Y-115647318D01*
X54960871Y-115624521D01*
X54889443Y-115481664D01*
X54878068Y-115470115D01*
X54870710Y-115455674D01*
X54799281Y-115384246D01*
X54784840Y-115376888D01*
X54773292Y-115365514D01*
X54630436Y-115294085D01*
X54607637Y-115290651D01*
X54585714Y-115283528D01*
X54014285Y-115283528D01*
X53999222Y-115288422D01*
X53983383Y-115288422D01*
X53970569Y-115297731D01*
X53955506Y-115302626D01*
X53946196Y-115315439D01*
X53933383Y-115324749D01*
X53928488Y-115339812D01*
X53919179Y-115352626D01*
X53919179Y-115368465D01*
X53914285Y-115383528D01*
X53914285Y-116883528D01*
X53188510Y-116883528D01*
X53540138Y-115406690D01*
X53535173Y-115345086D01*
X53494947Y-115298166D01*
X53434824Y-115283851D01*
X53377769Y-115307609D01*
X53345576Y-115360366D01*
X53080224Y-116474841D01*
X52896622Y-115786334D01*
X52893610Y-115781684D01*
X52893314Y-115776151D01*
X52877050Y-115756116D01*
X52863024Y-115734460D01*
X52857853Y-115732468D01*
X52854363Y-115728168D01*
X52829433Y-115721519D01*
X52805352Y-115712243D01*
X52799999Y-115713670D01*
X52794646Y-115712243D01*
X52770564Y-115721519D01*
X52745635Y-115728168D01*
X52742144Y-115732468D01*
X52736974Y-115734460D01*
X52722950Y-115756112D01*
X52706683Y-115776151D01*
X52706386Y-115781686D01*
X52703376Y-115786334D01*
X52519774Y-116474840D01*
X52254423Y-115360366D01*
X52222230Y-115307609D01*
X52165175Y-115283851D01*
X52105052Y-115298166D01*
X52064826Y-115345086D01*
X52059861Y-115406690D01*
X51607439Y-115406690D01*
X51584995Y-115384246D01*
X51570554Y-115376888D01*
X51559006Y-115365514D01*
X51416150Y-115294085D01*
X51393351Y-115290651D01*
X51371428Y-115283528D01*
X50799999Y-115283528D01*
X50784936Y-115288422D01*
X50769097Y-115288422D01*
X50756283Y-115297731D01*
X50741220Y-115302626D01*
X50731910Y-115315439D01*
X50719097Y-115324749D01*
X50714202Y-115339812D01*
X50704893Y-115352626D01*
X50704893Y-115368465D01*
X50699999Y-115383528D01*
X50699999Y-116883528D01*
X50485713Y-116883528D01*
X50485713Y-115069242D01*
X55185714Y-115069242D01*
X55185714Y-117197671D01*
G37*
D11*
X57439580Y-73804166D02*
X57487200Y-73851785D01*
X57487200Y-73851785D02*
X57534819Y-73994642D01*
X57534819Y-73994642D02*
X57534819Y-74089880D01*
X57534819Y-74089880D02*
X57487200Y-74232737D01*
X57487200Y-74232737D02*
X57391961Y-74327975D01*
X57391961Y-74327975D02*
X57296723Y-74375594D01*
X57296723Y-74375594D02*
X57106247Y-74423213D01*
X57106247Y-74423213D02*
X56963390Y-74423213D01*
X56963390Y-74423213D02*
X56772914Y-74375594D01*
X56772914Y-74375594D02*
X56677676Y-74327975D01*
X56677676Y-74327975D02*
X56582438Y-74232737D01*
X56582438Y-74232737D02*
X56534819Y-74089880D01*
X56534819Y-74089880D02*
X56534819Y-73994642D01*
X56534819Y-73994642D02*
X56582438Y-73851785D01*
X56582438Y-73851785D02*
X56630057Y-73804166D01*
X56534819Y-72947023D02*
X56534819Y-73137499D01*
X56534819Y-73137499D02*
X56582438Y-73232737D01*
X56582438Y-73232737D02*
X56630057Y-73280356D01*
X56630057Y-73280356D02*
X56772914Y-73375594D01*
X56772914Y-73375594D02*
X56963390Y-73423213D01*
X56963390Y-73423213D02*
X57344342Y-73423213D01*
X57344342Y-73423213D02*
X57439580Y-73375594D01*
X57439580Y-73375594D02*
X57487200Y-73327975D01*
X57487200Y-73327975D02*
X57534819Y-73232737D01*
X57534819Y-73232737D02*
X57534819Y-73042261D01*
X57534819Y-73042261D02*
X57487200Y-72947023D01*
X57487200Y-72947023D02*
X57439580Y-72899404D01*
X57439580Y-72899404D02*
X57344342Y-72851785D01*
X57344342Y-72851785D02*
X57106247Y-72851785D01*
X57106247Y-72851785D02*
X57011009Y-72899404D01*
X57011009Y-72899404D02*
X56963390Y-72947023D01*
X56963390Y-72947023D02*
X56915771Y-73042261D01*
X56915771Y-73042261D02*
X56915771Y-73232737D01*
X56915771Y-73232737D02*
X56963390Y-73327975D01*
X56963390Y-73327975D02*
X57011009Y-73375594D01*
X57011009Y-73375594D02*
X57106247Y-73423213D01*
X148454819Y-88894094D02*
X147454819Y-88894094D01*
X147454819Y-88894094D02*
X147454819Y-88655999D01*
X147454819Y-88655999D02*
X147502438Y-88513142D01*
X147502438Y-88513142D02*
X147597676Y-88417904D01*
X147597676Y-88417904D02*
X147692914Y-88370285D01*
X147692914Y-88370285D02*
X147883390Y-88322666D01*
X147883390Y-88322666D02*
X148026247Y-88322666D01*
X148026247Y-88322666D02*
X148216723Y-88370285D01*
X148216723Y-88370285D02*
X148311961Y-88417904D01*
X148311961Y-88417904D02*
X148407200Y-88513142D01*
X148407200Y-88513142D02*
X148454819Y-88655999D01*
X148454819Y-88655999D02*
X148454819Y-88894094D01*
X148454819Y-87370285D02*
X148454819Y-87941713D01*
X148454819Y-87655999D02*
X147454819Y-87655999D01*
X147454819Y-87655999D02*
X147597676Y-87751237D01*
X147597676Y-87751237D02*
X147692914Y-87846475D01*
X147692914Y-87846475D02*
X147740533Y-87941713D01*
X148216819Y-84607904D02*
X147216819Y-84607904D01*
X148216819Y-84036476D02*
X147645390Y-84465047D01*
X147216819Y-84036476D02*
X147788247Y-84607904D01*
X64751819Y-82680904D02*
X65561342Y-82680904D01*
X65561342Y-82680904D02*
X65656580Y-82633285D01*
X65656580Y-82633285D02*
X65704200Y-82585666D01*
X65704200Y-82585666D02*
X65751819Y-82490428D01*
X65751819Y-82490428D02*
X65751819Y-82299952D01*
X65751819Y-82299952D02*
X65704200Y-82204714D01*
X65704200Y-82204714D02*
X65656580Y-82157095D01*
X65656580Y-82157095D02*
X65561342Y-82109476D01*
X65561342Y-82109476D02*
X64751819Y-82109476D01*
X64751819Y-81204714D02*
X64751819Y-81395190D01*
X64751819Y-81395190D02*
X64799438Y-81490428D01*
X64799438Y-81490428D02*
X64847057Y-81538047D01*
X64847057Y-81538047D02*
X64989914Y-81633285D01*
X64989914Y-81633285D02*
X65180390Y-81680904D01*
X65180390Y-81680904D02*
X65561342Y-81680904D01*
X65561342Y-81680904D02*
X65656580Y-81633285D01*
X65656580Y-81633285D02*
X65704200Y-81585666D01*
X65704200Y-81585666D02*
X65751819Y-81490428D01*
X65751819Y-81490428D02*
X65751819Y-81299952D01*
X65751819Y-81299952D02*
X65704200Y-81204714D01*
X65704200Y-81204714D02*
X65656580Y-81157095D01*
X65656580Y-81157095D02*
X65561342Y-81109476D01*
X65561342Y-81109476D02*
X65323247Y-81109476D01*
X65323247Y-81109476D02*
X65228009Y-81157095D01*
X65228009Y-81157095D02*
X65180390Y-81204714D01*
X65180390Y-81204714D02*
X65132771Y-81299952D01*
X65132771Y-81299952D02*
X65132771Y-81490428D01*
X65132771Y-81490428D02*
X65180390Y-81585666D01*
X65180390Y-81585666D02*
X65228009Y-81633285D01*
X65228009Y-81633285D02*
X65323247Y-81680904D01*
X143747905Y-119514819D02*
X143747905Y-118514819D01*
X143747905Y-118514819D02*
X143986000Y-118514819D01*
X143986000Y-118514819D02*
X144128857Y-118562438D01*
X144128857Y-118562438D02*
X144224095Y-118657676D01*
X144224095Y-118657676D02*
X144271714Y-118752914D01*
X144271714Y-118752914D02*
X144319333Y-118943390D01*
X144319333Y-118943390D02*
X144319333Y-119086247D01*
X144319333Y-119086247D02*
X144271714Y-119276723D01*
X144271714Y-119276723D02*
X144224095Y-119371961D01*
X144224095Y-119371961D02*
X144128857Y-119467200D01*
X144128857Y-119467200D02*
X143986000Y-119514819D01*
X143986000Y-119514819D02*
X143747905Y-119514819D01*
X144652667Y-118514819D02*
X145271714Y-118514819D01*
X145271714Y-118514819D02*
X144938381Y-118895771D01*
X144938381Y-118895771D02*
X145081238Y-118895771D01*
X145081238Y-118895771D02*
X145176476Y-118943390D01*
X145176476Y-118943390D02*
X145224095Y-118991009D01*
X145224095Y-118991009D02*
X145271714Y-119086247D01*
X145271714Y-119086247D02*
X145271714Y-119324342D01*
X145271714Y-119324342D02*
X145224095Y-119419580D01*
X145224095Y-119419580D02*
X145176476Y-119467200D01*
X145176476Y-119467200D02*
X145081238Y-119514819D01*
X145081238Y-119514819D02*
X144795524Y-119514819D01*
X144795524Y-119514819D02*
X144700286Y-119467200D01*
X144700286Y-119467200D02*
X144652667Y-119419580D01*
X150239866Y-102066666D02*
X151373200Y-102066666D01*
X151373200Y-102066666D02*
X151506533Y-102000000D01*
X151506533Y-102000000D02*
X151573200Y-101933333D01*
X151573200Y-101933333D02*
X151639866Y-101800000D01*
X151639866Y-101800000D02*
X151639866Y-101533333D01*
X151639866Y-101533333D02*
X151573200Y-101400000D01*
X151573200Y-101400000D02*
X151506533Y-101333333D01*
X151506533Y-101333333D02*
X151373200Y-101266666D01*
X151373200Y-101266666D02*
X150239866Y-101266666D01*
X151639866Y-99866666D02*
X151639866Y-100666666D01*
X151639866Y-100266666D02*
X150239866Y-100266666D01*
X150239866Y-100266666D02*
X150439866Y-100399999D01*
X150439866Y-100399999D02*
X150573200Y-100533333D01*
X150573200Y-100533333D02*
X150639866Y-100666666D01*
X75035580Y-82716666D02*
X75083200Y-82764285D01*
X75083200Y-82764285D02*
X75130819Y-82907142D01*
X75130819Y-82907142D02*
X75130819Y-83002380D01*
X75130819Y-83002380D02*
X75083200Y-83145237D01*
X75083200Y-83145237D02*
X74987961Y-83240475D01*
X74987961Y-83240475D02*
X74892723Y-83288094D01*
X74892723Y-83288094D02*
X74702247Y-83335713D01*
X74702247Y-83335713D02*
X74559390Y-83335713D01*
X74559390Y-83335713D02*
X74368914Y-83288094D01*
X74368914Y-83288094D02*
X74273676Y-83240475D01*
X74273676Y-83240475D02*
X74178438Y-83145237D01*
X74178438Y-83145237D02*
X74130819Y-83002380D01*
X74130819Y-83002380D02*
X74130819Y-82907142D01*
X74130819Y-82907142D02*
X74178438Y-82764285D01*
X74178438Y-82764285D02*
X74226057Y-82716666D01*
X74130819Y-82383332D02*
X74130819Y-81716666D01*
X74130819Y-81716666D02*
X75130819Y-82145237D01*
X112046666Y-56334819D02*
X112046666Y-57049104D01*
X112046666Y-57049104D02*
X111999047Y-57191961D01*
X111999047Y-57191961D02*
X111903809Y-57287200D01*
X111903809Y-57287200D02*
X111760952Y-57334819D01*
X111760952Y-57334819D02*
X111665714Y-57334819D01*
X113046666Y-57334819D02*
X112475238Y-57334819D01*
X112760952Y-57334819D02*
X112760952Y-56334819D01*
X112760952Y-56334819D02*
X112665714Y-56477676D01*
X112665714Y-56477676D02*
X112570476Y-56572914D01*
X112570476Y-56572914D02*
X112475238Y-56620533D01*
D10*
G36*
X52367148Y-102360755D02*
G01*
X52415628Y-102409235D01*
X52469242Y-102516462D01*
X52469242Y-102964285D01*
X51883528Y-102964285D01*
X51883528Y-102516464D01*
X51937144Y-102409232D01*
X51985620Y-102360755D01*
X52092849Y-102307142D01*
X52259921Y-102307142D01*
X52367148Y-102360755D01*
G37*
G36*
X52367148Y-100860755D02*
G01*
X52415628Y-100909235D01*
X52469242Y-101016462D01*
X52469242Y-101464285D01*
X51883528Y-101464285D01*
X51883528Y-101016464D01*
X51937144Y-100909232D01*
X51985620Y-100860755D01*
X52092849Y-100807142D01*
X52259921Y-100807142D01*
X52367148Y-100860755D01*
G37*
G36*
X52367148Y-93575041D02*
G01*
X52415628Y-93623521D01*
X52469242Y-93730748D01*
X52469242Y-94178571D01*
X51883528Y-94178571D01*
X51883528Y-93730750D01*
X51937144Y-93623518D01*
X51985620Y-93575041D01*
X52092849Y-93521428D01*
X52259921Y-93521428D01*
X52367148Y-93575041D01*
G37*
G36*
X53597814Y-103378571D02*
G01*
X51469242Y-103378571D01*
X51469242Y-103064285D01*
X51683528Y-103064285D01*
X51688422Y-103079347D01*
X51688422Y-103095187D01*
X51697731Y-103108000D01*
X51702626Y-103123064D01*
X51715439Y-103132373D01*
X51724749Y-103145187D01*
X51739812Y-103150081D01*
X51752626Y-103159391D01*
X51768465Y-103159391D01*
X51783528Y-103164285D01*
X53283528Y-103164285D01*
X53342307Y-103145187D01*
X53378634Y-103095187D01*
X53378634Y-103033383D01*
X53342307Y-102983383D01*
X53283528Y-102964285D01*
X52669242Y-102964285D01*
X52669242Y-102492856D01*
X52662118Y-102470932D01*
X52658685Y-102448135D01*
X52587257Y-102305278D01*
X52575883Y-102293730D01*
X52568525Y-102279288D01*
X52497096Y-102207859D01*
X52482653Y-102200500D01*
X52471106Y-102189127D01*
X52328249Y-102117699D01*
X52305451Y-102114265D01*
X52283528Y-102107142D01*
X52069242Y-102107142D01*
X52047318Y-102114265D01*
X52024521Y-102117699D01*
X51881664Y-102189127D01*
X51870115Y-102200501D01*
X51855674Y-102207860D01*
X51784246Y-102279289D01*
X51776888Y-102293729D01*
X51765514Y-102305278D01*
X51694085Y-102448134D01*
X51690651Y-102470932D01*
X51683528Y-102492856D01*
X51683528Y-103064285D01*
X51469242Y-103064285D01*
X51469242Y-101564285D01*
X51683528Y-101564285D01*
X51688422Y-101579347D01*
X51688422Y-101595187D01*
X51697731Y-101608000D01*
X51702626Y-101623064D01*
X51715439Y-101632373D01*
X51724749Y-101645187D01*
X51739812Y-101650081D01*
X51752626Y-101659391D01*
X51768465Y-101659391D01*
X51783528Y-101664285D01*
X53283528Y-101664285D01*
X53342307Y-101645187D01*
X53378634Y-101595187D01*
X53378634Y-101533383D01*
X53342307Y-101483383D01*
X53283528Y-101464285D01*
X52669242Y-101464285D01*
X52669242Y-101259207D01*
X53340874Y-100789065D01*
X53378076Y-100739712D01*
X53379163Y-100677918D01*
X53343721Y-100627286D01*
X53285287Y-100607157D01*
X53226182Y-100625219D01*
X52669242Y-101015076D01*
X52669242Y-100992856D01*
X52662118Y-100970932D01*
X52658685Y-100948135D01*
X52587257Y-100805278D01*
X52575883Y-100793730D01*
X52568525Y-100779288D01*
X52497096Y-100707859D01*
X52482653Y-100700500D01*
X52471106Y-100689127D01*
X52328249Y-100617699D01*
X52305451Y-100614265D01*
X52283528Y-100607142D01*
X52069242Y-100607142D01*
X52047318Y-100614265D01*
X52024521Y-100617699D01*
X51881664Y-100689127D01*
X51870115Y-100700501D01*
X51855674Y-100707860D01*
X51784246Y-100779289D01*
X51776888Y-100793729D01*
X51765514Y-100805278D01*
X51694085Y-100948134D01*
X51690651Y-100970932D01*
X51683528Y-100992856D01*
X51683528Y-101564285D01*
X51469242Y-101564285D01*
X51469242Y-100064285D01*
X51683528Y-100064285D01*
X51688422Y-100079347D01*
X51688422Y-100095187D01*
X51697731Y-100108000D01*
X51702626Y-100123064D01*
X51715439Y-100132373D01*
X51724749Y-100145187D01*
X51739812Y-100150081D01*
X51752626Y-100159391D01*
X51768465Y-100159391D01*
X51783528Y-100164285D01*
X53283528Y-100164285D01*
X53298591Y-100159391D01*
X53314430Y-100159391D01*
X53327243Y-100150081D01*
X53342307Y-100145187D01*
X53351616Y-100132373D01*
X53364430Y-100123064D01*
X53369324Y-100108000D01*
X53378634Y-100095187D01*
X53378634Y-100079347D01*
X53383528Y-100064285D01*
X53383528Y-99349999D01*
X53364430Y-99291220D01*
X53314430Y-99254893D01*
X53252626Y-99254893D01*
X53202626Y-99291220D01*
X53183528Y-99349999D01*
X53183528Y-99964285D01*
X52597814Y-99964285D01*
X52597814Y-99564285D01*
X52578716Y-99505506D01*
X52528716Y-99469179D01*
X52466912Y-99469179D01*
X52416912Y-99505506D01*
X52397814Y-99564285D01*
X52397814Y-99964285D01*
X51883528Y-99964285D01*
X51883528Y-99349999D01*
X51864430Y-99291220D01*
X51814430Y-99254893D01*
X51752626Y-99254893D01*
X51702626Y-99291220D01*
X51683528Y-99349999D01*
X51683528Y-100064285D01*
X51469242Y-100064285D01*
X51469242Y-98492856D01*
X51683528Y-98492856D01*
X51690651Y-98514779D01*
X51694085Y-98537578D01*
X51765514Y-98680434D01*
X51776888Y-98691982D01*
X51784246Y-98706423D01*
X51855674Y-98777852D01*
X51870115Y-98785210D01*
X51881664Y-98796585D01*
X52024521Y-98868013D01*
X52047318Y-98871446D01*
X52069242Y-98878570D01*
X52212100Y-98878570D01*
X52234023Y-98871446D01*
X52256821Y-98868013D01*
X52399678Y-98796585D01*
X52411226Y-98785210D01*
X52425668Y-98777852D01*
X52497096Y-98706423D01*
X52504453Y-98691983D01*
X52515828Y-98680435D01*
X52587257Y-98537578D01*
X52588917Y-98526555D01*
X52594828Y-98517109D01*
X52663592Y-98242048D01*
X52722856Y-98123521D01*
X52771336Y-98075041D01*
X52878564Y-98021427D01*
X52974206Y-98021427D01*
X53081434Y-98075041D01*
X53129914Y-98123521D01*
X53183528Y-98230748D01*
X53183528Y-98548058D01*
X53117232Y-98746947D01*
X53116762Y-98808749D01*
X53152709Y-98859023D01*
X53211341Y-98878568D01*
X53270263Y-98859916D01*
X53306968Y-98810193D01*
X53378396Y-98595908D01*
X53378519Y-98579700D01*
X53383528Y-98564285D01*
X53383528Y-98207142D01*
X53376404Y-98185218D01*
X53372971Y-98162421D01*
X53301543Y-98019564D01*
X53290169Y-98008016D01*
X53282811Y-97993574D01*
X53211382Y-97922145D01*
X53196939Y-97914786D01*
X53185392Y-97903413D01*
X53042536Y-97831984D01*
X53019737Y-97828550D01*
X52997814Y-97821427D01*
X52854957Y-97821427D01*
X52833033Y-97828550D01*
X52810235Y-97831984D01*
X52667378Y-97903413D01*
X52655830Y-97914787D01*
X52641389Y-97922145D01*
X52569960Y-97993574D01*
X52562601Y-98008016D01*
X52551228Y-98019564D01*
X52479799Y-98162420D01*
X52478138Y-98173442D01*
X52472228Y-98182889D01*
X52403463Y-98457950D01*
X52344198Y-98576479D01*
X52295721Y-98624956D01*
X52188493Y-98678570D01*
X52092849Y-98678570D01*
X51985620Y-98624956D01*
X51937144Y-98576479D01*
X51883528Y-98469247D01*
X51883528Y-98151940D01*
X51949825Y-97953050D01*
X51950295Y-97891248D01*
X51914348Y-97840974D01*
X51855716Y-97821430D01*
X51796794Y-97840081D01*
X51760089Y-97889804D01*
X51688660Y-98104090D01*
X51688536Y-98120297D01*
X51683528Y-98135713D01*
X51683528Y-98492856D01*
X51469242Y-98492856D01*
X51469242Y-97064285D01*
X51683528Y-97064285D01*
X51690651Y-97086208D01*
X51694085Y-97109007D01*
X51765514Y-97251863D01*
X51776888Y-97263411D01*
X51784246Y-97277852D01*
X51855674Y-97349281D01*
X51870115Y-97356639D01*
X51881664Y-97368014D01*
X52024521Y-97439442D01*
X52047318Y-97442875D01*
X52069242Y-97449999D01*
X52212100Y-97449999D01*
X52234023Y-97442875D01*
X52256821Y-97439442D01*
X52399678Y-97368014D01*
X52411226Y-97356639D01*
X52425668Y-97349281D01*
X52497096Y-97277852D01*
X52504453Y-97263412D01*
X52515828Y-97251864D01*
X52587257Y-97109007D01*
X52588917Y-97097984D01*
X52594828Y-97088538D01*
X52663592Y-96813477D01*
X52722856Y-96694950D01*
X52771336Y-96646470D01*
X52878564Y-96592856D01*
X52974206Y-96592856D01*
X53081434Y-96646470D01*
X53129914Y-96694950D01*
X53183528Y-96802177D01*
X53183528Y-97119487D01*
X53117232Y-97318376D01*
X53116762Y-97380178D01*
X53152709Y-97430452D01*
X53211341Y-97449997D01*
X53270263Y-97431345D01*
X53306968Y-97381622D01*
X53378396Y-97167337D01*
X53378519Y-97151129D01*
X53383528Y-97135714D01*
X53383528Y-96778571D01*
X53376404Y-96756647D01*
X53372971Y-96733850D01*
X53301543Y-96590993D01*
X53290169Y-96579445D01*
X53282811Y-96565003D01*
X53211382Y-96493574D01*
X53196939Y-96486215D01*
X53185392Y-96474842D01*
X53042536Y-96403413D01*
X53019737Y-96399979D01*
X52997814Y-96392856D01*
X52854957Y-96392856D01*
X52833033Y-96399979D01*
X52810235Y-96403413D01*
X52667378Y-96474842D01*
X52655830Y-96486216D01*
X52641389Y-96493574D01*
X52569960Y-96565003D01*
X52562601Y-96579445D01*
X52551228Y-96590993D01*
X52479799Y-96733849D01*
X52478138Y-96744871D01*
X52472228Y-96754318D01*
X52403463Y-97029379D01*
X52344198Y-97147908D01*
X52295721Y-97196385D01*
X52188493Y-97249999D01*
X52092849Y-97249999D01*
X51985620Y-97196385D01*
X51937144Y-97147908D01*
X51883528Y-97040676D01*
X51883528Y-96723369D01*
X51949825Y-96524479D01*
X51950295Y-96462677D01*
X51914348Y-96412403D01*
X51855716Y-96392859D01*
X51796794Y-96411510D01*
X51760089Y-96461233D01*
X51688660Y-96675519D01*
X51688536Y-96691726D01*
X51683528Y-96707142D01*
X51683528Y-97064285D01*
X51469242Y-97064285D01*
X51469242Y-95880902D01*
X51688422Y-95880902D01*
X51724749Y-95930902D01*
X51783528Y-95950000D01*
X52997814Y-95950000D01*
X53019737Y-95942876D01*
X53042536Y-95939443D01*
X53185392Y-95868014D01*
X53196940Y-95856639D01*
X53211381Y-95849282D01*
X53282810Y-95777854D01*
X53290168Y-95763413D01*
X53301543Y-95751864D01*
X53372971Y-95609006D01*
X53376404Y-95586208D01*
X53383528Y-95564285D01*
X53383528Y-95278571D01*
X53376404Y-95256647D01*
X53372971Y-95233850D01*
X53301543Y-95090993D01*
X53290169Y-95079445D01*
X53282811Y-95065003D01*
X53211382Y-94993574D01*
X53196939Y-94986215D01*
X53185392Y-94974842D01*
X53042535Y-94903414D01*
X53019737Y-94899980D01*
X52997814Y-94892857D01*
X51783528Y-94892857D01*
X51724749Y-94911955D01*
X51688422Y-94961955D01*
X51688422Y-95023759D01*
X51724749Y-95073759D01*
X51783528Y-95092857D01*
X52974207Y-95092857D01*
X53081434Y-95146470D01*
X53129914Y-95194950D01*
X53183528Y-95302177D01*
X53183528Y-95540678D01*
X53129913Y-95647907D01*
X53081437Y-95696383D01*
X52974206Y-95750000D01*
X51783528Y-95750000D01*
X51724749Y-95769098D01*
X51688422Y-95819098D01*
X51688422Y-95880902D01*
X51469242Y-95880902D01*
X51469242Y-94278571D01*
X51683528Y-94278571D01*
X51688422Y-94293633D01*
X51688422Y-94309473D01*
X51697731Y-94322286D01*
X51702626Y-94337350D01*
X51715439Y-94346659D01*
X51724749Y-94359473D01*
X51739812Y-94364367D01*
X51752626Y-94373677D01*
X51768465Y-94373677D01*
X51783528Y-94378571D01*
X53283528Y-94378571D01*
X53342307Y-94359473D01*
X53378634Y-94309473D01*
X53378634Y-94247669D01*
X53342307Y-94197669D01*
X53283528Y-94178571D01*
X52669242Y-94178571D01*
X52669242Y-93973493D01*
X53340874Y-93503351D01*
X53378076Y-93453998D01*
X53379163Y-93392204D01*
X53343721Y-93341572D01*
X53285287Y-93321443D01*
X53226182Y-93339505D01*
X52669242Y-93729362D01*
X52669242Y-93707142D01*
X52662118Y-93685218D01*
X52658685Y-93662421D01*
X52587257Y-93519564D01*
X52575883Y-93508016D01*
X52568525Y-93493574D01*
X52497096Y-93422145D01*
X52482653Y-93414786D01*
X52471106Y-93403413D01*
X52328249Y-93331985D01*
X52305451Y-93328551D01*
X52283528Y-93321428D01*
X52069242Y-93321428D01*
X52047318Y-93328551D01*
X52024521Y-93331985D01*
X51881664Y-93403413D01*
X51870115Y-93414787D01*
X51855674Y-93422146D01*
X51784246Y-93493575D01*
X51776888Y-93508015D01*
X51765514Y-93519564D01*
X51694085Y-93662420D01*
X51690651Y-93685218D01*
X51683528Y-93707142D01*
X51683528Y-94278571D01*
X51469242Y-94278571D01*
X51469242Y-92778571D01*
X51683528Y-92778571D01*
X51688422Y-92793633D01*
X51688422Y-92809473D01*
X51697731Y-92822286D01*
X51702626Y-92837350D01*
X51715439Y-92846659D01*
X51724749Y-92859473D01*
X51739812Y-92864367D01*
X51752626Y-92873677D01*
X51768465Y-92873677D01*
X51783528Y-92878571D01*
X53283528Y-92878571D01*
X53298591Y-92873677D01*
X53314430Y-92873677D01*
X53327243Y-92864367D01*
X53342307Y-92859473D01*
X53351616Y-92846659D01*
X53364430Y-92837350D01*
X53369324Y-92822286D01*
X53378634Y-92809473D01*
X53378634Y-92793633D01*
X53383528Y-92778571D01*
X53383528Y-92064285D01*
X53364430Y-92005506D01*
X53314430Y-91969179D01*
X53252626Y-91969179D01*
X53202626Y-92005506D01*
X53183528Y-92064285D01*
X53183528Y-92678571D01*
X52597814Y-92678571D01*
X52597814Y-92278571D01*
X52578716Y-92219792D01*
X52528716Y-92183465D01*
X52466912Y-92183465D01*
X52416912Y-92219792D01*
X52397814Y-92278571D01*
X52397814Y-92678571D01*
X51883528Y-92678571D01*
X51883528Y-92064285D01*
X51864430Y-92005506D01*
X51814430Y-91969179D01*
X51752626Y-91969179D01*
X51702626Y-92005506D01*
X51683528Y-92064285D01*
X51683528Y-92778571D01*
X51469242Y-92778571D01*
X51469242Y-91754893D01*
X53597814Y-91754893D01*
X53597814Y-103378571D01*
G37*
D11*
X135449580Y-111876666D02*
X135497200Y-111924285D01*
X135497200Y-111924285D02*
X135544819Y-112067142D01*
X135544819Y-112067142D02*
X135544819Y-112162380D01*
X135544819Y-112162380D02*
X135497200Y-112305237D01*
X135497200Y-112305237D02*
X135401961Y-112400475D01*
X135401961Y-112400475D02*
X135306723Y-112448094D01*
X135306723Y-112448094D02*
X135116247Y-112495713D01*
X135116247Y-112495713D02*
X134973390Y-112495713D01*
X134973390Y-112495713D02*
X134782914Y-112448094D01*
X134782914Y-112448094D02*
X134687676Y-112400475D01*
X134687676Y-112400475D02*
X134592438Y-112305237D01*
X134592438Y-112305237D02*
X134544819Y-112162380D01*
X134544819Y-112162380D02*
X134544819Y-112067142D01*
X134544819Y-112067142D02*
X134592438Y-111924285D01*
X134592438Y-111924285D02*
X134640057Y-111876666D01*
X134878152Y-111019523D02*
X135544819Y-111019523D01*
X134497200Y-111257618D02*
X135211485Y-111495713D01*
X135211485Y-111495713D02*
X135211485Y-110876666D01*
X181976819Y-97761094D02*
X180976819Y-97761094D01*
X180976819Y-97761094D02*
X180976819Y-97522999D01*
X180976819Y-97522999D02*
X181024438Y-97380142D01*
X181024438Y-97380142D02*
X181119676Y-97284904D01*
X181119676Y-97284904D02*
X181214914Y-97237285D01*
X181214914Y-97237285D02*
X181405390Y-97189666D01*
X181405390Y-97189666D02*
X181548247Y-97189666D01*
X181548247Y-97189666D02*
X181738723Y-97237285D01*
X181738723Y-97237285D02*
X181833961Y-97284904D01*
X181833961Y-97284904D02*
X181929200Y-97380142D01*
X181929200Y-97380142D02*
X181976819Y-97522999D01*
X181976819Y-97522999D02*
X181976819Y-97761094D01*
X181072057Y-96808713D02*
X181024438Y-96761094D01*
X181024438Y-96761094D02*
X180976819Y-96665856D01*
X180976819Y-96665856D02*
X180976819Y-96427761D01*
X180976819Y-96427761D02*
X181024438Y-96332523D01*
X181024438Y-96332523D02*
X181072057Y-96284904D01*
X181072057Y-96284904D02*
X181167295Y-96237285D01*
X181167295Y-96237285D02*
X181262533Y-96237285D01*
X181262533Y-96237285D02*
X181405390Y-96284904D01*
X181405390Y-96284904D02*
X181976819Y-96856332D01*
X181976819Y-96856332D02*
X181976819Y-96237285D01*
X86647142Y-73544819D02*
X86313809Y-73068628D01*
X86075714Y-73544819D02*
X86075714Y-72544819D01*
X86075714Y-72544819D02*
X86456666Y-72544819D01*
X86456666Y-72544819D02*
X86551904Y-72592438D01*
X86551904Y-72592438D02*
X86599523Y-72640057D01*
X86599523Y-72640057D02*
X86647142Y-72735295D01*
X86647142Y-72735295D02*
X86647142Y-72878152D01*
X86647142Y-72878152D02*
X86599523Y-72973390D01*
X86599523Y-72973390D02*
X86551904Y-73021009D01*
X86551904Y-73021009D02*
X86456666Y-73068628D01*
X86456666Y-73068628D02*
X86075714Y-73068628D01*
X87599523Y-73544819D02*
X87028095Y-73544819D01*
X87313809Y-73544819D02*
X87313809Y-72544819D01*
X87313809Y-72544819D02*
X87218571Y-72687676D01*
X87218571Y-72687676D02*
X87123333Y-72782914D01*
X87123333Y-72782914D02*
X87028095Y-72830533D01*
X88551904Y-73544819D02*
X87980476Y-73544819D01*
X88266190Y-73544819D02*
X88266190Y-72544819D01*
X88266190Y-72544819D02*
X88170952Y-72687676D01*
X88170952Y-72687676D02*
X88075714Y-72782914D01*
X88075714Y-72782914D02*
X87980476Y-72830533D01*
X154124819Y-99406666D02*
X153648628Y-99739999D01*
X154124819Y-99978094D02*
X153124819Y-99978094D01*
X153124819Y-99978094D02*
X153124819Y-99597142D01*
X153124819Y-99597142D02*
X153172438Y-99501904D01*
X153172438Y-99501904D02*
X153220057Y-99454285D01*
X153220057Y-99454285D02*
X153315295Y-99406666D01*
X153315295Y-99406666D02*
X153458152Y-99406666D01*
X153458152Y-99406666D02*
X153553390Y-99454285D01*
X153553390Y-99454285D02*
X153601009Y-99501904D01*
X153601009Y-99501904D02*
X153648628Y-99597142D01*
X153648628Y-99597142D02*
X153648628Y-99978094D01*
X153458152Y-98549523D02*
X154124819Y-98549523D01*
X153077200Y-98787618D02*
X153791485Y-99025713D01*
X153791485Y-99025713D02*
X153791485Y-98406666D01*
X89474819Y-78412857D02*
X88998628Y-78746190D01*
X89474819Y-78984285D02*
X88474819Y-78984285D01*
X88474819Y-78984285D02*
X88474819Y-78603333D01*
X88474819Y-78603333D02*
X88522438Y-78508095D01*
X88522438Y-78508095D02*
X88570057Y-78460476D01*
X88570057Y-78460476D02*
X88665295Y-78412857D01*
X88665295Y-78412857D02*
X88808152Y-78412857D01*
X88808152Y-78412857D02*
X88903390Y-78460476D01*
X88903390Y-78460476D02*
X88951009Y-78508095D01*
X88951009Y-78508095D02*
X88998628Y-78603333D01*
X88998628Y-78603333D02*
X88998628Y-78984285D01*
X89474819Y-77460476D02*
X89474819Y-78031904D01*
X89474819Y-77746190D02*
X88474819Y-77746190D01*
X88474819Y-77746190D02*
X88617676Y-77841428D01*
X88617676Y-77841428D02*
X88712914Y-77936666D01*
X88712914Y-77936666D02*
X88760533Y-78031904D01*
X88570057Y-77079523D02*
X88522438Y-77031904D01*
X88522438Y-77031904D02*
X88474819Y-76936666D01*
X88474819Y-76936666D02*
X88474819Y-76698571D01*
X88474819Y-76698571D02*
X88522438Y-76603333D01*
X88522438Y-76603333D02*
X88570057Y-76555714D01*
X88570057Y-76555714D02*
X88665295Y-76508095D01*
X88665295Y-76508095D02*
X88760533Y-76508095D01*
X88760533Y-76508095D02*
X88903390Y-76555714D01*
X88903390Y-76555714D02*
X89474819Y-77127142D01*
X89474819Y-77127142D02*
X89474819Y-76508095D01*
D10*
G36*
X100266687Y-79656957D02*
G01*
X99829885Y-79656957D01*
X100048286Y-79001755D01*
X100266687Y-79656957D01*
G37*
G36*
X104719715Y-80499814D02*
G01*
X96448286Y-80499814D01*
X96448286Y-79114100D01*
X96662572Y-79114100D01*
X96669695Y-79136023D01*
X96673129Y-79158821D01*
X96744557Y-79301678D01*
X96755931Y-79313226D01*
X96763290Y-79327668D01*
X96834719Y-79399096D01*
X96849158Y-79406453D01*
X96860707Y-79417828D01*
X97003564Y-79489257D01*
X97014586Y-79490917D01*
X97024033Y-79496828D01*
X97299096Y-79565593D01*
X97417622Y-79624856D01*
X97466099Y-79673333D01*
X97519715Y-79780564D01*
X97519715Y-79876206D01*
X97466099Y-79983437D01*
X97417622Y-80031913D01*
X97310393Y-80085528D01*
X96993084Y-80085528D01*
X96794195Y-80019232D01*
X96732393Y-80018762D01*
X96682118Y-80054709D01*
X96662574Y-80113341D01*
X96681226Y-80172263D01*
X96730949Y-80208968D01*
X96945235Y-80280396D01*
X96961442Y-80280519D01*
X96976858Y-80285528D01*
X97334000Y-80285528D01*
X97355923Y-80278404D01*
X97378721Y-80274971D01*
X97521579Y-80203543D01*
X97533128Y-80192168D01*
X97547569Y-80184810D01*
X97618997Y-80113381D01*
X97626354Y-80098941D01*
X97637729Y-80087393D01*
X97709158Y-79944536D01*
X97712591Y-79921737D01*
X97719715Y-79899814D01*
X97719715Y-79756957D01*
X97712591Y-79735033D01*
X97709158Y-79712235D01*
X97637729Y-79569378D01*
X97626354Y-79557829D01*
X97618997Y-79543390D01*
X97618278Y-79542671D01*
X98091143Y-79542671D01*
X98094989Y-79554508D01*
X98094129Y-79566924D01*
X98165557Y-79852638D01*
X98171467Y-79862084D01*
X98173128Y-79873107D01*
X98244557Y-80015963D01*
X98255931Y-80027511D01*
X98263289Y-80041952D01*
X98406146Y-80184810D01*
X98426685Y-80195275D01*
X98445234Y-80208968D01*
X98659520Y-80280396D01*
X98675727Y-80280519D01*
X98691143Y-80285528D01*
X98834000Y-80285528D01*
X98849415Y-80280519D01*
X98865623Y-80280396D01*
X99059691Y-80215707D01*
X99452948Y-80215707D01*
X99488895Y-80265981D01*
X99547527Y-80285526D01*
X99606449Y-80266874D01*
X99643154Y-80217151D01*
X99763219Y-79856957D01*
X100333353Y-79856957D01*
X100453418Y-80217151D01*
X100490123Y-80266874D01*
X100549045Y-80285526D01*
X100607677Y-80265982D01*
X100643624Y-80215707D01*
X100643394Y-80185528D01*
X100948285Y-80185528D01*
X100953179Y-80200590D01*
X100953179Y-80216430D01*
X100962488Y-80229243D01*
X100967383Y-80244307D01*
X100980196Y-80253616D01*
X100989506Y-80266430D01*
X101004569Y-80271324D01*
X101017383Y-80280634D01*
X101033222Y-80280634D01*
X101048285Y-80285528D01*
X101762571Y-80285528D01*
X101821350Y-80266430D01*
X101857677Y-80216430D01*
X101857677Y-80185528D01*
X102162571Y-80185528D01*
X102167465Y-80200590D01*
X102167465Y-80216430D01*
X102176774Y-80229243D01*
X102181669Y-80244307D01*
X102194482Y-80253616D01*
X102203792Y-80266430D01*
X102218855Y-80271324D01*
X102231669Y-80280634D01*
X102247508Y-80280634D01*
X102262571Y-80285528D01*
X102976857Y-80285528D01*
X103035636Y-80266430D01*
X103071963Y-80216430D01*
X103071963Y-80154626D01*
X103035636Y-80104626D01*
X102976857Y-80085528D01*
X102362571Y-80085528D01*
X102362571Y-79499814D01*
X102762571Y-79499814D01*
X102821350Y-79480716D01*
X102857677Y-79430716D01*
X102857677Y-79368912D01*
X102821350Y-79318912D01*
X102762571Y-79299814D01*
X102362571Y-79299814D01*
X102362571Y-79114100D01*
X103448286Y-79114100D01*
X103455409Y-79136023D01*
X103458843Y-79158821D01*
X103530271Y-79301678D01*
X103541645Y-79313226D01*
X103549004Y-79327668D01*
X103620433Y-79399096D01*
X103634872Y-79406453D01*
X103646421Y-79417828D01*
X103789278Y-79489257D01*
X103800300Y-79490917D01*
X103809747Y-79496828D01*
X104084810Y-79565593D01*
X104203336Y-79624856D01*
X104251813Y-79673333D01*
X104305429Y-79780564D01*
X104305429Y-79876206D01*
X104251813Y-79983437D01*
X104203336Y-80031913D01*
X104096107Y-80085528D01*
X103778798Y-80085528D01*
X103579909Y-80019232D01*
X103518107Y-80018762D01*
X103467832Y-80054709D01*
X103448288Y-80113341D01*
X103466940Y-80172263D01*
X103516663Y-80208968D01*
X103730949Y-80280396D01*
X103747156Y-80280519D01*
X103762572Y-80285528D01*
X104119714Y-80285528D01*
X104141637Y-80278404D01*
X104164435Y-80274971D01*
X104307293Y-80203543D01*
X104318842Y-80192168D01*
X104333283Y-80184810D01*
X104404711Y-80113381D01*
X104412068Y-80098941D01*
X104423443Y-80087393D01*
X104494872Y-79944536D01*
X104498305Y-79921737D01*
X104505429Y-79899814D01*
X104505429Y-79756957D01*
X104498305Y-79735033D01*
X104494872Y-79712235D01*
X104423443Y-79569378D01*
X104412068Y-79557829D01*
X104404711Y-79543390D01*
X104333283Y-79471961D01*
X104318841Y-79464602D01*
X104307293Y-79453228D01*
X104164435Y-79381799D01*
X104153413Y-79380138D01*
X104143967Y-79374228D01*
X103868905Y-79305463D01*
X103750376Y-79246198D01*
X103701899Y-79197721D01*
X103648286Y-79090493D01*
X103648286Y-78994848D01*
X103701899Y-78887620D01*
X103750376Y-78839143D01*
X103857607Y-78785528D01*
X104174916Y-78785528D01*
X104373806Y-78851825D01*
X104435608Y-78852295D01*
X104485882Y-78816348D01*
X104505426Y-78757716D01*
X104486775Y-78698794D01*
X104437052Y-78662089D01*
X104222766Y-78590660D01*
X104206558Y-78590536D01*
X104191143Y-78585528D01*
X103834000Y-78585528D01*
X103812076Y-78592651D01*
X103789278Y-78596085D01*
X103646421Y-78667514D01*
X103634872Y-78678888D01*
X103620433Y-78686246D01*
X103549004Y-78757674D01*
X103541645Y-78772115D01*
X103530271Y-78783664D01*
X103458843Y-78926521D01*
X103455409Y-78949318D01*
X103448286Y-78971242D01*
X103448286Y-79114100D01*
X102362571Y-79114100D01*
X102362571Y-78785528D01*
X102976857Y-78785528D01*
X103035636Y-78766430D01*
X103071963Y-78716430D01*
X103071963Y-78654626D01*
X103035636Y-78604626D01*
X102976857Y-78585528D01*
X102262571Y-78585528D01*
X102247508Y-78590422D01*
X102231669Y-78590422D01*
X102218855Y-78599731D01*
X102203792Y-78604626D01*
X102194482Y-78617439D01*
X102181669Y-78626749D01*
X102176774Y-78641812D01*
X102167465Y-78654626D01*
X102167465Y-78670465D01*
X102162571Y-78685528D01*
X102162571Y-80185528D01*
X101857677Y-80185528D01*
X101857677Y-80154626D01*
X101821350Y-80104626D01*
X101762571Y-80085528D01*
X101148285Y-80085528D01*
X101148285Y-78685528D01*
X101129187Y-78626749D01*
X101079187Y-78590422D01*
X101017383Y-78590422D01*
X100967383Y-78626749D01*
X100948285Y-78685528D01*
X100948285Y-80185528D01*
X100643394Y-80185528D01*
X100643154Y-80153905D01*
X100143154Y-78653905D01*
X100125243Y-78629641D01*
X100107677Y-78605074D01*
X100106921Y-78604822D01*
X100106449Y-78604182D01*
X100077683Y-78595076D01*
X100049045Y-78585530D01*
X100048286Y-78585770D01*
X100047527Y-78585530D01*
X100018917Y-78595066D01*
X99990123Y-78604182D01*
X99989649Y-78604823D01*
X99988895Y-78605075D01*
X99971340Y-78629626D01*
X99953418Y-78653905D01*
X99453418Y-80153905D01*
X99452948Y-80215707D01*
X99059691Y-80215707D01*
X99079908Y-80208968D01*
X99098455Y-80195276D01*
X99118997Y-80184810D01*
X99190425Y-80113381D01*
X99218483Y-80058314D01*
X99208815Y-79997271D01*
X99165112Y-79953570D01*
X99104070Y-79943902D01*
X99049003Y-79971961D01*
X98994267Y-80026697D01*
X98817773Y-80085528D01*
X98707369Y-80085528D01*
X98530875Y-80026697D01*
X98416186Y-79912008D01*
X98356921Y-79793478D01*
X98291143Y-79530362D01*
X98291143Y-79340693D01*
X98356921Y-79077577D01*
X98416185Y-78959049D01*
X98530875Y-78844359D01*
X98707370Y-78785528D01*
X98817773Y-78785528D01*
X98994266Y-78844359D01*
X99049003Y-78899095D01*
X99104070Y-78927154D01*
X99165113Y-78917486D01*
X99208815Y-78873784D01*
X99218483Y-78812741D01*
X99190424Y-78757674D01*
X99118997Y-78686246D01*
X99098455Y-78675779D01*
X99079909Y-78662089D01*
X98865623Y-78590660D01*
X98849415Y-78590536D01*
X98834000Y-78585528D01*
X98691143Y-78585528D01*
X98675727Y-78590536D01*
X98659520Y-78590660D01*
X98445234Y-78662089D01*
X98426685Y-78675781D01*
X98406146Y-78686247D01*
X98263289Y-78829103D01*
X98255930Y-78843545D01*
X98244557Y-78855093D01*
X98173128Y-78997949D01*
X98171467Y-79008971D01*
X98165557Y-79018418D01*
X98094129Y-79304132D01*
X98094989Y-79316547D01*
X98091143Y-79328385D01*
X98091143Y-79542671D01*
X97618278Y-79542671D01*
X97547569Y-79471961D01*
X97533127Y-79464602D01*
X97521579Y-79453228D01*
X97378721Y-79381799D01*
X97367699Y-79380138D01*
X97358253Y-79374228D01*
X97083191Y-79305463D01*
X96964662Y-79246198D01*
X96916185Y-79197721D01*
X96862572Y-79090493D01*
X96862572Y-78994848D01*
X96916185Y-78887620D01*
X96964662Y-78839143D01*
X97071893Y-78785528D01*
X97389202Y-78785528D01*
X97588092Y-78851825D01*
X97649894Y-78852295D01*
X97700168Y-78816348D01*
X97719712Y-78757716D01*
X97701061Y-78698794D01*
X97651338Y-78662089D01*
X97437052Y-78590660D01*
X97420844Y-78590536D01*
X97405429Y-78585528D01*
X97048286Y-78585528D01*
X97026362Y-78592651D01*
X97003564Y-78596085D01*
X96860707Y-78667514D01*
X96849158Y-78678888D01*
X96834719Y-78686246D01*
X96763290Y-78757674D01*
X96755931Y-78772115D01*
X96744557Y-78783664D01*
X96673129Y-78926521D01*
X96669695Y-78949318D01*
X96662572Y-78971242D01*
X96662572Y-79114100D01*
X96448286Y-79114100D01*
X96448286Y-78371242D01*
X104719715Y-78371242D01*
X104719715Y-80499814D01*
G37*
D11*
X136564095Y-81100819D02*
X136564095Y-81910342D01*
X136564095Y-81910342D02*
X136611714Y-82005580D01*
X136611714Y-82005580D02*
X136659333Y-82053200D01*
X136659333Y-82053200D02*
X136754571Y-82100819D01*
X136754571Y-82100819D02*
X136945047Y-82100819D01*
X136945047Y-82100819D02*
X137040285Y-82053200D01*
X137040285Y-82053200D02*
X137087904Y-82005580D01*
X137087904Y-82005580D02*
X137135523Y-81910342D01*
X137135523Y-81910342D02*
X137135523Y-81100819D01*
X138040285Y-81434152D02*
X138040285Y-82100819D01*
X137802190Y-81053200D02*
X137564095Y-81767485D01*
X137564095Y-81767485D02*
X138183142Y-81767485D01*
X115911333Y-68685580D02*
X115863714Y-68733200D01*
X115863714Y-68733200D02*
X115720857Y-68780819D01*
X115720857Y-68780819D02*
X115625619Y-68780819D01*
X115625619Y-68780819D02*
X115482762Y-68733200D01*
X115482762Y-68733200D02*
X115387524Y-68637961D01*
X115387524Y-68637961D02*
X115339905Y-68542723D01*
X115339905Y-68542723D02*
X115292286Y-68352247D01*
X115292286Y-68352247D02*
X115292286Y-68209390D01*
X115292286Y-68209390D02*
X115339905Y-68018914D01*
X115339905Y-68018914D02*
X115387524Y-67923676D01*
X115387524Y-67923676D02*
X115482762Y-67828438D01*
X115482762Y-67828438D02*
X115625619Y-67780819D01*
X115625619Y-67780819D02*
X115720857Y-67780819D01*
X115720857Y-67780819D02*
X115863714Y-67828438D01*
X115863714Y-67828438D02*
X115911333Y-67876057D01*
X116816095Y-67780819D02*
X116339905Y-67780819D01*
X116339905Y-67780819D02*
X116292286Y-68257009D01*
X116292286Y-68257009D02*
X116339905Y-68209390D01*
X116339905Y-68209390D02*
X116435143Y-68161771D01*
X116435143Y-68161771D02*
X116673238Y-68161771D01*
X116673238Y-68161771D02*
X116768476Y-68209390D01*
X116768476Y-68209390D02*
X116816095Y-68257009D01*
X116816095Y-68257009D02*
X116863714Y-68352247D01*
X116863714Y-68352247D02*
X116863714Y-68590342D01*
X116863714Y-68590342D02*
X116816095Y-68685580D01*
X116816095Y-68685580D02*
X116768476Y-68733200D01*
X116768476Y-68733200D02*
X116673238Y-68780819D01*
X116673238Y-68780819D02*
X116435143Y-68780819D01*
X116435143Y-68780819D02*
X116339905Y-68733200D01*
X116339905Y-68733200D02*
X116292286Y-68685580D01*
X59110666Y-71687009D02*
X58777333Y-71687009D01*
X58777333Y-72210819D02*
X58777333Y-71210819D01*
X58777333Y-71210819D02*
X59253523Y-71210819D01*
X59967809Y-71687009D02*
X60110666Y-71734628D01*
X60110666Y-71734628D02*
X60158285Y-71782247D01*
X60158285Y-71782247D02*
X60205904Y-71877485D01*
X60205904Y-71877485D02*
X60205904Y-72020342D01*
X60205904Y-72020342D02*
X60158285Y-72115580D01*
X60158285Y-72115580D02*
X60110666Y-72163200D01*
X60110666Y-72163200D02*
X60015428Y-72210819D01*
X60015428Y-72210819D02*
X59634476Y-72210819D01*
X59634476Y-72210819D02*
X59634476Y-71210819D01*
X59634476Y-71210819D02*
X59967809Y-71210819D01*
X59967809Y-71210819D02*
X60063047Y-71258438D01*
X60063047Y-71258438D02*
X60110666Y-71306057D01*
X60110666Y-71306057D02*
X60158285Y-71401295D01*
X60158285Y-71401295D02*
X60158285Y-71496533D01*
X60158285Y-71496533D02*
X60110666Y-71591771D01*
X60110666Y-71591771D02*
X60063047Y-71639390D01*
X60063047Y-71639390D02*
X59967809Y-71687009D01*
X59967809Y-71687009D02*
X59634476Y-71687009D01*
X61158285Y-72210819D02*
X60586857Y-72210819D01*
X60872571Y-72210819D02*
X60872571Y-71210819D01*
X60872571Y-71210819D02*
X60777333Y-71353676D01*
X60777333Y-71353676D02*
X60682095Y-71448914D01*
X60682095Y-71448914D02*
X60586857Y-71496533D01*
X150938819Y-111914666D02*
X150938819Y-112390856D01*
X150938819Y-112390856D02*
X149938819Y-112390856D01*
X150938819Y-111057523D02*
X150938819Y-111628951D01*
X150938819Y-111343237D02*
X149938819Y-111343237D01*
X149938819Y-111343237D02*
X150081676Y-111438475D01*
X150081676Y-111438475D02*
X150176914Y-111533713D01*
X150176914Y-111533713D02*
X150224533Y-111628951D01*
X82859714Y-103832819D02*
X82859714Y-102832819D01*
X82859714Y-102832819D02*
X83240666Y-102832819D01*
X83240666Y-102832819D02*
X83335904Y-102880438D01*
X83335904Y-102880438D02*
X83383523Y-102928057D01*
X83383523Y-102928057D02*
X83431142Y-103023295D01*
X83431142Y-103023295D02*
X83431142Y-103166152D01*
X83431142Y-103166152D02*
X83383523Y-103261390D01*
X83383523Y-103261390D02*
X83335904Y-103309009D01*
X83335904Y-103309009D02*
X83240666Y-103356628D01*
X83240666Y-103356628D02*
X82859714Y-103356628D01*
X83812095Y-103785200D02*
X83954952Y-103832819D01*
X83954952Y-103832819D02*
X84193047Y-103832819D01*
X84193047Y-103832819D02*
X84288285Y-103785200D01*
X84288285Y-103785200D02*
X84335904Y-103737580D01*
X84335904Y-103737580D02*
X84383523Y-103642342D01*
X84383523Y-103642342D02*
X84383523Y-103547104D01*
X84383523Y-103547104D02*
X84335904Y-103451866D01*
X84335904Y-103451866D02*
X84288285Y-103404247D01*
X84288285Y-103404247D02*
X84193047Y-103356628D01*
X84193047Y-103356628D02*
X84002571Y-103309009D01*
X84002571Y-103309009D02*
X83907333Y-103261390D01*
X83907333Y-103261390D02*
X83859714Y-103213771D01*
X83859714Y-103213771D02*
X83812095Y-103118533D01*
X83812095Y-103118533D02*
X83812095Y-103023295D01*
X83812095Y-103023295D02*
X83859714Y-102928057D01*
X83859714Y-102928057D02*
X83907333Y-102880438D01*
X83907333Y-102880438D02*
X84002571Y-102832819D01*
X84002571Y-102832819D02*
X84240666Y-102832819D01*
X84240666Y-102832819D02*
X84383523Y-102880438D01*
X85335904Y-103832819D02*
X84764476Y-103832819D01*
X85050190Y-103832819D02*
X85050190Y-102832819D01*
X85050190Y-102832819D02*
X84954952Y-102975676D01*
X84954952Y-102975676D02*
X84859714Y-103070914D01*
X84859714Y-103070914D02*
X84764476Y-103118533D01*
X137146819Y-89592666D02*
X136670628Y-89925999D01*
X137146819Y-90164094D02*
X136146819Y-90164094D01*
X136146819Y-90164094D02*
X136146819Y-89783142D01*
X136146819Y-89783142D02*
X136194438Y-89687904D01*
X136194438Y-89687904D02*
X136242057Y-89640285D01*
X136242057Y-89640285D02*
X136337295Y-89592666D01*
X136337295Y-89592666D02*
X136480152Y-89592666D01*
X136480152Y-89592666D02*
X136575390Y-89640285D01*
X136575390Y-89640285D02*
X136623009Y-89687904D01*
X136623009Y-89687904D02*
X136670628Y-89783142D01*
X136670628Y-89783142D02*
X136670628Y-90164094D01*
X137146819Y-88640285D02*
X137146819Y-89211713D01*
X137146819Y-88925999D02*
X136146819Y-88925999D01*
X136146819Y-88925999D02*
X136289676Y-89021237D01*
X136289676Y-89021237D02*
X136384914Y-89116475D01*
X136384914Y-89116475D02*
X136432533Y-89211713D01*
D10*
G36*
X52891478Y-74801492D02*
G01*
X53010008Y-74860757D01*
X53124697Y-74975446D01*
X53183528Y-75151939D01*
X53183528Y-75392857D01*
X51883528Y-75392857D01*
X51883528Y-75151941D01*
X51942359Y-74975447D01*
X52057048Y-74860757D01*
X52175576Y-74801492D01*
X52438694Y-74735714D01*
X52628362Y-74735714D01*
X52891478Y-74801492D01*
G37*
G36*
X52367148Y-67789326D02*
G01*
X52415628Y-67837806D01*
X52469242Y-67945033D01*
X52469242Y-68392856D01*
X51883528Y-68392856D01*
X51883528Y-67945035D01*
X51937144Y-67837803D01*
X51985620Y-67789326D01*
X52092849Y-67735713D01*
X52259921Y-67735713D01*
X52367148Y-67789326D01*
G37*
G36*
X53597814Y-75807143D02*
G01*
X51469242Y-75807143D01*
X51469242Y-75492857D01*
X51683528Y-75492857D01*
X51688422Y-75507919D01*
X51688422Y-75523759D01*
X51697731Y-75536572D01*
X51702626Y-75551636D01*
X51715439Y-75560945D01*
X51724749Y-75573759D01*
X51739812Y-75578653D01*
X51752626Y-75587963D01*
X51768465Y-75587963D01*
X51783528Y-75592857D01*
X53283528Y-75592857D01*
X53298591Y-75587963D01*
X53314430Y-75587963D01*
X53327243Y-75578653D01*
X53342307Y-75573759D01*
X53351616Y-75560945D01*
X53364430Y-75551636D01*
X53369324Y-75536572D01*
X53378634Y-75523759D01*
X53378634Y-75507919D01*
X53383528Y-75492857D01*
X53383528Y-75135714D01*
X53378519Y-75120298D01*
X53378396Y-75104091D01*
X53306968Y-74889805D01*
X53293275Y-74871256D01*
X53282810Y-74850717D01*
X53139952Y-74707860D01*
X53125511Y-74700502D01*
X53113963Y-74689128D01*
X52971107Y-74617699D01*
X52960084Y-74616038D01*
X52950638Y-74610128D01*
X52664924Y-74538700D01*
X52652508Y-74539560D01*
X52640671Y-74535714D01*
X52426385Y-74535714D01*
X52414547Y-74539560D01*
X52402131Y-74538700D01*
X52116418Y-74610128D01*
X52106971Y-74616038D01*
X52095949Y-74617699D01*
X51953092Y-74689128D01*
X51941542Y-74700503D01*
X51927103Y-74707861D01*
X51784246Y-74850717D01*
X51773779Y-74871258D01*
X51760089Y-74889805D01*
X51688660Y-75104091D01*
X51688536Y-75120298D01*
X51683528Y-75135714D01*
X51683528Y-75492857D01*
X51469242Y-75492857D01*
X51469242Y-74023759D01*
X51688422Y-74023759D01*
X51724749Y-74073759D01*
X51783528Y-74092857D01*
X53283528Y-74092857D01*
X53342307Y-74073759D01*
X53378634Y-74023759D01*
X53378634Y-73961955D01*
X53342307Y-73911955D01*
X53283528Y-73892857D01*
X51783528Y-73892857D01*
X51724749Y-73911955D01*
X51688422Y-73961955D01*
X51688422Y-74023759D01*
X51469242Y-74023759D01*
X51469242Y-73290787D01*
X51684277Y-73290787D01*
X51688422Y-73299669D01*
X51688422Y-73309473D01*
X51701212Y-73327077D01*
X51710413Y-73346793D01*
X51718987Y-73351542D01*
X51724749Y-73359473D01*
X51745441Y-73366196D01*
X51764476Y-73376740D01*
X51774206Y-73375542D01*
X51783528Y-73378571D01*
X53283528Y-73378571D01*
X53342307Y-73359473D01*
X53378634Y-73309473D01*
X53378634Y-73247669D01*
X53342307Y-73197669D01*
X53283528Y-73178571D01*
X52234284Y-73178571D01*
X52897246Y-72869189D01*
X52911278Y-72856096D01*
X52928073Y-72846793D01*
X52933336Y-72835514D01*
X52942434Y-72827026D01*
X52946091Y-72808182D01*
X52954209Y-72790787D01*
X52951838Y-72778571D01*
X52954209Y-72766355D01*
X52946091Y-72748959D01*
X52942434Y-72730116D01*
X52933336Y-72721627D01*
X52928073Y-72710349D01*
X52911278Y-72701045D01*
X52897246Y-72687953D01*
X52234284Y-72378571D01*
X53283528Y-72378571D01*
X53342307Y-72359473D01*
X53378634Y-72309473D01*
X53378634Y-72247669D01*
X53342307Y-72197669D01*
X53283528Y-72178571D01*
X51783528Y-72178571D01*
X51774206Y-72181599D01*
X51764476Y-72180402D01*
X51745441Y-72190945D01*
X51724749Y-72197669D01*
X51718987Y-72205599D01*
X51710413Y-72210349D01*
X51701212Y-72230064D01*
X51688422Y-72247669D01*
X51688422Y-72257472D01*
X51684277Y-72266355D01*
X51688422Y-72287714D01*
X51688422Y-72309473D01*
X51694183Y-72317403D01*
X51696051Y-72327026D01*
X51711959Y-72341869D01*
X51724749Y-72359473D01*
X51734072Y-72362502D01*
X51741239Y-72369189D01*
X52618487Y-72778571D01*
X51741239Y-73187953D01*
X51734072Y-73194639D01*
X51724749Y-73197669D01*
X51711959Y-73215272D01*
X51696051Y-73230116D01*
X51694183Y-73239738D01*
X51688422Y-73247669D01*
X51688422Y-73269427D01*
X51684277Y-73290787D01*
X51469242Y-73290787D01*
X51469242Y-71576501D01*
X51684277Y-71576501D01*
X51688422Y-71585383D01*
X51688422Y-71595187D01*
X51701212Y-71612791D01*
X51710413Y-71632507D01*
X51718987Y-71637256D01*
X51724749Y-71645187D01*
X51745441Y-71651910D01*
X51764476Y-71662454D01*
X51774206Y-71661256D01*
X51783528Y-71664285D01*
X53283528Y-71664285D01*
X53342307Y-71645187D01*
X53378634Y-71595187D01*
X53378634Y-71533383D01*
X53342307Y-71483383D01*
X53283528Y-71464285D01*
X52234284Y-71464285D01*
X52897246Y-71154903D01*
X52911278Y-71141810D01*
X52928073Y-71132507D01*
X52933336Y-71121228D01*
X52942434Y-71112740D01*
X52946091Y-71093896D01*
X52954209Y-71076501D01*
X52951838Y-71064285D01*
X52954209Y-71052069D01*
X52946091Y-71034673D01*
X52942434Y-71015830D01*
X52933336Y-71007341D01*
X52928073Y-70996063D01*
X52911278Y-70986759D01*
X52897246Y-70973667D01*
X52234284Y-70664285D01*
X53283528Y-70664285D01*
X53342307Y-70645187D01*
X53378634Y-70595187D01*
X53378634Y-70533383D01*
X53342307Y-70483383D01*
X53283528Y-70464285D01*
X51783528Y-70464285D01*
X51774206Y-70467313D01*
X51764476Y-70466116D01*
X51745441Y-70476659D01*
X51724749Y-70483383D01*
X51718987Y-70491313D01*
X51710413Y-70496063D01*
X51701212Y-70515778D01*
X51688422Y-70533383D01*
X51688422Y-70543186D01*
X51684277Y-70552069D01*
X51688422Y-70573428D01*
X51688422Y-70595187D01*
X51694183Y-70603117D01*
X51696051Y-70612740D01*
X51711959Y-70627583D01*
X51724749Y-70645187D01*
X51734072Y-70648216D01*
X51741239Y-70654903D01*
X52618487Y-71064285D01*
X51741239Y-71473667D01*
X51734072Y-71480353D01*
X51724749Y-71483383D01*
X51711959Y-71500986D01*
X51696051Y-71515830D01*
X51694183Y-71525452D01*
X51688422Y-71533383D01*
X51688422Y-71555141D01*
X51684277Y-71576501D01*
X51469242Y-71576501D01*
X51469242Y-69849999D01*
X51683528Y-69849999D01*
X51688422Y-69865061D01*
X51688422Y-69880901D01*
X51697731Y-69893714D01*
X51702626Y-69908778D01*
X51715439Y-69918087D01*
X51724749Y-69930901D01*
X51739812Y-69935795D01*
X51752626Y-69945105D01*
X51768465Y-69945105D01*
X51783528Y-69949999D01*
X53283528Y-69949999D01*
X53298591Y-69945105D01*
X53314430Y-69945105D01*
X53327243Y-69935795D01*
X53342307Y-69930901D01*
X53351616Y-69918087D01*
X53364430Y-69908778D01*
X53369324Y-69893714D01*
X53378634Y-69880901D01*
X53378634Y-69865061D01*
X53383528Y-69849999D01*
X53383528Y-69135713D01*
X53364430Y-69076934D01*
X53314430Y-69040607D01*
X53252626Y-69040607D01*
X53202626Y-69076934D01*
X53183528Y-69135713D01*
X53183528Y-69749999D01*
X52597814Y-69749999D01*
X52597814Y-69349999D01*
X52578716Y-69291220D01*
X52528716Y-69254893D01*
X52466912Y-69254893D01*
X52416912Y-69291220D01*
X52397814Y-69349999D01*
X52397814Y-69749999D01*
X51883528Y-69749999D01*
X51883528Y-69135713D01*
X51864430Y-69076934D01*
X51814430Y-69040607D01*
X51752626Y-69040607D01*
X51702626Y-69076934D01*
X51683528Y-69135713D01*
X51683528Y-69849999D01*
X51469242Y-69849999D01*
X51469242Y-68492856D01*
X51683528Y-68492856D01*
X51688422Y-68507918D01*
X51688422Y-68523758D01*
X51697731Y-68536571D01*
X51702626Y-68551635D01*
X51715439Y-68560944D01*
X51724749Y-68573758D01*
X51739812Y-68578652D01*
X51752626Y-68587962D01*
X51768465Y-68587962D01*
X51783528Y-68592856D01*
X53283528Y-68592856D01*
X53342307Y-68573758D01*
X53378634Y-68523758D01*
X53378634Y-68461954D01*
X53342307Y-68411954D01*
X53283528Y-68392856D01*
X52669242Y-68392856D01*
X52669242Y-68187778D01*
X53340874Y-67717636D01*
X53378076Y-67668283D01*
X53379163Y-67606489D01*
X53343721Y-67555857D01*
X53285287Y-67535728D01*
X53226182Y-67553790D01*
X52669242Y-67943647D01*
X52669242Y-67921427D01*
X52662118Y-67899503D01*
X52658685Y-67876706D01*
X52587257Y-67733849D01*
X52575883Y-67722301D01*
X52568525Y-67707859D01*
X52497096Y-67636430D01*
X52482653Y-67629071D01*
X52471106Y-67617698D01*
X52328249Y-67546270D01*
X52305451Y-67542836D01*
X52283528Y-67535713D01*
X52069242Y-67535713D01*
X52047318Y-67542836D01*
X52024521Y-67546270D01*
X51881664Y-67617698D01*
X51870115Y-67629072D01*
X51855674Y-67636431D01*
X51784246Y-67707860D01*
X51776888Y-67722300D01*
X51765514Y-67733849D01*
X51694085Y-67876705D01*
X51690651Y-67899503D01*
X51683528Y-67921427D01*
X51683528Y-68492856D01*
X51469242Y-68492856D01*
X51469242Y-67321427D01*
X53597814Y-67321427D01*
X53597814Y-75807143D01*
G37*
D11*
X69985809Y-61621200D02*
X70128666Y-61668819D01*
X70128666Y-61668819D02*
X70366761Y-61668819D01*
X70366761Y-61668819D02*
X70461999Y-61621200D01*
X70461999Y-61621200D02*
X70509618Y-61573580D01*
X70509618Y-61573580D02*
X70557237Y-61478342D01*
X70557237Y-61478342D02*
X70557237Y-61383104D01*
X70557237Y-61383104D02*
X70509618Y-61287866D01*
X70509618Y-61287866D02*
X70461999Y-61240247D01*
X70461999Y-61240247D02*
X70366761Y-61192628D01*
X70366761Y-61192628D02*
X70176285Y-61145009D01*
X70176285Y-61145009D02*
X70081047Y-61097390D01*
X70081047Y-61097390D02*
X70033428Y-61049771D01*
X70033428Y-61049771D02*
X69985809Y-60954533D01*
X69985809Y-60954533D02*
X69985809Y-60859295D01*
X69985809Y-60859295D02*
X70033428Y-60764057D01*
X70033428Y-60764057D02*
X70081047Y-60716438D01*
X70081047Y-60716438D02*
X70176285Y-60668819D01*
X70176285Y-60668819D02*
X70414380Y-60668819D01*
X70414380Y-60668819D02*
X70557237Y-60716438D01*
X70842952Y-60668819D02*
X71414380Y-60668819D01*
X71128666Y-61668819D02*
X71128666Y-60668819D01*
X71747714Y-61668819D02*
X71747714Y-60668819D01*
X71747714Y-60668819D02*
X72081047Y-61383104D01*
X72081047Y-61383104D02*
X72414380Y-60668819D01*
X72414380Y-60668819D02*
X72414380Y-61668819D01*
X72795333Y-60668819D02*
X73414380Y-60668819D01*
X73414380Y-60668819D02*
X73081047Y-61049771D01*
X73081047Y-61049771D02*
X73223904Y-61049771D01*
X73223904Y-61049771D02*
X73319142Y-61097390D01*
X73319142Y-61097390D02*
X73366761Y-61145009D01*
X73366761Y-61145009D02*
X73414380Y-61240247D01*
X73414380Y-61240247D02*
X73414380Y-61478342D01*
X73414380Y-61478342D02*
X73366761Y-61573580D01*
X73366761Y-61573580D02*
X73319142Y-61621200D01*
X73319142Y-61621200D02*
X73223904Y-61668819D01*
X73223904Y-61668819D02*
X72938190Y-61668819D01*
X72938190Y-61668819D02*
X72842952Y-61621200D01*
X72842952Y-61621200D02*
X72795333Y-61573580D01*
X73795333Y-60764057D02*
X73842952Y-60716438D01*
X73842952Y-60716438D02*
X73938190Y-60668819D01*
X73938190Y-60668819D02*
X74176285Y-60668819D01*
X74176285Y-60668819D02*
X74271523Y-60716438D01*
X74271523Y-60716438D02*
X74319142Y-60764057D01*
X74319142Y-60764057D02*
X74366761Y-60859295D01*
X74366761Y-60859295D02*
X74366761Y-60954533D01*
X74366761Y-60954533D02*
X74319142Y-61097390D01*
X74319142Y-61097390D02*
X73747714Y-61668819D01*
X73747714Y-61668819D02*
X74366761Y-61668819D01*
X74557238Y-61764057D02*
X75319142Y-61764057D01*
X75890571Y-61145009D02*
X76033428Y-61192628D01*
X76033428Y-61192628D02*
X76081047Y-61240247D01*
X76081047Y-61240247D02*
X76128666Y-61335485D01*
X76128666Y-61335485D02*
X76128666Y-61478342D01*
X76128666Y-61478342D02*
X76081047Y-61573580D01*
X76081047Y-61573580D02*
X76033428Y-61621200D01*
X76033428Y-61621200D02*
X75938190Y-61668819D01*
X75938190Y-61668819D02*
X75557238Y-61668819D01*
X75557238Y-61668819D02*
X75557238Y-60668819D01*
X75557238Y-60668819D02*
X75890571Y-60668819D01*
X75890571Y-60668819D02*
X75985809Y-60716438D01*
X75985809Y-60716438D02*
X76033428Y-60764057D01*
X76033428Y-60764057D02*
X76081047Y-60859295D01*
X76081047Y-60859295D02*
X76081047Y-60954533D01*
X76081047Y-60954533D02*
X76033428Y-61049771D01*
X76033428Y-61049771D02*
X75985809Y-61097390D01*
X75985809Y-61097390D02*
X75890571Y-61145009D01*
X75890571Y-61145009D02*
X75557238Y-61145009D01*
X76700095Y-61668819D02*
X76604857Y-61621200D01*
X76604857Y-61621200D02*
X76557238Y-61525961D01*
X76557238Y-61525961D02*
X76557238Y-60668819D01*
X77509619Y-61668819D02*
X77509619Y-61145009D01*
X77509619Y-61145009D02*
X77462000Y-61049771D01*
X77462000Y-61049771D02*
X77366762Y-61002152D01*
X77366762Y-61002152D02*
X77176286Y-61002152D01*
X77176286Y-61002152D02*
X77081048Y-61049771D01*
X77509619Y-61621200D02*
X77414381Y-61668819D01*
X77414381Y-61668819D02*
X77176286Y-61668819D01*
X77176286Y-61668819D02*
X77081048Y-61621200D01*
X77081048Y-61621200D02*
X77033429Y-61525961D01*
X77033429Y-61525961D02*
X77033429Y-61430723D01*
X77033429Y-61430723D02*
X77081048Y-61335485D01*
X77081048Y-61335485D02*
X77176286Y-61287866D01*
X77176286Y-61287866D02*
X77414381Y-61287866D01*
X77414381Y-61287866D02*
X77509619Y-61240247D01*
X78414381Y-61621200D02*
X78319143Y-61668819D01*
X78319143Y-61668819D02*
X78128667Y-61668819D01*
X78128667Y-61668819D02*
X78033429Y-61621200D01*
X78033429Y-61621200D02*
X77985810Y-61573580D01*
X77985810Y-61573580D02*
X77938191Y-61478342D01*
X77938191Y-61478342D02*
X77938191Y-61192628D01*
X77938191Y-61192628D02*
X77985810Y-61097390D01*
X77985810Y-61097390D02*
X78033429Y-61049771D01*
X78033429Y-61049771D02*
X78128667Y-61002152D01*
X78128667Y-61002152D02*
X78319143Y-61002152D01*
X78319143Y-61002152D02*
X78414381Y-61049771D01*
X78842953Y-61668819D02*
X78842953Y-60668819D01*
X78938191Y-61287866D02*
X79223905Y-61668819D01*
X79223905Y-61002152D02*
X78842953Y-61383104D01*
X79652477Y-61287866D02*
X80414382Y-61287866D01*
X80890572Y-61668819D02*
X80890572Y-60668819D01*
X80890572Y-60668819D02*
X81271524Y-60668819D01*
X81271524Y-60668819D02*
X81366762Y-60716438D01*
X81366762Y-60716438D02*
X81414381Y-60764057D01*
X81414381Y-60764057D02*
X81462000Y-60859295D01*
X81462000Y-60859295D02*
X81462000Y-61002152D01*
X81462000Y-61002152D02*
X81414381Y-61097390D01*
X81414381Y-61097390D02*
X81366762Y-61145009D01*
X81366762Y-61145009D02*
X81271524Y-61192628D01*
X81271524Y-61192628D02*
X80890572Y-61192628D01*
X81890572Y-61668819D02*
X81890572Y-61002152D01*
X81890572Y-60668819D02*
X81842953Y-60716438D01*
X81842953Y-60716438D02*
X81890572Y-60764057D01*
X81890572Y-60764057D02*
X81938191Y-60716438D01*
X81938191Y-60716438D02*
X81890572Y-60668819D01*
X81890572Y-60668819D02*
X81890572Y-60764057D01*
X82509619Y-61668819D02*
X82414381Y-61621200D01*
X82414381Y-61621200D02*
X82366762Y-61525961D01*
X82366762Y-61525961D02*
X82366762Y-60668819D01*
X83033429Y-61668819D02*
X82938191Y-61621200D01*
X82938191Y-61621200D02*
X82890572Y-61525961D01*
X82890572Y-61525961D02*
X82890572Y-60668819D01*
X83938191Y-61668819D02*
X83366763Y-61668819D01*
X83652477Y-61668819D02*
X83652477Y-60668819D01*
X83652477Y-60668819D02*
X83557239Y-60811676D01*
X83557239Y-60811676D02*
X83462001Y-60906914D01*
X83462001Y-60906914D02*
X83366763Y-60954533D01*
X92797333Y-75130819D02*
X92464000Y-74654628D01*
X92225905Y-75130819D02*
X92225905Y-74130819D01*
X92225905Y-74130819D02*
X92606857Y-74130819D01*
X92606857Y-74130819D02*
X92702095Y-74178438D01*
X92702095Y-74178438D02*
X92749714Y-74226057D01*
X92749714Y-74226057D02*
X92797333Y-74321295D01*
X92797333Y-74321295D02*
X92797333Y-74464152D01*
X92797333Y-74464152D02*
X92749714Y-74559390D01*
X92749714Y-74559390D02*
X92702095Y-74607009D01*
X92702095Y-74607009D02*
X92606857Y-74654628D01*
X92606857Y-74654628D02*
X92225905Y-74654628D01*
X93273524Y-75130819D02*
X93464000Y-75130819D01*
X93464000Y-75130819D02*
X93559238Y-75083200D01*
X93559238Y-75083200D02*
X93606857Y-75035580D01*
X93606857Y-75035580D02*
X93702095Y-74892723D01*
X93702095Y-74892723D02*
X93749714Y-74702247D01*
X93749714Y-74702247D02*
X93749714Y-74321295D01*
X93749714Y-74321295D02*
X93702095Y-74226057D01*
X93702095Y-74226057D02*
X93654476Y-74178438D01*
X93654476Y-74178438D02*
X93559238Y-74130819D01*
X93559238Y-74130819D02*
X93368762Y-74130819D01*
X93368762Y-74130819D02*
X93273524Y-74178438D01*
X93273524Y-74178438D02*
X93225905Y-74226057D01*
X93225905Y-74226057D02*
X93178286Y-74321295D01*
X93178286Y-74321295D02*
X93178286Y-74559390D01*
X93178286Y-74559390D02*
X93225905Y-74654628D01*
X93225905Y-74654628D02*
X93273524Y-74702247D01*
X93273524Y-74702247D02*
X93368762Y-74749866D01*
X93368762Y-74749866D02*
X93559238Y-74749866D01*
X93559238Y-74749866D02*
X93654476Y-74702247D01*
X93654476Y-74702247D02*
X93702095Y-74654628D01*
X93702095Y-74654628D02*
X93749714Y-74559390D01*
X114681009Y-106383333D02*
X114681009Y-106716666D01*
X115204819Y-106716666D02*
X114204819Y-106716666D01*
X114204819Y-106716666D02*
X114204819Y-106240476D01*
X115204819Y-105335714D02*
X115204819Y-105907142D01*
X115204819Y-105621428D02*
X114204819Y-105621428D01*
X114204819Y-105621428D02*
X114347676Y-105716666D01*
X114347676Y-105716666D02*
X114442914Y-105811904D01*
X114442914Y-105811904D02*
X114490533Y-105907142D01*
X129793333Y-83656819D02*
X129460000Y-83180628D01*
X129221905Y-83656819D02*
X129221905Y-82656819D01*
X129221905Y-82656819D02*
X129602857Y-82656819D01*
X129602857Y-82656819D02*
X129698095Y-82704438D01*
X129698095Y-82704438D02*
X129745714Y-82752057D01*
X129745714Y-82752057D02*
X129793333Y-82847295D01*
X129793333Y-82847295D02*
X129793333Y-82990152D01*
X129793333Y-82990152D02*
X129745714Y-83085390D01*
X129745714Y-83085390D02*
X129698095Y-83133009D01*
X129698095Y-83133009D02*
X129602857Y-83180628D01*
X129602857Y-83180628D02*
X129221905Y-83180628D01*
X130126667Y-82656819D02*
X130745714Y-82656819D01*
X130745714Y-82656819D02*
X130412381Y-83037771D01*
X130412381Y-83037771D02*
X130555238Y-83037771D01*
X130555238Y-83037771D02*
X130650476Y-83085390D01*
X130650476Y-83085390D02*
X130698095Y-83133009D01*
X130698095Y-83133009D02*
X130745714Y-83228247D01*
X130745714Y-83228247D02*
X130745714Y-83466342D01*
X130745714Y-83466342D02*
X130698095Y-83561580D01*
X130698095Y-83561580D02*
X130650476Y-83609200D01*
X130650476Y-83609200D02*
X130555238Y-83656819D01*
X130555238Y-83656819D02*
X130269524Y-83656819D01*
X130269524Y-83656819D02*
X130174286Y-83609200D01*
X130174286Y-83609200D02*
X130126667Y-83561580D01*
X173807333Y-97356819D02*
X173474000Y-96880628D01*
X173235905Y-97356819D02*
X173235905Y-96356819D01*
X173235905Y-96356819D02*
X173616857Y-96356819D01*
X173616857Y-96356819D02*
X173712095Y-96404438D01*
X173712095Y-96404438D02*
X173759714Y-96452057D01*
X173759714Y-96452057D02*
X173807333Y-96547295D01*
X173807333Y-96547295D02*
X173807333Y-96690152D01*
X173807333Y-96690152D02*
X173759714Y-96785390D01*
X173759714Y-96785390D02*
X173712095Y-96833009D01*
X173712095Y-96833009D02*
X173616857Y-96880628D01*
X173616857Y-96880628D02*
X173235905Y-96880628D01*
X174188286Y-96452057D02*
X174235905Y-96404438D01*
X174235905Y-96404438D02*
X174331143Y-96356819D01*
X174331143Y-96356819D02*
X174569238Y-96356819D01*
X174569238Y-96356819D02*
X174664476Y-96404438D01*
X174664476Y-96404438D02*
X174712095Y-96452057D01*
X174712095Y-96452057D02*
X174759714Y-96547295D01*
X174759714Y-96547295D02*
X174759714Y-96642533D01*
X174759714Y-96642533D02*
X174712095Y-96785390D01*
X174712095Y-96785390D02*
X174140667Y-97356819D01*
X174140667Y-97356819D02*
X174759714Y-97356819D01*
X180254819Y-105663904D02*
X181064342Y-105663904D01*
X181064342Y-105663904D02*
X181159580Y-105616285D01*
X181159580Y-105616285D02*
X181207200Y-105568666D01*
X181207200Y-105568666D02*
X181254819Y-105473428D01*
X181254819Y-105473428D02*
X181254819Y-105282952D01*
X181254819Y-105282952D02*
X181207200Y-105187714D01*
X181207200Y-105187714D02*
X181159580Y-105140095D01*
X181159580Y-105140095D02*
X181064342Y-105092476D01*
X181064342Y-105092476D02*
X180254819Y-105092476D01*
X180683390Y-104473428D02*
X180635771Y-104568666D01*
X180635771Y-104568666D02*
X180588152Y-104616285D01*
X180588152Y-104616285D02*
X180492914Y-104663904D01*
X180492914Y-104663904D02*
X180445295Y-104663904D01*
X180445295Y-104663904D02*
X180350057Y-104616285D01*
X180350057Y-104616285D02*
X180302438Y-104568666D01*
X180302438Y-104568666D02*
X180254819Y-104473428D01*
X180254819Y-104473428D02*
X180254819Y-104282952D01*
X180254819Y-104282952D02*
X180302438Y-104187714D01*
X180302438Y-104187714D02*
X180350057Y-104140095D01*
X180350057Y-104140095D02*
X180445295Y-104092476D01*
X180445295Y-104092476D02*
X180492914Y-104092476D01*
X180492914Y-104092476D02*
X180588152Y-104140095D01*
X180588152Y-104140095D02*
X180635771Y-104187714D01*
X180635771Y-104187714D02*
X180683390Y-104282952D01*
X180683390Y-104282952D02*
X180683390Y-104473428D01*
X180683390Y-104473428D02*
X180731009Y-104568666D01*
X180731009Y-104568666D02*
X180778628Y-104616285D01*
X180778628Y-104616285D02*
X180873866Y-104663904D01*
X180873866Y-104663904D02*
X181064342Y-104663904D01*
X181064342Y-104663904D02*
X181159580Y-104616285D01*
X181159580Y-104616285D02*
X181207200Y-104568666D01*
X181207200Y-104568666D02*
X181254819Y-104473428D01*
X181254819Y-104473428D02*
X181254819Y-104282952D01*
X181254819Y-104282952D02*
X181207200Y-104187714D01*
X181207200Y-104187714D02*
X181159580Y-104140095D01*
X181159580Y-104140095D02*
X181064342Y-104092476D01*
X181064342Y-104092476D02*
X180873866Y-104092476D01*
X180873866Y-104092476D02*
X180778628Y-104140095D01*
X180778628Y-104140095D02*
X180731009Y-104187714D01*
X180731009Y-104187714D02*
X180683390Y-104282952D01*
D10*
G36*
X52695722Y-62539329D02*
G01*
X52744198Y-62587805D01*
X52797814Y-62695036D01*
X52797814Y-63071429D01*
X52283528Y-63071429D01*
X52283528Y-62695037D01*
X52337144Y-62587805D01*
X52385619Y-62539329D01*
X52492849Y-62485714D01*
X52588492Y-62485714D01*
X52695722Y-62539329D01*
G37*
G36*
X53481434Y-62467899D02*
G01*
X53529914Y-62516379D01*
X53583528Y-62623606D01*
X53583528Y-63071429D01*
X52997814Y-63071429D01*
X52997814Y-62687655D01*
X53056644Y-62511162D01*
X53099907Y-62467899D01*
X53207135Y-62414286D01*
X53374207Y-62414286D01*
X53481434Y-62467899D01*
G37*
G36*
X53418117Y-60904582D02*
G01*
X53529913Y-61016378D01*
X53583528Y-61123606D01*
X53583528Y-61362107D01*
X53529913Y-61469337D01*
X53418117Y-61581132D01*
X53171219Y-61642857D01*
X52695837Y-61642857D01*
X52448939Y-61581132D01*
X52337142Y-61469335D01*
X52283528Y-61362107D01*
X52283528Y-61123608D01*
X52337142Y-61016378D01*
X52448938Y-60904582D01*
X52695837Y-60842857D01*
X53171218Y-60842857D01*
X53418117Y-60904582D01*
G37*
G36*
X52767148Y-56110755D02*
G01*
X52815628Y-56159235D01*
X52869242Y-56266462D01*
X52869242Y-56714285D01*
X52283528Y-56714285D01*
X52283528Y-56266464D01*
X52337144Y-56159232D01*
X52385620Y-56110755D01*
X52492849Y-56057142D01*
X52659921Y-56057142D01*
X52767148Y-56110755D01*
G37*
G36*
X53997814Y-63485715D02*
G01*
X51869242Y-63485715D01*
X51869242Y-63171429D01*
X52083528Y-63171429D01*
X52088422Y-63186491D01*
X52088422Y-63202331D01*
X52097731Y-63215144D01*
X52102626Y-63230208D01*
X52115439Y-63239517D01*
X52124749Y-63252331D01*
X52139812Y-63257225D01*
X52152626Y-63266535D01*
X52168465Y-63266535D01*
X52183528Y-63271429D01*
X53683528Y-63271429D01*
X53698591Y-63266535D01*
X53714430Y-63266535D01*
X53727243Y-63257225D01*
X53742307Y-63252331D01*
X53751616Y-63239517D01*
X53764430Y-63230208D01*
X53769324Y-63215144D01*
X53778634Y-63202331D01*
X53778634Y-63186491D01*
X53783528Y-63171429D01*
X53783528Y-62600000D01*
X53776404Y-62578076D01*
X53772971Y-62555279D01*
X53701543Y-62412422D01*
X53690169Y-62400874D01*
X53682811Y-62386432D01*
X53611382Y-62315003D01*
X53596939Y-62307644D01*
X53585392Y-62296271D01*
X53442535Y-62224843D01*
X53419737Y-62221409D01*
X53397814Y-62214286D01*
X53183528Y-62214286D01*
X53161604Y-62221409D01*
X53138807Y-62224843D01*
X52995950Y-62296271D01*
X52984402Y-62307644D01*
X52969960Y-62315003D01*
X52898531Y-62386432D01*
X52888063Y-62406975D01*
X52874374Y-62425521D01*
X52871969Y-62432734D01*
X52825668Y-62386433D01*
X52811226Y-62379074D01*
X52799678Y-62367700D01*
X52656822Y-62296271D01*
X52634023Y-62292837D01*
X52612100Y-62285714D01*
X52469242Y-62285714D01*
X52447318Y-62292837D01*
X52424520Y-62296271D01*
X52281663Y-62367700D01*
X52270113Y-62379075D01*
X52255674Y-62386433D01*
X52184246Y-62457862D01*
X52176888Y-62472302D01*
X52165514Y-62483851D01*
X52094085Y-62626707D01*
X52090651Y-62649505D01*
X52083528Y-62671429D01*
X52083528Y-63171429D01*
X51869242Y-63171429D01*
X51869242Y-61385714D01*
X52083528Y-61385714D01*
X52090651Y-61407637D01*
X52094085Y-61430435D01*
X52165514Y-61573293D01*
X52176887Y-61584840D01*
X52184246Y-61599283D01*
X52327103Y-61742139D01*
X52350907Y-61754268D01*
X52373561Y-61768443D01*
X52659274Y-61839871D01*
X52671690Y-61839010D01*
X52683528Y-61842857D01*
X53183528Y-61842857D01*
X53195365Y-61839010D01*
X53207781Y-61839871D01*
X53493495Y-61768443D01*
X53516145Y-61754269D01*
X53539952Y-61742140D01*
X53682810Y-61599283D01*
X53690168Y-61584842D01*
X53701543Y-61573293D01*
X53772971Y-61430435D01*
X53776404Y-61407637D01*
X53783528Y-61385714D01*
X53783528Y-61100000D01*
X53776404Y-61078076D01*
X53772971Y-61055279D01*
X53701543Y-60912422D01*
X53690168Y-60900873D01*
X53682810Y-60886432D01*
X53539952Y-60743575D01*
X53516141Y-60731443D01*
X53493495Y-60717272D01*
X53207782Y-60645843D01*
X53195365Y-60646703D01*
X53183528Y-60642857D01*
X52683528Y-60642857D01*
X52671690Y-60646703D01*
X52659274Y-60645843D01*
X52373560Y-60717272D01*
X52350908Y-60731446D01*
X52327103Y-60743576D01*
X52184246Y-60886432D01*
X52176887Y-60900874D01*
X52165514Y-60912422D01*
X52094085Y-61055278D01*
X52090651Y-61078076D01*
X52083528Y-61100000D01*
X52083528Y-61385714D01*
X51869242Y-61385714D01*
X51869242Y-60130902D01*
X52088422Y-60130902D01*
X52124749Y-60180902D01*
X52183528Y-60200000D01*
X53683528Y-60200000D01*
X53742307Y-60180902D01*
X53778634Y-60130902D01*
X53778634Y-60069098D01*
X53742307Y-60019098D01*
X53683528Y-60000000D01*
X52183528Y-60000000D01*
X52124749Y-60019098D01*
X52088422Y-60069098D01*
X52088422Y-60130902D01*
X51869242Y-60130902D01*
X51869242Y-59416616D01*
X52088422Y-59416616D01*
X52124749Y-59466616D01*
X52183528Y-59485714D01*
X53683528Y-59485714D01*
X53698591Y-59480820D01*
X53714430Y-59480820D01*
X53727243Y-59471510D01*
X53742307Y-59466616D01*
X53751616Y-59453802D01*
X53764430Y-59444493D01*
X53769324Y-59429429D01*
X53778634Y-59416616D01*
X53778634Y-59400776D01*
X53783528Y-59385714D01*
X53783528Y-58671428D01*
X53764430Y-58612649D01*
X53714430Y-58576322D01*
X53652626Y-58576322D01*
X53602626Y-58612649D01*
X53583528Y-58671428D01*
X53583528Y-59285714D01*
X52183528Y-59285714D01*
X52124749Y-59304812D01*
X52088422Y-59354812D01*
X52088422Y-59416616D01*
X51869242Y-59416616D01*
X51869242Y-58171428D01*
X52083528Y-58171428D01*
X52088422Y-58186490D01*
X52088422Y-58202330D01*
X52097731Y-58215143D01*
X52102626Y-58230207D01*
X52115439Y-58239516D01*
X52124749Y-58252330D01*
X52139812Y-58257224D01*
X52152626Y-58266534D01*
X52168465Y-58266534D01*
X52183528Y-58271428D01*
X53683528Y-58271428D01*
X53698591Y-58266534D01*
X53714430Y-58266534D01*
X53727243Y-58257224D01*
X53742307Y-58252330D01*
X53751616Y-58239516D01*
X53764430Y-58230207D01*
X53769324Y-58215143D01*
X53778634Y-58202330D01*
X53778634Y-58186490D01*
X53783528Y-58171428D01*
X53783528Y-57457142D01*
X53764430Y-57398363D01*
X53714430Y-57362036D01*
X53652626Y-57362036D01*
X53602626Y-57398363D01*
X53583528Y-57457142D01*
X53583528Y-58071428D01*
X52997814Y-58071428D01*
X52997814Y-57671428D01*
X52978716Y-57612649D01*
X52928716Y-57576322D01*
X52866912Y-57576322D01*
X52816912Y-57612649D01*
X52797814Y-57671428D01*
X52797814Y-58071428D01*
X52283528Y-58071428D01*
X52283528Y-57457142D01*
X52264430Y-57398363D01*
X52214430Y-57362036D01*
X52152626Y-57362036D01*
X52102626Y-57398363D01*
X52083528Y-57457142D01*
X52083528Y-58171428D01*
X51869242Y-58171428D01*
X51869242Y-56814285D01*
X52083528Y-56814285D01*
X52088422Y-56829347D01*
X52088422Y-56845187D01*
X52097731Y-56858000D01*
X52102626Y-56873064D01*
X52115439Y-56882373D01*
X52124749Y-56895187D01*
X52139812Y-56900081D01*
X52152626Y-56909391D01*
X52168465Y-56909391D01*
X52183528Y-56914285D01*
X53683528Y-56914285D01*
X53742307Y-56895187D01*
X53778634Y-56845187D01*
X53778634Y-56783383D01*
X53742307Y-56733383D01*
X53683528Y-56714285D01*
X53069242Y-56714285D01*
X53069242Y-56509207D01*
X53740874Y-56039065D01*
X53778076Y-55989712D01*
X53779163Y-55927918D01*
X53743721Y-55877286D01*
X53685287Y-55857157D01*
X53626182Y-55875219D01*
X53069242Y-56265076D01*
X53069242Y-56242856D01*
X53062118Y-56220932D01*
X53058685Y-56198135D01*
X52987257Y-56055278D01*
X52975883Y-56043730D01*
X52968525Y-56029288D01*
X52897096Y-55957859D01*
X52882653Y-55950500D01*
X52871106Y-55939127D01*
X52728249Y-55867699D01*
X52705451Y-55864265D01*
X52683528Y-55857142D01*
X52469242Y-55857142D01*
X52447318Y-55864265D01*
X52424521Y-55867699D01*
X52281664Y-55939127D01*
X52270115Y-55950501D01*
X52255674Y-55957860D01*
X52184246Y-56029289D01*
X52176888Y-56043729D01*
X52165514Y-56055278D01*
X52094085Y-56198134D01*
X52090651Y-56220932D01*
X52083528Y-56242856D01*
X52083528Y-56814285D01*
X51869242Y-56814285D01*
X51869242Y-55642856D01*
X53997814Y-55642856D01*
X53997814Y-63485715D01*
G37*
D11*
X159932761Y-104594819D02*
X159599428Y-104118628D01*
X159361333Y-104594819D02*
X159361333Y-103594819D01*
X159361333Y-103594819D02*
X159742285Y-103594819D01*
X159742285Y-103594819D02*
X159837523Y-103642438D01*
X159837523Y-103642438D02*
X159885142Y-103690057D01*
X159885142Y-103690057D02*
X159932761Y-103785295D01*
X159932761Y-103785295D02*
X159932761Y-103928152D01*
X159932761Y-103928152D02*
X159885142Y-104023390D01*
X159885142Y-104023390D02*
X159837523Y-104071009D01*
X159837523Y-104071009D02*
X159742285Y-104118628D01*
X159742285Y-104118628D02*
X159361333Y-104118628D01*
X160218476Y-103594819D02*
X160551809Y-104594819D01*
X160551809Y-104594819D02*
X160885142Y-103594819D01*
X161742285Y-104594819D02*
X161170857Y-104594819D01*
X161456571Y-104594819D02*
X161456571Y-103594819D01*
X161456571Y-103594819D02*
X161361333Y-103737676D01*
X161361333Y-103737676D02*
X161266095Y-103832914D01*
X161266095Y-103832914D02*
X161170857Y-103880533D01*
X137955580Y-105032666D02*
X138003200Y-105080285D01*
X138003200Y-105080285D02*
X138050819Y-105223142D01*
X138050819Y-105223142D02*
X138050819Y-105318380D01*
X138050819Y-105318380D02*
X138003200Y-105461237D01*
X138003200Y-105461237D02*
X137907961Y-105556475D01*
X137907961Y-105556475D02*
X137812723Y-105604094D01*
X137812723Y-105604094D02*
X137622247Y-105651713D01*
X137622247Y-105651713D02*
X137479390Y-105651713D01*
X137479390Y-105651713D02*
X137288914Y-105604094D01*
X137288914Y-105604094D02*
X137193676Y-105556475D01*
X137193676Y-105556475D02*
X137098438Y-105461237D01*
X137098438Y-105461237D02*
X137050819Y-105318380D01*
X137050819Y-105318380D02*
X137050819Y-105223142D01*
X137050819Y-105223142D02*
X137098438Y-105080285D01*
X137098438Y-105080285D02*
X137146057Y-105032666D01*
X138050819Y-104080285D02*
X138050819Y-104651713D01*
X138050819Y-104365999D02*
X137050819Y-104365999D01*
X137050819Y-104365999D02*
X137193676Y-104461237D01*
X137193676Y-104461237D02*
X137288914Y-104556475D01*
X137288914Y-104556475D02*
X137336533Y-104651713D01*
X76162819Y-80771904D02*
X76972342Y-80771904D01*
X76972342Y-80771904D02*
X77067580Y-80724285D01*
X77067580Y-80724285D02*
X77115200Y-80676666D01*
X77115200Y-80676666D02*
X77162819Y-80581428D01*
X77162819Y-80581428D02*
X77162819Y-80390952D01*
X77162819Y-80390952D02*
X77115200Y-80295714D01*
X77115200Y-80295714D02*
X77067580Y-80248095D01*
X77067580Y-80248095D02*
X76972342Y-80200476D01*
X76972342Y-80200476D02*
X76162819Y-80200476D01*
X76162819Y-79819523D02*
X76162819Y-79152857D01*
X76162819Y-79152857D02*
X77162819Y-79581428D01*
D10*
G36*
X179354957Y-89704113D02*
G01*
X178699755Y-89485713D01*
X179354957Y-89267312D01*
X179354957Y-89704113D01*
G37*
G36*
X180197814Y-91581051D02*
G01*
X178069242Y-91581051D01*
X178069242Y-91272186D01*
X178283530Y-91272186D01*
X178303075Y-91330818D01*
X178353349Y-91366765D01*
X178415151Y-91366295D01*
X179915151Y-90866295D01*
X179939414Y-90848384D01*
X179963982Y-90830818D01*
X179964233Y-90830062D01*
X179964874Y-90829590D01*
X179973979Y-90800824D01*
X179983526Y-90772186D01*
X179983285Y-90771427D01*
X179983526Y-90770668D01*
X179973979Y-90742029D01*
X179964874Y-90713264D01*
X179964233Y-90712791D01*
X179963982Y-90712036D01*
X179939414Y-90694469D01*
X179915151Y-90676559D01*
X178415151Y-90176559D01*
X178353349Y-90176089D01*
X178303075Y-90212036D01*
X178283530Y-90270668D01*
X178302182Y-90329590D01*
X178351905Y-90366295D01*
X179567301Y-90771427D01*
X178351905Y-91176559D01*
X178302182Y-91213264D01*
X178283530Y-91272186D01*
X178069242Y-91272186D01*
X178069242Y-89486472D01*
X178283530Y-89486472D01*
X178293066Y-89515081D01*
X178302182Y-89543876D01*
X178302823Y-89544349D01*
X178303075Y-89545104D01*
X178327626Y-89562658D01*
X178351905Y-89580581D01*
X179851905Y-90080581D01*
X179913707Y-90081051D01*
X179963982Y-90045104D01*
X179983526Y-89986472D01*
X179964874Y-89927550D01*
X179915151Y-89890845D01*
X179554957Y-89770780D01*
X179554957Y-89200645D01*
X179915151Y-89080581D01*
X179964874Y-89043876D01*
X179983526Y-88984954D01*
X179963982Y-88926322D01*
X179913707Y-88890375D01*
X179851905Y-88890845D01*
X178351905Y-89390845D01*
X178327626Y-89408767D01*
X178303075Y-89426322D01*
X178302823Y-89427076D01*
X178302182Y-89427550D01*
X178293066Y-89456344D01*
X178283530Y-89484954D01*
X178283770Y-89485713D01*
X178283530Y-89486472D01*
X178069242Y-89486472D01*
X178069242Y-88516616D01*
X178288422Y-88516616D01*
X178324749Y-88566616D01*
X178383528Y-88585714D01*
X179883528Y-88585714D01*
X179898591Y-88580820D01*
X179914430Y-88580820D01*
X179927243Y-88571510D01*
X179942307Y-88566616D01*
X179951616Y-88553802D01*
X179964430Y-88544493D01*
X179969324Y-88529429D01*
X179978634Y-88516616D01*
X179978634Y-88500776D01*
X179983528Y-88485714D01*
X179983528Y-87771428D01*
X179964430Y-87712649D01*
X179914430Y-87676322D01*
X179852626Y-87676322D01*
X179802626Y-87712649D01*
X179783528Y-87771428D01*
X179783528Y-88385714D01*
X178383528Y-88385714D01*
X178324749Y-88404812D01*
X178288422Y-88454812D01*
X178288422Y-88516616D01*
X178069242Y-88516616D01*
X178069242Y-87486472D01*
X178283530Y-87486472D01*
X178303075Y-87545104D01*
X178353349Y-87581051D01*
X178415151Y-87580581D01*
X179915151Y-87080581D01*
X179939414Y-87062670D01*
X179963982Y-87045104D01*
X179964233Y-87044348D01*
X179964874Y-87043876D01*
X179973979Y-87015110D01*
X179983526Y-86986472D01*
X179983285Y-86985713D01*
X179983526Y-86984954D01*
X179973979Y-86956315D01*
X179964874Y-86927550D01*
X179964233Y-86927077D01*
X179963982Y-86926322D01*
X179939414Y-86908755D01*
X179915151Y-86890845D01*
X178415151Y-86390845D01*
X178353349Y-86390375D01*
X178303075Y-86426322D01*
X178283530Y-86484954D01*
X178302182Y-86543876D01*
X178351905Y-86580581D01*
X179567301Y-86985713D01*
X178351905Y-87390845D01*
X178302182Y-87427550D01*
X178283530Y-87486472D01*
X178069242Y-87486472D01*
X178069242Y-85985714D01*
X178283528Y-85985714D01*
X178288422Y-86000776D01*
X178288422Y-86016616D01*
X178297731Y-86029429D01*
X178302626Y-86044493D01*
X178315439Y-86053802D01*
X178324749Y-86066616D01*
X178339812Y-86071510D01*
X178352626Y-86080820D01*
X178368465Y-86080820D01*
X178383528Y-86085714D01*
X179883528Y-86085714D01*
X179898591Y-86080820D01*
X179914430Y-86080820D01*
X179927243Y-86071510D01*
X179942307Y-86066616D01*
X179951616Y-86053802D01*
X179964430Y-86044493D01*
X179969324Y-86029429D01*
X179978634Y-86016616D01*
X179978634Y-86000776D01*
X179983528Y-85985714D01*
X179983528Y-85271428D01*
X179964430Y-85212649D01*
X179914430Y-85176322D01*
X179852626Y-85176322D01*
X179802626Y-85212649D01*
X179783528Y-85271428D01*
X179783528Y-85885714D01*
X179197814Y-85885714D01*
X179197814Y-85485714D01*
X179178716Y-85426935D01*
X179128716Y-85390608D01*
X179066912Y-85390608D01*
X179016912Y-85426935D01*
X178997814Y-85485714D01*
X178997814Y-85885714D01*
X178483528Y-85885714D01*
X178483528Y-85271428D01*
X178464430Y-85212649D01*
X178414430Y-85176322D01*
X178352626Y-85176322D01*
X178302626Y-85212649D01*
X178283528Y-85271428D01*
X178283528Y-85985714D01*
X178069242Y-85985714D01*
X178069242Y-84962036D01*
X180197814Y-84962036D01*
X180197814Y-91581051D01*
G37*
D11*
X178875655Y-82132004D02*
X178875655Y-82943057D01*
X178875655Y-82943057D02*
X178923364Y-83038475D01*
X178923364Y-83038475D02*
X178971073Y-83086185D01*
X178971073Y-83086185D02*
X179066491Y-83133894D01*
X179066491Y-83133894D02*
X179257327Y-83133894D01*
X179257327Y-83133894D02*
X179352745Y-83086185D01*
X179352745Y-83086185D02*
X179400454Y-83038475D01*
X179400454Y-83038475D02*
X179448163Y-82943057D01*
X179448163Y-82943057D02*
X179448163Y-82132004D01*
X179877545Y-82227422D02*
X179925254Y-82179713D01*
X179925254Y-82179713D02*
X180020672Y-82132004D01*
X180020672Y-82132004D02*
X180259217Y-82132004D01*
X180259217Y-82132004D02*
X180354635Y-82179713D01*
X180354635Y-82179713D02*
X180402344Y-82227422D01*
X180402344Y-82227422D02*
X180450053Y-82322840D01*
X180450053Y-82322840D02*
X180450053Y-82418258D01*
X180450053Y-82418258D02*
X180402344Y-82561385D01*
X180402344Y-82561385D02*
X179829836Y-83133894D01*
X179829836Y-83133894D02*
X180450053Y-83133894D01*
X69993333Y-72924819D02*
X69660000Y-72448628D01*
X69421905Y-72924819D02*
X69421905Y-71924819D01*
X69421905Y-71924819D02*
X69802857Y-71924819D01*
X69802857Y-71924819D02*
X69898095Y-71972438D01*
X69898095Y-71972438D02*
X69945714Y-72020057D01*
X69945714Y-72020057D02*
X69993333Y-72115295D01*
X69993333Y-72115295D02*
X69993333Y-72258152D01*
X69993333Y-72258152D02*
X69945714Y-72353390D01*
X69945714Y-72353390D02*
X69898095Y-72401009D01*
X69898095Y-72401009D02*
X69802857Y-72448628D01*
X69802857Y-72448628D02*
X69421905Y-72448628D01*
X70898095Y-71924819D02*
X70421905Y-71924819D01*
X70421905Y-71924819D02*
X70374286Y-72401009D01*
X70374286Y-72401009D02*
X70421905Y-72353390D01*
X70421905Y-72353390D02*
X70517143Y-72305771D01*
X70517143Y-72305771D02*
X70755238Y-72305771D01*
X70755238Y-72305771D02*
X70850476Y-72353390D01*
X70850476Y-72353390D02*
X70898095Y-72401009D01*
X70898095Y-72401009D02*
X70945714Y-72496247D01*
X70945714Y-72496247D02*
X70945714Y-72734342D01*
X70945714Y-72734342D02*
X70898095Y-72829580D01*
X70898095Y-72829580D02*
X70850476Y-72877200D01*
X70850476Y-72877200D02*
X70755238Y-72924819D01*
X70755238Y-72924819D02*
X70517143Y-72924819D01*
X70517143Y-72924819D02*
X70421905Y-72877200D01*
X70421905Y-72877200D02*
X70374286Y-72829580D01*
X84341905Y-80744819D02*
X84341905Y-79744819D01*
X84341905Y-79744819D02*
X84580000Y-79744819D01*
X84580000Y-79744819D02*
X84722857Y-79792438D01*
X84722857Y-79792438D02*
X84818095Y-79887676D01*
X84818095Y-79887676D02*
X84865714Y-79982914D01*
X84865714Y-79982914D02*
X84913333Y-80173390D01*
X84913333Y-80173390D02*
X84913333Y-80316247D01*
X84913333Y-80316247D02*
X84865714Y-80506723D01*
X84865714Y-80506723D02*
X84818095Y-80601961D01*
X84818095Y-80601961D02*
X84722857Y-80697200D01*
X84722857Y-80697200D02*
X84580000Y-80744819D01*
X84580000Y-80744819D02*
X84341905Y-80744819D01*
X85818095Y-79744819D02*
X85341905Y-79744819D01*
X85341905Y-79744819D02*
X85294286Y-80221009D01*
X85294286Y-80221009D02*
X85341905Y-80173390D01*
X85341905Y-80173390D02*
X85437143Y-80125771D01*
X85437143Y-80125771D02*
X85675238Y-80125771D01*
X85675238Y-80125771D02*
X85770476Y-80173390D01*
X85770476Y-80173390D02*
X85818095Y-80221009D01*
X85818095Y-80221009D02*
X85865714Y-80316247D01*
X85865714Y-80316247D02*
X85865714Y-80554342D01*
X85865714Y-80554342D02*
X85818095Y-80649580D01*
X85818095Y-80649580D02*
X85770476Y-80697200D01*
X85770476Y-80697200D02*
X85675238Y-80744819D01*
X85675238Y-80744819D02*
X85437143Y-80744819D01*
X85437143Y-80744819D02*
X85341905Y-80697200D01*
X85341905Y-80697200D02*
X85294286Y-80649580D01*
X163833333Y-98359580D02*
X163785714Y-98407200D01*
X163785714Y-98407200D02*
X163642857Y-98454819D01*
X163642857Y-98454819D02*
X163547619Y-98454819D01*
X163547619Y-98454819D02*
X163404762Y-98407200D01*
X163404762Y-98407200D02*
X163309524Y-98311961D01*
X163309524Y-98311961D02*
X163261905Y-98216723D01*
X163261905Y-98216723D02*
X163214286Y-98026247D01*
X163214286Y-98026247D02*
X163214286Y-97883390D01*
X163214286Y-97883390D02*
X163261905Y-97692914D01*
X163261905Y-97692914D02*
X163309524Y-97597676D01*
X163309524Y-97597676D02*
X163404762Y-97502438D01*
X163404762Y-97502438D02*
X163547619Y-97454819D01*
X163547619Y-97454819D02*
X163642857Y-97454819D01*
X163642857Y-97454819D02*
X163785714Y-97502438D01*
X163785714Y-97502438D02*
X163833333Y-97550057D01*
X164166667Y-97454819D02*
X164785714Y-97454819D01*
X164785714Y-97454819D02*
X164452381Y-97835771D01*
X164452381Y-97835771D02*
X164595238Y-97835771D01*
X164595238Y-97835771D02*
X164690476Y-97883390D01*
X164690476Y-97883390D02*
X164738095Y-97931009D01*
X164738095Y-97931009D02*
X164785714Y-98026247D01*
X164785714Y-98026247D02*
X164785714Y-98264342D01*
X164785714Y-98264342D02*
X164738095Y-98359580D01*
X164738095Y-98359580D02*
X164690476Y-98407200D01*
X164690476Y-98407200D02*
X164595238Y-98454819D01*
X164595238Y-98454819D02*
X164309524Y-98454819D01*
X164309524Y-98454819D02*
X164214286Y-98407200D01*
X164214286Y-98407200D02*
X164166667Y-98359580D01*
X122261905Y-92254819D02*
X122261905Y-91254819D01*
X122261905Y-91254819D02*
X122500000Y-91254819D01*
X122500000Y-91254819D02*
X122642857Y-91302438D01*
X122642857Y-91302438D02*
X122738095Y-91397676D01*
X122738095Y-91397676D02*
X122785714Y-91492914D01*
X122785714Y-91492914D02*
X122833333Y-91683390D01*
X122833333Y-91683390D02*
X122833333Y-91826247D01*
X122833333Y-91826247D02*
X122785714Y-92016723D01*
X122785714Y-92016723D02*
X122738095Y-92111961D01*
X122738095Y-92111961D02*
X122642857Y-92207200D01*
X122642857Y-92207200D02*
X122500000Y-92254819D01*
X122500000Y-92254819D02*
X122261905Y-92254819D01*
X123690476Y-91588152D02*
X123690476Y-92254819D01*
X123452381Y-91207200D02*
X123214286Y-91921485D01*
X123214286Y-91921485D02*
X123833333Y-91921485D01*
X130558095Y-90954819D02*
X130558095Y-89954819D01*
X131129523Y-90954819D02*
X130700952Y-90383390D01*
X131129523Y-89954819D02*
X130558095Y-90526247D01*
X77986666Y-71371009D02*
X77653333Y-71371009D01*
X77653333Y-71894819D02*
X77653333Y-70894819D01*
X77653333Y-70894819D02*
X78129523Y-70894819D01*
X78462857Y-70990057D02*
X78510476Y-70942438D01*
X78510476Y-70942438D02*
X78605714Y-70894819D01*
X78605714Y-70894819D02*
X78843809Y-70894819D01*
X78843809Y-70894819D02*
X78939047Y-70942438D01*
X78939047Y-70942438D02*
X78986666Y-70990057D01*
X78986666Y-70990057D02*
X79034285Y-71085295D01*
X79034285Y-71085295D02*
X79034285Y-71180533D01*
X79034285Y-71180533D02*
X78986666Y-71323390D01*
X78986666Y-71323390D02*
X78415238Y-71894819D01*
X78415238Y-71894819D02*
X79034285Y-71894819D01*
X141254761Y-88970057D02*
X141159523Y-88922438D01*
X141159523Y-88922438D02*
X141064285Y-88827200D01*
X141064285Y-88827200D02*
X140921428Y-88684342D01*
X140921428Y-88684342D02*
X140826190Y-88636723D01*
X140826190Y-88636723D02*
X140730952Y-88636723D01*
X140778571Y-88874819D02*
X140683333Y-88827200D01*
X140683333Y-88827200D02*
X140588095Y-88731961D01*
X140588095Y-88731961D02*
X140540476Y-88541485D01*
X140540476Y-88541485D02*
X140540476Y-88208152D01*
X140540476Y-88208152D02*
X140588095Y-88017676D01*
X140588095Y-88017676D02*
X140683333Y-87922438D01*
X140683333Y-87922438D02*
X140778571Y-87874819D01*
X140778571Y-87874819D02*
X140969047Y-87874819D01*
X140969047Y-87874819D02*
X141064285Y-87922438D01*
X141064285Y-87922438D02*
X141159523Y-88017676D01*
X141159523Y-88017676D02*
X141207142Y-88208152D01*
X141207142Y-88208152D02*
X141207142Y-88541485D01*
X141207142Y-88541485D02*
X141159523Y-88731961D01*
X141159523Y-88731961D02*
X141064285Y-88827200D01*
X141064285Y-88827200D02*
X140969047Y-88874819D01*
X140969047Y-88874819D02*
X140778571Y-88874819D01*
X142159523Y-88874819D02*
X141588095Y-88874819D01*
X141873809Y-88874819D02*
X141873809Y-87874819D01*
X141873809Y-87874819D02*
X141778571Y-88017676D01*
X141778571Y-88017676D02*
X141683333Y-88112914D01*
X141683333Y-88112914D02*
X141588095Y-88160533D01*
X54318819Y-79755904D02*
X55128342Y-79755904D01*
X55128342Y-79755904D02*
X55223580Y-79708285D01*
X55223580Y-79708285D02*
X55271200Y-79660666D01*
X55271200Y-79660666D02*
X55318819Y-79565428D01*
X55318819Y-79565428D02*
X55318819Y-79374952D01*
X55318819Y-79374952D02*
X55271200Y-79279714D01*
X55271200Y-79279714D02*
X55223580Y-79232095D01*
X55223580Y-79232095D02*
X55128342Y-79184476D01*
X55128342Y-79184476D02*
X54318819Y-79184476D01*
X54318819Y-78803523D02*
X54318819Y-78184476D01*
X54318819Y-78184476D02*
X54699771Y-78517809D01*
X54699771Y-78517809D02*
X54699771Y-78374952D01*
X54699771Y-78374952D02*
X54747390Y-78279714D01*
X54747390Y-78279714D02*
X54795009Y-78232095D01*
X54795009Y-78232095D02*
X54890247Y-78184476D01*
X54890247Y-78184476D02*
X55128342Y-78184476D01*
X55128342Y-78184476D02*
X55223580Y-78232095D01*
X55223580Y-78232095D02*
X55271200Y-78279714D01*
X55271200Y-78279714D02*
X55318819Y-78374952D01*
X55318819Y-78374952D02*
X55318819Y-78660666D01*
X55318819Y-78660666D02*
X55271200Y-78755904D01*
X55271200Y-78755904D02*
X55223580Y-78803523D01*
X174857580Y-105550666D02*
X174905200Y-105598285D01*
X174905200Y-105598285D02*
X174952819Y-105741142D01*
X174952819Y-105741142D02*
X174952819Y-105836380D01*
X174952819Y-105836380D02*
X174905200Y-105979237D01*
X174905200Y-105979237D02*
X174809961Y-106074475D01*
X174809961Y-106074475D02*
X174714723Y-106122094D01*
X174714723Y-106122094D02*
X174524247Y-106169713D01*
X174524247Y-106169713D02*
X174381390Y-106169713D01*
X174381390Y-106169713D02*
X174190914Y-106122094D01*
X174190914Y-106122094D02*
X174095676Y-106074475D01*
X174095676Y-106074475D02*
X174000438Y-105979237D01*
X174000438Y-105979237D02*
X173952819Y-105836380D01*
X173952819Y-105836380D02*
X173952819Y-105741142D01*
X173952819Y-105741142D02*
X174000438Y-105598285D01*
X174000438Y-105598285D02*
X174048057Y-105550666D01*
X174048057Y-105169713D02*
X174000438Y-105122094D01*
X174000438Y-105122094D02*
X173952819Y-105026856D01*
X173952819Y-105026856D02*
X173952819Y-104788761D01*
X173952819Y-104788761D02*
X174000438Y-104693523D01*
X174000438Y-104693523D02*
X174048057Y-104645904D01*
X174048057Y-104645904D02*
X174143295Y-104598285D01*
X174143295Y-104598285D02*
X174238533Y-104598285D01*
X174238533Y-104598285D02*
X174381390Y-104645904D01*
X174381390Y-104645904D02*
X174952819Y-105217332D01*
X174952819Y-105217332D02*
X174952819Y-104598285D01*
X60906819Y-80144857D02*
X60430628Y-80478190D01*
X60906819Y-80716285D02*
X59906819Y-80716285D01*
X59906819Y-80716285D02*
X59906819Y-80335333D01*
X59906819Y-80335333D02*
X59954438Y-80240095D01*
X59954438Y-80240095D02*
X60002057Y-80192476D01*
X60002057Y-80192476D02*
X60097295Y-80144857D01*
X60097295Y-80144857D02*
X60240152Y-80144857D01*
X60240152Y-80144857D02*
X60335390Y-80192476D01*
X60335390Y-80192476D02*
X60383009Y-80240095D01*
X60383009Y-80240095D02*
X60430628Y-80335333D01*
X60430628Y-80335333D02*
X60430628Y-80716285D01*
X60906819Y-79192476D02*
X60906819Y-79763904D01*
X60906819Y-79478190D02*
X59906819Y-79478190D01*
X59906819Y-79478190D02*
X60049676Y-79573428D01*
X60049676Y-79573428D02*
X60144914Y-79668666D01*
X60144914Y-79668666D02*
X60192533Y-79763904D01*
X59906819Y-78859142D02*
X59906819Y-78240095D01*
X59906819Y-78240095D02*
X60287771Y-78573428D01*
X60287771Y-78573428D02*
X60287771Y-78430571D01*
X60287771Y-78430571D02*
X60335390Y-78335333D01*
X60335390Y-78335333D02*
X60383009Y-78287714D01*
X60383009Y-78287714D02*
X60478247Y-78240095D01*
X60478247Y-78240095D02*
X60716342Y-78240095D01*
X60716342Y-78240095D02*
X60811580Y-78287714D01*
X60811580Y-78287714D02*
X60859200Y-78335333D01*
X60859200Y-78335333D02*
X60906819Y-78430571D01*
X60906819Y-78430571D02*
X60906819Y-78716285D01*
X60906819Y-78716285D02*
X60859200Y-78811523D01*
X60859200Y-78811523D02*
X60811580Y-78859142D01*
X64095333Y-61540819D02*
X63762000Y-61064628D01*
X63523905Y-61540819D02*
X63523905Y-60540819D01*
X63523905Y-60540819D02*
X63904857Y-60540819D01*
X63904857Y-60540819D02*
X64000095Y-60588438D01*
X64000095Y-60588438D02*
X64047714Y-60636057D01*
X64047714Y-60636057D02*
X64095333Y-60731295D01*
X64095333Y-60731295D02*
X64095333Y-60874152D01*
X64095333Y-60874152D02*
X64047714Y-60969390D01*
X64047714Y-60969390D02*
X64000095Y-61017009D01*
X64000095Y-61017009D02*
X63904857Y-61064628D01*
X63904857Y-61064628D02*
X63523905Y-61064628D01*
X64428667Y-60540819D02*
X65095333Y-60540819D01*
X65095333Y-60540819D02*
X64666762Y-61540819D01*
X97623333Y-58494819D02*
X97290000Y-58018628D01*
X97051905Y-58494819D02*
X97051905Y-57494819D01*
X97051905Y-57494819D02*
X97432857Y-57494819D01*
X97432857Y-57494819D02*
X97528095Y-57542438D01*
X97528095Y-57542438D02*
X97575714Y-57590057D01*
X97575714Y-57590057D02*
X97623333Y-57685295D01*
X97623333Y-57685295D02*
X97623333Y-57828152D01*
X97623333Y-57828152D02*
X97575714Y-57923390D01*
X97575714Y-57923390D02*
X97528095Y-57971009D01*
X97528095Y-57971009D02*
X97432857Y-58018628D01*
X97432857Y-58018628D02*
X97051905Y-58018628D01*
X98480476Y-57494819D02*
X98290000Y-57494819D01*
X98290000Y-57494819D02*
X98194762Y-57542438D01*
X98194762Y-57542438D02*
X98147143Y-57590057D01*
X98147143Y-57590057D02*
X98051905Y-57732914D01*
X98051905Y-57732914D02*
X98004286Y-57923390D01*
X98004286Y-57923390D02*
X98004286Y-58304342D01*
X98004286Y-58304342D02*
X98051905Y-58399580D01*
X98051905Y-58399580D02*
X98099524Y-58447200D01*
X98099524Y-58447200D02*
X98194762Y-58494819D01*
X98194762Y-58494819D02*
X98385238Y-58494819D01*
X98385238Y-58494819D02*
X98480476Y-58447200D01*
X98480476Y-58447200D02*
X98528095Y-58399580D01*
X98528095Y-58399580D02*
X98575714Y-58304342D01*
X98575714Y-58304342D02*
X98575714Y-58066247D01*
X98575714Y-58066247D02*
X98528095Y-57971009D01*
X98528095Y-57971009D02*
X98480476Y-57923390D01*
X98480476Y-57923390D02*
X98385238Y-57875771D01*
X98385238Y-57875771D02*
X98194762Y-57875771D01*
X98194762Y-57875771D02*
X98099524Y-57923390D01*
X98099524Y-57923390D02*
X98051905Y-57971009D01*
X98051905Y-57971009D02*
X98004286Y-58066247D01*
D10*
%TO.C,S1*%
X149020000Y-88410000D02*
G75*
G03*
X149020000Y-88410000I-100000J0D01*
G01*
D12*
X168670000Y-96110000D02*
X149670000Y-96110000D01*
X168670000Y-80710000D02*
X168670000Y-96110000D01*
X149670000Y-96110000D02*
X149670000Y-80710000D01*
X149670000Y-80710000D02*
X168670000Y-80710000D01*
D13*
%TO.C,R10*%
X156827064Y-67735000D02*
X156372936Y-67735000D01*
X156827064Y-66265000D02*
X156372936Y-66265000D01*
%TO.C,R8*%
X171372936Y-66715000D02*
X171827064Y-66715000D01*
X171372936Y-68185000D02*
X171827064Y-68185000D01*
%TO.C,PWR*%
X47850000Y-105300000D02*
X52150000Y-105300000D01*
X53500000Y-108300000D02*
X52500000Y-108050000D01*
X52150000Y-113380000D02*
X47850000Y-113380000D01*
X47850000Y-110380000D02*
X52150000Y-110380000D01*
X52500000Y-108050000D02*
X52500000Y-107550000D01*
X53500000Y-105300000D02*
X53500000Y-108300000D01*
X47850000Y-111130000D02*
X47850000Y-110380000D01*
X47850000Y-108300000D02*
X47850000Y-107550000D01*
X52150000Y-112630000D02*
X52150000Y-113380000D01*
X54460000Y-104150000D02*
X46990000Y-104150000D01*
X52150000Y-106050000D02*
X52500000Y-106050000D01*
X54850000Y-103760000D02*
X54850000Y-105760000D01*
X52150000Y-111130000D02*
X52500000Y-111130000D01*
X52500000Y-111130000D02*
X52500000Y-110630000D01*
X52150000Y-110380000D02*
X52150000Y-111130000D01*
X52150000Y-105300000D02*
X52150000Y-106050000D01*
X54460000Y-114530000D02*
X54460000Y-104150000D01*
X52500000Y-113130000D02*
X52500000Y-112630000D01*
X53500000Y-113380000D02*
X52500000Y-113130000D01*
X46990000Y-104150000D02*
X46990000Y-114530000D01*
X53600000Y-103760000D02*
X54850000Y-103760000D01*
X52500000Y-106050000D02*
X52500000Y-105550000D01*
X53500000Y-110380000D02*
X53500000Y-113380000D01*
X52150000Y-108300000D02*
X47850000Y-108300000D01*
X52500000Y-105550000D02*
X53500000Y-105300000D01*
X52150000Y-107550000D02*
X52150000Y-108300000D01*
X52500000Y-107550000D02*
X52150000Y-107550000D01*
X52500000Y-112630000D02*
X52150000Y-112630000D01*
X46990000Y-114530000D02*
X54460000Y-114530000D01*
X47850000Y-106050000D02*
X47850000Y-105300000D01*
X52500000Y-110630000D02*
X53500000Y-110380000D01*
X47850000Y-113380000D02*
X47850000Y-112630000D01*
X47850155Y-112629647D02*
G75*
G03*
X47850000Y-111130000I-1700155J749647D01*
G01*
X47850155Y-107549647D02*
G75*
G03*
X47850000Y-106050000I-1700155J749647D01*
G01*
%TO.C,C6*%
X54665000Y-73376248D02*
X54665000Y-73898752D01*
X56135000Y-73376248D02*
X56135000Y-73898752D01*
%TO.C,D1*%
X145962000Y-90926000D02*
X145962000Y-90276000D01*
X144842000Y-90276000D02*
X147082000Y-90276000D01*
X147082000Y-90276000D02*
X147082000Y-86036000D01*
X147082000Y-86876000D02*
X144842000Y-86876000D01*
X147082000Y-86756000D02*
X144842000Y-86756000D01*
X147082000Y-86636000D02*
X144842000Y-86636000D01*
X144842000Y-86036000D02*
X144842000Y-90276000D01*
X147082000Y-86036000D02*
X144842000Y-86036000D01*
X145962000Y-85386000D02*
X145962000Y-86036000D01*
D12*
%TO.C,U6*%
X66309000Y-83484000D02*
X66309000Y-79584000D01*
X71359000Y-83484000D02*
X71359000Y-79584000D01*
D10*
X66629000Y-85574000D02*
G75*
G03*
X66629000Y-85574000I-100000J0D01*
G01*
D13*
%TO.C,D3*%
X148996000Y-118210000D02*
X148996000Y-114910000D01*
X148996000Y-118210000D02*
X141986000Y-118210000D01*
X148996000Y-114910000D02*
X141986000Y-114910000D01*
D12*
%TO.C,U1*%
X139116000Y-108431000D02*
X149352000Y-108431000D01*
X149352000Y-108431000D02*
X149352000Y-105604000D01*
X139116000Y-105604000D02*
X139116000Y-108431000D01*
D10*
X140930000Y-113374000D02*
G75*
G03*
X140930000Y-113374000I-100000J0D01*
G01*
D13*
%TO.C,C7*%
X72235000Y-82811252D02*
X72235000Y-82288748D01*
X73705000Y-82811252D02*
X73705000Y-82288748D01*
%TO.C,J1*%
X108642000Y-52090000D02*
X108642000Y-56110000D01*
X108642000Y-53590000D02*
X109642000Y-53590000D01*
X108642000Y-56110000D02*
X116362000Y-56110000D01*
X109142000Y-54400000D02*
X108642000Y-54400000D01*
X109142000Y-55610000D02*
X109142000Y-54400000D01*
X109642000Y-53590000D02*
X109642000Y-52090000D01*
X115362000Y-53590000D02*
X115362000Y-52090000D01*
X115862000Y-54400000D02*
X115862000Y-55610000D01*
X115862000Y-55610000D02*
X109142000Y-55610000D01*
X116362000Y-52090000D02*
X108642000Y-52090000D01*
X116362000Y-53590000D02*
X115362000Y-53590000D01*
X116362000Y-54400000D02*
X115862000Y-54400000D01*
X116362000Y-56110000D02*
X116362000Y-52090000D01*
X116662000Y-51790000D02*
X114162000Y-51790000D01*
X116662000Y-54290000D02*
X116662000Y-51790000D01*
%TO.C,PRESSURE*%
X47220000Y-102606000D02*
X51240000Y-102606000D01*
X48720000Y-102606000D02*
X48720000Y-101606000D01*
X51240000Y-102606000D02*
X51240000Y-92386000D01*
X49530000Y-102106000D02*
X49530000Y-102606000D01*
X50740000Y-102106000D02*
X49530000Y-102106000D01*
X48720000Y-101606000D02*
X47220000Y-101606000D01*
X48720000Y-93386000D02*
X47220000Y-93386000D01*
X49530000Y-92886000D02*
X50740000Y-92886000D01*
X50740000Y-92886000D02*
X50740000Y-102106000D01*
X47220000Y-92386000D02*
X47220000Y-102606000D01*
X48720000Y-92386000D02*
X48720000Y-93386000D01*
X49530000Y-92386000D02*
X49530000Y-92886000D01*
X51240000Y-92386000D02*
X47220000Y-92386000D01*
X46920000Y-92086000D02*
X46920000Y-94586000D01*
X49420000Y-92086000D02*
X46920000Y-92086000D01*
%TO.C,C4*%
X136035000Y-111971252D02*
X136035000Y-111448748D01*
X137505000Y-111971252D02*
X137505000Y-111448748D01*
%TO.C,D2*%
X179798000Y-95463000D02*
X179642000Y-95463000D01*
X177482000Y-95463000D02*
X177326000Y-95463000D01*
X179640608Y-98695334D02*
G75*
G03*
X179797515Y-95463001I-1078608J1672334D01*
G01*
X179641836Y-98064129D02*
G75*
G03*
X179641999Y-95982040I-1079836J1041129D01*
G01*
X177482001Y-95982040D02*
G75*
G03*
X177482164Y-98064129I1079999J-1040960D01*
G01*
X177326485Y-95463001D02*
G75*
G03*
X177483392Y-98695334I1235515J-1559999D01*
G01*
%TO.C,R11*%
X87042936Y-73925000D02*
X87497064Y-73925000D01*
X87042936Y-75395000D02*
X87497064Y-75395000D01*
%TO.C,R4*%
X155785000Y-99042936D02*
X155785000Y-99497064D01*
X154315000Y-99042936D02*
X154315000Y-99497064D01*
%TO.C,R12*%
X91325000Y-77602936D02*
X91325000Y-78057064D01*
X89855000Y-77602936D02*
X89855000Y-78057064D01*
%TO.C,SCALES*%
X92820000Y-80690000D02*
X92820000Y-84710000D01*
X92820000Y-82190000D02*
X93820000Y-82190000D01*
X92820000Y-84710000D02*
X108040000Y-84710000D01*
X93320000Y-83000000D02*
X92820000Y-83000000D01*
X93320000Y-84210000D02*
X93320000Y-83000000D01*
X93820000Y-82190000D02*
X93820000Y-80690000D01*
X107040000Y-82190000D02*
X107040000Y-80690000D01*
X107540000Y-83000000D02*
X107540000Y-84210000D01*
X107540000Y-84210000D02*
X93320000Y-84210000D01*
X108040000Y-80690000D02*
X92820000Y-80690000D01*
X108040000Y-82190000D02*
X107040000Y-82190000D01*
X108040000Y-83000000D02*
X107540000Y-83000000D01*
X108040000Y-84710000D02*
X108040000Y-80690000D01*
X108340000Y-80390000D02*
X105840000Y-80390000D01*
X108340000Y-82890000D02*
X108340000Y-80390000D01*
%TO.C,U4*%
X134926000Y-82346000D02*
X139726000Y-82346000D01*
X134926000Y-82496000D02*
X133226000Y-82496000D01*
X134926000Y-82496000D02*
X134926000Y-82346000D01*
X134926000Y-86346000D02*
X134926000Y-86196000D01*
X139726000Y-82346000D02*
X139726000Y-82496000D01*
X139726000Y-86196000D02*
X139726000Y-86346000D01*
X139726000Y-86346000D02*
X134926000Y-86346000D01*
%TO.C,C5*%
X116813000Y-65270748D02*
X116813000Y-65793252D01*
X115343000Y-65270748D02*
X115343000Y-65793252D01*
%TO.C,FB1*%
X59682748Y-72696000D02*
X60205252Y-72696000D01*
X59682748Y-74116000D02*
X60205252Y-74116000D01*
%TO.C,L1*%
X151984000Y-118148000D02*
X154734000Y-118148000D01*
X160734000Y-118148000D02*
X163484000Y-118148000D01*
X151334000Y-117498000D02*
X151334000Y-105998000D01*
X164134000Y-105998000D02*
X164134000Y-117498000D01*
X151984000Y-105348000D02*
X154734000Y-105348000D01*
X160734000Y-105348000D02*
X163484000Y-105348000D01*
X151334000Y-117498000D02*
G75*
G03*
X151984000Y-118148000I650001J1D01*
G01*
X163484000Y-118148000D02*
G75*
G03*
X164134000Y-117498000I-1J650001D01*
G01*
X151984000Y-105348000D02*
G75*
G03*
X151334000Y-105998000I0J-650000D01*
G01*
X164134000Y-105998000D02*
G75*
G03*
X163484000Y-105348000I-650000J0D01*
G01*
D14*
%TO.C,PS1*%
X55869500Y-87121000D02*
X55869500Y-119379000D01*
X55869500Y-119379000D02*
X112130500Y-119379000D01*
X112130500Y-87121000D02*
X55869500Y-87121000D01*
X112130500Y-119379000D02*
X112130500Y-87121000D01*
D13*
%TO.C,J7*%
X47266000Y-91196000D02*
X51286000Y-91196000D01*
X48766000Y-91196000D02*
X48766000Y-90196000D01*
X51286000Y-91196000D02*
X51286000Y-78476000D01*
X49576000Y-90696000D02*
X49576000Y-91196000D01*
X50786000Y-90696000D02*
X49576000Y-90696000D01*
X48766000Y-90196000D02*
X47266000Y-90196000D01*
X48766000Y-79476000D02*
X47266000Y-79476000D01*
X49576000Y-78976000D02*
X50786000Y-78976000D01*
X50786000Y-78976000D02*
X50786000Y-90696000D01*
X47266000Y-78476000D02*
X47266000Y-91196000D01*
X48766000Y-78476000D02*
X48766000Y-79476000D01*
X49576000Y-78476000D02*
X49576000Y-78976000D01*
X51286000Y-78476000D02*
X47266000Y-78476000D01*
X46966000Y-78176000D02*
X46966000Y-80676000D01*
X49466000Y-78176000D02*
X46966000Y-78176000D01*
%TO.C,R1*%
X137607000Y-89653064D02*
X137607000Y-89198936D01*
X139077000Y-89653064D02*
X139077000Y-89198936D01*
%TO.C,DIMMER*%
X47220000Y-77246000D02*
X51240000Y-77246000D01*
X48720000Y-77246000D02*
X48720000Y-76246000D01*
X51240000Y-77246000D02*
X51240000Y-64526000D01*
X49530000Y-76746000D02*
X49530000Y-77246000D01*
X50740000Y-76746000D02*
X49530000Y-76746000D01*
X48720000Y-76246000D02*
X47220000Y-76246000D01*
X48720000Y-65526000D02*
X47220000Y-65526000D01*
X49530000Y-65026000D02*
X50740000Y-65026000D01*
X50740000Y-65026000D02*
X50740000Y-76746000D01*
X47220000Y-64526000D02*
X47220000Y-77246000D01*
X48720000Y-64526000D02*
X48720000Y-65526000D01*
X49530000Y-64526000D02*
X49530000Y-65026000D01*
X51240000Y-64526000D02*
X47220000Y-64526000D01*
X46920000Y-64226000D02*
X46920000Y-66726000D01*
X49420000Y-64226000D02*
X46920000Y-64226000D01*
%TO.C,R9*%
X92736936Y-73633000D02*
X93191064Y-73633000D01*
X92736936Y-72163000D02*
X93191064Y-72163000D01*
%TO.C,F1*%
X125660000Y-94690000D02*
X122500000Y-94690000D01*
X119000000Y-94690000D02*
X115840000Y-94690000D01*
X125660000Y-117410000D02*
X125660000Y-94690000D01*
X125660000Y-117410000D02*
X122500000Y-117410000D01*
X119000000Y-117410000D02*
X115840000Y-117410000D01*
X115840000Y-117410000D02*
X115840000Y-94690000D01*
%TO.C,R3*%
X130187064Y-82287000D02*
X129732936Y-82287000D01*
X130187064Y-80817000D02*
X129732936Y-80817000D01*
D10*
%TO.C,U5*%
X114101000Y-63066000D02*
G75*
G03*
X114101000Y-63066000I-100000J0D01*
G01*
D12*
X108986000Y-65511000D02*
X108986000Y-69511000D01*
X114026000Y-65511000D02*
X114026000Y-69511000D01*
D13*
%TO.C,R2*%
X173746936Y-97817000D02*
X174201064Y-97817000D01*
X173746936Y-99287000D02*
X174201064Y-99287000D01*
%TO.C,U8*%
X179800000Y-99782000D02*
X175159000Y-99782000D01*
X179800000Y-99782000D02*
X179800000Y-110022000D01*
X178290000Y-99782000D02*
X178290000Y-110022000D01*
X175159000Y-99782000D02*
X175159000Y-110022000D01*
X179800000Y-103052000D02*
X178290000Y-103052000D01*
X179800000Y-106753000D02*
X178290000Y-106753000D01*
X179800000Y-110022000D02*
X175159000Y-110022000D01*
%TO.C,BOILER*%
X49420000Y-55256000D02*
X46920000Y-55256000D01*
X46920000Y-55256000D02*
X46920000Y-57756000D01*
X51240000Y-55556000D02*
X47220000Y-55556000D01*
X49530000Y-55556000D02*
X49530000Y-56056000D01*
X48720000Y-55556000D02*
X48720000Y-56556000D01*
X47220000Y-55556000D02*
X47220000Y-63276000D01*
X50740000Y-56056000D02*
X50740000Y-62776000D01*
X49530000Y-56056000D02*
X50740000Y-56056000D01*
X48720000Y-56556000D02*
X47220000Y-56556000D01*
X48720000Y-62276000D02*
X47220000Y-62276000D01*
X50740000Y-62776000D02*
X49530000Y-62776000D01*
X49530000Y-62776000D02*
X49530000Y-63276000D01*
X51240000Y-63276000D02*
X51240000Y-55556000D01*
X48720000Y-63276000D02*
X48720000Y-62276000D01*
X47220000Y-63276000D02*
X51240000Y-63276000D01*
%TO.C,RV1*%
X163948000Y-99904000D02*
X157108000Y-99904000D01*
X163948000Y-99904000D02*
X163948000Y-101724000D01*
X157108000Y-99904000D02*
X157108000Y-101724000D01*
X163948000Y-103024000D02*
X163948000Y-104844000D01*
X157108000Y-103024000D02*
X157108000Y-104844000D01*
X163948000Y-104844000D02*
X157108000Y-104844000D01*
%TO.C,C1*%
X134806000Y-99266000D02*
X134806000Y-100266000D01*
X135306000Y-99766000D02*
X134306000Y-99766000D01*
X135591563Y-100506000D02*
X133806000Y-100506000D01*
X135591563Y-100506000D02*
X136656000Y-101570437D01*
X129000437Y-100506000D02*
X130786000Y-100506000D01*
X129000437Y-100506000D02*
X127936000Y-101570437D01*
X136656000Y-101570437D02*
X136656000Y-109226000D01*
X127936000Y-101570437D02*
X127936000Y-109226000D01*
X136656000Y-109226000D02*
X133806000Y-109226000D01*
X127936000Y-109226000D02*
X130786000Y-109226000D01*
%TO.C,U7*%
X77756000Y-85130000D02*
X82397000Y-85130000D01*
X77756000Y-85130000D02*
X77756000Y-74890000D01*
X79266000Y-85130000D02*
X79266000Y-74890000D01*
X82397000Y-85130000D02*
X82397000Y-74890000D01*
X77756000Y-81860000D02*
X79266000Y-81860000D01*
X77756000Y-78159000D02*
X79266000Y-78159000D01*
X77756000Y-74890000D02*
X82397000Y-74890000D01*
%TO.C,VALVE*%
X176794345Y-84590353D02*
G75*
G03*
X176794500Y-86090000I1700155J-749647D01*
G01*
X176794345Y-89670353D02*
G75*
G03*
X176794500Y-91170000I1700155J-749647D01*
G01*
X177654500Y-82690000D02*
X170184500Y-82690000D01*
X170184500Y-82690000D02*
X170184500Y-93070000D01*
X176794500Y-83840000D02*
X176794500Y-84590000D01*
X172494500Y-83840000D02*
X176794500Y-83840000D01*
X171144500Y-83840000D02*
X172144500Y-84090000D01*
X172144500Y-84090000D02*
X172144500Y-84590000D01*
X172494500Y-84590000D02*
X172494500Y-83840000D01*
X172144500Y-84590000D02*
X172494500Y-84590000D01*
X176794500Y-86090000D02*
X176794500Y-86840000D01*
X172494500Y-86090000D02*
X172144500Y-86090000D01*
X172144500Y-86090000D02*
X172144500Y-86590000D01*
X172144500Y-86590000D02*
X171144500Y-86840000D01*
X176794500Y-86840000D02*
X172494500Y-86840000D01*
X172494500Y-86840000D02*
X172494500Y-86090000D01*
X171144500Y-86840000D02*
X171144500Y-83840000D01*
X176794500Y-88920000D02*
X176794500Y-89670000D01*
X172494500Y-88920000D02*
X176794500Y-88920000D01*
X171144500Y-88920000D02*
X172144500Y-89170000D01*
X172144500Y-89170000D02*
X172144500Y-89670000D01*
X172494500Y-89670000D02*
X172494500Y-88920000D01*
X172144500Y-89670000D02*
X172494500Y-89670000D01*
X176794500Y-91170000D02*
X176794500Y-91920000D01*
X172494500Y-91170000D02*
X172144500Y-91170000D01*
X172144500Y-91170000D02*
X172144500Y-91670000D01*
X172144500Y-91670000D02*
X171144500Y-91920000D01*
X176794500Y-91920000D02*
X172494500Y-91920000D01*
X172494500Y-91920000D02*
X172494500Y-91170000D01*
X171144500Y-91920000D02*
X171144500Y-88920000D01*
X177654500Y-93070000D02*
X177654500Y-82690000D01*
X170184500Y-93070000D02*
X177654500Y-93070000D01*
X171044500Y-93460000D02*
X169794500Y-93460000D01*
X169794500Y-93460000D02*
X169794500Y-91460000D01*
D10*
%TO.C,U2*%
X184460000Y-75692000D02*
G75*
G03*
X184460000Y-75692000I-100000J0D01*
G01*
D12*
X120570000Y-50462000D02*
G75*
G03*
X117570000Y-53462000I0J-3000000D01*
G01*
X117570000Y-77462000D02*
G75*
G03*
X120570000Y-80462000I3000000J0D01*
G01*
X182570000Y-53462000D02*
G75*
G03*
X179570000Y-50462000I-3000001J-1D01*
G01*
X179570000Y-80462000D02*
G75*
G03*
X182570000Y-77462000I-1J3000001D01*
G01*
X117570000Y-53462000D02*
X117570000Y-77462000D01*
X120570000Y-80462000D02*
X179570000Y-80462000D01*
X133070000Y-50462000D02*
X124720000Y-50462000D01*
X145670000Y-50462000D02*
X137320000Y-50462000D01*
X179570000Y-50462000D02*
X120570000Y-50462000D01*
X182570000Y-77462000D02*
X182570000Y-53462000D01*
D13*
%TO.C,R5*%
X66580000Y-73306000D02*
X73120000Y-73306000D01*
X66580000Y-73636000D02*
X66580000Y-73306000D01*
X66580000Y-75716000D02*
X66580000Y-76046000D01*
X66580000Y-76046000D02*
X73120000Y-76046000D01*
X73120000Y-73306000D02*
X73120000Y-73636000D01*
X73120000Y-76046000D02*
X73120000Y-75716000D01*
%TO.C,D5*%
X83520000Y-77617500D02*
X83520000Y-79292500D01*
X83520000Y-77617500D02*
X83520000Y-76967500D01*
X86640000Y-77617500D02*
X86640000Y-78267500D01*
X86640000Y-77617500D02*
X86640000Y-76967500D01*
%TO.C,C3*%
X160838748Y-97435000D02*
X161361252Y-97435000D01*
X160838748Y-98905000D02*
X161361252Y-98905000D01*
%TO.C,D4*%
X129280000Y-88200000D02*
X128085000Y-88200000D01*
X128085000Y-90925000D02*
X128085000Y-85475000D01*
X128085000Y-85475000D02*
X118315000Y-85475000D01*
X126655500Y-90925000D02*
X126655500Y-85475000D01*
X126535500Y-90925000D02*
X126535500Y-85475000D01*
X126415500Y-90925000D02*
X126415500Y-85475000D01*
X118315000Y-90925000D02*
X128085000Y-90925000D01*
X118315000Y-85475000D02*
X118315000Y-90925000D01*
X117120000Y-88200000D02*
X118315000Y-88200000D01*
%TO.C,F2*%
X78874564Y-73850000D02*
X77670436Y-73850000D01*
X78874564Y-72030000D02*
X77670436Y-72030000D01*
%TO.C,Q1*%
X141722500Y-90406000D02*
X140047500Y-90406000D01*
X141722500Y-90406000D02*
X142372500Y-90406000D01*
X141722500Y-93526000D02*
X141072500Y-93526000D01*
X141722500Y-93526000D02*
X142372500Y-93526000D01*
%TO.C,U3*%
X58760000Y-78994000D02*
X58760000Y-76069000D01*
X58760000Y-78994000D02*
X58760000Y-80494000D01*
X55540000Y-78994000D02*
X55540000Y-77494000D01*
X55540000Y-78994000D02*
X55540000Y-80494000D01*
%TO.C,C2*%
X171890000Y-99784000D02*
X171890000Y-100784000D01*
X172390000Y-100284000D02*
X171390000Y-100284000D01*
X172675563Y-101024000D02*
X170890000Y-101024000D01*
X172675563Y-101024000D02*
X173740000Y-102088437D01*
X166084437Y-101024000D02*
X167870000Y-101024000D01*
X166084437Y-101024000D02*
X165020000Y-102088437D01*
X173740000Y-102088437D02*
X173740000Y-109744000D01*
X165020000Y-102088437D02*
X165020000Y-109744000D01*
X173740000Y-109744000D02*
X170890000Y-109744000D01*
X165020000Y-109744000D02*
X167870000Y-109744000D01*
%TO.C,R13*%
X61368000Y-83026000D02*
X61368000Y-76486000D01*
X61698000Y-83026000D02*
X61368000Y-83026000D01*
X63778000Y-83026000D02*
X64108000Y-83026000D01*
X64108000Y-83026000D02*
X64108000Y-76486000D01*
X61368000Y-76486000D02*
X61698000Y-76486000D01*
X64108000Y-76486000D02*
X63778000Y-76486000D01*
%TO.C,R7*%
X64489064Y-60171000D02*
X64034936Y-60171000D01*
X64489064Y-58701000D02*
X64034936Y-58701000D01*
%TO.C,R6*%
X97562936Y-58955000D02*
X98017064Y-58955000D01*
X97562936Y-60425000D02*
X98017064Y-60425000D01*
%TD*%
M02*
