M48
; DRILL file {KiCad 7.0.9} date Mon Sep 23 19:59:40 2024
; FORMAT={-:-/ absolute / inch / decimal}
; #@! TF.CreationDate,2024-09-23T19:59:40+02:00
; #@! TF.GenerationSoftware,Kicad,Pcbnew,7.0.9
; #@! TF.FileFunction,Plated,1,2,PTH
FMAT,2
INCH
; #@! TA.AperFunction,Plated,PTH,ViaDrill
T1C0.0118
; #@! TA.AperFunction,Plated,PTH,ViaDrill
T2C0.0157
; #@! TA.AperFunction,Plated,PTH,ViaDrill
T3C0.0236
; #@! TA.AperFunction,Plated,PTH,ComponentDrill
T4C0.0315
; #@! TA.AperFunction,Plated,PTH,ComponentDrill
T5C0.0354
; #@! TA.AperFunction,Plated,PTH,ComponentDrill
T6C0.0374
; #@! TA.AperFunction,Plated,PTH,ComponentDrill
T7C0.0394
; #@! TA.AperFunction,Plated,PTH,ComponentDrill
T8C0.0433
; #@! TA.AperFunction,Plated,PTH,ComponentDrill
T9C0.0472
; #@! TA.AperFunction,Plated,PTH,ComponentDrill
T10C0.0490
; #@! TA.AperFunction,Plated,PTH,ComponentDrill
T11C0.0512
; #@! TA.AperFunction,Plated,PTH,ComponentDrill
T12C0.0551
%
G90
G05
T1
X5.48Y-3.83
X5.48Y-3.88
X5.48Y-3.93
X5.48Y-3.98
X5.48Y-4.03
X5.48Y-4.08
X5.48Y-4.12
X5.52Y-3.83
X5.52Y-3.88
X5.52Y-3.93
X5.52Y-3.98
X5.52Y-4.03
X5.52Y-4.08
X5.52Y-4.12
X5.56Y-3.83
X5.56Y-3.88
X5.56Y-3.93
X5.56Y-3.98
X5.56Y-4.03
X5.56Y-4.08
X5.56Y-4.12
X5.6Y-3.83
X5.6Y-3.88
X5.6Y-3.93
X5.6Y-3.98
X5.6Y-4.03
X5.6Y-4.08
X5.6Y-4.12
X5.64Y-3.83
X5.64Y-3.88
X5.64Y-3.93
X5.64Y-3.98
X5.64Y-4.03
X5.64Y-4.08
X5.64Y-4.12
X5.68Y-3.83
X5.68Y-3.88
X5.68Y-3.93
X5.68Y-3.98
X5.68Y-4.03
X5.68Y-4.08
X5.68Y-4.12
X5.72Y-3.83
X5.72Y-3.88
X5.72Y-3.93
X5.72Y-3.98
X5.72Y-4.03
X5.72Y-4.08
X5.72Y-4.12
X5.76Y-3.83
X5.76Y-3.88
X5.76Y-3.93
X5.76Y-3.98
X5.76Y-4.03
X5.76Y-4.08
X5.76Y-4.12
X5.8Y-3.83
X5.8Y-3.88
X5.8Y-3.93
X5.8Y-3.98
X5.8Y-4.03
X5.8Y-4.08
X5.8Y-4.12
X5.84Y-3.83
X5.84Y-3.88
X5.84Y-3.93
X5.84Y-3.98
X5.84Y-4.03
X5.84Y-4.08
X5.84Y-4.12
X5.88Y-3.83
X5.88Y-3.88
X5.88Y-3.93
X5.88Y-3.98
X5.88Y-4.03
X5.88Y-4.08
X5.88Y-4.12
T2
X2.126Y-2.8189
X2.14Y-2.63
X2.1575Y-2.9921
X2.17Y-2.59
X2.27Y-3.27
X2.2772Y-2.8831
X2.32Y-3.25
X2.58Y-3.31
X2.9374Y-3.3854
X3.5126Y-3.1594
X3.55Y-2.87
X3.94Y-2.69
X3.96Y-2.46
X4.0Y-2.54
X4.0287Y-2.3843
X4.0406Y-2.2142
X4.0547Y-2.3079
X4.4016Y-3.1362
T3
X2.1366Y-3.8
X2.3028Y-2.9598
X2.3774Y-2.9566
X2.8648Y-3.3457
X2.8738Y-3.1616
X3.6409Y-3.1004
X3.8697Y-2.8213
X4.6051Y-3.0862
X5.2827Y-3.4272
X5.5173Y-3.2055
X5.5551Y-3.526
X6.8917Y-4.3512
T4
X2.1849Y-2.1384
X2.1849Y-2.7376
X2.2849Y-2.1384
X2.2849Y-2.7376
X2.3849Y-2.1384
X2.3849Y-2.7376
X2.47Y-2.99
X2.47Y-3.29
X2.4849Y-2.1384
X2.4849Y-2.7376
X2.5849Y-2.1384
X2.5849Y-2.7376
X2.6Y-2.94
X2.6849Y-2.1384
X2.6849Y-2.7376
X2.7849Y-2.1384
X2.7849Y-2.7376
X2.8849Y-2.1384
X2.8849Y-2.7376
X2.9Y-2.94
X2.9849Y-2.1384
X2.9849Y-2.7376
X3.0849Y-2.1384
X3.0849Y-2.7376
X3.1849Y-2.1384
X3.1849Y-2.7376
X3.2849Y-2.1384
X3.2849Y-2.7376
X3.3849Y-2.1384
X3.3849Y-2.7376
X3.4849Y-2.1384
X3.4849Y-2.7376
X3.5849Y-2.1384
X3.5849Y-2.7376
X3.6849Y-2.1384
X3.6849Y-2.7376
X3.7849Y-2.1384
X3.7849Y-2.7376
X3.8849Y-2.1384
X3.8849Y-2.7376
X3.9849Y-2.1384
X3.9849Y-2.7376
X4.0849Y-2.1384
X4.0849Y-2.7384
X5.7465Y-3.3207
X5.7465Y-3.6207
X6.22Y-4.0305
X6.32Y-4.0305
X6.42Y-4.0305
T5
X7.03Y-3.7698
X7.03Y-3.8698
T6
X1.95Y-2.6431
X1.95Y-2.7416
X1.95Y-2.84
X1.95Y-2.9384
X1.95Y-3.74
X1.95Y-3.8384
X1.95Y-3.9369
X1.9518Y-3.1924
X1.9518Y-3.2908
X1.9518Y-3.3892
X1.9518Y-3.4876
X3.7571Y-3.2677
X3.8555Y-3.2677
X3.9539Y-3.2677
X4.0524Y-3.2677
X4.1508Y-3.2677
T7
X1.95Y-2.29
X1.95Y-2.3884
X4.38Y-2.1417
X4.4784Y-2.1417
X4.9583Y-2.98
X4.9583Y-3.08
X5.0583Y-2.98
X5.0583Y-3.08
X5.1583Y-2.98
X5.1583Y-3.08
X5.2583Y-2.98
X5.2583Y-3.08
X5.3583Y-2.98
X5.3583Y-3.08
X5.4583Y-2.98
X5.4583Y-3.08
X5.5583Y-2.98
X5.5583Y-3.08
X5.6583Y-2.98
X5.6583Y-3.08
X5.7583Y-2.98
X5.7583Y-3.08
X5.8583Y-2.98
X5.8583Y-3.08
X5.9583Y-2.98
X5.9583Y-3.08
X6.0583Y-2.98
X6.0583Y-3.08
X6.1583Y-2.98
X6.1583Y-3.08
X6.2583Y-2.98
X6.2583Y-3.08
X6.3583Y-2.98
X6.3583Y-3.08
X6.4583Y-2.98
X6.4583Y-3.08
X6.5583Y-2.98
X6.5583Y-3.08
X6.6583Y-2.98
X6.6583Y-3.08
X6.7583Y-2.98
X6.7583Y-3.08
X6.8583Y-2.98
X6.8583Y-3.08
T8
X3.19Y-3.05
X3.19Y-3.15
X3.19Y-3.25
X6.95Y-4.03
X6.95Y-4.13
X6.95Y-4.23
T9
X1.9685Y-4.2047
X1.9685Y-4.4047
X6.8758Y-3.3598
X6.8758Y-3.5598
T10
X2.3031Y-3.8877
X2.3031Y-4.242
X4.311Y-3.5334
X4.311Y-4.5964
T11
X4.5504Y-3.4724
X4.7539Y-3.7323
X4.7539Y-4.6181
X5.1504Y-3.4724
X6.0657Y-3.2445
X6.0657Y-3.7169
X6.5461Y-3.2445
X6.5461Y-3.7169
T12
X5.987Y-3.4807
T0
M30
