M48
; DRILL file {KiCad 7.0.9} date Wed Oct  9 10:00:51 2024
; FORMAT={-:-/ absolute / inch / decimal}
; #@! TF.CreationDate,2024-10-09T10:00:51+02:00
; #@! TF.GenerationSoftware,Kicad,Pcbnew,7.0.9
; #@! TF.FileFunction,Plated,1,2,PTH
FMAT,2
INCH
; #@! TA.AperFunction,Plated,PTH,ViaDrill
T1C0.0118
; #@! TA.AperFunction,Plated,PTH,ViaDrill
T2C0.0157
; #@! TA.AperFunction,Plated,PTH,ViaDrill
T3C0.0197
; #@! TA.AperFunction,Plated,PTH,ViaDrill
T4C0.0236
; #@! TA.AperFunction,Plated,PTH,ComponentDrill
T5C0.0315
; #@! TA.AperFunction,Plated,PTH,ComponentDrill
T6C0.0374
; #@! TA.AperFunction,Plated,PTH,ComponentDrill
T7C0.0394
; #@! TA.AperFunction,Plated,PTH,ComponentDrill
T8C0.0472
; #@! TA.AperFunction,Plated,PTH,ComponentDrill
T9C0.0488
; #@! TA.AperFunction,Plated,PTH,ComponentDrill
T10C0.0512
; #@! TA.AperFunction,Plated,PTH,ComponentDrill
T11C0.0551
; #@! TA.AperFunction,Plated,PTH,ComponentDrill
T12C0.0866
%
G90
G05
T1
X5.469Y-3.43
X5.75Y-3.25
X5.75Y-3.3
X5.75Y-3.35
X5.75Y-3.4
X5.75Y-3.45
X5.8Y-3.25
X5.8Y-3.3
X5.8Y-3.35
X5.8Y-3.4
X5.8Y-3.45
X5.85Y-3.25
X5.85Y-3.3
X5.85Y-3.35
X5.85Y-3.4
X5.85Y-3.45
X5.9Y-3.25
X5.9Y-3.3
X5.9Y-3.35
X5.9Y-3.4
X5.9Y-3.45
X5.95Y-3.25
X5.95Y-3.3
X5.95Y-3.35
X5.95Y-3.4
X5.95Y-3.45
X6.2858Y-3.5138
X6.3095Y-3.549
X6.31Y-3.67
X6.34Y-3.64
X6.34Y-3.7
X6.37Y-3.67
X6.37Y-3.73
X6.39Y-3.59
X6.4Y-3.7
X6.4Y-3.76
X6.42Y-3.62
X6.43Y-3.73
X6.43Y-3.79
X6.44Y-3.544
X6.45Y-3.65
X6.46Y-3.76
X6.48Y-3.58
X6.48Y-3.68
X6.51Y-3.61
X6.51Y-3.72
X6.522Y-3.5
X6.54Y-3.64
X6.5563Y-3.424
X6.57Y-3.67
X6.6Y-3.342
X7.343Y-3.849
T2
X4.588Y-2.257
X4.632Y-2.435
X4.701Y-2.142
X5.854Y-3.846
X5.895Y-3.1574
X6.065Y-3.4196
X6.0825Y-3.1895
X6.12Y-3.498
X6.151Y-3.24
X6.194Y-3.723
X6.255Y-3.955
X6.304Y-3.787
X6.5043Y-3.3657
X6.516Y-3.4135
X6.52Y-3.986
X6.6151Y-3.8495
X6.65Y-3.8185
X6.68Y-3.28
X6.73Y-3.7194
X6.7725Y-3.6816
X6.8932Y-3.7532
X7.0825Y-4.0675
X7.092Y-3.7674
X7.18Y-3.0242
X7.198Y-3.727
X7.21Y-2.99
X7.234Y-3.658
X7.302Y-3.928
X7.3195Y-2.6239
X7.346Y-3.947
X7.4272Y-2.789
X7.4436Y-3.652
X7.5082Y-2.9118
T3
X5.934Y-3.746
X6.15Y-3.9
X7.17Y-3.2663
T4
X5.5148Y-3.2998
X6.9517Y-3.8026
T5
X6.8506Y-3.6
X6.9294Y-3.6
T6
X6.0047Y-4.19
X6.1031Y-4.19
X6.2016Y-4.19
X6.3Y-4.19
X6.55Y-4.19
X6.6484Y-4.19
X6.7469Y-4.19
X6.8453Y-4.19
X6.9437Y-4.19
X7.797Y-3.4016
X7.797Y-3.5
X7.797Y-3.5984
X7.802Y-3.8876
X7.802Y-3.986
X7.802Y-4.0844
X7.802Y-4.1829
T7
X5.15Y-2.86
X5.15Y-2.96
X5.25Y-2.86
X5.25Y-2.96
X5.35Y-2.86
X5.35Y-2.96
X5.45Y-2.86
X5.45Y-2.96
X5.55Y-2.86
X5.55Y-2.96
X5.65Y-2.86
X5.65Y-2.96
X5.6516Y-4.192
X5.75Y-2.86
X5.75Y-2.96
X5.75Y-4.192
X5.85Y-2.86
X5.85Y-2.96
X5.95Y-2.86
X5.95Y-2.96
X6.05Y-2.86
X6.05Y-2.96
X6.15Y-2.86
X6.15Y-2.96
X6.25Y-2.86
X6.25Y-2.96
X6.35Y-2.86
X6.35Y-2.96
X6.45Y-2.86
X6.45Y-2.96
X6.55Y-2.86
X6.55Y-2.96
X6.65Y-2.86
X6.65Y-2.96
X6.75Y-2.86
X6.75Y-2.96
X6.85Y-2.86
X6.85Y-2.96
X6.95Y-2.86
X6.95Y-2.96
X7.05Y-2.86
X7.05Y-2.96
X7.774Y-2.3689
X7.774Y-2.4673
X7.78Y-2.7116
X7.78Y-2.81
X7.7882Y-3.0508
X7.7882Y-3.1492
T8
X3.5272Y-2.7853
X3.5272Y-2.9853
X3.53Y-2.2693
X3.53Y-2.4693
T9
X3.4824Y-3.3506
X3.4824Y-4.1694
X5.254Y-3.8545
X5.254Y-4.1694
T10
X3.7803Y-2.0335
X3.7803Y-2.5059
X4.2606Y-2.0335
X4.2606Y-2.5059
T11
X4.3394Y-2.2697
T12
X3.45Y-1.974
X7.148Y-4.209
X7.7898Y-1.9925
T0
M30
