%TF.GenerationSoftware,KiCad,Pcbnew,7.0.9*%
%TF.CreationDate,2024-10-09T10:00:49+02:00*%
%TF.ProjectId,_ramk_r V2,c172616d-6bf6-4722-9056-322e6b696361,rev?*%
%TF.SameCoordinates,Original*%
%TF.FileFunction,Legend,Top*%
%TF.FilePolarity,Positive*%
%FSLAX46Y46*%
G04 Gerber Fmt 4.6, Leading zero omitted, Abs format (unit mm)*
G04 Created by KiCad (PCBNEW 7.0.9) date 2024-10-09 10:00:49*
%MOMM*%
%LPD*%
G01*
G04 APERTURE LIST*
%ADD10C,0.300000*%
%ADD11C,0.200000*%
%ADD12C,0.150000*%
%ADD13C,0.127000*%
%ADD14C,0.120000*%
G04 APERTURE END LIST*
D10*
G36*
X194638030Y-93779051D02*
G01*
X194675035Y-93816056D01*
X194719742Y-93905469D01*
X194719742Y-94291489D01*
X194234028Y-94291489D01*
X194234028Y-93905470D01*
X194278735Y-93816055D01*
X194315739Y-93779051D01*
X194405152Y-93734346D01*
X194548618Y-93734346D01*
X194638030Y-93779051D01*
G37*
G36*
X194638030Y-92279051D02*
G01*
X194675035Y-92316056D01*
X194719742Y-92405469D01*
X194719742Y-92791489D01*
X194234028Y-92791489D01*
X194234028Y-92405470D01*
X194278735Y-92316055D01*
X194315739Y-92279051D01*
X194405152Y-92234346D01*
X194548618Y-92234346D01*
X194638030Y-92279051D01*
G37*
G36*
X194638030Y-84993337D02*
G01*
X194675035Y-85030342D01*
X194719742Y-85119755D01*
X194719742Y-85505775D01*
X194234028Y-85505775D01*
X194234028Y-85119756D01*
X194278735Y-85030341D01*
X194315739Y-84993337D01*
X194405152Y-84948632D01*
X194548618Y-84948632D01*
X194638030Y-84993337D01*
G37*
G36*
X195948314Y-94805775D02*
G01*
X193719742Y-94805775D01*
X193719742Y-94441489D01*
X193934028Y-94441489D01*
X193954124Y-94516489D01*
X194009028Y-94571393D01*
X194084028Y-94591489D01*
X194869742Y-94591489D01*
X195584028Y-94591489D01*
X195659028Y-94571393D01*
X195713932Y-94516489D01*
X195734028Y-94441489D01*
X195713932Y-94366489D01*
X195659028Y-94311585D01*
X195584028Y-94291489D01*
X195019742Y-94291489D01*
X195019742Y-93870060D01*
X195010817Y-93836754D01*
X195003906Y-93802979D01*
X194932478Y-93660121D01*
X194916454Y-93642051D01*
X194904380Y-93621137D01*
X194832951Y-93549708D01*
X194812036Y-93537633D01*
X194793967Y-93521610D01*
X194651110Y-93450182D01*
X194617331Y-93443269D01*
X194584028Y-93434346D01*
X194369742Y-93434346D01*
X194336436Y-93443270D01*
X194302661Y-93450182D01*
X194159803Y-93521610D01*
X194141733Y-93537633D01*
X194120818Y-93549709D01*
X194049390Y-93621138D01*
X194037315Y-93642052D01*
X194021293Y-93660121D01*
X193949864Y-93802978D01*
X193942951Y-93836758D01*
X193934028Y-93870060D01*
X193934028Y-94441489D01*
X193719742Y-94441489D01*
X193719742Y-92941489D01*
X193934028Y-92941489D01*
X193954124Y-93016489D01*
X194009028Y-93071393D01*
X194084028Y-93091489D01*
X194869742Y-93091489D01*
X195584028Y-93091489D01*
X195659028Y-93071393D01*
X195713932Y-93016489D01*
X195734028Y-92941489D01*
X195713932Y-92866489D01*
X195659028Y-92811585D01*
X195584028Y-92791489D01*
X195019742Y-92791489D01*
X195019742Y-92662444D01*
X195670047Y-92207231D01*
X195719965Y-92147758D01*
X195733459Y-92071293D01*
X195706913Y-91998327D01*
X195647440Y-91948409D01*
X195570975Y-91934915D01*
X195498009Y-91961461D01*
X195004685Y-92306787D01*
X195003906Y-92302979D01*
X194932478Y-92160121D01*
X194916454Y-92142051D01*
X194904380Y-92121137D01*
X194832951Y-92049708D01*
X194812036Y-92037633D01*
X194793967Y-92021610D01*
X194651110Y-91950182D01*
X194617331Y-91943269D01*
X194584028Y-91934346D01*
X194369742Y-91934346D01*
X194336436Y-91943270D01*
X194302661Y-91950182D01*
X194159803Y-92021610D01*
X194141733Y-92037633D01*
X194120818Y-92049709D01*
X194049390Y-92121138D01*
X194037315Y-92142052D01*
X194021293Y-92160121D01*
X193949864Y-92302978D01*
X193942951Y-92336758D01*
X193934028Y-92370060D01*
X193934028Y-92941489D01*
X193719742Y-92941489D01*
X193719742Y-91441489D01*
X193934028Y-91441489D01*
X193954124Y-91516489D01*
X194009028Y-91571393D01*
X194084028Y-91591489D01*
X194798314Y-91591489D01*
X195584028Y-91591489D01*
X195659028Y-91571393D01*
X195713932Y-91516489D01*
X195734028Y-91441489D01*
X195734028Y-90727203D01*
X195713932Y-90652203D01*
X195659028Y-90597299D01*
X195584028Y-90577203D01*
X195509028Y-90597299D01*
X195454124Y-90652203D01*
X195434028Y-90727203D01*
X195434028Y-91291489D01*
X194948314Y-91291489D01*
X194948314Y-90941489D01*
X194928218Y-90866489D01*
X194873314Y-90811585D01*
X194798314Y-90791489D01*
X194723314Y-90811585D01*
X194668410Y-90866489D01*
X194648314Y-90941489D01*
X194648314Y-91291489D01*
X194234028Y-91291489D01*
X194234028Y-90727203D01*
X194213932Y-90652203D01*
X194159028Y-90597299D01*
X194084028Y-90577203D01*
X194009028Y-90597299D01*
X193954124Y-90652203D01*
X193934028Y-90727203D01*
X193934028Y-91441489D01*
X193719742Y-91441489D01*
X193719742Y-89870060D01*
X193934028Y-89870060D01*
X193942951Y-89903361D01*
X193949864Y-89937142D01*
X194021293Y-90079999D01*
X194037315Y-90098067D01*
X194049390Y-90118982D01*
X194120818Y-90190411D01*
X194141733Y-90202486D01*
X194159803Y-90218510D01*
X194302661Y-90289938D01*
X194336436Y-90296849D01*
X194369742Y-90305774D01*
X194512600Y-90305774D01*
X194545903Y-90296850D01*
X194579682Y-90289938D01*
X194722539Y-90218510D01*
X194740608Y-90202486D01*
X194761524Y-90190411D01*
X194832952Y-90118982D01*
X194845026Y-90098067D01*
X194861049Y-90079999D01*
X194932478Y-89937143D01*
X194935798Y-89920916D01*
X194943835Y-89906440D01*
X195011268Y-89636702D01*
X195064449Y-89530342D01*
X195101454Y-89493337D01*
X195190867Y-89448631D01*
X195262904Y-89448631D01*
X195352317Y-89493338D01*
X195389321Y-89530342D01*
X195434028Y-89619755D01*
X195434028Y-89917146D01*
X195370297Y-90108340D01*
X195365645Y-90185846D01*
X195400370Y-90255295D01*
X195465166Y-90298077D01*
X195542672Y-90302729D01*
X195612121Y-90268004D01*
X195654903Y-90203208D01*
X195726331Y-89988923D01*
X195727778Y-89964814D01*
X195734028Y-89941489D01*
X195734028Y-89584346D01*
X195725103Y-89551040D01*
X195718192Y-89517265D01*
X195646764Y-89374407D01*
X195630740Y-89356337D01*
X195618666Y-89335423D01*
X195547237Y-89263994D01*
X195526321Y-89251918D01*
X195508253Y-89235896D01*
X195365396Y-89164467D01*
X195331615Y-89157554D01*
X195298314Y-89148631D01*
X195155457Y-89148631D01*
X195122156Y-89157553D01*
X195088374Y-89164467D01*
X194945518Y-89235896D01*
X194927449Y-89251918D01*
X194906534Y-89263994D01*
X194835105Y-89335423D01*
X194823029Y-89356338D01*
X194807007Y-89374407D01*
X194735578Y-89517264D01*
X194732257Y-89533488D01*
X194724221Y-89547966D01*
X194656786Y-89817703D01*
X194603606Y-89924063D01*
X194566601Y-89961068D01*
X194477190Y-90005774D01*
X194405152Y-90005774D01*
X194315739Y-89961068D01*
X194278735Y-89924064D01*
X194234028Y-89834649D01*
X194234028Y-89537257D01*
X194297759Y-89346066D01*
X194302412Y-89268560D01*
X194267688Y-89199111D01*
X194202891Y-89156329D01*
X194125385Y-89151676D01*
X194055936Y-89186401D01*
X194013154Y-89251197D01*
X193941726Y-89465483D01*
X193940278Y-89489588D01*
X193934028Y-89512917D01*
X193934028Y-89870060D01*
X193719742Y-89870060D01*
X193719742Y-88441489D01*
X193934028Y-88441489D01*
X193942951Y-88474790D01*
X193949864Y-88508571D01*
X194021293Y-88651428D01*
X194037315Y-88669496D01*
X194049390Y-88690411D01*
X194120818Y-88761840D01*
X194141733Y-88773915D01*
X194159803Y-88789939D01*
X194302661Y-88861367D01*
X194336436Y-88868278D01*
X194369742Y-88877203D01*
X194512600Y-88877203D01*
X194545903Y-88868279D01*
X194579682Y-88861367D01*
X194722539Y-88789939D01*
X194740608Y-88773915D01*
X194761524Y-88761840D01*
X194832952Y-88690411D01*
X194845026Y-88669496D01*
X194861049Y-88651428D01*
X194932478Y-88508572D01*
X194935798Y-88492345D01*
X194943835Y-88477869D01*
X195011268Y-88208131D01*
X195064449Y-88101771D01*
X195101454Y-88064766D01*
X195190867Y-88020060D01*
X195262904Y-88020060D01*
X195352317Y-88064767D01*
X195389321Y-88101771D01*
X195434028Y-88191184D01*
X195434028Y-88488575D01*
X195370297Y-88679769D01*
X195365645Y-88757275D01*
X195400370Y-88826724D01*
X195465166Y-88869506D01*
X195542672Y-88874158D01*
X195612121Y-88839433D01*
X195654903Y-88774637D01*
X195726331Y-88560352D01*
X195727778Y-88536243D01*
X195734028Y-88512918D01*
X195734028Y-88155775D01*
X195725103Y-88122469D01*
X195718192Y-88088694D01*
X195646764Y-87945836D01*
X195630740Y-87927766D01*
X195618666Y-87906852D01*
X195547237Y-87835423D01*
X195526321Y-87823347D01*
X195508253Y-87807325D01*
X195365396Y-87735896D01*
X195331615Y-87728983D01*
X195298314Y-87720060D01*
X195155457Y-87720060D01*
X195122156Y-87728982D01*
X195088374Y-87735896D01*
X194945518Y-87807325D01*
X194927449Y-87823347D01*
X194906534Y-87835423D01*
X194835105Y-87906852D01*
X194823029Y-87927767D01*
X194807007Y-87945836D01*
X194735578Y-88088693D01*
X194732257Y-88104917D01*
X194724221Y-88119395D01*
X194656786Y-88389132D01*
X194603606Y-88495492D01*
X194566601Y-88532497D01*
X194477190Y-88577203D01*
X194405152Y-88577203D01*
X194315739Y-88532497D01*
X194278735Y-88495493D01*
X194234028Y-88406078D01*
X194234028Y-88108686D01*
X194297759Y-87917495D01*
X194302412Y-87839989D01*
X194267688Y-87770540D01*
X194202891Y-87727758D01*
X194125385Y-87723105D01*
X194055936Y-87757830D01*
X194013154Y-87822626D01*
X193941726Y-88036912D01*
X193940278Y-88061017D01*
X193934028Y-88084346D01*
X193934028Y-88441489D01*
X193719742Y-88441489D01*
X193719742Y-87227204D01*
X193934028Y-87227204D01*
X193954124Y-87302204D01*
X194009028Y-87357108D01*
X194084028Y-87377204D01*
X195298314Y-87377204D01*
X195331615Y-87368280D01*
X195365396Y-87361368D01*
X195508253Y-87289939D01*
X195526321Y-87273916D01*
X195547236Y-87261842D01*
X195618665Y-87190414D01*
X195630742Y-87169496D01*
X195646764Y-87151428D01*
X195718193Y-87008570D01*
X195725106Y-86974785D01*
X195734028Y-86941489D01*
X195734028Y-86655775D01*
X195725103Y-86622469D01*
X195718192Y-86588694D01*
X195646764Y-86445836D01*
X195630740Y-86427766D01*
X195618666Y-86406852D01*
X195547237Y-86335423D01*
X195526322Y-86323348D01*
X195508253Y-86307325D01*
X195365396Y-86235897D01*
X195331617Y-86228984D01*
X195298314Y-86220061D01*
X194084028Y-86220061D01*
X194009028Y-86240157D01*
X193954124Y-86295061D01*
X193934028Y-86370061D01*
X193954124Y-86445061D01*
X194009028Y-86499965D01*
X194084028Y-86520061D01*
X195262904Y-86520061D01*
X195352316Y-86564766D01*
X195389321Y-86601771D01*
X195434028Y-86691184D01*
X195434028Y-86906079D01*
X195389322Y-86995491D01*
X195352318Y-87032496D01*
X195262904Y-87077204D01*
X194084028Y-87077204D01*
X194009028Y-87097300D01*
X193954124Y-87152204D01*
X193934028Y-87227204D01*
X193719742Y-87227204D01*
X193719742Y-85655775D01*
X193934028Y-85655775D01*
X193954124Y-85730775D01*
X194009028Y-85785679D01*
X194084028Y-85805775D01*
X194869742Y-85805775D01*
X195584028Y-85805775D01*
X195659028Y-85785679D01*
X195713932Y-85730775D01*
X195734028Y-85655775D01*
X195713932Y-85580775D01*
X195659028Y-85525871D01*
X195584028Y-85505775D01*
X195019742Y-85505775D01*
X195019742Y-85376730D01*
X195670047Y-84921517D01*
X195719965Y-84862044D01*
X195733459Y-84785579D01*
X195706913Y-84712613D01*
X195647440Y-84662695D01*
X195570975Y-84649201D01*
X195498009Y-84675747D01*
X195004685Y-85021073D01*
X195003906Y-85017265D01*
X194932478Y-84874407D01*
X194916454Y-84856337D01*
X194904380Y-84835423D01*
X194832951Y-84763994D01*
X194812036Y-84751919D01*
X194793967Y-84735896D01*
X194651110Y-84664468D01*
X194617331Y-84657555D01*
X194584028Y-84648632D01*
X194369742Y-84648632D01*
X194336436Y-84657556D01*
X194302661Y-84664468D01*
X194159803Y-84735896D01*
X194141733Y-84751919D01*
X194120818Y-84763995D01*
X194049390Y-84835424D01*
X194037315Y-84856338D01*
X194021293Y-84874407D01*
X193949864Y-85017264D01*
X193942951Y-85051044D01*
X193934028Y-85084346D01*
X193934028Y-85655775D01*
X193719742Y-85655775D01*
X193719742Y-84155775D01*
X193934028Y-84155775D01*
X193954124Y-84230775D01*
X194009028Y-84285679D01*
X194084028Y-84305775D01*
X194798314Y-84305775D01*
X195584028Y-84305775D01*
X195659028Y-84285679D01*
X195713932Y-84230775D01*
X195734028Y-84155775D01*
X195734028Y-83441489D01*
X195713932Y-83366489D01*
X195659028Y-83311585D01*
X195584028Y-83291489D01*
X195509028Y-83311585D01*
X195454124Y-83366489D01*
X195434028Y-83441489D01*
X195434028Y-84005775D01*
X194948314Y-84005775D01*
X194948314Y-83655775D01*
X194928218Y-83580775D01*
X194873314Y-83525871D01*
X194798314Y-83505775D01*
X194723314Y-83525871D01*
X194668410Y-83580775D01*
X194648314Y-83655775D01*
X194648314Y-84005775D01*
X194234028Y-84005775D01*
X194234028Y-83441489D01*
X194213932Y-83366489D01*
X194159028Y-83311585D01*
X194084028Y-83291489D01*
X194009028Y-83311585D01*
X193954124Y-83366489D01*
X193934028Y-83441489D01*
X193934028Y-84155775D01*
X193719742Y-84155775D01*
X193719742Y-83077203D01*
X195948314Y-83077203D01*
X195948314Y-94805775D01*
G37*
G36*
X153038511Y-102897361D02*
G01*
X153139118Y-102997968D01*
X153192297Y-103104327D01*
X153255253Y-103356148D01*
X153255253Y-103533507D01*
X153192297Y-103785328D01*
X153139118Y-103891688D01*
X153038512Y-103992294D01*
X152880910Y-104044828D01*
X152698110Y-104044828D01*
X152698110Y-102844828D01*
X152880913Y-102844828D01*
X153038511Y-102897361D01*
G37*
G36*
X160173544Y-102889535D02*
G01*
X160210548Y-102926539D01*
X160255254Y-103015951D01*
X160255254Y-103159418D01*
X160210547Y-103248831D01*
X160173542Y-103285836D01*
X160084130Y-103330542D01*
X159698111Y-103330542D01*
X159698111Y-102844828D01*
X160084130Y-102844828D01*
X160173544Y-102889535D01*
G37*
G36*
X160769540Y-104559114D02*
G01*
X152183824Y-104559114D01*
X152183824Y-104194828D01*
X152398110Y-104194828D01*
X152418206Y-104269828D01*
X152473110Y-104324732D01*
X152548110Y-104344828D01*
X152905253Y-104344828D01*
X152928578Y-104338578D01*
X152952687Y-104337131D01*
X153166973Y-104265703D01*
X153195748Y-104246703D01*
X153225605Y-104229466D01*
X153260243Y-104194828D01*
X153898110Y-104194828D01*
X153918206Y-104269828D01*
X153973110Y-104324732D01*
X154048110Y-104344828D01*
X154123110Y-104324732D01*
X154178014Y-104269828D01*
X154198110Y-104194828D01*
X154612396Y-104194828D01*
X154632492Y-104269828D01*
X154687396Y-104324732D01*
X154762396Y-104344828D01*
X154837396Y-104324732D01*
X154892300Y-104269828D01*
X154912396Y-104194828D01*
X154912396Y-103370961D01*
X155126469Y-103829690D01*
X155134976Y-103839822D01*
X155139498Y-103852257D01*
X155159553Y-103869095D01*
X155176396Y-103889156D01*
X155188832Y-103893678D01*
X155198963Y-103902184D01*
X155224747Y-103906738D01*
X155249367Y-103915691D01*
X155262398Y-103913389D01*
X155275425Y-103915690D01*
X155300033Y-103906741D01*
X155325829Y-103902185D01*
X155335963Y-103893675D01*
X155348396Y-103889155D01*
X155365233Y-103869100D01*
X155385294Y-103852258D01*
X155389816Y-103839821D01*
X155398323Y-103829690D01*
X155612396Y-103370962D01*
X155612396Y-104194828D01*
X155632492Y-104269828D01*
X155687396Y-104324732D01*
X155762396Y-104344828D01*
X155837396Y-104324732D01*
X155892300Y-104269828D01*
X155912396Y-104194828D01*
X156326682Y-104194828D01*
X156346778Y-104269828D01*
X156401682Y-104324732D01*
X156476682Y-104344828D01*
X156551682Y-104324732D01*
X156606586Y-104269828D01*
X156626682Y-104194828D01*
X156626682Y-103370961D01*
X156840755Y-103829690D01*
X156849262Y-103839822D01*
X156853784Y-103852257D01*
X156873839Y-103869095D01*
X156890682Y-103889156D01*
X156903118Y-103893678D01*
X156913249Y-103902184D01*
X156939033Y-103906738D01*
X156963653Y-103915691D01*
X156976684Y-103913389D01*
X156989711Y-103915690D01*
X157014319Y-103906741D01*
X157040115Y-103902185D01*
X157050249Y-103893675D01*
X157062682Y-103889155D01*
X157079519Y-103869100D01*
X157099580Y-103852258D01*
X157104102Y-103839821D01*
X157112609Y-103829690D01*
X157326682Y-103370962D01*
X157326682Y-104194828D01*
X157346778Y-104269828D01*
X157401682Y-104324732D01*
X157476682Y-104344828D01*
X157551682Y-104324732D01*
X157606586Y-104269828D01*
X157626682Y-104194828D01*
X158040968Y-104194828D01*
X158061064Y-104269828D01*
X158115968Y-104324732D01*
X158190968Y-104344828D01*
X158905254Y-104344828D01*
X158980254Y-104324732D01*
X159035158Y-104269828D01*
X159055254Y-104194828D01*
X159398111Y-104194828D01*
X159418207Y-104269828D01*
X159473111Y-104324732D01*
X159548111Y-104344828D01*
X159623111Y-104324732D01*
X159678015Y-104269828D01*
X159698111Y-104194828D01*
X159698111Y-103630542D01*
X159827156Y-103630542D01*
X160282369Y-104280847D01*
X160341842Y-104330765D01*
X160418307Y-104344259D01*
X160491273Y-104317713D01*
X160541191Y-104258240D01*
X160554685Y-104181775D01*
X160528139Y-104108809D01*
X160182812Y-103615485D01*
X160186622Y-103614706D01*
X160329479Y-103543278D01*
X160347548Y-103527254D01*
X160368463Y-103515180D01*
X160439892Y-103443751D01*
X160451966Y-103422836D01*
X160467990Y-103404767D01*
X160539418Y-103261909D01*
X160546329Y-103228133D01*
X160555254Y-103194828D01*
X160555254Y-102980542D01*
X160546329Y-102947236D01*
X160539418Y-102913461D01*
X160467990Y-102770603D01*
X160451966Y-102752533D01*
X160439891Y-102731618D01*
X160368462Y-102660190D01*
X160347547Y-102648115D01*
X160329479Y-102632093D01*
X160186622Y-102560664D01*
X160152841Y-102553751D01*
X160119540Y-102544828D01*
X159548111Y-102544828D01*
X159473111Y-102564924D01*
X159418207Y-102619828D01*
X159398111Y-102694828D01*
X159398111Y-104194828D01*
X159055254Y-104194828D01*
X159035158Y-104119828D01*
X158980254Y-104064924D01*
X158905254Y-104044828D01*
X158340968Y-104044828D01*
X158340968Y-103559114D01*
X158690968Y-103559114D01*
X158765968Y-103539018D01*
X158820872Y-103484114D01*
X158840968Y-103409114D01*
X158820872Y-103334114D01*
X158765968Y-103279210D01*
X158690968Y-103259114D01*
X158340968Y-103259114D01*
X158340968Y-102844828D01*
X158905254Y-102844828D01*
X158980254Y-102824732D01*
X159035158Y-102769828D01*
X159055254Y-102694828D01*
X159035158Y-102619828D01*
X158980254Y-102564924D01*
X158905254Y-102544828D01*
X158190968Y-102544828D01*
X158115968Y-102564924D01*
X158061064Y-102619828D01*
X158040968Y-102694828D01*
X158040968Y-104194828D01*
X157626682Y-104194828D01*
X157626682Y-102694828D01*
X157624953Y-102688375D01*
X157626115Y-102681798D01*
X157615002Y-102651237D01*
X157606586Y-102619828D01*
X157601862Y-102615104D01*
X157599580Y-102608827D01*
X157574673Y-102587915D01*
X157551682Y-102564924D01*
X157545231Y-102563195D01*
X157540115Y-102558900D01*
X157508084Y-102553242D01*
X157476682Y-102544828D01*
X157470232Y-102546556D01*
X157463653Y-102545394D01*
X157433085Y-102556509D01*
X157401682Y-102564924D01*
X157396959Y-102569646D01*
X157390682Y-102571929D01*
X157369772Y-102596833D01*
X157346778Y-102619828D01*
X157345049Y-102626280D01*
X157340755Y-102631395D01*
X156976682Y-103411551D01*
X156612609Y-102631395D01*
X156608314Y-102626280D01*
X156606586Y-102619828D01*
X156583588Y-102596830D01*
X156562682Y-102571930D01*
X156556405Y-102569647D01*
X156551682Y-102564924D01*
X156520268Y-102556506D01*
X156489711Y-102545395D01*
X156483133Y-102546556D01*
X156476682Y-102544828D01*
X156445268Y-102553245D01*
X156413249Y-102558901D01*
X156408134Y-102563195D01*
X156401682Y-102564924D01*
X156378684Y-102587921D01*
X156353784Y-102608828D01*
X156351501Y-102615104D01*
X156346778Y-102619828D01*
X156338360Y-102651241D01*
X156327249Y-102681799D01*
X156328410Y-102688376D01*
X156326682Y-102694828D01*
X156326682Y-104194828D01*
X155912396Y-104194828D01*
X155912396Y-102694828D01*
X155910667Y-102688375D01*
X155911829Y-102681798D01*
X155900716Y-102651237D01*
X155892300Y-102619828D01*
X155887576Y-102615104D01*
X155885294Y-102608827D01*
X155860387Y-102587915D01*
X155837396Y-102564924D01*
X155830945Y-102563195D01*
X155825829Y-102558900D01*
X155793798Y-102553242D01*
X155762396Y-102544828D01*
X155755946Y-102546556D01*
X155749367Y-102545394D01*
X155718799Y-102556509D01*
X155687396Y-102564924D01*
X155682673Y-102569646D01*
X155676396Y-102571929D01*
X155655486Y-102596833D01*
X155632492Y-102619828D01*
X155630763Y-102626280D01*
X155626469Y-102631395D01*
X155262396Y-103411551D01*
X154898323Y-102631395D01*
X154894028Y-102626280D01*
X154892300Y-102619828D01*
X154869302Y-102596830D01*
X154848396Y-102571930D01*
X154842119Y-102569647D01*
X154837396Y-102564924D01*
X154805982Y-102556506D01*
X154775425Y-102545395D01*
X154768847Y-102546556D01*
X154762396Y-102544828D01*
X154730982Y-102553245D01*
X154698963Y-102558901D01*
X154693848Y-102563195D01*
X154687396Y-102564924D01*
X154664398Y-102587921D01*
X154639498Y-102608828D01*
X154637215Y-102615104D01*
X154632492Y-102619828D01*
X154624074Y-102651241D01*
X154612963Y-102681799D01*
X154614124Y-102688376D01*
X154612396Y-102694828D01*
X154612396Y-104194828D01*
X154198110Y-104194828D01*
X154198110Y-102694828D01*
X154178014Y-102619828D01*
X154123110Y-102564924D01*
X154048110Y-102544828D01*
X153973110Y-102564924D01*
X153918206Y-102619828D01*
X153898110Y-102694828D01*
X153898110Y-104194828D01*
X153260243Y-104194828D01*
X153368462Y-104086608D01*
X153380537Y-104065693D01*
X153396560Y-104047624D01*
X153467989Y-103904768D01*
X153471309Y-103888541D01*
X153479346Y-103874065D01*
X153550774Y-103588351D01*
X153550462Y-103569848D01*
X153555253Y-103551971D01*
X153555253Y-103337685D01*
X153550462Y-103319807D01*
X153550774Y-103301305D01*
X153479346Y-103015591D01*
X153471309Y-103001114D01*
X153467989Y-102984888D01*
X153396560Y-102842032D01*
X153380537Y-102823963D01*
X153368462Y-102803048D01*
X153225605Y-102660191D01*
X153195748Y-102642953D01*
X153166973Y-102623954D01*
X152952687Y-102552526D01*
X152928581Y-102551078D01*
X152905253Y-102544828D01*
X152548110Y-102544828D01*
X152473110Y-102564924D01*
X152418206Y-102619828D01*
X152398110Y-102694828D01*
X152398110Y-104194828D01*
X152183824Y-104194828D01*
X152183824Y-102330542D01*
X160769540Y-102330542D01*
X160769540Y-104559114D01*
G37*
G36*
X87618969Y-53832257D02*
G01*
X87320910Y-53832257D01*
X87469939Y-53385169D01*
X87618969Y-53832257D01*
G37*
G36*
X92048510Y-54775114D02*
G01*
X85322984Y-54775114D01*
X85322984Y-52880756D01*
X85537270Y-52880756D01*
X85541923Y-52958262D01*
X86041923Y-54458262D01*
X86058521Y-54483402D01*
X86071995Y-54510349D01*
X86079648Y-54515402D01*
X86084704Y-54523059D01*
X86111655Y-54536534D01*
X86136791Y-54553130D01*
X86145946Y-54553679D01*
X86154153Y-54557783D01*
X86184228Y-54555977D01*
X86214297Y-54557783D01*
X86222501Y-54553680D01*
X86231659Y-54553131D01*
X86256803Y-54536529D01*
X86283746Y-54523058D01*
X86288799Y-54515404D01*
X86296456Y-54510349D01*
X86309931Y-54483397D01*
X86326527Y-54458262D01*
X86332314Y-54440900D01*
X86822984Y-54440900D01*
X86857709Y-54510349D01*
X86922505Y-54553130D01*
X87000011Y-54557783D01*
X87069460Y-54523058D01*
X87112241Y-54458262D01*
X87220910Y-54132257D01*
X87718969Y-54132257D01*
X87827637Y-54458262D01*
X87870418Y-54523059D01*
X87939867Y-54557783D01*
X88017373Y-54553131D01*
X88082170Y-54510349D01*
X88116894Y-54440900D01*
X88115089Y-54410828D01*
X88319938Y-54410828D01*
X88340034Y-54485828D01*
X88394938Y-54540732D01*
X88469938Y-54560828D01*
X89184224Y-54560828D01*
X89259224Y-54540732D01*
X89314128Y-54485828D01*
X89334224Y-54410828D01*
X89314128Y-54335828D01*
X89259224Y-54280924D01*
X89184224Y-54260828D01*
X88619938Y-54260828D01*
X88619938Y-52910828D01*
X88611880Y-52880756D01*
X89322984Y-52880756D01*
X89327637Y-52958262D01*
X89827637Y-54458262D01*
X89844235Y-54483402D01*
X89857709Y-54510349D01*
X89865362Y-54515402D01*
X89870418Y-54523059D01*
X89897369Y-54536534D01*
X89922505Y-54553130D01*
X89931660Y-54553679D01*
X89939867Y-54557783D01*
X89969942Y-54555977D01*
X90000011Y-54557783D01*
X90008215Y-54553680D01*
X90017373Y-54553131D01*
X90042517Y-54536529D01*
X90069460Y-54523058D01*
X90074513Y-54515404D01*
X90082170Y-54510349D01*
X90095645Y-54483397D01*
X90112241Y-54458262D01*
X90128052Y-54410828D01*
X90819938Y-54410828D01*
X90840034Y-54485828D01*
X90894938Y-54540732D01*
X90969938Y-54560828D01*
X91684224Y-54560828D01*
X91759224Y-54540732D01*
X91814128Y-54485828D01*
X91834224Y-54410828D01*
X91814128Y-54335828D01*
X91759224Y-54280924D01*
X91684224Y-54260828D01*
X91119938Y-54260828D01*
X91119938Y-53775114D01*
X91469938Y-53775114D01*
X91544938Y-53755018D01*
X91599842Y-53700114D01*
X91619938Y-53625114D01*
X91599842Y-53550114D01*
X91544938Y-53495210D01*
X91469938Y-53475114D01*
X91119938Y-53475114D01*
X91119938Y-53060828D01*
X91684224Y-53060828D01*
X91759224Y-53040732D01*
X91814128Y-52985828D01*
X91834224Y-52910828D01*
X91814128Y-52835828D01*
X91759224Y-52780924D01*
X91684224Y-52760828D01*
X90969938Y-52760828D01*
X90894938Y-52780924D01*
X90840034Y-52835828D01*
X90819938Y-52910828D01*
X90819938Y-54410828D01*
X90128052Y-54410828D01*
X90612242Y-52958262D01*
X90616894Y-52880756D01*
X90582170Y-52811307D01*
X90517373Y-52768525D01*
X90439867Y-52763873D01*
X90370418Y-52798597D01*
X90327637Y-52863394D01*
X89969939Y-53936486D01*
X89612241Y-52863394D01*
X89569460Y-52798598D01*
X89500011Y-52763873D01*
X89422505Y-52768526D01*
X89357709Y-52811307D01*
X89322984Y-52880756D01*
X88611880Y-52880756D01*
X88599842Y-52835828D01*
X88544938Y-52780924D01*
X88469938Y-52760828D01*
X88394938Y-52780924D01*
X88340034Y-52835828D01*
X88319938Y-52910828D01*
X88319938Y-54410828D01*
X88115089Y-54410828D01*
X88112242Y-54363394D01*
X87612241Y-52863394D01*
X87595645Y-52838258D01*
X87582170Y-52811307D01*
X87574513Y-52806251D01*
X87569460Y-52798598D01*
X87542517Y-52785126D01*
X87517373Y-52768525D01*
X87508215Y-52767975D01*
X87500011Y-52763873D01*
X87469942Y-52765678D01*
X87439867Y-52763873D01*
X87431660Y-52767976D01*
X87422505Y-52768526D01*
X87397369Y-52785121D01*
X87370418Y-52798597D01*
X87365362Y-52806253D01*
X87357709Y-52811307D01*
X87344235Y-52838253D01*
X87327637Y-52863394D01*
X86827637Y-54363394D01*
X86822984Y-54440900D01*
X86332314Y-54440900D01*
X86826528Y-52958262D01*
X86831180Y-52880756D01*
X86796456Y-52811307D01*
X86731659Y-52768525D01*
X86654153Y-52763873D01*
X86584704Y-52798597D01*
X86541923Y-52863394D01*
X86184225Y-53936486D01*
X85826527Y-52863394D01*
X85783746Y-52798598D01*
X85714297Y-52763873D01*
X85636791Y-52768526D01*
X85571995Y-52811307D01*
X85537270Y-52880756D01*
X85322984Y-52880756D01*
X85322984Y-52546542D01*
X92048510Y-52546542D01*
X92048510Y-54775114D01*
G37*
G36*
X194133403Y-72304481D02*
G01*
X194170406Y-72341485D01*
X194215114Y-72430899D01*
X194215114Y-72745489D01*
X193800828Y-72745489D01*
X193800828Y-72430899D01*
X193845535Y-72341484D01*
X193882539Y-72304480D01*
X193971952Y-72259774D01*
X194043990Y-72259774D01*
X194133403Y-72304481D01*
G37*
G36*
X194919116Y-72233051D02*
G01*
X194956121Y-72270056D01*
X195000828Y-72359469D01*
X195000828Y-72745489D01*
X194515114Y-72745489D01*
X194515114Y-72419831D01*
X194567647Y-72262229D01*
X194596824Y-72233052D01*
X194686238Y-72188346D01*
X194829704Y-72188346D01*
X194919116Y-72233051D01*
G37*
G36*
X195515114Y-73259775D02*
G01*
X193286542Y-73259775D01*
X193286542Y-72895489D01*
X193500828Y-72895489D01*
X193520924Y-72970489D01*
X193575828Y-73025393D01*
X193650828Y-73045489D01*
X194365114Y-73045489D01*
X195150828Y-73045489D01*
X195225828Y-73025393D01*
X195280732Y-72970489D01*
X195300828Y-72895489D01*
X195300828Y-72324060D01*
X195291903Y-72290754D01*
X195284992Y-72256979D01*
X195213564Y-72114121D01*
X195197540Y-72096051D01*
X195185466Y-72075137D01*
X195114037Y-72003708D01*
X195093122Y-71991633D01*
X195075053Y-71975610D01*
X194932196Y-71904182D01*
X194898417Y-71897269D01*
X194865114Y-71888346D01*
X194650828Y-71888346D01*
X194617522Y-71897270D01*
X194583747Y-71904182D01*
X194440889Y-71975610D01*
X194422819Y-71991633D01*
X194401905Y-72003708D01*
X194330476Y-72075137D01*
X194329687Y-72076501D01*
X194328324Y-72075138D01*
X194307407Y-72063061D01*
X194289339Y-72047039D01*
X194146482Y-71975610D01*
X194112701Y-71968697D01*
X194079400Y-71959774D01*
X193936542Y-71959774D01*
X193903241Y-71968696D01*
X193869459Y-71975610D01*
X193726603Y-72047039D01*
X193708534Y-72063061D01*
X193687618Y-72075138D01*
X193616190Y-72146567D01*
X193604115Y-72167481D01*
X193588093Y-72185550D01*
X193516664Y-72328407D01*
X193509751Y-72362187D01*
X193500828Y-72395489D01*
X193500828Y-72895489D01*
X193286542Y-72895489D01*
X193286542Y-71395489D01*
X194429400Y-71395489D01*
X194449496Y-71470489D01*
X194504400Y-71525393D01*
X194579400Y-71545489D01*
X194654400Y-71525393D01*
X194709304Y-71470489D01*
X194729400Y-71395489D01*
X194729400Y-70252632D01*
X194709304Y-70177632D01*
X194654400Y-70122728D01*
X194579400Y-70102632D01*
X194504400Y-70122728D01*
X194449496Y-70177632D01*
X194429400Y-70252632D01*
X194429400Y-71395489D01*
X193286542Y-71395489D01*
X193286542Y-69324060D01*
X193500828Y-69324060D01*
X193509751Y-69357361D01*
X193516664Y-69391142D01*
X193588093Y-69533999D01*
X193604115Y-69552067D01*
X193616190Y-69572982D01*
X193687618Y-69644411D01*
X193708533Y-69656486D01*
X193726603Y-69672510D01*
X193869461Y-69743938D01*
X193903236Y-69750849D01*
X193936542Y-69759774D01*
X194079400Y-69759774D01*
X194112703Y-69750850D01*
X194146482Y-69743938D01*
X194289339Y-69672510D01*
X194307408Y-69656486D01*
X194328324Y-69644411D01*
X194399752Y-69572982D01*
X194411826Y-69552067D01*
X194427849Y-69533999D01*
X194499278Y-69391143D01*
X194502598Y-69374916D01*
X194510635Y-69360440D01*
X194578068Y-69090702D01*
X194631249Y-68984342D01*
X194668254Y-68947337D01*
X194757667Y-68902631D01*
X194829704Y-68902631D01*
X194919117Y-68947338D01*
X194956121Y-68984342D01*
X195000828Y-69073755D01*
X195000828Y-69371146D01*
X194937097Y-69562340D01*
X194932445Y-69639846D01*
X194967170Y-69709295D01*
X195031966Y-69752077D01*
X195109472Y-69756729D01*
X195178921Y-69722004D01*
X195221703Y-69657208D01*
X195293131Y-69442923D01*
X195294578Y-69418814D01*
X195300828Y-69395489D01*
X195300828Y-69038346D01*
X195291903Y-69005040D01*
X195284992Y-68971265D01*
X195213564Y-68828407D01*
X195197540Y-68810337D01*
X195185466Y-68789423D01*
X195114037Y-68717994D01*
X195093121Y-68705918D01*
X195075053Y-68689896D01*
X194932196Y-68618467D01*
X194898415Y-68611554D01*
X194865114Y-68602631D01*
X194722257Y-68602631D01*
X194688956Y-68611553D01*
X194655174Y-68618467D01*
X194512318Y-68689896D01*
X194494249Y-68705918D01*
X194473334Y-68717994D01*
X194401905Y-68789423D01*
X194389829Y-68810338D01*
X194373807Y-68828407D01*
X194302378Y-68971264D01*
X194299057Y-68987488D01*
X194291021Y-69001966D01*
X194223586Y-69271703D01*
X194170406Y-69378063D01*
X194133401Y-69415068D01*
X194043990Y-69459774D01*
X193971952Y-69459774D01*
X193882539Y-69415068D01*
X193845535Y-69378064D01*
X193800828Y-69288649D01*
X193800828Y-68991257D01*
X193864559Y-68800066D01*
X193869212Y-68722560D01*
X193834488Y-68653111D01*
X193769691Y-68610329D01*
X193692185Y-68605676D01*
X193622736Y-68640401D01*
X193579954Y-68705197D01*
X193508526Y-68919483D01*
X193507078Y-68943588D01*
X193500828Y-68966917D01*
X193500828Y-69324060D01*
X193286542Y-69324060D01*
X193286542Y-68287375D01*
X193504907Y-68287375D01*
X193541828Y-68355681D01*
X193607956Y-68396375D01*
X193685571Y-68398553D01*
X195185571Y-68041410D01*
X195187562Y-68040333D01*
X195189824Y-68040331D01*
X195221577Y-68021947D01*
X195253877Y-68004489D01*
X195255063Y-68002561D01*
X195257021Y-68001428D01*
X195275328Y-67969630D01*
X195294571Y-67938361D01*
X195294634Y-67936098D01*
X195295763Y-67934138D01*
X195295719Y-67897449D01*
X195296749Y-67860746D01*
X195295672Y-67858754D01*
X195295670Y-67856493D01*
X195277286Y-67824739D01*
X195259828Y-67792440D01*
X195257900Y-67791253D01*
X195256767Y-67789296D01*
X195224969Y-67770988D01*
X195193700Y-67751746D01*
X195191437Y-67751682D01*
X195189477Y-67750554D01*
X194661554Y-67609774D01*
X195189477Y-67468995D01*
X195191437Y-67467866D01*
X195193700Y-67467803D01*
X195224969Y-67448560D01*
X195256767Y-67430253D01*
X195257900Y-67428295D01*
X195259828Y-67427109D01*
X195277286Y-67394809D01*
X195295670Y-67363056D01*
X195295672Y-67360794D01*
X195296749Y-67358803D01*
X195295719Y-67322099D01*
X195295763Y-67285411D01*
X195294634Y-67283450D01*
X195294571Y-67281188D01*
X195275328Y-67249918D01*
X195257021Y-67218121D01*
X195255063Y-67216987D01*
X195253877Y-67215060D01*
X195221577Y-67197601D01*
X195189824Y-67179218D01*
X195187562Y-67179215D01*
X195185571Y-67178139D01*
X193685571Y-66820997D01*
X193607956Y-66823175D01*
X193541828Y-66863869D01*
X193504907Y-66932175D01*
X193507085Y-67009790D01*
X193547779Y-67075918D01*
X193616085Y-67112839D01*
X194537797Y-67332293D01*
X194040750Y-67464840D01*
X194040588Y-67464932D01*
X194040404Y-67464933D01*
X194007048Y-67484243D01*
X193973461Y-67503582D01*
X193973367Y-67503742D01*
X193973207Y-67503836D01*
X193954011Y-67537176D01*
X193934557Y-67570779D01*
X193934556Y-67570966D01*
X193934465Y-67571126D01*
X193934511Y-67609566D01*
X193934465Y-67648425D01*
X193934557Y-67648586D01*
X193934558Y-67648771D01*
X193953868Y-67682126D01*
X193973207Y-67715714D01*
X193973367Y-67715807D01*
X193973461Y-67715968D01*
X194006801Y-67735163D01*
X194040404Y-67754618D01*
X194040591Y-67754618D01*
X194040751Y-67754710D01*
X194537797Y-67887255D01*
X193616085Y-68106711D01*
X193547779Y-68143632D01*
X193507085Y-68209760D01*
X193504907Y-68287375D01*
X193286542Y-68287375D01*
X193286542Y-66606711D01*
X195515114Y-66606711D01*
X195515114Y-73259775D01*
G37*
X105980225Y-74780828D02*
X106480225Y-76280828D01*
X106480225Y-76280828D02*
X106980225Y-74780828D01*
X107408796Y-74923685D02*
X107480224Y-74852257D01*
X107480224Y-74852257D02*
X107623082Y-74780828D01*
X107623082Y-74780828D02*
X107980224Y-74780828D01*
X107980224Y-74780828D02*
X108123082Y-74852257D01*
X108123082Y-74852257D02*
X108194510Y-74923685D01*
X108194510Y-74923685D02*
X108265939Y-75066542D01*
X108265939Y-75066542D02*
X108265939Y-75209400D01*
X108265939Y-75209400D02*
X108194510Y-75423685D01*
X108194510Y-75423685D02*
X107337367Y-76280828D01*
X107337367Y-76280828D02*
X108265939Y-76280828D01*
X108908795Y-76137971D02*
X108980224Y-76209400D01*
X108980224Y-76209400D02*
X108908795Y-76280828D01*
X108908795Y-76280828D02*
X108837367Y-76209400D01*
X108837367Y-76209400D02*
X108908795Y-76137971D01*
X108908795Y-76137971D02*
X108908795Y-76280828D01*
X109908796Y-74780828D02*
X110051653Y-74780828D01*
X110051653Y-74780828D02*
X110194510Y-74852257D01*
X110194510Y-74852257D02*
X110265939Y-74923685D01*
X110265939Y-74923685D02*
X110337367Y-75066542D01*
X110337367Y-75066542D02*
X110408796Y-75352257D01*
X110408796Y-75352257D02*
X110408796Y-75709400D01*
X110408796Y-75709400D02*
X110337367Y-75995114D01*
X110337367Y-75995114D02*
X110265939Y-76137971D01*
X110265939Y-76137971D02*
X110194510Y-76209400D01*
X110194510Y-76209400D02*
X110051653Y-76280828D01*
X110051653Y-76280828D02*
X109908796Y-76280828D01*
X109908796Y-76280828D02*
X109765939Y-76209400D01*
X109765939Y-76209400D02*
X109694510Y-76137971D01*
X109694510Y-76137971D02*
X109623081Y-75995114D01*
X109623081Y-75995114D02*
X109551653Y-75709400D01*
X109551653Y-75709400D02*
X109551653Y-75352257D01*
X109551653Y-75352257D02*
X109623081Y-75066542D01*
X109623081Y-75066542D02*
X109694510Y-74923685D01*
X109694510Y-74923685D02*
X109765939Y-74852257D01*
X109765939Y-74852257D02*
X109908796Y-74780828D01*
X96770227Y-68914228D02*
X96770227Y-67414228D01*
X96770227Y-68128514D02*
X97627370Y-68128514D01*
X97627370Y-68914228D02*
X97627370Y-67414228D01*
X98341656Y-68914228D02*
X98341656Y-67414228D01*
X99841657Y-67485657D02*
X99698800Y-67414228D01*
X99698800Y-67414228D02*
X99484514Y-67414228D01*
X99484514Y-67414228D02*
X99270228Y-67485657D01*
X99270228Y-67485657D02*
X99127371Y-67628514D01*
X99127371Y-67628514D02*
X99055942Y-67771371D01*
X99055942Y-67771371D02*
X98984514Y-68057085D01*
X98984514Y-68057085D02*
X98984514Y-68271371D01*
X98984514Y-68271371D02*
X99055942Y-68557085D01*
X99055942Y-68557085D02*
X99127371Y-68699942D01*
X99127371Y-68699942D02*
X99270228Y-68842800D01*
X99270228Y-68842800D02*
X99484514Y-68914228D01*
X99484514Y-68914228D02*
X99627371Y-68914228D01*
X99627371Y-68914228D02*
X99841657Y-68842800D01*
X99841657Y-68842800D02*
X99913085Y-68771371D01*
X99913085Y-68771371D02*
X99913085Y-68271371D01*
X99913085Y-68271371D02*
X99627371Y-68271371D01*
X100555942Y-68914228D02*
X100555942Y-67414228D01*
X100555942Y-68128514D02*
X101413085Y-68128514D01*
X101413085Y-68914228D02*
X101413085Y-67414228D01*
X103055943Y-67414228D02*
X103555943Y-68914228D01*
X103555943Y-68914228D02*
X104055943Y-67414228D01*
X104841657Y-67414228D02*
X105127371Y-67414228D01*
X105127371Y-67414228D02*
X105270228Y-67485657D01*
X105270228Y-67485657D02*
X105413085Y-67628514D01*
X105413085Y-67628514D02*
X105484514Y-67914228D01*
X105484514Y-67914228D02*
X105484514Y-68414228D01*
X105484514Y-68414228D02*
X105413085Y-68699942D01*
X105413085Y-68699942D02*
X105270228Y-68842800D01*
X105270228Y-68842800D02*
X105127371Y-68914228D01*
X105127371Y-68914228D02*
X104841657Y-68914228D01*
X104841657Y-68914228D02*
X104698800Y-68842800D01*
X104698800Y-68842800D02*
X104555942Y-68699942D01*
X104555942Y-68699942D02*
X104484514Y-68414228D01*
X104484514Y-68414228D02*
X104484514Y-67914228D01*
X104484514Y-67914228D02*
X104555942Y-67628514D01*
X104555942Y-67628514D02*
X104698800Y-67485657D01*
X104698800Y-67485657D02*
X104841657Y-67414228D01*
X106841657Y-68914228D02*
X106127371Y-68914228D01*
X106127371Y-68914228D02*
X106127371Y-67414228D01*
X107127372Y-67414228D02*
X107984515Y-67414228D01*
X107555943Y-68914228D02*
X107555943Y-67414228D01*
X108413086Y-68485657D02*
X109127372Y-68485657D01*
X108270229Y-68914228D02*
X108770229Y-67414228D01*
X108770229Y-67414228D02*
X109270229Y-68914228D01*
X110555943Y-67485657D02*
X110413086Y-67414228D01*
X110413086Y-67414228D02*
X110198800Y-67414228D01*
X110198800Y-67414228D02*
X109984514Y-67485657D01*
X109984514Y-67485657D02*
X109841657Y-67628514D01*
X109841657Y-67628514D02*
X109770228Y-67771371D01*
X109770228Y-67771371D02*
X109698800Y-68057085D01*
X109698800Y-68057085D02*
X109698800Y-68271371D01*
X109698800Y-68271371D02*
X109770228Y-68557085D01*
X109770228Y-68557085D02*
X109841657Y-68699942D01*
X109841657Y-68699942D02*
X109984514Y-68842800D01*
X109984514Y-68842800D02*
X110198800Y-68914228D01*
X110198800Y-68914228D02*
X110341657Y-68914228D01*
X110341657Y-68914228D02*
X110555943Y-68842800D01*
X110555943Y-68842800D02*
X110627371Y-68771371D01*
X110627371Y-68771371D02*
X110627371Y-68271371D01*
X110627371Y-68271371D02*
X110341657Y-68271371D01*
X111270228Y-68128514D02*
X111770228Y-68128514D01*
X111984514Y-68914228D02*
X111270228Y-68914228D01*
X111270228Y-68914228D02*
X111270228Y-67414228D01*
X111270228Y-67414228D02*
X111984514Y-67414228D01*
X112627371Y-68771371D02*
X112698800Y-68842800D01*
X112698800Y-68842800D02*
X112627371Y-68914228D01*
X112627371Y-68914228D02*
X112555943Y-68842800D01*
X112555943Y-68842800D02*
X112627371Y-68771371D01*
X112627371Y-68771371D02*
X112627371Y-68914228D01*
X112627371Y-68342800D02*
X112555943Y-67485657D01*
X112555943Y-67485657D02*
X112627371Y-67414228D01*
X112627371Y-67414228D02*
X112698800Y-67485657D01*
X112698800Y-67485657D02*
X112627371Y-68342800D01*
X112627371Y-68342800D02*
X112627371Y-67414228D01*
G36*
X172494911Y-88419361D02*
G01*
X172595518Y-88519968D01*
X172648697Y-88626327D01*
X172711653Y-88878148D01*
X172711653Y-89055507D01*
X172648697Y-89307328D01*
X172595518Y-89413688D01*
X172494912Y-89514294D01*
X172337310Y-89566828D01*
X172154510Y-89566828D01*
X172154510Y-88366828D01*
X172337313Y-88366828D01*
X172494911Y-88419361D01*
G37*
G36*
X175494912Y-89133647D02*
G01*
X175524089Y-89162824D01*
X175568796Y-89252237D01*
X175568796Y-89395704D01*
X175524089Y-89485117D01*
X175487084Y-89522122D01*
X175397672Y-89566828D01*
X175011653Y-89566828D01*
X175011653Y-89081114D01*
X175337310Y-89081114D01*
X175494912Y-89133647D01*
G37*
G36*
X175415657Y-88411535D02*
G01*
X175452661Y-88448539D01*
X175497368Y-88537952D01*
X175497368Y-88609989D01*
X175452661Y-88699402D01*
X175415657Y-88736407D01*
X175326243Y-88781114D01*
X175011653Y-88781114D01*
X175011653Y-88366828D01*
X175326243Y-88366828D01*
X175415657Y-88411535D01*
G37*
G36*
X179154511Y-90081114D02*
G01*
X171640224Y-90081114D01*
X171640224Y-89716828D01*
X171854510Y-89716828D01*
X171874606Y-89791828D01*
X171929510Y-89846732D01*
X172004510Y-89866828D01*
X172361653Y-89866828D01*
X172384978Y-89860578D01*
X172409087Y-89859131D01*
X172623373Y-89787703D01*
X172652148Y-89768703D01*
X172682005Y-89751466D01*
X172716643Y-89716828D01*
X173354510Y-89716828D01*
X173374606Y-89791828D01*
X173429510Y-89846732D01*
X173504510Y-89866828D01*
X174218796Y-89866828D01*
X174293796Y-89846732D01*
X174348700Y-89791828D01*
X174368796Y-89716828D01*
X174711653Y-89716828D01*
X174731749Y-89791828D01*
X174786653Y-89846732D01*
X174861653Y-89866828D01*
X175433082Y-89866828D01*
X175466385Y-89857904D01*
X175500164Y-89850992D01*
X175643021Y-89779564D01*
X175661090Y-89763540D01*
X175682005Y-89751466D01*
X175753434Y-89680037D01*
X175765508Y-89659122D01*
X175781532Y-89641053D01*
X175852960Y-89498195D01*
X175859871Y-89464419D01*
X175868796Y-89431114D01*
X176211653Y-89431114D01*
X176220576Y-89464415D01*
X176227489Y-89498196D01*
X176298918Y-89641053D01*
X176314940Y-89659121D01*
X176327016Y-89680037D01*
X176398445Y-89751466D01*
X176419359Y-89763540D01*
X176437429Y-89779564D01*
X176580287Y-89850992D01*
X176614062Y-89857903D01*
X176647368Y-89866828D01*
X176933082Y-89866828D01*
X176966385Y-89857904D01*
X177000164Y-89850992D01*
X177143021Y-89779564D01*
X177161090Y-89763540D01*
X177182005Y-89751466D01*
X177253434Y-89680037D01*
X177265508Y-89659122D01*
X177281532Y-89641053D01*
X177352960Y-89498195D01*
X177359871Y-89464419D01*
X177368796Y-89431114D01*
X177368796Y-89073971D01*
X177711654Y-89073971D01*
X177716444Y-89091848D01*
X177716133Y-89110351D01*
X177787561Y-89396065D01*
X177795597Y-89410542D01*
X177798918Y-89426767D01*
X177870347Y-89569624D01*
X177886369Y-89587693D01*
X177898445Y-89608608D01*
X178041302Y-89751466D01*
X178071161Y-89768705D01*
X178099934Y-89787703D01*
X178314220Y-89859131D01*
X178338328Y-89860578D01*
X178361654Y-89866828D01*
X178504511Y-89866828D01*
X178527836Y-89860578D01*
X178551945Y-89859131D01*
X178766231Y-89787703D01*
X178795006Y-89768703D01*
X178824864Y-89751465D01*
X178896292Y-89680036D01*
X178906165Y-89662934D01*
X178920129Y-89648971D01*
X178925240Y-89629894D01*
X178935114Y-89612793D01*
X178935114Y-89593045D01*
X178940225Y-89573971D01*
X178940225Y-89073971D01*
X178920129Y-88998971D01*
X178865225Y-88944067D01*
X178790225Y-88923971D01*
X178504511Y-88923971D01*
X178429511Y-88944067D01*
X178374607Y-88998971D01*
X178354511Y-89073971D01*
X178374607Y-89148971D01*
X178429511Y-89203875D01*
X178504511Y-89223971D01*
X178640225Y-89223971D01*
X178640225Y-89511839D01*
X178637770Y-89514294D01*
X178480168Y-89566828D01*
X178385997Y-89566828D01*
X178228394Y-89514294D01*
X178127789Y-89413688D01*
X178074608Y-89307328D01*
X178011654Y-89055507D01*
X178011654Y-88878148D01*
X178074608Y-88626327D01*
X178127789Y-88519967D01*
X178228395Y-88419361D01*
X178385997Y-88366828D01*
X178540530Y-88366828D01*
X178651714Y-88422421D01*
X178727784Y-88437988D01*
X178801445Y-88413434D01*
X178852961Y-88355339D01*
X178868528Y-88279270D01*
X178843974Y-88205609D01*
X178785879Y-88154093D01*
X178643022Y-88082664D01*
X178609241Y-88075751D01*
X178575940Y-88066828D01*
X178361654Y-88066828D01*
X178338325Y-88073078D01*
X178314219Y-88074526D01*
X178099934Y-88145955D01*
X178071161Y-88164951D01*
X178041302Y-88182191D01*
X177898445Y-88325048D01*
X177886369Y-88345963D01*
X177870347Y-88364032D01*
X177798918Y-88506889D01*
X177795597Y-88523113D01*
X177787561Y-88537591D01*
X177716133Y-88823305D01*
X177716444Y-88841807D01*
X177711654Y-88859685D01*
X177711654Y-89073971D01*
X177368796Y-89073971D01*
X177368796Y-88216828D01*
X177348700Y-88141828D01*
X177293796Y-88086924D01*
X177218796Y-88066828D01*
X177143796Y-88086924D01*
X177088892Y-88141828D01*
X177068796Y-88216828D01*
X177068796Y-89395704D01*
X177024089Y-89485117D01*
X176987084Y-89522122D01*
X176897672Y-89566828D01*
X176682778Y-89566828D01*
X176593364Y-89522121D01*
X176556360Y-89485117D01*
X176511653Y-89395703D01*
X176511653Y-88216828D01*
X176491557Y-88141828D01*
X176436653Y-88086924D01*
X176361653Y-88066828D01*
X176286653Y-88086924D01*
X176231749Y-88141828D01*
X176211653Y-88216828D01*
X176211653Y-89431114D01*
X175868796Y-89431114D01*
X175868796Y-89216828D01*
X175859871Y-89183522D01*
X175852960Y-89149747D01*
X175781532Y-89006889D01*
X175765508Y-88988819D01*
X175753434Y-88967905D01*
X175682005Y-88896476D01*
X175680640Y-88895687D01*
X175682005Y-88894323D01*
X175694080Y-88873407D01*
X175710103Y-88855339D01*
X175781532Y-88712483D01*
X175788445Y-88678700D01*
X175797368Y-88645400D01*
X175797368Y-88502542D01*
X175788445Y-88469241D01*
X175781532Y-88435459D01*
X175710103Y-88292603D01*
X175694080Y-88274534D01*
X175682005Y-88253619D01*
X175610577Y-88182191D01*
X175589662Y-88170116D01*
X175571593Y-88154093D01*
X175428735Y-88082664D01*
X175394954Y-88075751D01*
X175361653Y-88066828D01*
X174861653Y-88066828D01*
X174786653Y-88086924D01*
X174731749Y-88141828D01*
X174711653Y-88216828D01*
X174711653Y-89716828D01*
X174368796Y-89716828D01*
X174348700Y-89641828D01*
X174293796Y-89586924D01*
X174218796Y-89566828D01*
X173654510Y-89566828D01*
X173654510Y-89081114D01*
X174004510Y-89081114D01*
X174079510Y-89061018D01*
X174134414Y-89006114D01*
X174154510Y-88931114D01*
X174134414Y-88856114D01*
X174079510Y-88801210D01*
X174004510Y-88781114D01*
X173654510Y-88781114D01*
X173654510Y-88366828D01*
X174218796Y-88366828D01*
X174293796Y-88346732D01*
X174348700Y-88291828D01*
X174368796Y-88216828D01*
X174348700Y-88141828D01*
X174293796Y-88086924D01*
X174218796Y-88066828D01*
X173504510Y-88066828D01*
X173429510Y-88086924D01*
X173374606Y-88141828D01*
X173354510Y-88216828D01*
X173354510Y-89716828D01*
X172716643Y-89716828D01*
X172824862Y-89608608D01*
X172836937Y-89587693D01*
X172852960Y-89569624D01*
X172924389Y-89426768D01*
X172927709Y-89410541D01*
X172935746Y-89396065D01*
X173007174Y-89110351D01*
X173006862Y-89091848D01*
X173011653Y-89073971D01*
X173011653Y-88859685D01*
X173006862Y-88841807D01*
X173007174Y-88823305D01*
X172935746Y-88537591D01*
X172927709Y-88523114D01*
X172924389Y-88506888D01*
X172852960Y-88364032D01*
X172836937Y-88345963D01*
X172824862Y-88325048D01*
X172682005Y-88182191D01*
X172652148Y-88164953D01*
X172623373Y-88145954D01*
X172409087Y-88074526D01*
X172384981Y-88073078D01*
X172361653Y-88066828D01*
X172004510Y-88066828D01*
X171929510Y-88086924D01*
X171874606Y-88141828D01*
X171854510Y-88216828D01*
X171854510Y-89716828D01*
X171640224Y-89716828D01*
X171640224Y-87852542D01*
X179154511Y-87852542D01*
X179154511Y-90081114D01*
G37*
G36*
X194841230Y-105107451D02*
G01*
X194878235Y-105144456D01*
X194922942Y-105233869D01*
X194922942Y-105619889D01*
X194437228Y-105619889D01*
X194437228Y-105233870D01*
X194481935Y-105144455D01*
X194518939Y-105107451D01*
X194608352Y-105062746D01*
X194751818Y-105062746D01*
X194841230Y-105107451D01*
G37*
G36*
X195449158Y-101125702D02*
G01*
X195555518Y-101178882D01*
X195592522Y-101215886D01*
X195637228Y-101305298D01*
X195637228Y-101377336D01*
X195592522Y-101466748D01*
X195555518Y-101503753D01*
X195449157Y-101556934D01*
X195197336Y-101619889D01*
X194877121Y-101619889D01*
X194625298Y-101556933D01*
X194518939Y-101503754D01*
X194481935Y-101466750D01*
X194437228Y-101377336D01*
X194437228Y-101305299D01*
X194481935Y-101215885D01*
X194518939Y-101178881D01*
X194625298Y-101125701D01*
X194877121Y-101062746D01*
X195197335Y-101062746D01*
X195449158Y-101125702D01*
G37*
G36*
X195449158Y-99697131D02*
G01*
X195555518Y-99750311D01*
X195592522Y-99787315D01*
X195637228Y-99876727D01*
X195637228Y-99948765D01*
X195592522Y-100038177D01*
X195555518Y-100075182D01*
X195449157Y-100128363D01*
X195197336Y-100191318D01*
X194877121Y-100191318D01*
X194625298Y-100128362D01*
X194518939Y-100075183D01*
X194481935Y-100038179D01*
X194437228Y-99948765D01*
X194437228Y-99876728D01*
X194481935Y-99787314D01*
X194518939Y-99750310D01*
X194625298Y-99697130D01*
X194877121Y-99634175D01*
X195197335Y-99634175D01*
X195449158Y-99697131D01*
G37*
G36*
X196151514Y-106134175D02*
G01*
X193922942Y-106134175D01*
X193922942Y-105769889D01*
X194137228Y-105769889D01*
X194157324Y-105844889D01*
X194212228Y-105899793D01*
X194287228Y-105919889D01*
X195072942Y-105919889D01*
X195787228Y-105919889D01*
X195862228Y-105899793D01*
X195917132Y-105844889D01*
X195937228Y-105769889D01*
X195917132Y-105694889D01*
X195862228Y-105639985D01*
X195787228Y-105619889D01*
X195222942Y-105619889D01*
X195222942Y-105198460D01*
X195214017Y-105165154D01*
X195207106Y-105131379D01*
X195135678Y-104988521D01*
X195119654Y-104970451D01*
X195107580Y-104949537D01*
X195036151Y-104878108D01*
X195015236Y-104866033D01*
X194997167Y-104850010D01*
X194854310Y-104778582D01*
X194820531Y-104771669D01*
X194787228Y-104762746D01*
X194572942Y-104762746D01*
X194539636Y-104771670D01*
X194505861Y-104778582D01*
X194363003Y-104850010D01*
X194344933Y-104866033D01*
X194324018Y-104878109D01*
X194252590Y-104949538D01*
X194240515Y-104970452D01*
X194224493Y-104988521D01*
X194153064Y-105131378D01*
X194146151Y-105165158D01*
X194137228Y-105198460D01*
X194137228Y-105769889D01*
X193922942Y-105769889D01*
X193922942Y-104484174D01*
X194137228Y-104484174D01*
X194157324Y-104559174D01*
X194212228Y-104614078D01*
X194287228Y-104634174D01*
X194362228Y-104614078D01*
X194417132Y-104559174D01*
X194437228Y-104484174D01*
X194437228Y-104205603D01*
X195787228Y-104205603D01*
X195862228Y-104185507D01*
X195917132Y-104130603D01*
X195937228Y-104055603D01*
X195917132Y-103980603D01*
X195862228Y-103925699D01*
X195787228Y-103905603D01*
X194437228Y-103905603D01*
X194437228Y-103627032D01*
X194417132Y-103552032D01*
X194362228Y-103497128D01*
X194287228Y-103477032D01*
X194212228Y-103497128D01*
X194157324Y-103552032D01*
X194137228Y-103627032D01*
X194137228Y-104484174D01*
X193922942Y-104484174D01*
X193922942Y-102769889D01*
X194137228Y-102769889D01*
X194146069Y-102802885D01*
X194152767Y-102836373D01*
X194156040Y-102840097D01*
X194157324Y-102844889D01*
X194181477Y-102869042D01*
X194204023Y-102894697D01*
X194405952Y-103029316D01*
X194521093Y-103144457D01*
X194581636Y-103265542D01*
X194633152Y-103323637D01*
X194706813Y-103348191D01*
X194782882Y-103332624D01*
X194840977Y-103281108D01*
X194865531Y-103207447D01*
X194849964Y-103131377D01*
X194778535Y-102988521D01*
X194762512Y-102970452D01*
X194750437Y-102949537D01*
X194720789Y-102919889D01*
X195637228Y-102919889D01*
X195637228Y-103198460D01*
X195657324Y-103273460D01*
X195712228Y-103328364D01*
X195787228Y-103348460D01*
X195862228Y-103328364D01*
X195917132Y-103273460D01*
X195937228Y-103198460D01*
X195937228Y-102341317D01*
X195917132Y-102266317D01*
X195862228Y-102211413D01*
X195787228Y-102191317D01*
X195712228Y-102211413D01*
X195657324Y-102266317D01*
X195637228Y-102341317D01*
X195637228Y-102619889D01*
X194287228Y-102619889D01*
X194254231Y-102628730D01*
X194220744Y-102635428D01*
X194217019Y-102638701D01*
X194212228Y-102639985D01*
X194188074Y-102664138D01*
X194162420Y-102686684D01*
X194160830Y-102691382D01*
X194157324Y-102694889D01*
X194148484Y-102727879D01*
X194137539Y-102760235D01*
X194138511Y-102765098D01*
X194137228Y-102769889D01*
X193922942Y-102769889D01*
X193922942Y-101412746D01*
X194137228Y-101412746D01*
X194146151Y-101446047D01*
X194153064Y-101479828D01*
X194224493Y-101622686D01*
X194240516Y-101640755D01*
X194252591Y-101661670D01*
X194324019Y-101733098D01*
X194344934Y-101745173D01*
X194363003Y-101761196D01*
X194505859Y-101832625D01*
X194522085Y-101835945D01*
X194536562Y-101843982D01*
X194822277Y-101915410D01*
X194840779Y-101915098D01*
X194858657Y-101919889D01*
X195215800Y-101919889D01*
X195233677Y-101915098D01*
X195252180Y-101915410D01*
X195537894Y-101843982D01*
X195552371Y-101835945D01*
X195568596Y-101832625D01*
X195711453Y-101761196D01*
X195729521Y-101745173D01*
X195750436Y-101733099D01*
X195821865Y-101661671D01*
X195833942Y-101640753D01*
X195849964Y-101622685D01*
X195921393Y-101479827D01*
X195928306Y-101446042D01*
X195937228Y-101412746D01*
X195937228Y-101269889D01*
X195928303Y-101236583D01*
X195921392Y-101202808D01*
X195849964Y-101059950D01*
X195833940Y-101041880D01*
X195821865Y-101020965D01*
X195750436Y-100949537D01*
X195729521Y-100937462D01*
X195711453Y-100921440D01*
X195568596Y-100850011D01*
X195552371Y-100846690D01*
X195537894Y-100838654D01*
X195252181Y-100767225D01*
X195233676Y-100767536D01*
X195215800Y-100762746D01*
X194858657Y-100762746D01*
X194840780Y-100767536D01*
X194822276Y-100767225D01*
X194536562Y-100838654D01*
X194522085Y-100846690D01*
X194505859Y-100850011D01*
X194363003Y-100921440D01*
X194344934Y-100937462D01*
X194324019Y-100949538D01*
X194252591Y-101020966D01*
X194240515Y-101041881D01*
X194224493Y-101059950D01*
X194153064Y-101202807D01*
X194146151Y-101236587D01*
X194137228Y-101269889D01*
X194137228Y-101412746D01*
X193922942Y-101412746D01*
X193922942Y-99984175D01*
X194137228Y-99984175D01*
X194146151Y-100017476D01*
X194153064Y-100051257D01*
X194224493Y-100194115D01*
X194240516Y-100212184D01*
X194252591Y-100233099D01*
X194324019Y-100304527D01*
X194344934Y-100316602D01*
X194363003Y-100332625D01*
X194505859Y-100404054D01*
X194522085Y-100407374D01*
X194536562Y-100415411D01*
X194822277Y-100486839D01*
X194840779Y-100486527D01*
X194858657Y-100491318D01*
X195215800Y-100491318D01*
X195233677Y-100486527D01*
X195252180Y-100486839D01*
X195537894Y-100415411D01*
X195552371Y-100407374D01*
X195568596Y-100404054D01*
X195711453Y-100332625D01*
X195729521Y-100316602D01*
X195750436Y-100304528D01*
X195821865Y-100233100D01*
X195833942Y-100212182D01*
X195849964Y-100194114D01*
X195921393Y-100051256D01*
X195928306Y-100017471D01*
X195937228Y-99984175D01*
X195937228Y-99841318D01*
X195928303Y-99808012D01*
X195921392Y-99774237D01*
X195849964Y-99631379D01*
X195833940Y-99613309D01*
X195821865Y-99592394D01*
X195750436Y-99520966D01*
X195729521Y-99508891D01*
X195711453Y-99492869D01*
X195568596Y-99421440D01*
X195552371Y-99418119D01*
X195537894Y-99410083D01*
X195252181Y-99338654D01*
X195233676Y-99338965D01*
X195215800Y-99334175D01*
X194858657Y-99334175D01*
X194840780Y-99338965D01*
X194822276Y-99338654D01*
X194536562Y-99410083D01*
X194522085Y-99418119D01*
X194505859Y-99421440D01*
X194363003Y-99492869D01*
X194344934Y-99508891D01*
X194324019Y-99520967D01*
X194252591Y-99592395D01*
X194240515Y-99613310D01*
X194224493Y-99631379D01*
X194153064Y-99774236D01*
X194146151Y-99808016D01*
X194137228Y-99841318D01*
X194137228Y-99984175D01*
X193922942Y-99984175D01*
X193922942Y-99119889D01*
X196151514Y-99119889D01*
X196151514Y-106134175D01*
G37*
G36*
X141954569Y-103662447D02*
G01*
X141983746Y-103691624D01*
X142028453Y-103781037D01*
X142028453Y-103924504D01*
X141983746Y-104013917D01*
X141946741Y-104050922D01*
X141857329Y-104095628D01*
X141471310Y-104095628D01*
X141471310Y-103609914D01*
X141796967Y-103609914D01*
X141954569Y-103662447D01*
G37*
G36*
X141875314Y-102940335D02*
G01*
X141912318Y-102977339D01*
X141957025Y-103066752D01*
X141957025Y-103138789D01*
X141912318Y-103228202D01*
X141875314Y-103265207D01*
X141785900Y-103309914D01*
X141471310Y-103309914D01*
X141471310Y-102895628D01*
X141785900Y-102895628D01*
X141875314Y-102940335D01*
G37*
G36*
X143446742Y-102940335D02*
G01*
X143543008Y-103036601D01*
X143599882Y-103264092D01*
X143599882Y-103727163D01*
X143543008Y-103954654D01*
X143446741Y-104050922D01*
X143357329Y-104095628D01*
X143142435Y-104095628D01*
X143053021Y-104050921D01*
X142956754Y-103954654D01*
X142899882Y-103727164D01*
X142899882Y-103264091D01*
X142956754Y-103036602D01*
X143053021Y-102940334D01*
X143142435Y-102895628D01*
X143357329Y-102895628D01*
X143446742Y-102940335D01*
G37*
G36*
X148303887Y-102940335D02*
G01*
X148340891Y-102977339D01*
X148385597Y-103066751D01*
X148385597Y-103210218D01*
X148340890Y-103299631D01*
X148303885Y-103336636D01*
X148214473Y-103381342D01*
X147828454Y-103381342D01*
X147828454Y-102895628D01*
X148214473Y-102895628D01*
X148303887Y-102940335D01*
G37*
G36*
X148899883Y-104609914D02*
G01*
X140957024Y-104609914D01*
X140957024Y-104245628D01*
X141171310Y-104245628D01*
X141191406Y-104320628D01*
X141246310Y-104375532D01*
X141321310Y-104395628D01*
X141892739Y-104395628D01*
X141926042Y-104386704D01*
X141959821Y-104379792D01*
X142102678Y-104308364D01*
X142120747Y-104292340D01*
X142141662Y-104280266D01*
X142213091Y-104208837D01*
X142225165Y-104187922D01*
X142241189Y-104169853D01*
X142312617Y-104026995D01*
X142319528Y-103993219D01*
X142328453Y-103959914D01*
X142328453Y-103745628D01*
X142599882Y-103745628D01*
X142604672Y-103763505D01*
X142604361Y-103782008D01*
X142675789Y-104067722D01*
X142676421Y-104068860D01*
X142676421Y-104070165D01*
X142695233Y-104102748D01*
X142713475Y-104135609D01*
X142714592Y-104136279D01*
X142715244Y-104137408D01*
X142858102Y-104280266D01*
X142879016Y-104292340D01*
X142897086Y-104308364D01*
X143039944Y-104379792D01*
X143073719Y-104386703D01*
X143107025Y-104395628D01*
X143392739Y-104395628D01*
X143426042Y-104386704D01*
X143459821Y-104379792D01*
X143602678Y-104308364D01*
X143620747Y-104292340D01*
X143641662Y-104280266D01*
X143676300Y-104245628D01*
X144242739Y-104245628D01*
X144262835Y-104320628D01*
X144317739Y-104375532D01*
X144392739Y-104395628D01*
X144467739Y-104375532D01*
X144522643Y-104320628D01*
X144542739Y-104245628D01*
X144957025Y-104245628D01*
X144977121Y-104320628D01*
X145032025Y-104375532D01*
X145107025Y-104395628D01*
X145821311Y-104395628D01*
X145896311Y-104375532D01*
X145951215Y-104320628D01*
X145971311Y-104245628D01*
X146171311Y-104245628D01*
X146191407Y-104320628D01*
X146246311Y-104375532D01*
X146321311Y-104395628D01*
X147035597Y-104395628D01*
X147110597Y-104375532D01*
X147165501Y-104320628D01*
X147185597Y-104245628D01*
X147528454Y-104245628D01*
X147548550Y-104320628D01*
X147603454Y-104375532D01*
X147678454Y-104395628D01*
X147753454Y-104375532D01*
X147808358Y-104320628D01*
X147828454Y-104245628D01*
X147828454Y-103681342D01*
X147957499Y-103681342D01*
X148412712Y-104331647D01*
X148472185Y-104381565D01*
X148548650Y-104395059D01*
X148621616Y-104368513D01*
X148671534Y-104309040D01*
X148685028Y-104232575D01*
X148658482Y-104159609D01*
X148313155Y-103666285D01*
X148316965Y-103665506D01*
X148459822Y-103594078D01*
X148477891Y-103578054D01*
X148498806Y-103565980D01*
X148570235Y-103494551D01*
X148582309Y-103473636D01*
X148598333Y-103455567D01*
X148669761Y-103312709D01*
X148676672Y-103278933D01*
X148685597Y-103245628D01*
X148685597Y-103031342D01*
X148676672Y-102998036D01*
X148669761Y-102964261D01*
X148598333Y-102821403D01*
X148582309Y-102803333D01*
X148570234Y-102782418D01*
X148498805Y-102710990D01*
X148477890Y-102698915D01*
X148459822Y-102682893D01*
X148316965Y-102611464D01*
X148283184Y-102604551D01*
X148249883Y-102595628D01*
X147678454Y-102595628D01*
X147603454Y-102615724D01*
X147548550Y-102670628D01*
X147528454Y-102745628D01*
X147528454Y-104245628D01*
X147185597Y-104245628D01*
X147165501Y-104170628D01*
X147110597Y-104115724D01*
X147035597Y-104095628D01*
X146471311Y-104095628D01*
X146471311Y-103609914D01*
X146821311Y-103609914D01*
X146896311Y-103589818D01*
X146951215Y-103534914D01*
X146971311Y-103459914D01*
X146951215Y-103384914D01*
X146896311Y-103330010D01*
X146821311Y-103309914D01*
X146471311Y-103309914D01*
X146471311Y-102895628D01*
X147035597Y-102895628D01*
X147110597Y-102875532D01*
X147165501Y-102820628D01*
X147185597Y-102745628D01*
X147165501Y-102670628D01*
X147110597Y-102615724D01*
X147035597Y-102595628D01*
X146321311Y-102595628D01*
X146246311Y-102615724D01*
X146191407Y-102670628D01*
X146171311Y-102745628D01*
X146171311Y-104245628D01*
X145971311Y-104245628D01*
X145951215Y-104170628D01*
X145896311Y-104115724D01*
X145821311Y-104095628D01*
X145257025Y-104095628D01*
X145257025Y-102745628D01*
X145236929Y-102670628D01*
X145182025Y-102615724D01*
X145107025Y-102595628D01*
X145032025Y-102615724D01*
X144977121Y-102670628D01*
X144957025Y-102745628D01*
X144957025Y-104245628D01*
X144542739Y-104245628D01*
X144542739Y-102745628D01*
X144522643Y-102670628D01*
X144467739Y-102615724D01*
X144392739Y-102595628D01*
X144317739Y-102615724D01*
X144262835Y-102670628D01*
X144242739Y-102745628D01*
X144242739Y-104245628D01*
X143676300Y-104245628D01*
X143784519Y-104137408D01*
X143785170Y-104136279D01*
X143786288Y-104135609D01*
X143804544Y-104102722D01*
X143823342Y-104070164D01*
X143823342Y-104068861D01*
X143823974Y-104067723D01*
X143895403Y-103782009D01*
X143895091Y-103763504D01*
X143899882Y-103745628D01*
X143899882Y-103245628D01*
X143895091Y-103227751D01*
X143895403Y-103209247D01*
X143823974Y-102923533D01*
X143823342Y-102922394D01*
X143823342Y-102921091D01*
X143804536Y-102888519D01*
X143786288Y-102855647D01*
X143785170Y-102854976D01*
X143784519Y-102853848D01*
X143641662Y-102710991D01*
X143620746Y-102698915D01*
X143602678Y-102682893D01*
X143459821Y-102611464D01*
X143426040Y-102604551D01*
X143392739Y-102595628D01*
X143107025Y-102595628D01*
X143073724Y-102604550D01*
X143039942Y-102611464D01*
X142897086Y-102682893D01*
X142879016Y-102698915D01*
X142858102Y-102710991D01*
X142715244Y-102853848D01*
X142714592Y-102854976D01*
X142713475Y-102855647D01*
X142695233Y-102888507D01*
X142676421Y-102921091D01*
X142676421Y-102922395D01*
X142675789Y-102923534D01*
X142604361Y-103209248D01*
X142604672Y-103227750D01*
X142599882Y-103245628D01*
X142599882Y-103745628D01*
X142328453Y-103745628D01*
X142319528Y-103712322D01*
X142312617Y-103678547D01*
X142241189Y-103535689D01*
X142225165Y-103517619D01*
X142213091Y-103496705D01*
X142141662Y-103425276D01*
X142140297Y-103424487D01*
X142141662Y-103423123D01*
X142153737Y-103402207D01*
X142169760Y-103384139D01*
X142241189Y-103241283D01*
X142248102Y-103207500D01*
X142257025Y-103174200D01*
X142257025Y-103031342D01*
X142248102Y-102998041D01*
X142241189Y-102964259D01*
X142169760Y-102821403D01*
X142153737Y-102803334D01*
X142141662Y-102782419D01*
X142070234Y-102710991D01*
X142049319Y-102698916D01*
X142031250Y-102682893D01*
X141888392Y-102611464D01*
X141854611Y-102604551D01*
X141821310Y-102595628D01*
X141321310Y-102595628D01*
X141246310Y-102615724D01*
X141191406Y-102670628D01*
X141171310Y-102745628D01*
X141171310Y-104245628D01*
X140957024Y-104245628D01*
X140957024Y-102381342D01*
X148899883Y-102381342D01*
X148899883Y-104609914D01*
G37*
G36*
X195365114Y-62954060D02*
G01*
X193136542Y-62954060D01*
X193136542Y-62589774D01*
X193350828Y-62589774D01*
X193370924Y-62664774D01*
X193425828Y-62719678D01*
X193500828Y-62739774D01*
X193575828Y-62719678D01*
X193630732Y-62664774D01*
X193650828Y-62589774D01*
X193650828Y-62311203D01*
X195000828Y-62311203D01*
X195075828Y-62291107D01*
X195130732Y-62236203D01*
X195150828Y-62161203D01*
X195130732Y-62086203D01*
X195075828Y-62031299D01*
X195000828Y-62011203D01*
X193650828Y-62011203D01*
X193650828Y-61732632D01*
X193630732Y-61657632D01*
X193575828Y-61602728D01*
X193500828Y-61582632D01*
X193425828Y-61602728D01*
X193370924Y-61657632D01*
X193350828Y-61732632D01*
X193350828Y-62589774D01*
X193136542Y-62589774D01*
X193136542Y-60804060D01*
X193350828Y-60804060D01*
X193357078Y-60827388D01*
X193358526Y-60851494D01*
X193429954Y-61065780D01*
X193448953Y-61094555D01*
X193466191Y-61124412D01*
X193609048Y-61267269D01*
X193629963Y-61279344D01*
X193648032Y-61295367D01*
X193790888Y-61366796D01*
X193807114Y-61370116D01*
X193821591Y-61378153D01*
X194107305Y-61449581D01*
X194125807Y-61449269D01*
X194143685Y-61454060D01*
X194357971Y-61454060D01*
X194375848Y-61449269D01*
X194394351Y-61449581D01*
X194680065Y-61378153D01*
X194694542Y-61370116D01*
X194710767Y-61366796D01*
X194853624Y-61295367D01*
X194871693Y-61279344D01*
X194892608Y-61267269D01*
X195035466Y-61124412D01*
X195052705Y-61094552D01*
X195071703Y-61065780D01*
X195143131Y-60851494D01*
X195144578Y-60827385D01*
X195150828Y-60804060D01*
X195150828Y-60661203D01*
X195144578Y-60637877D01*
X195143131Y-60613769D01*
X195071703Y-60399483D01*
X195052703Y-60370707D01*
X195035465Y-60340850D01*
X194964036Y-60269422D01*
X194896793Y-60230600D01*
X194819147Y-60230600D01*
X194751904Y-60269424D01*
X194713082Y-60336667D01*
X194713082Y-60414313D01*
X194751906Y-60481556D01*
X194798294Y-60527943D01*
X194850828Y-60685545D01*
X194850828Y-60779717D01*
X194798294Y-60937319D01*
X194697688Y-61037924D01*
X194591328Y-61091105D01*
X194339507Y-61154060D01*
X194162149Y-61154060D01*
X193910327Y-61091104D01*
X193803968Y-61037925D01*
X193703361Y-60937318D01*
X193650828Y-60779719D01*
X193650828Y-60685543D01*
X193703361Y-60527944D01*
X193749751Y-60481555D01*
X193788574Y-60414312D01*
X193788574Y-60336666D01*
X193749751Y-60269423D01*
X193682508Y-60230600D01*
X193604862Y-60230600D01*
X193537619Y-60269423D01*
X193466191Y-60340851D01*
X193448953Y-60370707D01*
X193429954Y-60399483D01*
X193358526Y-60613769D01*
X193357078Y-60637874D01*
X193350828Y-60661203D01*
X193350828Y-60804060D01*
X193136542Y-60804060D01*
X193136542Y-60016314D01*
X195365114Y-60016314D01*
X195365114Y-62954060D01*
G37*
G36*
X171151426Y-103616257D02*
G01*
X170853367Y-103616257D01*
X171002396Y-103169169D01*
X171151426Y-103616257D01*
G37*
G36*
X175723825Y-104559114D02*
G01*
X167352396Y-104559114D01*
X167352396Y-103123400D01*
X167566682Y-103123400D01*
X167575605Y-103156703D01*
X167582518Y-103190482D01*
X167653946Y-103333339D01*
X167669969Y-103351408D01*
X167682045Y-103372324D01*
X167753474Y-103443752D01*
X167774388Y-103455826D01*
X167792457Y-103471849D01*
X167935313Y-103543278D01*
X167951539Y-103546598D01*
X167966016Y-103554635D01*
X168235754Y-103622069D01*
X168342113Y-103675248D01*
X168379117Y-103712253D01*
X168423825Y-103801667D01*
X168423825Y-103873703D01*
X168379117Y-103963117D01*
X168342114Y-104000121D01*
X168252701Y-104044828D01*
X167955311Y-104044828D01*
X167764116Y-103981097D01*
X167686610Y-103976445D01*
X167617161Y-104011170D01*
X167574379Y-104075966D01*
X167569727Y-104153472D01*
X167604452Y-104222921D01*
X167669248Y-104265703D01*
X167883534Y-104337131D01*
X167907642Y-104338578D01*
X167930968Y-104344828D01*
X168288110Y-104344828D01*
X168321415Y-104335903D01*
X168355191Y-104328992D01*
X168498050Y-104257564D01*
X168516119Y-104241540D01*
X168537035Y-104229465D01*
X168608463Y-104158036D01*
X168620537Y-104137121D01*
X168636560Y-104119053D01*
X168707989Y-103976197D01*
X168714902Y-103942414D01*
X168723825Y-103909114D01*
X168723825Y-103766257D01*
X168714902Y-103732956D01*
X168707989Y-103699174D01*
X168636560Y-103556318D01*
X168632705Y-103551971D01*
X168995253Y-103551971D01*
X169000043Y-103569848D01*
X168999732Y-103588351D01*
X169071160Y-103874065D01*
X169079196Y-103888542D01*
X169082517Y-103904767D01*
X169153946Y-104047624D01*
X169169968Y-104065693D01*
X169182044Y-104086608D01*
X169324901Y-104229466D01*
X169354760Y-104246705D01*
X169383533Y-104265703D01*
X169597819Y-104337131D01*
X169621927Y-104338578D01*
X169645253Y-104344828D01*
X169788110Y-104344828D01*
X169811435Y-104338578D01*
X169835544Y-104337131D01*
X170049830Y-104265703D01*
X170078605Y-104246703D01*
X170108463Y-104229465D01*
X170113028Y-104224900D01*
X170355441Y-104224900D01*
X170390166Y-104294349D01*
X170454962Y-104337130D01*
X170532468Y-104341783D01*
X170601917Y-104307058D01*
X170644698Y-104242262D01*
X170753367Y-103916257D01*
X171251426Y-103916257D01*
X171360094Y-104242262D01*
X171402875Y-104307059D01*
X171472324Y-104341783D01*
X171549830Y-104337131D01*
X171614627Y-104294349D01*
X171649351Y-104224900D01*
X171647546Y-104194828D01*
X171852395Y-104194828D01*
X171872491Y-104269828D01*
X171927395Y-104324732D01*
X172002395Y-104344828D01*
X172716681Y-104344828D01*
X172791681Y-104324732D01*
X172846585Y-104269828D01*
X172866681Y-104194828D01*
X173066681Y-104194828D01*
X173086777Y-104269828D01*
X173141681Y-104324732D01*
X173216681Y-104344828D01*
X173930967Y-104344828D01*
X174005967Y-104324732D01*
X174060871Y-104269828D01*
X174080967Y-104194828D01*
X174060871Y-104119828D01*
X174005967Y-104064924D01*
X173930967Y-104044828D01*
X173366681Y-104044828D01*
X173366681Y-103559114D01*
X173716681Y-103559114D01*
X173791681Y-103539018D01*
X173846585Y-103484114D01*
X173866681Y-103409114D01*
X173846585Y-103334114D01*
X173791681Y-103279210D01*
X173716681Y-103259114D01*
X173366681Y-103259114D01*
X173366681Y-103123400D01*
X174352396Y-103123400D01*
X174361319Y-103156703D01*
X174368232Y-103190482D01*
X174439660Y-103333339D01*
X174455683Y-103351408D01*
X174467759Y-103372324D01*
X174539188Y-103443752D01*
X174560102Y-103455826D01*
X174578171Y-103471849D01*
X174721027Y-103543278D01*
X174737253Y-103546598D01*
X174751730Y-103554635D01*
X175021468Y-103622069D01*
X175127827Y-103675248D01*
X175164831Y-103712253D01*
X175209539Y-103801667D01*
X175209539Y-103873703D01*
X175164831Y-103963117D01*
X175127828Y-104000121D01*
X175038415Y-104044828D01*
X174741025Y-104044828D01*
X174549830Y-103981097D01*
X174472324Y-103976445D01*
X174402875Y-104011170D01*
X174360093Y-104075966D01*
X174355441Y-104153472D01*
X174390166Y-104222921D01*
X174454962Y-104265703D01*
X174669248Y-104337131D01*
X174693356Y-104338578D01*
X174716682Y-104344828D01*
X175073824Y-104344828D01*
X175107129Y-104335903D01*
X175140905Y-104328992D01*
X175283764Y-104257564D01*
X175301833Y-104241540D01*
X175322749Y-104229465D01*
X175394177Y-104158036D01*
X175406251Y-104137121D01*
X175422274Y-104119053D01*
X175493703Y-103976197D01*
X175500616Y-103942414D01*
X175509539Y-103909114D01*
X175509539Y-103766257D01*
X175500616Y-103732956D01*
X175493703Y-103699174D01*
X175422274Y-103556318D01*
X175406251Y-103538249D01*
X175394177Y-103517335D01*
X175322749Y-103445906D01*
X175301833Y-103433830D01*
X175283764Y-103417807D01*
X175140906Y-103346378D01*
X175124681Y-103343057D01*
X175110204Y-103335021D01*
X174840466Y-103267586D01*
X174734106Y-103214406D01*
X174697101Y-103177401D01*
X174652396Y-103087990D01*
X174652396Y-103015951D01*
X174697101Y-102926540D01*
X174734106Y-102889535D01*
X174823520Y-102844828D01*
X175120913Y-102844828D01*
X175312104Y-102908559D01*
X175389610Y-102913212D01*
X175459059Y-102878488D01*
X175501841Y-102813691D01*
X175506494Y-102736185D01*
X175471769Y-102666736D01*
X175406973Y-102623954D01*
X175192687Y-102552526D01*
X175168581Y-102551078D01*
X175145253Y-102544828D01*
X174788110Y-102544828D01*
X174754809Y-102553750D01*
X174721027Y-102560664D01*
X174578171Y-102632093D01*
X174560102Y-102648115D01*
X174539188Y-102660190D01*
X174467759Y-102731618D01*
X174455683Y-102752533D01*
X174439660Y-102770603D01*
X174368232Y-102913460D01*
X174361319Y-102947238D01*
X174352396Y-102980542D01*
X174352396Y-103123400D01*
X173366681Y-103123400D01*
X173366681Y-102844828D01*
X173930967Y-102844828D01*
X174005967Y-102824732D01*
X174060871Y-102769828D01*
X174080967Y-102694828D01*
X174060871Y-102619828D01*
X174005967Y-102564924D01*
X173930967Y-102544828D01*
X173216681Y-102544828D01*
X173141681Y-102564924D01*
X173086777Y-102619828D01*
X173066681Y-102694828D01*
X173066681Y-104194828D01*
X172866681Y-104194828D01*
X172846585Y-104119828D01*
X172791681Y-104064924D01*
X172716681Y-104044828D01*
X172152395Y-104044828D01*
X172152395Y-102694828D01*
X172132299Y-102619828D01*
X172077395Y-102564924D01*
X172002395Y-102544828D01*
X171927395Y-102564924D01*
X171872491Y-102619828D01*
X171852395Y-102694828D01*
X171852395Y-104194828D01*
X171647546Y-104194828D01*
X171644699Y-104147394D01*
X171144698Y-102647394D01*
X171128102Y-102622258D01*
X171114627Y-102595307D01*
X171106970Y-102590251D01*
X171101917Y-102582598D01*
X171074974Y-102569126D01*
X171049830Y-102552525D01*
X171040672Y-102551975D01*
X171032468Y-102547873D01*
X171002399Y-102549678D01*
X170972324Y-102547873D01*
X170964117Y-102551976D01*
X170954962Y-102552526D01*
X170929826Y-102569121D01*
X170902875Y-102582597D01*
X170897819Y-102590253D01*
X170890166Y-102595307D01*
X170876692Y-102622253D01*
X170860094Y-102647394D01*
X170360094Y-104147394D01*
X170355441Y-104224900D01*
X170113028Y-104224900D01*
X170179891Y-104158036D01*
X170218713Y-104090793D01*
X170218713Y-104013147D01*
X170179889Y-103945904D01*
X170112646Y-103907082D01*
X170035000Y-103907082D01*
X169967757Y-103945906D01*
X169921369Y-103992294D01*
X169763767Y-104044828D01*
X169669596Y-104044828D01*
X169511993Y-103992294D01*
X169411388Y-103891688D01*
X169358207Y-103785328D01*
X169295253Y-103533507D01*
X169295253Y-103356148D01*
X169358207Y-103104327D01*
X169411388Y-102997967D01*
X169511994Y-102897361D01*
X169669596Y-102844828D01*
X169763770Y-102844828D01*
X169921368Y-102897361D01*
X169967758Y-102943751D01*
X170035001Y-102982574D01*
X170112647Y-102982574D01*
X170179890Y-102943751D01*
X170218713Y-102876508D01*
X170218713Y-102798862D01*
X170179890Y-102731619D01*
X170108462Y-102660191D01*
X170078605Y-102642953D01*
X170049830Y-102623954D01*
X169835544Y-102552526D01*
X169811438Y-102551078D01*
X169788110Y-102544828D01*
X169645253Y-102544828D01*
X169621924Y-102551078D01*
X169597818Y-102552526D01*
X169383533Y-102623955D01*
X169354760Y-102642951D01*
X169324901Y-102660191D01*
X169182044Y-102803048D01*
X169169968Y-102823963D01*
X169153946Y-102842032D01*
X169082517Y-102984889D01*
X169079196Y-103001113D01*
X169071160Y-103015591D01*
X168999732Y-103301305D01*
X169000043Y-103319807D01*
X168995253Y-103337685D01*
X168995253Y-103551971D01*
X168632705Y-103551971D01*
X168620537Y-103538249D01*
X168608463Y-103517335D01*
X168537035Y-103445906D01*
X168516119Y-103433830D01*
X168498050Y-103417807D01*
X168355192Y-103346378D01*
X168338967Y-103343057D01*
X168324490Y-103335021D01*
X168054752Y-103267586D01*
X167948392Y-103214406D01*
X167911387Y-103177401D01*
X167866682Y-103087990D01*
X167866682Y-103015951D01*
X167911387Y-102926540D01*
X167948392Y-102889535D01*
X168037806Y-102844828D01*
X168335199Y-102844828D01*
X168526390Y-102908559D01*
X168603896Y-102913212D01*
X168673345Y-102878488D01*
X168716127Y-102813691D01*
X168720780Y-102736185D01*
X168686055Y-102666736D01*
X168621259Y-102623954D01*
X168406973Y-102552526D01*
X168382867Y-102551078D01*
X168359539Y-102544828D01*
X168002396Y-102544828D01*
X167969095Y-102553750D01*
X167935313Y-102560664D01*
X167792457Y-102632093D01*
X167774388Y-102648115D01*
X167753474Y-102660190D01*
X167682045Y-102731618D01*
X167669969Y-102752533D01*
X167653946Y-102770603D01*
X167582518Y-102913460D01*
X167575605Y-102947238D01*
X167566682Y-102980542D01*
X167566682Y-103123400D01*
X167352396Y-103123400D01*
X167352396Y-102330542D01*
X175723825Y-102330542D01*
X175723825Y-104559114D01*
G37*
G36*
X195855114Y-81721203D02*
G01*
X193626542Y-81721203D01*
X193626542Y-81071203D01*
X193840828Y-81071203D01*
X193849751Y-81104504D01*
X193856664Y-81138285D01*
X193928093Y-81281142D01*
X193944115Y-81299210D01*
X193956190Y-81320125D01*
X194027618Y-81391554D01*
X194048533Y-81403629D01*
X194066603Y-81419653D01*
X194209461Y-81491081D01*
X194243236Y-81497992D01*
X194276542Y-81506917D01*
X194419400Y-81506917D01*
X194452703Y-81497993D01*
X194486482Y-81491081D01*
X194629339Y-81419653D01*
X194647408Y-81403629D01*
X194668324Y-81391554D01*
X194739752Y-81320125D01*
X194751826Y-81299210D01*
X194767849Y-81281142D01*
X194839278Y-81138286D01*
X194842598Y-81122059D01*
X194850635Y-81107583D01*
X194918068Y-80837845D01*
X194971249Y-80731485D01*
X195008254Y-80694480D01*
X195097667Y-80649774D01*
X195169704Y-80649774D01*
X195259117Y-80694481D01*
X195296121Y-80731485D01*
X195340828Y-80820898D01*
X195340828Y-81118289D01*
X195277097Y-81309483D01*
X195272445Y-81386989D01*
X195307170Y-81456438D01*
X195371966Y-81499220D01*
X195449472Y-81503872D01*
X195518921Y-81469147D01*
X195561703Y-81404351D01*
X195633131Y-81190066D01*
X195634578Y-81165957D01*
X195640828Y-81142632D01*
X195640828Y-80785489D01*
X195631903Y-80752183D01*
X195624992Y-80718408D01*
X195553564Y-80575550D01*
X195537540Y-80557480D01*
X195525466Y-80536566D01*
X195454037Y-80465137D01*
X195433121Y-80453061D01*
X195415053Y-80437039D01*
X195272196Y-80365610D01*
X195238415Y-80358697D01*
X195205114Y-80349774D01*
X195062257Y-80349774D01*
X195028956Y-80358696D01*
X194995174Y-80365610D01*
X194852318Y-80437039D01*
X194834249Y-80453061D01*
X194813334Y-80465137D01*
X194741905Y-80536566D01*
X194729829Y-80557481D01*
X194713807Y-80575550D01*
X194642378Y-80718407D01*
X194639057Y-80734631D01*
X194631021Y-80749109D01*
X194563586Y-81018846D01*
X194510406Y-81125206D01*
X194473401Y-81162211D01*
X194383990Y-81206917D01*
X194311952Y-81206917D01*
X194222539Y-81162211D01*
X194185535Y-81125207D01*
X194140828Y-81035792D01*
X194140828Y-80738400D01*
X194204559Y-80547209D01*
X194209212Y-80469703D01*
X194174488Y-80400254D01*
X194109691Y-80357472D01*
X194032185Y-80352819D01*
X193962736Y-80387544D01*
X193919954Y-80452340D01*
X193848526Y-80666626D01*
X193847078Y-80690731D01*
X193840828Y-80714060D01*
X193840828Y-81071203D01*
X193626542Y-81071203D01*
X193626542Y-79856918D01*
X194769400Y-79856918D01*
X194789496Y-79931918D01*
X194844400Y-79986822D01*
X194919400Y-80006918D01*
X194994400Y-79986822D01*
X195049304Y-79931918D01*
X195069400Y-79856918D01*
X195069400Y-78714061D01*
X195049304Y-78639061D01*
X194994400Y-78584157D01*
X194919400Y-78564061D01*
X194844400Y-78584157D01*
X194789496Y-78639061D01*
X194769400Y-78714061D01*
X194769400Y-79856918D01*
X193626542Y-79856918D01*
X193626542Y-77785489D01*
X193840828Y-77785489D01*
X193849751Y-77818790D01*
X193856664Y-77852571D01*
X193928093Y-77995428D01*
X193944115Y-78013496D01*
X193956190Y-78034411D01*
X194027618Y-78105840D01*
X194048533Y-78117915D01*
X194066603Y-78133939D01*
X194209461Y-78205367D01*
X194243236Y-78212278D01*
X194276542Y-78221203D01*
X194419400Y-78221203D01*
X194452703Y-78212279D01*
X194486482Y-78205367D01*
X194629339Y-78133939D01*
X194647408Y-78117915D01*
X194668324Y-78105840D01*
X194739752Y-78034411D01*
X194751826Y-78013496D01*
X194767849Y-77995428D01*
X194839278Y-77852572D01*
X194842598Y-77836345D01*
X194850635Y-77821869D01*
X194918068Y-77552131D01*
X194971249Y-77445771D01*
X195008254Y-77408766D01*
X195097667Y-77364060D01*
X195169704Y-77364060D01*
X195259117Y-77408767D01*
X195296121Y-77445771D01*
X195340828Y-77535184D01*
X195340828Y-77832575D01*
X195277097Y-78023769D01*
X195272445Y-78101275D01*
X195307170Y-78170724D01*
X195371966Y-78213506D01*
X195449472Y-78218158D01*
X195518921Y-78183433D01*
X195561703Y-78118637D01*
X195633131Y-77904352D01*
X195634578Y-77880243D01*
X195640828Y-77856918D01*
X195640828Y-77499775D01*
X195631903Y-77466469D01*
X195624992Y-77432694D01*
X195553564Y-77289836D01*
X195537540Y-77271766D01*
X195525466Y-77250852D01*
X195454037Y-77179423D01*
X195433121Y-77167347D01*
X195415053Y-77151325D01*
X195272196Y-77079896D01*
X195238415Y-77072983D01*
X195205114Y-77064060D01*
X195062257Y-77064060D01*
X195028956Y-77072982D01*
X194995174Y-77079896D01*
X194852318Y-77151325D01*
X194834249Y-77167347D01*
X194813334Y-77179423D01*
X194741905Y-77250852D01*
X194729829Y-77271767D01*
X194713807Y-77289836D01*
X194642378Y-77432693D01*
X194639057Y-77448917D01*
X194631021Y-77463395D01*
X194563586Y-77733132D01*
X194510406Y-77839492D01*
X194473401Y-77876497D01*
X194383990Y-77921203D01*
X194311952Y-77921203D01*
X194222539Y-77876497D01*
X194185535Y-77839493D01*
X194140828Y-77750078D01*
X194140828Y-77452686D01*
X194204559Y-77261495D01*
X194209212Y-77183989D01*
X194174488Y-77114540D01*
X194109691Y-77071758D01*
X194032185Y-77067105D01*
X193962736Y-77101830D01*
X193919954Y-77166626D01*
X193848526Y-77380912D01*
X193847078Y-77405017D01*
X193840828Y-77428346D01*
X193840828Y-77785489D01*
X193626542Y-77785489D01*
X193626542Y-76748804D01*
X193844907Y-76748804D01*
X193881828Y-76817110D01*
X193947956Y-76857804D01*
X194025571Y-76859982D01*
X195525571Y-76502839D01*
X195527562Y-76501762D01*
X195529824Y-76501760D01*
X195561577Y-76483376D01*
X195593877Y-76465918D01*
X195595063Y-76463990D01*
X195597021Y-76462857D01*
X195615328Y-76431059D01*
X195634571Y-76399790D01*
X195634634Y-76397527D01*
X195635763Y-76395567D01*
X195635719Y-76358878D01*
X195636749Y-76322175D01*
X195635672Y-76320183D01*
X195635670Y-76317922D01*
X195617286Y-76286168D01*
X195599828Y-76253869D01*
X195597900Y-76252682D01*
X195596767Y-76250725D01*
X195564969Y-76232417D01*
X195533700Y-76213175D01*
X195531437Y-76213111D01*
X195529477Y-76211983D01*
X195001554Y-76071203D01*
X195529477Y-75930424D01*
X195531437Y-75929295D01*
X195533700Y-75929232D01*
X195564969Y-75909989D01*
X195596767Y-75891682D01*
X195597900Y-75889724D01*
X195599828Y-75888538D01*
X195617286Y-75856238D01*
X195635670Y-75824485D01*
X195635672Y-75822223D01*
X195636749Y-75820232D01*
X195635719Y-75783528D01*
X195635763Y-75746840D01*
X195634634Y-75744879D01*
X195634571Y-75742617D01*
X195615328Y-75711347D01*
X195597021Y-75679550D01*
X195595063Y-75678416D01*
X195593877Y-75676489D01*
X195561577Y-75659030D01*
X195529824Y-75640647D01*
X195527562Y-75640644D01*
X195525571Y-75639568D01*
X194025571Y-75282426D01*
X193947956Y-75284604D01*
X193881828Y-75325298D01*
X193844907Y-75393604D01*
X193847085Y-75471219D01*
X193887779Y-75537347D01*
X193956085Y-75574268D01*
X194877797Y-75793722D01*
X194380750Y-75926269D01*
X194380588Y-75926361D01*
X194380404Y-75926362D01*
X194347048Y-75945672D01*
X194313461Y-75965011D01*
X194313367Y-75965171D01*
X194313207Y-75965265D01*
X194294011Y-75998605D01*
X194274557Y-76032208D01*
X194274556Y-76032395D01*
X194274465Y-76032555D01*
X194274511Y-76070995D01*
X194274465Y-76109854D01*
X194274557Y-76110015D01*
X194274558Y-76110200D01*
X194293868Y-76143555D01*
X194313207Y-76177143D01*
X194313367Y-76177236D01*
X194313461Y-76177397D01*
X194346801Y-76196592D01*
X194380404Y-76216047D01*
X194380591Y-76216047D01*
X194380751Y-76216139D01*
X194877797Y-76348684D01*
X193956085Y-76568140D01*
X193887779Y-76605061D01*
X193847085Y-76671189D01*
X193844907Y-76748804D01*
X193626542Y-76748804D01*
X193626542Y-75068140D01*
X195855114Y-75068140D01*
X195855114Y-81721203D01*
G37*
G36*
X93795088Y-76743563D02*
G01*
X93846379Y-76794853D01*
X93905371Y-76912837D01*
X93905371Y-77413142D01*
X93262514Y-77413142D01*
X93262514Y-76912837D01*
X93321506Y-76794852D01*
X93372795Y-76743563D01*
X93490781Y-76684571D01*
X93677104Y-76684571D01*
X93795088Y-76743563D01*
G37*
G36*
X94578683Y-74870015D02*
G01*
X94703521Y-74994853D01*
X94762514Y-75112837D01*
X94762514Y-75384875D01*
X94703521Y-75502859D01*
X94578683Y-75627697D01*
X94294050Y-75698856D01*
X93730978Y-75698856D01*
X93446344Y-75627697D01*
X93321506Y-75502859D01*
X93262514Y-75384875D01*
X93262514Y-75112837D01*
X93321506Y-74994853D01*
X93446344Y-74870015D01*
X93730979Y-74798856D01*
X94294049Y-74798856D01*
X94578683Y-74870015D01*
G37*
G36*
X93795088Y-69372135D02*
G01*
X93846379Y-69423425D01*
X93905371Y-69541409D01*
X93905371Y-70041714D01*
X93262514Y-70041714D01*
X93262514Y-69541409D01*
X93321506Y-69423424D01*
X93372795Y-69372135D01*
X93490781Y-69313143D01*
X93677104Y-69313143D01*
X93795088Y-69372135D01*
G37*
G36*
X95319657Y-77970285D02*
G01*
X92705371Y-77970285D01*
X92705371Y-77563142D01*
X92962514Y-77563142D01*
X92982610Y-77638142D01*
X93037514Y-77693046D01*
X93112514Y-77713142D01*
X94055371Y-77713142D01*
X94912514Y-77713142D01*
X94987514Y-77693046D01*
X95042418Y-77638142D01*
X95062514Y-77563142D01*
X95042418Y-77488142D01*
X94987514Y-77433238D01*
X94912514Y-77413142D01*
X94205371Y-77413142D01*
X94205371Y-76877428D01*
X94196447Y-76844126D01*
X94189535Y-76810346D01*
X94103821Y-76638917D01*
X94087798Y-76620847D01*
X94075723Y-76599933D01*
X93990007Y-76514218D01*
X93969093Y-76502143D01*
X93951024Y-76486121D01*
X93779596Y-76400407D01*
X93745815Y-76393494D01*
X93712514Y-76384571D01*
X93455371Y-76384571D01*
X93422069Y-76393494D01*
X93388289Y-76400407D01*
X93216860Y-76486121D01*
X93198790Y-76502144D01*
X93177876Y-76514219D01*
X93092162Y-76599933D01*
X93080086Y-76620848D01*
X93064064Y-76638917D01*
X92978350Y-76810346D01*
X92971437Y-76844124D01*
X92962514Y-76877428D01*
X92962514Y-77563142D01*
X92705371Y-77563142D01*
X92705371Y-75420285D01*
X92962514Y-75420285D01*
X92971437Y-75453588D01*
X92978350Y-75487367D01*
X93064064Y-75658796D01*
X93080086Y-75676864D01*
X93092162Y-75697780D01*
X93263592Y-75869209D01*
X93264719Y-75869860D01*
X93265390Y-75870977D01*
X93298254Y-75889221D01*
X93330835Y-75908031D01*
X93332139Y-75908031D01*
X93333277Y-75908663D01*
X93676134Y-75994377D01*
X93694637Y-75994065D01*
X93712514Y-75998856D01*
X94312514Y-75998856D01*
X94330390Y-75994065D01*
X94348894Y-75994377D01*
X94691751Y-75908663D01*
X94692889Y-75908031D01*
X94694194Y-75908031D01*
X94726777Y-75889218D01*
X94759638Y-75870977D01*
X94760308Y-75869859D01*
X94761437Y-75869208D01*
X94932866Y-75697780D01*
X94944940Y-75676865D01*
X94960964Y-75658796D01*
X95046678Y-75487367D01*
X95053590Y-75453586D01*
X95062514Y-75420285D01*
X95062514Y-75077428D01*
X95053590Y-75044126D01*
X95046678Y-75010346D01*
X94960964Y-74838917D01*
X94944940Y-74820847D01*
X94932866Y-74799933D01*
X94761437Y-74628505D01*
X94760308Y-74627853D01*
X94759638Y-74626736D01*
X94726765Y-74608487D01*
X94694194Y-74589682D01*
X94692890Y-74589682D01*
X94691752Y-74589050D01*
X94348895Y-74503335D01*
X94330390Y-74503646D01*
X94312514Y-74498856D01*
X93712514Y-74498856D01*
X93694637Y-74503646D01*
X93676133Y-74503335D01*
X93333276Y-74589050D01*
X93332138Y-74589682D01*
X93330835Y-74589682D01*
X93298266Y-74608484D01*
X93265390Y-74626736D01*
X93264719Y-74627852D01*
X93263592Y-74628504D01*
X93092162Y-74799933D01*
X93080086Y-74820848D01*
X93064064Y-74838917D01*
X92978350Y-75010346D01*
X92971437Y-75044124D01*
X92962514Y-75077428D01*
X92962514Y-75420285D01*
X92705371Y-75420285D01*
X92705371Y-74083600D01*
X92966593Y-74083600D01*
X93003514Y-74151906D01*
X93069642Y-74192600D01*
X93147257Y-74194778D01*
X94947257Y-73766206D01*
X94949248Y-73765129D01*
X94951510Y-73765127D01*
X94983263Y-73746743D01*
X95015563Y-73729285D01*
X95016749Y-73727357D01*
X95018707Y-73726224D01*
X95037014Y-73694426D01*
X95056257Y-73663157D01*
X95056320Y-73660894D01*
X95057449Y-73658934D01*
X95057405Y-73622245D01*
X95058435Y-73585542D01*
X95057358Y-73583550D01*
X95057356Y-73581289D01*
X95038972Y-73549535D01*
X95021514Y-73517236D01*
X95019586Y-73516049D01*
X95018453Y-73514092D01*
X94986655Y-73495784D01*
X94955386Y-73476542D01*
X94953123Y-73476478D01*
X94951163Y-73475350D01*
X94208955Y-73277428D01*
X94951163Y-73079506D01*
X94953123Y-73078377D01*
X94955386Y-73078314D01*
X94986655Y-73059071D01*
X95018453Y-73040764D01*
X95019586Y-73038806D01*
X95021514Y-73037620D01*
X95038972Y-73005320D01*
X95057356Y-72973567D01*
X95057358Y-72971305D01*
X95058435Y-72969314D01*
X95057405Y-72932610D01*
X95057449Y-72895922D01*
X95056320Y-72893961D01*
X95056257Y-72891699D01*
X95037014Y-72860429D01*
X95018707Y-72828632D01*
X95016749Y-72827498D01*
X95015563Y-72825571D01*
X94983263Y-72808112D01*
X94951510Y-72789729D01*
X94949248Y-72789726D01*
X94947257Y-72788650D01*
X93147257Y-72360079D01*
X93069642Y-72362257D01*
X93003514Y-72402951D01*
X92966593Y-72471257D01*
X92968771Y-72548872D01*
X93009465Y-72615000D01*
X93077771Y-72651921D01*
X94299482Y-72942804D01*
X93588151Y-73132493D01*
X93587989Y-73132585D01*
X93587804Y-73132586D01*
X93554358Y-73151948D01*
X93520861Y-73171235D01*
X93520767Y-73171395D01*
X93520607Y-73171489D01*
X93501320Y-73204986D01*
X93481958Y-73238432D01*
X93481957Y-73238617D01*
X93481865Y-73238779D01*
X93481911Y-73277428D01*
X93481865Y-73316077D01*
X93481957Y-73316238D01*
X93481958Y-73316424D01*
X93501320Y-73349869D01*
X93520607Y-73383367D01*
X93520767Y-73383460D01*
X93520861Y-73383621D01*
X93554358Y-73402907D01*
X93587804Y-73422270D01*
X93587989Y-73422270D01*
X93588151Y-73422363D01*
X94299483Y-73612051D01*
X93077771Y-73902936D01*
X93009465Y-73939857D01*
X92968771Y-74005985D01*
X92966593Y-74083600D01*
X92705371Y-74083600D01*
X92705371Y-71820285D01*
X92962514Y-71820285D01*
X92982610Y-71895285D01*
X93037514Y-71950189D01*
X93112514Y-71970285D01*
X93969657Y-71970285D01*
X94912514Y-71970285D01*
X94987514Y-71950189D01*
X95042418Y-71895285D01*
X95062514Y-71820285D01*
X95062514Y-70963142D01*
X95042418Y-70888142D01*
X94987514Y-70833238D01*
X94912514Y-70813142D01*
X94837514Y-70833238D01*
X94782610Y-70888142D01*
X94762514Y-70963142D01*
X94762514Y-71670285D01*
X94119657Y-71670285D01*
X94119657Y-71220285D01*
X94099561Y-71145285D01*
X94044657Y-71090381D01*
X93969657Y-71070285D01*
X93894657Y-71090381D01*
X93839753Y-71145285D01*
X93819657Y-71220285D01*
X93819657Y-71670285D01*
X93262514Y-71670285D01*
X93262514Y-70963142D01*
X93242418Y-70888142D01*
X93187514Y-70833238D01*
X93112514Y-70813142D01*
X93037514Y-70833238D01*
X92982610Y-70888142D01*
X92962514Y-70963142D01*
X92962514Y-71820285D01*
X92705371Y-71820285D01*
X92705371Y-70191714D01*
X92962514Y-70191714D01*
X92982610Y-70266714D01*
X93037514Y-70321618D01*
X93112514Y-70341714D01*
X94055371Y-70341714D01*
X94912514Y-70341714D01*
X94987514Y-70321618D01*
X95042418Y-70266714D01*
X95062514Y-70191714D01*
X95042418Y-70116714D01*
X94987514Y-70061810D01*
X94912514Y-70041714D01*
X94205371Y-70041714D01*
X94205371Y-69841241D01*
X94998533Y-69286028D01*
X95048451Y-69226555D01*
X95061945Y-69150091D01*
X95035399Y-69077124D01*
X94975926Y-69027206D01*
X94899461Y-69013712D01*
X94826494Y-69040258D01*
X94198386Y-69479933D01*
X94196447Y-69472698D01*
X94189535Y-69438918D01*
X94103821Y-69267489D01*
X94087798Y-69249419D01*
X94075723Y-69228505D01*
X93990007Y-69142790D01*
X93969093Y-69130715D01*
X93951024Y-69114693D01*
X93779596Y-69028979D01*
X93745815Y-69022066D01*
X93712514Y-69013143D01*
X93455371Y-69013143D01*
X93422069Y-69022066D01*
X93388289Y-69028979D01*
X93216860Y-69114693D01*
X93198790Y-69130716D01*
X93177876Y-69142791D01*
X93092162Y-69228505D01*
X93080086Y-69249420D01*
X93064064Y-69267489D01*
X92978350Y-69438918D01*
X92971437Y-69472696D01*
X92962514Y-69506000D01*
X92962514Y-70191714D01*
X92705371Y-70191714D01*
X92705371Y-68756000D01*
X95319657Y-68756000D01*
X95319657Y-77970285D01*
G37*
D11*
X154202055Y-61605004D02*
X154202055Y-62416057D01*
X154202055Y-62416057D02*
X154249764Y-62511475D01*
X154249764Y-62511475D02*
X154297473Y-62559185D01*
X154297473Y-62559185D02*
X154392891Y-62606894D01*
X154392891Y-62606894D02*
X154583727Y-62606894D01*
X154583727Y-62606894D02*
X154679145Y-62559185D01*
X154679145Y-62559185D02*
X154726854Y-62511475D01*
X154726854Y-62511475D02*
X154774563Y-62416057D01*
X154774563Y-62416057D02*
X154774563Y-61605004D01*
X155728744Y-61605004D02*
X155251654Y-61605004D01*
X155251654Y-61605004D02*
X155203945Y-62082094D01*
X155203945Y-62082094D02*
X155251654Y-62034385D01*
X155251654Y-62034385D02*
X155347072Y-61986676D01*
X155347072Y-61986676D02*
X155585617Y-61986676D01*
X155585617Y-61986676D02*
X155681035Y-62034385D01*
X155681035Y-62034385D02*
X155728744Y-62082094D01*
X155728744Y-62082094D02*
X155776453Y-62177512D01*
X155776453Y-62177512D02*
X155776453Y-62416057D01*
X155776453Y-62416057D02*
X155728744Y-62511475D01*
X155728744Y-62511475D02*
X155681035Y-62559185D01*
X155681035Y-62559185D02*
X155585617Y-62606894D01*
X155585617Y-62606894D02*
X155347072Y-62606894D01*
X155347072Y-62606894D02*
X155251654Y-62559185D01*
X155251654Y-62559185D02*
X155203945Y-62511475D01*
D12*
X183983333Y-100689580D02*
X183935714Y-100737200D01*
X183935714Y-100737200D02*
X183792857Y-100784819D01*
X183792857Y-100784819D02*
X183697619Y-100784819D01*
X183697619Y-100784819D02*
X183554762Y-100737200D01*
X183554762Y-100737200D02*
X183459524Y-100641961D01*
X183459524Y-100641961D02*
X183411905Y-100546723D01*
X183411905Y-100546723D02*
X183364286Y-100356247D01*
X183364286Y-100356247D02*
X183364286Y-100213390D01*
X183364286Y-100213390D02*
X183411905Y-100022914D01*
X183411905Y-100022914D02*
X183459524Y-99927676D01*
X183459524Y-99927676D02*
X183554762Y-99832438D01*
X183554762Y-99832438D02*
X183697619Y-99784819D01*
X183697619Y-99784819D02*
X183792857Y-99784819D01*
X183792857Y-99784819D02*
X183935714Y-99832438D01*
X183935714Y-99832438D02*
X183983333Y-99880057D01*
X184554762Y-100213390D02*
X184459524Y-100165771D01*
X184459524Y-100165771D02*
X184411905Y-100118152D01*
X184411905Y-100118152D02*
X184364286Y-100022914D01*
X184364286Y-100022914D02*
X184364286Y-99975295D01*
X184364286Y-99975295D02*
X184411905Y-99880057D01*
X184411905Y-99880057D02*
X184459524Y-99832438D01*
X184459524Y-99832438D02*
X184554762Y-99784819D01*
X184554762Y-99784819D02*
X184745238Y-99784819D01*
X184745238Y-99784819D02*
X184840476Y-99832438D01*
X184840476Y-99832438D02*
X184888095Y-99880057D01*
X184888095Y-99880057D02*
X184935714Y-99975295D01*
X184935714Y-99975295D02*
X184935714Y-100022914D01*
X184935714Y-100022914D02*
X184888095Y-100118152D01*
X184888095Y-100118152D02*
X184840476Y-100165771D01*
X184840476Y-100165771D02*
X184745238Y-100213390D01*
X184745238Y-100213390D02*
X184554762Y-100213390D01*
X184554762Y-100213390D02*
X184459524Y-100261009D01*
X184459524Y-100261009D02*
X184411905Y-100308628D01*
X184411905Y-100308628D02*
X184364286Y-100403866D01*
X184364286Y-100403866D02*
X184364286Y-100594342D01*
X184364286Y-100594342D02*
X184411905Y-100689580D01*
X184411905Y-100689580D02*
X184459524Y-100737200D01*
X184459524Y-100737200D02*
X184554762Y-100784819D01*
X184554762Y-100784819D02*
X184745238Y-100784819D01*
X184745238Y-100784819D02*
X184840476Y-100737200D01*
X184840476Y-100737200D02*
X184888095Y-100689580D01*
X184888095Y-100689580D02*
X184935714Y-100594342D01*
X184935714Y-100594342D02*
X184935714Y-100403866D01*
X184935714Y-100403866D02*
X184888095Y-100308628D01*
X184888095Y-100308628D02*
X184840476Y-100261009D01*
X184840476Y-100261009D02*
X184745238Y-100213390D01*
X180122533Y-97076419D02*
X179789200Y-96600228D01*
X179551105Y-97076419D02*
X179551105Y-96076419D01*
X179551105Y-96076419D02*
X179932057Y-96076419D01*
X179932057Y-96076419D02*
X180027295Y-96124038D01*
X180027295Y-96124038D02*
X180074914Y-96171657D01*
X180074914Y-96171657D02*
X180122533Y-96266895D01*
X180122533Y-96266895D02*
X180122533Y-96409752D01*
X180122533Y-96409752D02*
X180074914Y-96504990D01*
X180074914Y-96504990D02*
X180027295Y-96552609D01*
X180027295Y-96552609D02*
X179932057Y-96600228D01*
X179932057Y-96600228D02*
X179551105Y-96600228D01*
X181074914Y-97076419D02*
X180503486Y-97076419D01*
X180789200Y-97076419D02*
X180789200Y-96076419D01*
X180789200Y-96076419D02*
X180693962Y-96219276D01*
X180693962Y-96219276D02*
X180598724Y-96314514D01*
X180598724Y-96314514D02*
X180503486Y-96362133D01*
X179186199Y-87131337D02*
X178613780Y-87030322D01*
X178782138Y-87535398D02*
X178075032Y-86828291D01*
X178075032Y-86828291D02*
X178344406Y-86558917D01*
X178344406Y-86558917D02*
X178445421Y-86525245D01*
X178445421Y-86525245D02*
X178512764Y-86525245D01*
X178512764Y-86525245D02*
X178613780Y-86558917D01*
X178613780Y-86558917D02*
X178714795Y-86659932D01*
X178714795Y-86659932D02*
X178748467Y-86760948D01*
X178748467Y-86760948D02*
X178748467Y-86828291D01*
X178748467Y-86828291D02*
X178714795Y-86929306D01*
X178714795Y-86929306D02*
X178445421Y-87198680D01*
X179859634Y-86457902D02*
X179455573Y-86861963D01*
X179657604Y-86659932D02*
X178950497Y-85952826D01*
X178950497Y-85952826D02*
X178984169Y-86121184D01*
X178984169Y-86121184D02*
X178984169Y-86255871D01*
X178984169Y-86255871D02*
X178950497Y-86356887D01*
X179994322Y-85380406D02*
X180465726Y-85851810D01*
X179556589Y-85279390D02*
X179893306Y-85952825D01*
X179893306Y-85952825D02*
X180331039Y-85515093D01*
D11*
X179258933Y-101950619D02*
X178925600Y-101474428D01*
X178687505Y-101950619D02*
X178687505Y-100950619D01*
X178687505Y-100950619D02*
X179068457Y-100950619D01*
X179068457Y-100950619D02*
X179163695Y-100998238D01*
X179163695Y-100998238D02*
X179211314Y-101045857D01*
X179211314Y-101045857D02*
X179258933Y-101141095D01*
X179258933Y-101141095D02*
X179258933Y-101283952D01*
X179258933Y-101283952D02*
X179211314Y-101379190D01*
X179211314Y-101379190D02*
X179163695Y-101426809D01*
X179163695Y-101426809D02*
X179068457Y-101474428D01*
X179068457Y-101474428D02*
X178687505Y-101474428D01*
X179639886Y-101045857D02*
X179687505Y-100998238D01*
X179687505Y-100998238D02*
X179782743Y-100950619D01*
X179782743Y-100950619D02*
X180020838Y-100950619D01*
X180020838Y-100950619D02*
X180116076Y-100998238D01*
X180116076Y-100998238D02*
X180163695Y-101045857D01*
X180163695Y-101045857D02*
X180211314Y-101141095D01*
X180211314Y-101141095D02*
X180211314Y-101236333D01*
X180211314Y-101236333D02*
X180163695Y-101379190D01*
X180163695Y-101379190D02*
X179592267Y-101950619D01*
X179592267Y-101950619D02*
X180211314Y-101950619D01*
D12*
X187147295Y-92164819D02*
X187147295Y-92974342D01*
X187147295Y-92974342D02*
X187194914Y-93069580D01*
X187194914Y-93069580D02*
X187242533Y-93117200D01*
X187242533Y-93117200D02*
X187337771Y-93164819D01*
X187337771Y-93164819D02*
X187528247Y-93164819D01*
X187528247Y-93164819D02*
X187623485Y-93117200D01*
X187623485Y-93117200D02*
X187671104Y-93069580D01*
X187671104Y-93069580D02*
X187718723Y-92974342D01*
X187718723Y-92974342D02*
X187718723Y-92164819D01*
X188099676Y-92164819D02*
X188766342Y-92164819D01*
X188766342Y-92164819D02*
X188337771Y-93164819D01*
X182051666Y-97561009D02*
X181718333Y-97561009D01*
X181718333Y-98084819D02*
X181718333Y-97084819D01*
X181718333Y-97084819D02*
X182194523Y-97084819D01*
X182908809Y-97561009D02*
X183051666Y-97608628D01*
X183051666Y-97608628D02*
X183099285Y-97656247D01*
X183099285Y-97656247D02*
X183146904Y-97751485D01*
X183146904Y-97751485D02*
X183146904Y-97894342D01*
X183146904Y-97894342D02*
X183099285Y-97989580D01*
X183099285Y-97989580D02*
X183051666Y-98037200D01*
X183051666Y-98037200D02*
X182956428Y-98084819D01*
X182956428Y-98084819D02*
X182575476Y-98084819D01*
X182575476Y-98084819D02*
X182575476Y-97084819D01*
X182575476Y-97084819D02*
X182908809Y-97084819D01*
X182908809Y-97084819D02*
X183004047Y-97132438D01*
X183004047Y-97132438D02*
X183051666Y-97180057D01*
X183051666Y-97180057D02*
X183099285Y-97275295D01*
X183099285Y-97275295D02*
X183099285Y-97370533D01*
X183099285Y-97370533D02*
X183051666Y-97465771D01*
X183051666Y-97465771D02*
X183004047Y-97513390D01*
X183004047Y-97513390D02*
X182908809Y-97561009D01*
X182908809Y-97561009D02*
X182575476Y-97561009D01*
X184099285Y-98084819D02*
X183527857Y-98084819D01*
X183813571Y-98084819D02*
X183813571Y-97084819D01*
X183813571Y-97084819D02*
X183718333Y-97227676D01*
X183718333Y-97227676D02*
X183623095Y-97322914D01*
X183623095Y-97322914D02*
X183527857Y-97370533D01*
D11*
X142232142Y-93333780D02*
X142184523Y-93381400D01*
X142184523Y-93381400D02*
X142041666Y-93429019D01*
X142041666Y-93429019D02*
X141946428Y-93429019D01*
X141946428Y-93429019D02*
X141803571Y-93381400D01*
X141803571Y-93381400D02*
X141708333Y-93286161D01*
X141708333Y-93286161D02*
X141660714Y-93190923D01*
X141660714Y-93190923D02*
X141613095Y-93000447D01*
X141613095Y-93000447D02*
X141613095Y-92857590D01*
X141613095Y-92857590D02*
X141660714Y-92667114D01*
X141660714Y-92667114D02*
X141708333Y-92571876D01*
X141708333Y-92571876D02*
X141803571Y-92476638D01*
X141803571Y-92476638D02*
X141946428Y-92429019D01*
X141946428Y-92429019D02*
X142041666Y-92429019D01*
X142041666Y-92429019D02*
X142184523Y-92476638D01*
X142184523Y-92476638D02*
X142232142Y-92524257D01*
X143184523Y-93429019D02*
X142613095Y-93429019D01*
X142898809Y-93429019D02*
X142898809Y-92429019D01*
X142898809Y-92429019D02*
X142803571Y-92571876D01*
X142803571Y-92571876D02*
X142708333Y-92667114D01*
X142708333Y-92667114D02*
X142613095Y-92714733D01*
X143803571Y-92429019D02*
X143898809Y-92429019D01*
X143898809Y-92429019D02*
X143994047Y-92476638D01*
X143994047Y-92476638D02*
X144041666Y-92524257D01*
X144041666Y-92524257D02*
X144089285Y-92619495D01*
X144089285Y-92619495D02*
X144136904Y-92809971D01*
X144136904Y-92809971D02*
X144136904Y-93048066D01*
X144136904Y-93048066D02*
X144089285Y-93238542D01*
X144089285Y-93238542D02*
X144041666Y-93333780D01*
X144041666Y-93333780D02*
X143994047Y-93381400D01*
X143994047Y-93381400D02*
X143898809Y-93429019D01*
X143898809Y-93429019D02*
X143803571Y-93429019D01*
X143803571Y-93429019D02*
X143708333Y-93381400D01*
X143708333Y-93381400D02*
X143660714Y-93333780D01*
X143660714Y-93333780D02*
X143613095Y-93238542D01*
X143613095Y-93238542D02*
X143565476Y-93048066D01*
X143565476Y-93048066D02*
X143565476Y-92809971D01*
X143565476Y-92809971D02*
X143613095Y-92619495D01*
X143613095Y-92619495D02*
X143660714Y-92524257D01*
X143660714Y-92524257D02*
X143708333Y-92476638D01*
X143708333Y-92476638D02*
X143803571Y-92429019D01*
D12*
X102311295Y-58217600D02*
X102454152Y-58265219D01*
X102454152Y-58265219D02*
X102692247Y-58265219D01*
X102692247Y-58265219D02*
X102787485Y-58217600D01*
X102787485Y-58217600D02*
X102835104Y-58169980D01*
X102835104Y-58169980D02*
X102882723Y-58074742D01*
X102882723Y-58074742D02*
X102882723Y-57979504D01*
X102882723Y-57979504D02*
X102835104Y-57884266D01*
X102835104Y-57884266D02*
X102787485Y-57836647D01*
X102787485Y-57836647D02*
X102692247Y-57789028D01*
X102692247Y-57789028D02*
X102501771Y-57741409D01*
X102501771Y-57741409D02*
X102406533Y-57693790D01*
X102406533Y-57693790D02*
X102358914Y-57646171D01*
X102358914Y-57646171D02*
X102311295Y-57550933D01*
X102311295Y-57550933D02*
X102311295Y-57455695D01*
X102311295Y-57455695D02*
X102358914Y-57360457D01*
X102358914Y-57360457D02*
X102406533Y-57312838D01*
X102406533Y-57312838D02*
X102501771Y-57265219D01*
X102501771Y-57265219D02*
X102739866Y-57265219D01*
X102739866Y-57265219D02*
X102882723Y-57312838D01*
X103835104Y-58265219D02*
X103263676Y-58265219D01*
X103549390Y-58265219D02*
X103549390Y-57265219D01*
X103549390Y-57265219D02*
X103454152Y-57408076D01*
X103454152Y-57408076D02*
X103358914Y-57503314D01*
X103358914Y-57503314D02*
X103263676Y-57550933D01*
X190266108Y-67589509D02*
X191075631Y-67589509D01*
X191075631Y-67589509D02*
X191170869Y-67541890D01*
X191170869Y-67541890D02*
X191218489Y-67494271D01*
X191218489Y-67494271D02*
X191266108Y-67399033D01*
X191266108Y-67399033D02*
X191266108Y-67208557D01*
X191266108Y-67208557D02*
X191218489Y-67113319D01*
X191218489Y-67113319D02*
X191170869Y-67065700D01*
X191170869Y-67065700D02*
X191075631Y-67018081D01*
X191075631Y-67018081D02*
X190266108Y-67018081D01*
X191266108Y-66494271D02*
X191266108Y-66303795D01*
X191266108Y-66303795D02*
X191218489Y-66208557D01*
X191218489Y-66208557D02*
X191170869Y-66160938D01*
X191170869Y-66160938D02*
X191028012Y-66065700D01*
X191028012Y-66065700D02*
X190837536Y-66018081D01*
X190837536Y-66018081D02*
X190456584Y-66018081D01*
X190456584Y-66018081D02*
X190361346Y-66065700D01*
X190361346Y-66065700D02*
X190313727Y-66113319D01*
X190313727Y-66113319D02*
X190266108Y-66208557D01*
X190266108Y-66208557D02*
X190266108Y-66399033D01*
X190266108Y-66399033D02*
X190313727Y-66494271D01*
X190313727Y-66494271D02*
X190361346Y-66541890D01*
X190361346Y-66541890D02*
X190456584Y-66589509D01*
X190456584Y-66589509D02*
X190694679Y-66589509D01*
X190694679Y-66589509D02*
X190789917Y-66541890D01*
X190789917Y-66541890D02*
X190837536Y-66494271D01*
X190837536Y-66494271D02*
X190885155Y-66399033D01*
X190885155Y-66399033D02*
X190885155Y-66208557D01*
X190885155Y-66208557D02*
X190837536Y-66113319D01*
X190837536Y-66113319D02*
X190789917Y-66065700D01*
X190789917Y-66065700D02*
X190694679Y-66018081D01*
D11*
X160075664Y-98133633D02*
X160008321Y-98133633D01*
X160008321Y-98133633D02*
X159873634Y-98066290D01*
X159873634Y-98066290D02*
X159806290Y-97998946D01*
X159806290Y-97998946D02*
X159738947Y-97864259D01*
X159738947Y-97864259D02*
X159738947Y-97729572D01*
X159738947Y-97729572D02*
X159772618Y-97628557D01*
X159772618Y-97628557D02*
X159873634Y-97460198D01*
X159873634Y-97460198D02*
X159974649Y-97359183D01*
X159974649Y-97359183D02*
X160143008Y-97258168D01*
X160143008Y-97258168D02*
X160244023Y-97224496D01*
X160244023Y-97224496D02*
X160378710Y-97224496D01*
X160378710Y-97224496D02*
X160513397Y-97291840D01*
X160513397Y-97291840D02*
X160580740Y-97359183D01*
X160580740Y-97359183D02*
X160648084Y-97493870D01*
X160648084Y-97493870D02*
X160648084Y-97561214D01*
X160951130Y-97729572D02*
X161422534Y-98200977D01*
X161422534Y-98200977D02*
X160412382Y-98605038D01*
D12*
X177947259Y-86099737D02*
X177373163Y-86008727D01*
X177550311Y-86510788D02*
X176830971Y-85816130D01*
X176830971Y-85816130D02*
X177095603Y-85542096D01*
X177095603Y-85542096D02*
X177196015Y-85506666D01*
X177196015Y-85506666D02*
X177263349Y-85505491D01*
X177263349Y-85505491D02*
X177364936Y-85537395D01*
X177364936Y-85537395D02*
X177467699Y-85636632D01*
X177467699Y-85636632D02*
X177503129Y-85737044D01*
X177503129Y-85737044D02*
X177504304Y-85804377D01*
X177504304Y-85804377D02*
X177472400Y-85905965D01*
X177472400Y-85905965D02*
X177207768Y-86179999D01*
X178608838Y-85414652D02*
X178211891Y-85825703D01*
X178410364Y-85620177D02*
X177691025Y-84925519D01*
X177691025Y-84925519D02*
X177727629Y-85093264D01*
X177727629Y-85093264D02*
X177729980Y-85227931D01*
X177729980Y-85227931D02*
X177698076Y-85329518D01*
X178121051Y-84480213D02*
X178551078Y-84034908D01*
X178551078Y-84034908D02*
X178593559Y-84539319D01*
X178593559Y-84539319D02*
X178692796Y-84436557D01*
X178692796Y-84436557D02*
X178793208Y-84401127D01*
X178793208Y-84401127D02*
X178860542Y-84399952D01*
X178860542Y-84399952D02*
X178962129Y-84431855D01*
X178962129Y-84431855D02*
X179133401Y-84597250D01*
X179133401Y-84597250D02*
X179168830Y-84697662D01*
X179168830Y-84697662D02*
X179170005Y-84764996D01*
X179170005Y-84764996D02*
X179138102Y-84866583D01*
X179138102Y-84866583D02*
X178939628Y-85072109D01*
X178939628Y-85072109D02*
X178839216Y-85107538D01*
X178839216Y-85107538D02*
X178771882Y-85108714D01*
D11*
X121736219Y-63996866D02*
X121260028Y-64330199D01*
X121736219Y-64568294D02*
X120736219Y-64568294D01*
X120736219Y-64568294D02*
X120736219Y-64187342D01*
X120736219Y-64187342D02*
X120783838Y-64092104D01*
X120783838Y-64092104D02*
X120831457Y-64044485D01*
X120831457Y-64044485D02*
X120926695Y-63996866D01*
X120926695Y-63996866D02*
X121069552Y-63996866D01*
X121069552Y-63996866D02*
X121164790Y-64044485D01*
X121164790Y-64044485D02*
X121212409Y-64092104D01*
X121212409Y-64092104D02*
X121260028Y-64187342D01*
X121260028Y-64187342D02*
X121260028Y-64568294D01*
X121736219Y-63520675D02*
X121736219Y-63330199D01*
X121736219Y-63330199D02*
X121688600Y-63234961D01*
X121688600Y-63234961D02*
X121640980Y-63187342D01*
X121640980Y-63187342D02*
X121498123Y-63092104D01*
X121498123Y-63092104D02*
X121307647Y-63044485D01*
X121307647Y-63044485D02*
X120926695Y-63044485D01*
X120926695Y-63044485D02*
X120831457Y-63092104D01*
X120831457Y-63092104D02*
X120783838Y-63139723D01*
X120783838Y-63139723D02*
X120736219Y-63234961D01*
X120736219Y-63234961D02*
X120736219Y-63425437D01*
X120736219Y-63425437D02*
X120783838Y-63520675D01*
X120783838Y-63520675D02*
X120831457Y-63568294D01*
X120831457Y-63568294D02*
X120926695Y-63615913D01*
X120926695Y-63615913D02*
X121164790Y-63615913D01*
X121164790Y-63615913D02*
X121260028Y-63568294D01*
X121260028Y-63568294D02*
X121307647Y-63520675D01*
X121307647Y-63520675D02*
X121355266Y-63425437D01*
X121355266Y-63425437D02*
X121355266Y-63234961D01*
X121355266Y-63234961D02*
X121307647Y-63139723D01*
X121307647Y-63139723D02*
X121260028Y-63092104D01*
X121260028Y-63092104D02*
X121164790Y-63044485D01*
X165745725Y-85859571D02*
X165678382Y-85859571D01*
X165678382Y-85859571D02*
X165543695Y-85792228D01*
X165543695Y-85792228D02*
X165476351Y-85724884D01*
X165476351Y-85724884D02*
X165409008Y-85590197D01*
X165409008Y-85590197D02*
X165409008Y-85455510D01*
X165409008Y-85455510D02*
X165442679Y-85354495D01*
X165442679Y-85354495D02*
X165543695Y-85186136D01*
X165543695Y-85186136D02*
X165644710Y-85085121D01*
X165644710Y-85085121D02*
X165813069Y-84984106D01*
X165813069Y-84984106D02*
X165914084Y-84950434D01*
X165914084Y-84950434D02*
X166048771Y-84950434D01*
X166048771Y-84950434D02*
X166183458Y-85017778D01*
X166183458Y-85017778D02*
X166250801Y-85085121D01*
X166250801Y-85085121D02*
X166318145Y-85219808D01*
X166318145Y-85219808D02*
X166318145Y-85287152D01*
X166755878Y-86061602D02*
X166284473Y-86533006D01*
X166856893Y-85623869D02*
X166183458Y-85960587D01*
X166183458Y-85960587D02*
X166621191Y-86398319D01*
X121677957Y-59960738D02*
X121630338Y-60055976D01*
X121630338Y-60055976D02*
X121535100Y-60151214D01*
X121535100Y-60151214D02*
X121392242Y-60294071D01*
X121392242Y-60294071D02*
X121344623Y-60389309D01*
X121344623Y-60389309D02*
X121344623Y-60484547D01*
X121582719Y-60436928D02*
X121535100Y-60532166D01*
X121535100Y-60532166D02*
X121439861Y-60627404D01*
X121439861Y-60627404D02*
X121249385Y-60675023D01*
X121249385Y-60675023D02*
X120916052Y-60675023D01*
X120916052Y-60675023D02*
X120725576Y-60627404D01*
X120725576Y-60627404D02*
X120630338Y-60532166D01*
X120630338Y-60532166D02*
X120582719Y-60436928D01*
X120582719Y-60436928D02*
X120582719Y-60246452D01*
X120582719Y-60246452D02*
X120630338Y-60151214D01*
X120630338Y-60151214D02*
X120725576Y-60055976D01*
X120725576Y-60055976D02*
X120916052Y-60008357D01*
X120916052Y-60008357D02*
X121249385Y-60008357D01*
X121249385Y-60008357D02*
X121439861Y-60055976D01*
X121439861Y-60055976D02*
X121535100Y-60151214D01*
X121535100Y-60151214D02*
X121582719Y-60246452D01*
X121582719Y-60246452D02*
X121582719Y-60436928D01*
X121582719Y-59055976D02*
X121582719Y-59627404D01*
X121582719Y-59341690D02*
X120582719Y-59341690D01*
X120582719Y-59341690D02*
X120725576Y-59436928D01*
X120725576Y-59436928D02*
X120820814Y-59532166D01*
X120820814Y-59532166D02*
X120868433Y-59627404D01*
D12*
X186370933Y-90937219D02*
X186037600Y-90461028D01*
X185799505Y-90937219D02*
X185799505Y-89937219D01*
X185799505Y-89937219D02*
X186180457Y-89937219D01*
X186180457Y-89937219D02*
X186275695Y-89984838D01*
X186275695Y-89984838D02*
X186323314Y-90032457D01*
X186323314Y-90032457D02*
X186370933Y-90127695D01*
X186370933Y-90127695D02*
X186370933Y-90270552D01*
X186370933Y-90270552D02*
X186323314Y-90365790D01*
X186323314Y-90365790D02*
X186275695Y-90413409D01*
X186275695Y-90413409D02*
X186180457Y-90461028D01*
X186180457Y-90461028D02*
X185799505Y-90461028D01*
X186704267Y-89937219D02*
X187370933Y-89937219D01*
X187370933Y-89937219D02*
X186942362Y-90937219D01*
X172348411Y-95266512D02*
X172348411Y-95333856D01*
X172348411Y-95333856D02*
X172281067Y-95468543D01*
X172281067Y-95468543D02*
X172213724Y-95535886D01*
X172213724Y-95535886D02*
X172079037Y-95603230D01*
X172079037Y-95603230D02*
X171944350Y-95603230D01*
X171944350Y-95603230D02*
X171843335Y-95569558D01*
X171843335Y-95569558D02*
X171674976Y-95468543D01*
X171674976Y-95468543D02*
X171573961Y-95367528D01*
X171573961Y-95367528D02*
X171472945Y-95199169D01*
X171472945Y-95199169D02*
X171439274Y-95098154D01*
X171439274Y-95098154D02*
X171439274Y-94963467D01*
X171439274Y-94963467D02*
X171506617Y-94828780D01*
X171506617Y-94828780D02*
X171573961Y-94761436D01*
X171573961Y-94761436D02*
X171708648Y-94694093D01*
X171708648Y-94694093D02*
X171775991Y-94694093D01*
X172314739Y-94020658D02*
X172180052Y-94155345D01*
X172180052Y-94155345D02*
X172146380Y-94256360D01*
X172146380Y-94256360D02*
X172146380Y-94323703D01*
X172146380Y-94323703D02*
X172180052Y-94492062D01*
X172180052Y-94492062D02*
X172281067Y-94660421D01*
X172281067Y-94660421D02*
X172550441Y-94929795D01*
X172550441Y-94929795D02*
X172651457Y-94963467D01*
X172651457Y-94963467D02*
X172718800Y-94963467D01*
X172718800Y-94963467D02*
X172819815Y-94929795D01*
X172819815Y-94929795D02*
X172954502Y-94795108D01*
X172954502Y-94795108D02*
X172988174Y-94694093D01*
X172988174Y-94694093D02*
X172988174Y-94626749D01*
X172988174Y-94626749D02*
X172954502Y-94525734D01*
X172954502Y-94525734D02*
X172786144Y-94357375D01*
X172786144Y-94357375D02*
X172685128Y-94323703D01*
X172685128Y-94323703D02*
X172617785Y-94323703D01*
X172617785Y-94323703D02*
X172516770Y-94357375D01*
X172516770Y-94357375D02*
X172382083Y-94492062D01*
X172382083Y-94492062D02*
X172348411Y-94593077D01*
X172348411Y-94593077D02*
X172348411Y-94660421D01*
X172348411Y-94660421D02*
X172382083Y-94761436D01*
D10*
X108888572Y-77929757D02*
X108745715Y-77858328D01*
X108745715Y-77858328D02*
X108531429Y-77858328D01*
X108531429Y-77858328D02*
X108317143Y-77929757D01*
X108317143Y-77929757D02*
X108174286Y-78072614D01*
X108174286Y-78072614D02*
X108102857Y-78215471D01*
X108102857Y-78215471D02*
X108031429Y-78501185D01*
X108031429Y-78501185D02*
X108031429Y-78715471D01*
X108031429Y-78715471D02*
X108102857Y-79001185D01*
X108102857Y-79001185D02*
X108174286Y-79144042D01*
X108174286Y-79144042D02*
X108317143Y-79286900D01*
X108317143Y-79286900D02*
X108531429Y-79358328D01*
X108531429Y-79358328D02*
X108674286Y-79358328D01*
X108674286Y-79358328D02*
X108888572Y-79286900D01*
X108888572Y-79286900D02*
X108960000Y-79215471D01*
X108960000Y-79215471D02*
X108960000Y-78715471D01*
X108960000Y-78715471D02*
X108674286Y-78715471D01*
X109817143Y-77858328D02*
X109817143Y-78215471D01*
X109460000Y-78072614D02*
X109817143Y-78215471D01*
X109817143Y-78215471D02*
X110174286Y-78072614D01*
X109602857Y-78501185D02*
X109817143Y-78215471D01*
X109817143Y-78215471D02*
X110031429Y-78501185D01*
X110960000Y-77858328D02*
X110960000Y-78215471D01*
X110602857Y-78072614D02*
X110960000Y-78215471D01*
X110960000Y-78215471D02*
X111317143Y-78072614D01*
X110745714Y-78501185D02*
X110960000Y-78215471D01*
X110960000Y-78215471D02*
X111174286Y-78501185D01*
X112102857Y-77858328D02*
X112102857Y-78215471D01*
X111745714Y-78072614D02*
X112102857Y-78215471D01*
X112102857Y-78215471D02*
X112460000Y-78072614D01*
X111888571Y-78501185D02*
X112102857Y-78215471D01*
X112102857Y-78215471D02*
X112317143Y-78501185D01*
D12*
X185721576Y-65431594D02*
X185769196Y-65479213D01*
X185769196Y-65479213D02*
X185816815Y-65622070D01*
X185816815Y-65622070D02*
X185816815Y-65717308D01*
X185816815Y-65717308D02*
X185769196Y-65860165D01*
X185769196Y-65860165D02*
X185673957Y-65955403D01*
X185673957Y-65955403D02*
X185578719Y-66003022D01*
X185578719Y-66003022D02*
X185388243Y-66050641D01*
X185388243Y-66050641D02*
X185245386Y-66050641D01*
X185245386Y-66050641D02*
X185054910Y-66003022D01*
X185054910Y-66003022D02*
X184959672Y-65955403D01*
X184959672Y-65955403D02*
X184864434Y-65860165D01*
X184864434Y-65860165D02*
X184816815Y-65717308D01*
X184816815Y-65717308D02*
X184816815Y-65622070D01*
X184816815Y-65622070D02*
X184864434Y-65479213D01*
X184864434Y-65479213D02*
X184912053Y-65431594D01*
X185816815Y-64479213D02*
X185816815Y-65050641D01*
X185816815Y-64764927D02*
X184816815Y-64764927D01*
X184816815Y-64764927D02*
X184959672Y-64860165D01*
X184959672Y-64860165D02*
X185054910Y-64955403D01*
X185054910Y-64955403D02*
X185102529Y-65050641D01*
X184816815Y-63574451D02*
X184816815Y-64050641D01*
X184816815Y-64050641D02*
X185293005Y-64098260D01*
X185293005Y-64098260D02*
X185245386Y-64050641D01*
X185245386Y-64050641D02*
X185197767Y-63955403D01*
X185197767Y-63955403D02*
X185197767Y-63717308D01*
X185197767Y-63717308D02*
X185245386Y-63622070D01*
X185245386Y-63622070D02*
X185293005Y-63574451D01*
X185293005Y-63574451D02*
X185388243Y-63526832D01*
X185388243Y-63526832D02*
X185626338Y-63526832D01*
X185626338Y-63526832D02*
X185721576Y-63574451D01*
X185721576Y-63574451D02*
X185769196Y-63622070D01*
X185769196Y-63622070D02*
X185816815Y-63717308D01*
X185816815Y-63717308D02*
X185816815Y-63955403D01*
X185816815Y-63955403D02*
X185769196Y-64050641D01*
X185769196Y-64050641D02*
X185721576Y-64098260D01*
D11*
X161173725Y-100713735D02*
X161106382Y-100713735D01*
X161106382Y-100713735D02*
X160971695Y-100646392D01*
X160971695Y-100646392D02*
X160904351Y-100579048D01*
X160904351Y-100579048D02*
X160837008Y-100444361D01*
X160837008Y-100444361D02*
X160837008Y-100309674D01*
X160837008Y-100309674D02*
X160870679Y-100208659D01*
X160870679Y-100208659D02*
X160971695Y-100040300D01*
X160971695Y-100040300D02*
X161072710Y-99939285D01*
X161072710Y-99939285D02*
X161241069Y-99838270D01*
X161241069Y-99838270D02*
X161342084Y-99804598D01*
X161342084Y-99804598D02*
X161476771Y-99804598D01*
X161476771Y-99804598D02*
X161611458Y-99871942D01*
X161611458Y-99871942D02*
X161678801Y-99939285D01*
X161678801Y-99939285D02*
X161746145Y-100073972D01*
X161746145Y-100073972D02*
X161746145Y-100141316D01*
X162453252Y-100713735D02*
X162116534Y-100377018D01*
X162116534Y-100377018D02*
X161746145Y-100680064D01*
X161746145Y-100680064D02*
X161813488Y-100680064D01*
X161813488Y-100680064D02*
X161914504Y-100713735D01*
X161914504Y-100713735D02*
X162082862Y-100882094D01*
X162082862Y-100882094D02*
X162116534Y-100983109D01*
X162116534Y-100983109D02*
X162116534Y-101050453D01*
X162116534Y-101050453D02*
X162082862Y-101151468D01*
X162082862Y-101151468D02*
X161914504Y-101319827D01*
X161914504Y-101319827D02*
X161813488Y-101353499D01*
X161813488Y-101353499D02*
X161746145Y-101353499D01*
X161746145Y-101353499D02*
X161645130Y-101319827D01*
X161645130Y-101319827D02*
X161476771Y-101151468D01*
X161476771Y-101151468D02*
X161443099Y-101050453D01*
X161443099Y-101050453D02*
X161443099Y-100983109D01*
D12*
X166804957Y-88937596D02*
X166232537Y-89510016D01*
X166232537Y-89510016D02*
X166198865Y-89611031D01*
X166198865Y-89611031D02*
X166198865Y-89678375D01*
X166198865Y-89678375D02*
X166232537Y-89779390D01*
X166232537Y-89779390D02*
X166367224Y-89914077D01*
X166367224Y-89914077D02*
X166468239Y-89947749D01*
X166468239Y-89947749D02*
X166535583Y-89947749D01*
X166535583Y-89947749D02*
X166636598Y-89914077D01*
X166636598Y-89914077D02*
X167209018Y-89341657D01*
X167209018Y-90755871D02*
X166804957Y-90351810D01*
X167006987Y-90553840D02*
X167714094Y-89846734D01*
X167714094Y-89846734D02*
X167545735Y-89880405D01*
X167545735Y-89880405D02*
X167411048Y-89880405D01*
X167411048Y-89880405D02*
X167310033Y-89846734D01*
X181628642Y-88388380D02*
X181581023Y-88436000D01*
X181581023Y-88436000D02*
X181438166Y-88483619D01*
X181438166Y-88483619D02*
X181342928Y-88483619D01*
X181342928Y-88483619D02*
X181200071Y-88436000D01*
X181200071Y-88436000D02*
X181104833Y-88340761D01*
X181104833Y-88340761D02*
X181057214Y-88245523D01*
X181057214Y-88245523D02*
X181009595Y-88055047D01*
X181009595Y-88055047D02*
X181009595Y-87912190D01*
X181009595Y-87912190D02*
X181057214Y-87721714D01*
X181057214Y-87721714D02*
X181104833Y-87626476D01*
X181104833Y-87626476D02*
X181200071Y-87531238D01*
X181200071Y-87531238D02*
X181342928Y-87483619D01*
X181342928Y-87483619D02*
X181438166Y-87483619D01*
X181438166Y-87483619D02*
X181581023Y-87531238D01*
X181581023Y-87531238D02*
X181628642Y-87578857D01*
X182581023Y-88483619D02*
X182009595Y-88483619D01*
X182295309Y-88483619D02*
X182295309Y-87483619D01*
X182295309Y-87483619D02*
X182200071Y-87626476D01*
X182200071Y-87626476D02*
X182104833Y-87721714D01*
X182104833Y-87721714D02*
X182009595Y-87769333D01*
X182914357Y-87483619D02*
X183533404Y-87483619D01*
X183533404Y-87483619D02*
X183200071Y-87864571D01*
X183200071Y-87864571D02*
X183342928Y-87864571D01*
X183342928Y-87864571D02*
X183438166Y-87912190D01*
X183438166Y-87912190D02*
X183485785Y-87959809D01*
X183485785Y-87959809D02*
X183533404Y-88055047D01*
X183533404Y-88055047D02*
X183533404Y-88293142D01*
X183533404Y-88293142D02*
X183485785Y-88388380D01*
X183485785Y-88388380D02*
X183438166Y-88436000D01*
X183438166Y-88436000D02*
X183342928Y-88483619D01*
X183342928Y-88483619D02*
X183057214Y-88483619D01*
X183057214Y-88483619D02*
X182961976Y-88436000D01*
X182961976Y-88436000D02*
X182914357Y-88388380D01*
X190460333Y-100690819D02*
X190127000Y-100214628D01*
X189888905Y-100690819D02*
X189888905Y-99690819D01*
X189888905Y-99690819D02*
X190269857Y-99690819D01*
X190269857Y-99690819D02*
X190365095Y-99738438D01*
X190365095Y-99738438D02*
X190412714Y-99786057D01*
X190412714Y-99786057D02*
X190460333Y-99881295D01*
X190460333Y-99881295D02*
X190460333Y-100024152D01*
X190460333Y-100024152D02*
X190412714Y-100119390D01*
X190412714Y-100119390D02*
X190365095Y-100167009D01*
X190365095Y-100167009D02*
X190269857Y-100214628D01*
X190269857Y-100214628D02*
X189888905Y-100214628D01*
X191031762Y-100119390D02*
X190936524Y-100071771D01*
X190936524Y-100071771D02*
X190888905Y-100024152D01*
X190888905Y-100024152D02*
X190841286Y-99928914D01*
X190841286Y-99928914D02*
X190841286Y-99881295D01*
X190841286Y-99881295D02*
X190888905Y-99786057D01*
X190888905Y-99786057D02*
X190936524Y-99738438D01*
X190936524Y-99738438D02*
X191031762Y-99690819D01*
X191031762Y-99690819D02*
X191222238Y-99690819D01*
X191222238Y-99690819D02*
X191317476Y-99738438D01*
X191317476Y-99738438D02*
X191365095Y-99786057D01*
X191365095Y-99786057D02*
X191412714Y-99881295D01*
X191412714Y-99881295D02*
X191412714Y-99928914D01*
X191412714Y-99928914D02*
X191365095Y-100024152D01*
X191365095Y-100024152D02*
X191317476Y-100071771D01*
X191317476Y-100071771D02*
X191222238Y-100119390D01*
X191222238Y-100119390D02*
X191031762Y-100119390D01*
X191031762Y-100119390D02*
X190936524Y-100167009D01*
X190936524Y-100167009D02*
X190888905Y-100214628D01*
X190888905Y-100214628D02*
X190841286Y-100309866D01*
X190841286Y-100309866D02*
X190841286Y-100500342D01*
X190841286Y-100500342D02*
X190888905Y-100595580D01*
X190888905Y-100595580D02*
X190936524Y-100643200D01*
X190936524Y-100643200D02*
X191031762Y-100690819D01*
X191031762Y-100690819D02*
X191222238Y-100690819D01*
X191222238Y-100690819D02*
X191317476Y-100643200D01*
X191317476Y-100643200D02*
X191365095Y-100595580D01*
X191365095Y-100595580D02*
X191412714Y-100500342D01*
X191412714Y-100500342D02*
X191412714Y-100309866D01*
X191412714Y-100309866D02*
X191365095Y-100214628D01*
X191365095Y-100214628D02*
X191317476Y-100167009D01*
X191317476Y-100167009D02*
X191222238Y-100119390D01*
X186885342Y-95398780D02*
X186837723Y-95446400D01*
X186837723Y-95446400D02*
X186694866Y-95494019D01*
X186694866Y-95494019D02*
X186599628Y-95494019D01*
X186599628Y-95494019D02*
X186456771Y-95446400D01*
X186456771Y-95446400D02*
X186361533Y-95351161D01*
X186361533Y-95351161D02*
X186313914Y-95255923D01*
X186313914Y-95255923D02*
X186266295Y-95065447D01*
X186266295Y-95065447D02*
X186266295Y-94922590D01*
X186266295Y-94922590D02*
X186313914Y-94732114D01*
X186313914Y-94732114D02*
X186361533Y-94636876D01*
X186361533Y-94636876D02*
X186456771Y-94541638D01*
X186456771Y-94541638D02*
X186599628Y-94494019D01*
X186599628Y-94494019D02*
X186694866Y-94494019D01*
X186694866Y-94494019D02*
X186837723Y-94541638D01*
X186837723Y-94541638D02*
X186885342Y-94589257D01*
X187837723Y-95494019D02*
X187266295Y-95494019D01*
X187552009Y-95494019D02*
X187552009Y-94494019D01*
X187552009Y-94494019D02*
X187456771Y-94636876D01*
X187456771Y-94636876D02*
X187361533Y-94732114D01*
X187361533Y-94732114D02*
X187266295Y-94779733D01*
X188694866Y-94827352D02*
X188694866Y-95494019D01*
X188456771Y-94446400D02*
X188218676Y-95160685D01*
X188218676Y-95160685D02*
X188837723Y-95160685D01*
X185354819Y-86918704D02*
X186164342Y-86918704D01*
X186164342Y-86918704D02*
X186259580Y-86871085D01*
X186259580Y-86871085D02*
X186307200Y-86823466D01*
X186307200Y-86823466D02*
X186354819Y-86728228D01*
X186354819Y-86728228D02*
X186354819Y-86537752D01*
X186354819Y-86537752D02*
X186307200Y-86442514D01*
X186307200Y-86442514D02*
X186259580Y-86394895D01*
X186259580Y-86394895D02*
X186164342Y-86347276D01*
X186164342Y-86347276D02*
X185354819Y-86347276D01*
X185354819Y-85442514D02*
X185354819Y-85632990D01*
X185354819Y-85632990D02*
X185402438Y-85728228D01*
X185402438Y-85728228D02*
X185450057Y-85775847D01*
X185450057Y-85775847D02*
X185592914Y-85871085D01*
X185592914Y-85871085D02*
X185783390Y-85918704D01*
X185783390Y-85918704D02*
X186164342Y-85918704D01*
X186164342Y-85918704D02*
X186259580Y-85871085D01*
X186259580Y-85871085D02*
X186307200Y-85823466D01*
X186307200Y-85823466D02*
X186354819Y-85728228D01*
X186354819Y-85728228D02*
X186354819Y-85537752D01*
X186354819Y-85537752D02*
X186307200Y-85442514D01*
X186307200Y-85442514D02*
X186259580Y-85394895D01*
X186259580Y-85394895D02*
X186164342Y-85347276D01*
X186164342Y-85347276D02*
X185926247Y-85347276D01*
X185926247Y-85347276D02*
X185831009Y-85394895D01*
X185831009Y-85394895D02*
X185783390Y-85442514D01*
X185783390Y-85442514D02*
X185735771Y-85537752D01*
X185735771Y-85537752D02*
X185735771Y-85728228D01*
X185735771Y-85728228D02*
X185783390Y-85823466D01*
X185783390Y-85823466D02*
X185831009Y-85871085D01*
X185831009Y-85871085D02*
X185926247Y-85918704D01*
D11*
X143542219Y-87121904D02*
X144351742Y-87121904D01*
X144351742Y-87121904D02*
X144446980Y-87074285D01*
X144446980Y-87074285D02*
X144494600Y-87026666D01*
X144494600Y-87026666D02*
X144542219Y-86931428D01*
X144542219Y-86931428D02*
X144542219Y-86740952D01*
X144542219Y-86740952D02*
X144494600Y-86645714D01*
X144494600Y-86645714D02*
X144446980Y-86598095D01*
X144446980Y-86598095D02*
X144351742Y-86550476D01*
X144351742Y-86550476D02*
X143542219Y-86550476D01*
X143542219Y-86169523D02*
X143542219Y-85550476D01*
X143542219Y-85550476D02*
X143923171Y-85883809D01*
X143923171Y-85883809D02*
X143923171Y-85740952D01*
X143923171Y-85740952D02*
X143970790Y-85645714D01*
X143970790Y-85645714D02*
X144018409Y-85598095D01*
X144018409Y-85598095D02*
X144113647Y-85550476D01*
X144113647Y-85550476D02*
X144351742Y-85550476D01*
X144351742Y-85550476D02*
X144446980Y-85598095D01*
X144446980Y-85598095D02*
X144494600Y-85645714D01*
X144494600Y-85645714D02*
X144542219Y-85740952D01*
X144542219Y-85740952D02*
X144542219Y-86026666D01*
X144542219Y-86026666D02*
X144494600Y-86121904D01*
X144494600Y-86121904D02*
X144446980Y-86169523D01*
X176972933Y-101950619D02*
X176639600Y-101474428D01*
X176401505Y-101950619D02*
X176401505Y-100950619D01*
X176401505Y-100950619D02*
X176782457Y-100950619D01*
X176782457Y-100950619D02*
X176877695Y-100998238D01*
X176877695Y-100998238D02*
X176925314Y-101045857D01*
X176925314Y-101045857D02*
X176972933Y-101141095D01*
X176972933Y-101141095D02*
X176972933Y-101283952D01*
X176972933Y-101283952D02*
X176925314Y-101379190D01*
X176925314Y-101379190D02*
X176877695Y-101426809D01*
X176877695Y-101426809D02*
X176782457Y-101474428D01*
X176782457Y-101474428D02*
X176401505Y-101474428D01*
X177830076Y-101283952D02*
X177830076Y-101950619D01*
X177591981Y-100903000D02*
X177353886Y-101617285D01*
X177353886Y-101617285D02*
X177972933Y-101617285D01*
D12*
X179161842Y-93291819D02*
X178828509Y-92815628D01*
X178590414Y-93291819D02*
X178590414Y-92291819D01*
X178590414Y-92291819D02*
X178971366Y-92291819D01*
X178971366Y-92291819D02*
X179066604Y-92339438D01*
X179066604Y-92339438D02*
X179114223Y-92387057D01*
X179114223Y-92387057D02*
X179161842Y-92482295D01*
X179161842Y-92482295D02*
X179161842Y-92625152D01*
X179161842Y-92625152D02*
X179114223Y-92720390D01*
X179114223Y-92720390D02*
X179066604Y-92768009D01*
X179066604Y-92768009D02*
X178971366Y-92815628D01*
X178971366Y-92815628D02*
X178590414Y-92815628D01*
X180114223Y-93291819D02*
X179542795Y-93291819D01*
X179828509Y-93291819D02*
X179828509Y-92291819D01*
X179828509Y-92291819D02*
X179733271Y-92434676D01*
X179733271Y-92434676D02*
X179638033Y-92529914D01*
X179638033Y-92529914D02*
X179542795Y-92577533D01*
X180495176Y-92387057D02*
X180542795Y-92339438D01*
X180542795Y-92339438D02*
X180638033Y-92291819D01*
X180638033Y-92291819D02*
X180876128Y-92291819D01*
X180876128Y-92291819D02*
X180971366Y-92339438D01*
X180971366Y-92339438D02*
X181018985Y-92387057D01*
X181018985Y-92387057D02*
X181066604Y-92482295D01*
X181066604Y-92482295D02*
X181066604Y-92577533D01*
X181066604Y-92577533D02*
X181018985Y-92720390D01*
X181018985Y-92720390D02*
X180447557Y-93291819D01*
X180447557Y-93291819D02*
X181066604Y-93291819D01*
D11*
X111606105Y-50363219D02*
X111606105Y-49363219D01*
X111606105Y-49363219D02*
X111844200Y-49363219D01*
X111844200Y-49363219D02*
X111987057Y-49410838D01*
X111987057Y-49410838D02*
X112082295Y-49506076D01*
X112082295Y-49506076D02*
X112129914Y-49601314D01*
X112129914Y-49601314D02*
X112177533Y-49791790D01*
X112177533Y-49791790D02*
X112177533Y-49934647D01*
X112177533Y-49934647D02*
X112129914Y-50125123D01*
X112129914Y-50125123D02*
X112082295Y-50220361D01*
X112082295Y-50220361D02*
X111987057Y-50315600D01*
X111987057Y-50315600D02*
X111844200Y-50363219D01*
X111844200Y-50363219D02*
X111606105Y-50363219D01*
X113129914Y-50363219D02*
X112558486Y-50363219D01*
X112844200Y-50363219D02*
X112844200Y-49363219D01*
X112844200Y-49363219D02*
X112748962Y-49506076D01*
X112748962Y-49506076D02*
X112653724Y-49601314D01*
X112653724Y-49601314D02*
X112558486Y-49648933D01*
D12*
X109806000Y-96270866D02*
X109806000Y-94870866D01*
X109806000Y-94870866D02*
X110339333Y-94870866D01*
X110339333Y-94870866D02*
X110472667Y-94937533D01*
X110472667Y-94937533D02*
X110539333Y-95004200D01*
X110539333Y-95004200D02*
X110606000Y-95137533D01*
X110606000Y-95137533D02*
X110606000Y-95337533D01*
X110606000Y-95337533D02*
X110539333Y-95470866D01*
X110539333Y-95470866D02*
X110472667Y-95537533D01*
X110472667Y-95537533D02*
X110339333Y-95604200D01*
X110339333Y-95604200D02*
X109806000Y-95604200D01*
X111139333Y-96204200D02*
X111339333Y-96270866D01*
X111339333Y-96270866D02*
X111672667Y-96270866D01*
X111672667Y-96270866D02*
X111806000Y-96204200D01*
X111806000Y-96204200D02*
X111872667Y-96137533D01*
X111872667Y-96137533D02*
X111939333Y-96004200D01*
X111939333Y-96004200D02*
X111939333Y-95870866D01*
X111939333Y-95870866D02*
X111872667Y-95737533D01*
X111872667Y-95737533D02*
X111806000Y-95670866D01*
X111806000Y-95670866D02*
X111672667Y-95604200D01*
X111672667Y-95604200D02*
X111406000Y-95537533D01*
X111406000Y-95537533D02*
X111272667Y-95470866D01*
X111272667Y-95470866D02*
X111206000Y-95404200D01*
X111206000Y-95404200D02*
X111139333Y-95270866D01*
X111139333Y-95270866D02*
X111139333Y-95137533D01*
X111139333Y-95137533D02*
X111206000Y-95004200D01*
X111206000Y-95004200D02*
X111272667Y-94937533D01*
X111272667Y-94937533D02*
X111406000Y-94870866D01*
X111406000Y-94870866D02*
X111739333Y-94870866D01*
X111739333Y-94870866D02*
X111939333Y-94937533D01*
X113272666Y-96270866D02*
X112472666Y-96270866D01*
X112872666Y-96270866D02*
X112872666Y-94870866D01*
X112872666Y-94870866D02*
X112739333Y-95070866D01*
X112739333Y-95070866D02*
X112606000Y-95204200D01*
X112606000Y-95204200D02*
X112472666Y-95270866D01*
X113770819Y-58142094D02*
X112770819Y-58142094D01*
X112770819Y-58142094D02*
X112770819Y-57903999D01*
X112770819Y-57903999D02*
X112818438Y-57761142D01*
X112818438Y-57761142D02*
X112913676Y-57665904D01*
X112913676Y-57665904D02*
X113008914Y-57618285D01*
X113008914Y-57618285D02*
X113199390Y-57570666D01*
X113199390Y-57570666D02*
X113342247Y-57570666D01*
X113342247Y-57570666D02*
X113532723Y-57618285D01*
X113532723Y-57618285D02*
X113627961Y-57665904D01*
X113627961Y-57665904D02*
X113723200Y-57761142D01*
X113723200Y-57761142D02*
X113770819Y-57903999D01*
X113770819Y-57903999D02*
X113770819Y-58142094D01*
X112866057Y-57189713D02*
X112818438Y-57142094D01*
X112818438Y-57142094D02*
X112770819Y-57046856D01*
X112770819Y-57046856D02*
X112770819Y-56808761D01*
X112770819Y-56808761D02*
X112818438Y-56713523D01*
X112818438Y-56713523D02*
X112866057Y-56665904D01*
X112866057Y-56665904D02*
X112961295Y-56618285D01*
X112961295Y-56618285D02*
X113056533Y-56618285D01*
X113056533Y-56618285D02*
X113199390Y-56665904D01*
X113199390Y-56665904D02*
X113770819Y-57237332D01*
X113770819Y-57237332D02*
X113770819Y-56618285D01*
X187198095Y-106409819D02*
X187198095Y-107219342D01*
X187198095Y-107219342D02*
X187245714Y-107314580D01*
X187245714Y-107314580D02*
X187293333Y-107362200D01*
X187293333Y-107362200D02*
X187388571Y-107409819D01*
X187388571Y-107409819D02*
X187579047Y-107409819D01*
X187579047Y-107409819D02*
X187674285Y-107362200D01*
X187674285Y-107362200D02*
X187721904Y-107314580D01*
X187721904Y-107314580D02*
X187769523Y-107219342D01*
X187769523Y-107219342D02*
X187769523Y-106409819D01*
X188198095Y-106505057D02*
X188245714Y-106457438D01*
X188245714Y-106457438D02*
X188340952Y-106409819D01*
X188340952Y-106409819D02*
X188579047Y-106409819D01*
X188579047Y-106409819D02*
X188674285Y-106457438D01*
X188674285Y-106457438D02*
X188721904Y-106505057D01*
X188721904Y-106505057D02*
X188769523Y-106600295D01*
X188769523Y-106600295D02*
X188769523Y-106695533D01*
X188769523Y-106695533D02*
X188721904Y-106838390D01*
X188721904Y-106838390D02*
X188150476Y-107409819D01*
X188150476Y-107409819D02*
X188769523Y-107409819D01*
X121612819Y-51671457D02*
X121136628Y-52004790D01*
X121612819Y-52242885D02*
X120612819Y-52242885D01*
X120612819Y-52242885D02*
X120612819Y-51861933D01*
X120612819Y-51861933D02*
X120660438Y-51766695D01*
X120660438Y-51766695D02*
X120708057Y-51719076D01*
X120708057Y-51719076D02*
X120803295Y-51671457D01*
X120803295Y-51671457D02*
X120946152Y-51671457D01*
X120946152Y-51671457D02*
X121041390Y-51719076D01*
X121041390Y-51719076D02*
X121089009Y-51766695D01*
X121089009Y-51766695D02*
X121136628Y-51861933D01*
X121136628Y-51861933D02*
X121136628Y-52242885D01*
X121612819Y-50719076D02*
X121612819Y-51290504D01*
X121612819Y-51004790D02*
X120612819Y-51004790D01*
X120612819Y-51004790D02*
X120755676Y-51100028D01*
X120755676Y-51100028D02*
X120850914Y-51195266D01*
X120850914Y-51195266D02*
X120898533Y-51290504D01*
X120612819Y-50100028D02*
X120612819Y-50004790D01*
X120612819Y-50004790D02*
X120660438Y-49909552D01*
X120660438Y-49909552D02*
X120708057Y-49861933D01*
X120708057Y-49861933D02*
X120803295Y-49814314D01*
X120803295Y-49814314D02*
X120993771Y-49766695D01*
X120993771Y-49766695D02*
X121231866Y-49766695D01*
X121231866Y-49766695D02*
X121422342Y-49814314D01*
X121422342Y-49814314D02*
X121517580Y-49861933D01*
X121517580Y-49861933D02*
X121565200Y-49909552D01*
X121565200Y-49909552D02*
X121612819Y-50004790D01*
X121612819Y-50004790D02*
X121612819Y-50100028D01*
X121612819Y-50100028D02*
X121565200Y-50195266D01*
X121565200Y-50195266D02*
X121517580Y-50242885D01*
X121517580Y-50242885D02*
X121422342Y-50290504D01*
X121422342Y-50290504D02*
X121231866Y-50338123D01*
X121231866Y-50338123D02*
X120993771Y-50338123D01*
X120993771Y-50338123D02*
X120803295Y-50290504D01*
X120803295Y-50290504D02*
X120708057Y-50242885D01*
X120708057Y-50242885D02*
X120660438Y-50195266D01*
X120660438Y-50195266D02*
X120612819Y-50100028D01*
X180586142Y-91717019D02*
X180252809Y-91240828D01*
X180014714Y-91717019D02*
X180014714Y-90717019D01*
X180014714Y-90717019D02*
X180395666Y-90717019D01*
X180395666Y-90717019D02*
X180490904Y-90764638D01*
X180490904Y-90764638D02*
X180538523Y-90812257D01*
X180538523Y-90812257D02*
X180586142Y-90907495D01*
X180586142Y-90907495D02*
X180586142Y-91050352D01*
X180586142Y-91050352D02*
X180538523Y-91145590D01*
X180538523Y-91145590D02*
X180490904Y-91193209D01*
X180490904Y-91193209D02*
X180395666Y-91240828D01*
X180395666Y-91240828D02*
X180014714Y-91240828D01*
X181538523Y-91717019D02*
X180967095Y-91717019D01*
X181252809Y-91717019D02*
X181252809Y-90717019D01*
X181252809Y-90717019D02*
X181157571Y-90859876D01*
X181157571Y-90859876D02*
X181062333Y-90955114D01*
X181062333Y-90955114D02*
X180967095Y-91002733D01*
X182490904Y-91717019D02*
X181919476Y-91717019D01*
X182205190Y-91717019D02*
X182205190Y-90717019D01*
X182205190Y-90717019D02*
X182109952Y-90859876D01*
X182109952Y-90859876D02*
X182014714Y-90955114D01*
X182014714Y-90955114D02*
X181919476Y-91002733D01*
D11*
X136189819Y-69127666D02*
X135713628Y-69460999D01*
X136189819Y-69699094D02*
X135189819Y-69699094D01*
X135189819Y-69699094D02*
X135189819Y-69318142D01*
X135189819Y-69318142D02*
X135237438Y-69222904D01*
X135237438Y-69222904D02*
X135285057Y-69175285D01*
X135285057Y-69175285D02*
X135380295Y-69127666D01*
X135380295Y-69127666D02*
X135523152Y-69127666D01*
X135523152Y-69127666D02*
X135618390Y-69175285D01*
X135618390Y-69175285D02*
X135666009Y-69222904D01*
X135666009Y-69222904D02*
X135713628Y-69318142D01*
X135713628Y-69318142D02*
X135713628Y-69699094D01*
X135189819Y-68270523D02*
X135189819Y-68460999D01*
X135189819Y-68460999D02*
X135237438Y-68556237D01*
X135237438Y-68556237D02*
X135285057Y-68603856D01*
X135285057Y-68603856D02*
X135427914Y-68699094D01*
X135427914Y-68699094D02*
X135618390Y-68746713D01*
X135618390Y-68746713D02*
X135999342Y-68746713D01*
X135999342Y-68746713D02*
X136094580Y-68699094D01*
X136094580Y-68699094D02*
X136142200Y-68651475D01*
X136142200Y-68651475D02*
X136189819Y-68556237D01*
X136189819Y-68556237D02*
X136189819Y-68365761D01*
X136189819Y-68365761D02*
X136142200Y-68270523D01*
X136142200Y-68270523D02*
X136094580Y-68222904D01*
X136094580Y-68222904D02*
X135999342Y-68175285D01*
X135999342Y-68175285D02*
X135761247Y-68175285D01*
X135761247Y-68175285D02*
X135666009Y-68222904D01*
X135666009Y-68222904D02*
X135618390Y-68270523D01*
X135618390Y-68270523D02*
X135570771Y-68365761D01*
X135570771Y-68365761D02*
X135570771Y-68556237D01*
X135570771Y-68556237D02*
X135618390Y-68651475D01*
X135618390Y-68651475D02*
X135666009Y-68699094D01*
X135666009Y-68699094D02*
X135761247Y-68746713D01*
X154579419Y-77966866D02*
X154103228Y-78300199D01*
X154579419Y-78538294D02*
X153579419Y-78538294D01*
X153579419Y-78538294D02*
X153579419Y-78157342D01*
X153579419Y-78157342D02*
X153627038Y-78062104D01*
X153627038Y-78062104D02*
X153674657Y-78014485D01*
X153674657Y-78014485D02*
X153769895Y-77966866D01*
X153769895Y-77966866D02*
X153912752Y-77966866D01*
X153912752Y-77966866D02*
X154007990Y-78014485D01*
X154007990Y-78014485D02*
X154055609Y-78062104D01*
X154055609Y-78062104D02*
X154103228Y-78157342D01*
X154103228Y-78157342D02*
X154103228Y-78538294D01*
X153579419Y-77062104D02*
X153579419Y-77538294D01*
X153579419Y-77538294D02*
X154055609Y-77585913D01*
X154055609Y-77585913D02*
X154007990Y-77538294D01*
X154007990Y-77538294D02*
X153960371Y-77443056D01*
X153960371Y-77443056D02*
X153960371Y-77204961D01*
X153960371Y-77204961D02*
X154007990Y-77109723D01*
X154007990Y-77109723D02*
X154055609Y-77062104D01*
X154055609Y-77062104D02*
X154150847Y-77014485D01*
X154150847Y-77014485D02*
X154388942Y-77014485D01*
X154388942Y-77014485D02*
X154484180Y-77062104D01*
X154484180Y-77062104D02*
X154531800Y-77109723D01*
X154531800Y-77109723D02*
X154579419Y-77204961D01*
X154579419Y-77204961D02*
X154579419Y-77443056D01*
X154579419Y-77443056D02*
X154531800Y-77538294D01*
X154531800Y-77538294D02*
X154484180Y-77585913D01*
D13*
%TO.C,U5*%
X122440000Y-74414000D02*
G75*
G03*
X125440000Y-77414000I3000001J1D01*
G01*
X184440000Y-77414000D02*
G75*
G03*
X187440000Y-74414000I1J2999999D01*
G01*
X187440000Y-50414000D02*
G75*
G03*
X184440000Y-47414000I-2999999J1D01*
G01*
X125440000Y-47414000D02*
G75*
G03*
X122440000Y-50414000I0J-3000000D01*
G01*
X187440000Y-50414000D02*
X187440000Y-74414000D01*
X184440000Y-77414000D02*
X125440000Y-77414000D01*
X171940000Y-47414000D02*
X180290000Y-47414000D01*
X159340000Y-47414000D02*
X167690000Y-47414000D01*
X125440000Y-47414000D02*
X184440000Y-47414000D01*
X122440000Y-74414000D02*
X122440000Y-50414000D01*
D14*
%TO.C,C8*%
X184765733Y-101090000D02*
X185058267Y-101090000D01*
X184765733Y-102110000D02*
X185058267Y-102110000D01*
%TO.C,R1*%
X183107064Y-97255000D02*
X182652936Y-97255000D01*
X183107064Y-95785000D02*
X182652936Y-95785000D01*
%TO.C,R14*%
X178857580Y-85533346D02*
X178497346Y-85893580D01*
X178118654Y-84794420D02*
X177758420Y-85154654D01*
%TO.C,C2*%
X158819934Y-86796949D02*
X158983749Y-86633134D01*
X159329051Y-87306066D02*
X159492866Y-87142251D01*
%TO.C,R2*%
X178741400Y-99312464D02*
X178741400Y-98858336D01*
X180211400Y-99312464D02*
X180211400Y-98858336D01*
%TO.C,J6*%
X198153800Y-94310000D02*
X200653800Y-94310000D01*
X200653800Y-94310000D02*
X200653800Y-91810000D01*
X196333800Y-94010000D02*
X200353800Y-94010000D01*
X198043800Y-94010000D02*
X198043800Y-93510000D01*
X198853800Y-94010000D02*
X198853800Y-93010000D01*
X200353800Y-94010000D02*
X200353800Y-83790000D01*
X196833800Y-93510000D02*
X196833800Y-84290000D01*
X198043800Y-93510000D02*
X196833800Y-93510000D01*
X198853800Y-93010000D02*
X200353800Y-93010000D01*
X198853800Y-84790000D02*
X200353800Y-84790000D01*
X196833800Y-84290000D02*
X198043800Y-84290000D01*
X198043800Y-84290000D02*
X198043800Y-83790000D01*
X196333800Y-83790000D02*
X196333800Y-94010000D01*
X198853800Y-83790000D02*
X198853800Y-84790000D01*
X200353800Y-83790000D02*
X196333800Y-83790000D01*
%TO.C,FB2*%
X154178871Y-91225880D02*
X154421080Y-90983671D01*
X154900120Y-91947129D02*
X155142329Y-91704920D01*
D13*
%TO.C,U7*%
X186010000Y-90185000D02*
X189910000Y-90185000D01*
X186010000Y-95235000D02*
X189910000Y-95235000D01*
D11*
X184020000Y-90405000D02*
G75*
G03*
X184020000Y-90405000I-100000J0D01*
G01*
D14*
%TO.C,FB1*%
X182713733Y-98550000D02*
X183056267Y-98550000D01*
X182713733Y-99570000D02*
X183056267Y-99570000D01*
%TO.C,C10*%
X138437500Y-95479300D02*
X139225000Y-95479300D01*
X138831250Y-95085550D02*
X138831250Y-95873050D01*
X139465000Y-94981237D02*
X139465000Y-96266800D01*
X139465000Y-94981237D02*
X140529437Y-93916800D01*
X139465000Y-99672363D02*
X139465000Y-98386800D01*
X139465000Y-99672363D02*
X140529437Y-100736800D01*
X140529437Y-93916800D02*
X146285000Y-93916800D01*
X140529437Y-100736800D02*
X146285000Y-100736800D01*
X146285000Y-93916800D02*
X146285000Y-96266800D01*
X146285000Y-100736800D02*
X146285000Y-98386800D01*
D13*
%TO.C,S1*%
X112620000Y-65350000D02*
X93620000Y-65350000D01*
X112620000Y-49950000D02*
X112620000Y-65350000D01*
X93620000Y-65350000D02*
X93620000Y-49950000D01*
X93620000Y-49950000D02*
X112620000Y-49950000D01*
D11*
X113470000Y-57650000D02*
G75*
G03*
X113470000Y-57650000I-100000J0D01*
G01*
D14*
%TO.C,J11*%
X197930000Y-82900000D02*
X200430000Y-82900000D01*
X200430000Y-82900000D02*
X200430000Y-80400000D01*
X196110000Y-82600000D02*
X200130000Y-82600000D01*
X197820000Y-82600000D02*
X197820000Y-82100000D01*
X198630000Y-82600000D02*
X198630000Y-81600000D01*
X200130000Y-82600000D02*
X200130000Y-74880000D01*
X196610000Y-82100000D02*
X196610000Y-75380000D01*
X197820000Y-82100000D02*
X196610000Y-82100000D01*
X198630000Y-81600000D02*
X200130000Y-81600000D01*
X198630000Y-75880000D02*
X200130000Y-75880000D01*
X196610000Y-75380000D02*
X197820000Y-75380000D01*
X197820000Y-75380000D02*
X197820000Y-74880000D01*
X196110000Y-74880000D02*
X196110000Y-82600000D01*
X198630000Y-74880000D02*
X198630000Y-75880000D01*
X200130000Y-74880000D02*
X196110000Y-74880000D01*
D13*
%TO.C,U9*%
X193008000Y-64648000D02*
X193008000Y-68648000D01*
X187968000Y-64648000D02*
X187968000Y-68648000D01*
D11*
X193083000Y-62203000D02*
G75*
G03*
X193083000Y-62203000I-100000J0D01*
G01*
D14*
%TO.C,C3*%
X157410066Y-89072651D02*
X157246251Y-89236466D01*
X156900949Y-88563534D02*
X156737134Y-88727349D01*
%TO.C,C7*%
X159592990Y-98482543D02*
X159962457Y-98852010D01*
X158553543Y-99521990D02*
X158923010Y-99891457D01*
%TO.C,J3*%
X84812000Y-65760500D02*
X84812000Y-63760500D01*
X86062000Y-65760500D02*
X84812000Y-65760500D01*
X85202000Y-65370500D02*
X92672000Y-65370500D01*
X92672000Y-65370500D02*
X92672000Y-54990500D01*
X86162000Y-64220500D02*
X86162000Y-61220500D01*
X87512000Y-64220500D02*
X87512000Y-63470500D01*
X91812000Y-64220500D02*
X87512000Y-64220500D01*
X87162000Y-63970500D02*
X86162000Y-64220500D01*
X87162000Y-63470500D02*
X87162000Y-63970500D01*
X87512000Y-63470500D02*
X87162000Y-63470500D01*
X91812000Y-63470500D02*
X91812000Y-64220500D01*
X87162000Y-61970500D02*
X87512000Y-61970500D01*
X87512000Y-61970500D02*
X87512000Y-61220500D01*
X87162000Y-61470500D02*
X87162000Y-61970500D01*
X86162000Y-61220500D02*
X87162000Y-61470500D01*
X87512000Y-61220500D02*
X91812000Y-61220500D01*
X91812000Y-61220500D02*
X91812000Y-61970500D01*
X86162000Y-59140500D02*
X86162000Y-56140500D01*
X87512000Y-59140500D02*
X87512000Y-58390500D01*
X91812000Y-59140500D02*
X87512000Y-59140500D01*
X87162000Y-58890500D02*
X86162000Y-59140500D01*
X87162000Y-58390500D02*
X87162000Y-58890500D01*
X87512000Y-58390500D02*
X87162000Y-58390500D01*
X91812000Y-58390500D02*
X91812000Y-59140500D01*
X87162000Y-56890500D02*
X87512000Y-56890500D01*
X87512000Y-56890500D02*
X87512000Y-56140500D01*
X87162000Y-56390500D02*
X87162000Y-56890500D01*
X86162000Y-56140500D02*
X87162000Y-56390500D01*
X87512000Y-56140500D02*
X91812000Y-56140500D01*
X91812000Y-56140500D02*
X91812000Y-56890500D01*
X85202000Y-54990500D02*
X85202000Y-65370500D01*
X92672000Y-54990500D02*
X85202000Y-54990500D01*
X91811845Y-61970853D02*
G75*
G03*
X91812000Y-63470500I1700155J-749647D01*
G01*
X91811845Y-56890853D02*
G75*
G03*
X91812000Y-58390500I1700155J-749647D01*
G01*
%TO.C,R13*%
X177590801Y-84507726D02*
X177236909Y-84874192D01*
X176839091Y-83781808D02*
X176485199Y-84148274D01*
%TO.C,C11*%
X147936833Y-93520800D02*
X148229367Y-93520800D01*
X147936833Y-94540800D02*
X148229367Y-94540800D01*
%TO.C,R9*%
X120369000Y-63603136D02*
X120369000Y-64057264D01*
X118899000Y-63603136D02*
X118899000Y-64057264D01*
%TO.C,C4*%
X165153998Y-86505549D02*
X165360851Y-86712402D01*
X164432749Y-87226798D02*
X164639602Y-87433651D01*
%TO.C,J1*%
X198280800Y-109154400D02*
X200780800Y-109154400D01*
X200780800Y-109154400D02*
X200780800Y-106654400D01*
X196460800Y-108854400D02*
X200480800Y-108854400D01*
X198170800Y-108854400D02*
X198170800Y-108354400D01*
X198980800Y-108854400D02*
X198980800Y-107854400D01*
X200480800Y-108854400D02*
X200480800Y-96134400D01*
X196960800Y-108354400D02*
X196960800Y-96634400D01*
X198170800Y-108354400D02*
X196960800Y-108354400D01*
X198980800Y-107854400D02*
X200480800Y-107854400D01*
X198980800Y-97134400D02*
X200480800Y-97134400D01*
X196960800Y-96634400D02*
X198170800Y-96634400D01*
X198170800Y-96634400D02*
X198170800Y-96134400D01*
X196460800Y-96134400D02*
X196460800Y-108854400D01*
X198980800Y-96134400D02*
X198980800Y-97134400D01*
X200480800Y-96134400D02*
X196460800Y-96134400D01*
%TO.C,J10*%
X197722000Y-74284000D02*
X200222000Y-74284000D01*
X200222000Y-74284000D02*
X200222000Y-71784000D01*
X195902000Y-73984000D02*
X199922000Y-73984000D01*
X197612000Y-73984000D02*
X197612000Y-73484000D01*
X198422000Y-73984000D02*
X198422000Y-72984000D01*
X199922000Y-73984000D02*
X199922000Y-66264000D01*
X196402000Y-73484000D02*
X196402000Y-66764000D01*
X197612000Y-73484000D02*
X196402000Y-73484000D01*
X198422000Y-72984000D02*
X199922000Y-72984000D01*
X198422000Y-67264000D02*
X199922000Y-67264000D01*
X196402000Y-66764000D02*
X197612000Y-66764000D01*
X197612000Y-66764000D02*
X197612000Y-66264000D01*
X195902000Y-66264000D02*
X195902000Y-73984000D01*
X198422000Y-66264000D02*
X198422000Y-67264000D01*
X199922000Y-66264000D02*
X195902000Y-66264000D01*
%TO.C,Q1*%
X117058000Y-59436000D02*
X117058000Y-61111000D01*
X117058000Y-59436000D02*
X117058000Y-58786000D01*
X120178000Y-59436000D02*
X120178000Y-60086000D01*
X120178000Y-59436000D02*
X120178000Y-58786000D01*
%TO.C,C1*%
X162033451Y-87379198D02*
X161826598Y-87586051D01*
X161312202Y-86657949D02*
X161105349Y-86864802D01*
%TO.C,R7*%
X186792324Y-89574900D02*
X186282876Y-89574900D01*
X186792324Y-88529900D02*
X186282876Y-88529900D01*
%TO.C,C6*%
X171025051Y-93652998D02*
X170818198Y-93859851D01*
X170303802Y-92931749D02*
X170096949Y-93138602D01*
%TO.C,J4*%
X197570000Y-65580000D02*
X200070000Y-65580000D01*
X200070000Y-65580000D02*
X200070000Y-63080000D01*
X195750000Y-65280000D02*
X199770000Y-65280000D01*
X197460000Y-65280000D02*
X197460000Y-64780000D01*
X198270000Y-65280000D02*
X198270000Y-64280000D01*
X199770000Y-65280000D02*
X199770000Y-57560000D01*
X196250000Y-64780000D02*
X196250000Y-58060000D01*
X197460000Y-64780000D02*
X196250000Y-64780000D01*
X198270000Y-64280000D02*
X199770000Y-64280000D01*
X198270000Y-58560000D02*
X199770000Y-58560000D01*
X196250000Y-58060000D02*
X197460000Y-58060000D01*
X197460000Y-58060000D02*
X197460000Y-57560000D01*
X195750000Y-57560000D02*
X195750000Y-65280000D01*
X198270000Y-57560000D02*
X198270000Y-58560000D01*
X199770000Y-57560000D02*
X195750000Y-57560000D01*
%TO.C,G\u002A\u002A\u002A*%
G36*
X123413972Y-77247091D02*
G01*
X123751853Y-77312028D01*
X124063348Y-77429582D01*
X124337399Y-77595760D01*
X124562945Y-77806568D01*
X124706347Y-78014332D01*
X124844151Y-78336585D01*
X124913952Y-78678757D01*
X124925098Y-78897935D01*
X124891172Y-79262479D01*
X124790118Y-79589803D01*
X124624940Y-79875576D01*
X124398642Y-80115466D01*
X124114231Y-80305143D01*
X123877982Y-80407196D01*
X123660977Y-80461785D01*
X123399540Y-80495061D01*
X123124429Y-80505632D01*
X122866400Y-80492103D01*
X122685848Y-80461220D01*
X122345827Y-80343120D01*
X122055211Y-80176399D01*
X121821337Y-79966207D01*
X121666260Y-79745653D01*
X121528433Y-79419610D01*
X121457506Y-79080568D01*
X121453925Y-78860099D01*
X122890431Y-78860099D01*
X122923548Y-78990836D01*
X123009654Y-79085706D01*
X123128880Y-79137459D01*
X123261360Y-79138844D01*
X123387226Y-79082608D01*
X123420562Y-79053582D01*
X123501256Y-78929032D01*
X123504368Y-78796328D01*
X123435511Y-78665710D01*
X123327540Y-78581908D01*
X123200111Y-78558509D01*
X123073293Y-78588354D01*
X122967157Y-78664287D01*
X122901773Y-78779150D01*
X122890431Y-78860099D01*
X121453925Y-78860099D01*
X121451979Y-78740323D01*
X121510351Y-78410671D01*
X121631123Y-78103410D01*
X121812796Y-77830334D01*
X121924942Y-77711303D01*
X122146548Y-77527099D01*
X122372160Y-77398571D01*
X122633933Y-77308355D01*
X122703298Y-77291044D01*
X123060767Y-77238765D01*
X123413972Y-77247091D01*
G37*
G36*
X97266154Y-77062080D02*
G01*
X97480606Y-77194350D01*
X97648815Y-77307983D01*
X97762900Y-77397321D01*
X97814652Y-77455965D01*
X97830315Y-77506091D01*
X97820439Y-77555139D01*
X97775790Y-77618055D01*
X97687132Y-77709789D01*
X97615003Y-77779143D01*
X97471536Y-77926893D01*
X97391102Y-78047832D01*
X97372199Y-78159448D01*
X97413329Y-78279229D01*
X97512989Y-78424661D01*
X97555109Y-78477170D01*
X97762826Y-78777959D01*
X97893566Y-79074834D01*
X97948629Y-79363260D01*
X97929309Y-79638703D01*
X97836904Y-79896627D01*
X97672710Y-80132497D01*
X97438024Y-80341779D01*
X97134142Y-80519938D01*
X96948426Y-80599073D01*
X96759055Y-80671028D01*
X96508333Y-80539746D01*
X96205556Y-80379411D01*
X95967575Y-80249026D01*
X95788496Y-80144930D01*
X95662428Y-80063460D01*
X95583476Y-80000952D01*
X95545748Y-79953745D01*
X95540901Y-79938476D01*
X95555947Y-79813212D01*
X95642218Y-79718016D01*
X95760149Y-79665524D01*
X95942645Y-79582993D01*
X96064402Y-79466435D01*
X96118489Y-79323145D01*
X96120632Y-79285922D01*
X96116638Y-79199421D01*
X96099075Y-79122836D01*
X96059572Y-79039358D01*
X95989756Y-78932181D01*
X95881256Y-78784499D01*
X95850693Y-78744019D01*
X95686314Y-78501055D01*
X95584572Y-78285169D01*
X95540610Y-78083799D01*
X95541636Y-77944538D01*
X95605649Y-77677193D01*
X95740789Y-77427470D01*
X95940660Y-77202165D01*
X96198869Y-77008077D01*
X96509018Y-76852003D01*
X96602838Y-76816555D01*
X96759990Y-76761108D01*
X97266154Y-77062080D01*
G37*
G36*
X114733653Y-76759722D02*
G01*
X114779905Y-76783766D01*
X114837991Y-76844544D01*
X114919129Y-76955859D01*
X115015029Y-77103211D01*
X115117400Y-77272100D01*
X115217952Y-77448026D01*
X115308394Y-77616490D01*
X115380437Y-77762991D01*
X115425790Y-77873030D01*
X115436276Y-77931766D01*
X115382824Y-77993724D01*
X115258743Y-78057153D01*
X115156406Y-78094421D01*
X114920620Y-78196471D01*
X114744050Y-78323415D01*
X114632900Y-78469332D01*
X114593376Y-78628301D01*
X114593359Y-78631753D01*
X114601774Y-78734635D01*
X114637669Y-78813066D01*
X114717022Y-78896454D01*
X114755414Y-78930026D01*
X114894146Y-79027093D01*
X115054858Y-79109973D01*
X115117433Y-79133789D01*
X115306893Y-79210984D01*
X115418748Y-79294184D01*
X115453544Y-79380750D01*
X115436301Y-79453338D01*
X115390563Y-79575587D01*
X115323614Y-79732470D01*
X115242735Y-79908964D01*
X115155209Y-80090040D01*
X115068316Y-80260674D01*
X114989339Y-80405839D01*
X114925559Y-80510509D01*
X114884260Y-80559659D01*
X114881588Y-80560963D01*
X114809129Y-80565076D01*
X114686134Y-80550643D01*
X114537292Y-80520744D01*
X114514393Y-80515148D01*
X114149437Y-80397233D01*
X113802521Y-80234556D01*
X113488408Y-80036509D01*
X113221863Y-79812479D01*
X113017651Y-79571857D01*
X113007603Y-79556946D01*
X112838058Y-79238741D01*
X112743905Y-78914358D01*
X112723172Y-78589500D01*
X112773883Y-78269873D01*
X112894066Y-77961181D01*
X113081745Y-77669129D01*
X113334947Y-77399421D01*
X113651698Y-77157762D01*
X113884995Y-77021433D01*
X114066049Y-76936985D01*
X114271915Y-76856555D01*
X114423976Y-76807605D01*
X114574116Y-76768776D01*
X114670502Y-76753274D01*
X114733653Y-76759722D01*
G37*
G36*
X120442577Y-77214641D02*
G01*
X120563449Y-77272536D01*
X120713835Y-77356422D01*
X120877140Y-77455867D01*
X121036772Y-77560437D01*
X121176137Y-77659699D01*
X121278642Y-77743220D01*
X121324946Y-77794994D01*
X121352736Y-77851243D01*
X121353749Y-77896923D01*
X121318876Y-77949624D01*
X121239008Y-78026934D01*
X121175329Y-78083892D01*
X121037575Y-78223609D01*
X120969082Y-78345160D01*
X120968120Y-78463359D01*
X121032962Y-78593017D01*
X121105155Y-78685308D01*
X121301190Y-78960750D01*
X121421239Y-79235753D01*
X121466346Y-79504768D01*
X121437549Y-79762249D01*
X121335891Y-80002647D01*
X121162413Y-80220414D01*
X120918154Y-80410003D01*
X120765700Y-80494533D01*
X120621792Y-80561066D01*
X120497182Y-80610501D01*
X120414065Y-80634249D01*
X120402304Y-80635164D01*
X120342614Y-80616202D01*
X120229206Y-80565180D01*
X120076251Y-80488998D01*
X119897918Y-80394555D01*
X119818166Y-80350719D01*
X119620918Y-80240085D01*
X119482346Y-80158475D01*
X119392183Y-80097849D01*
X119340162Y-80050165D01*
X119316018Y-80007384D01*
X119309482Y-79961465D01*
X119309384Y-79952265D01*
X119317906Y-79884438D01*
X119354022Y-79830648D01*
X119433557Y-79774662D01*
X119537616Y-79718143D01*
X119662020Y-79646266D01*
X119759382Y-79576646D01*
X119804573Y-79529738D01*
X119828193Y-79430427D01*
X119799153Y-79304430D01*
X119714530Y-79144110D01*
X119587662Y-78963153D01*
X119420242Y-78707553D01*
X119324441Y-78475814D01*
X119298783Y-78263809D01*
X119308021Y-78182564D01*
X119376372Y-77971765D01*
X119494636Y-77758461D01*
X119643048Y-77575807D01*
X119701225Y-77522975D01*
X119833189Y-77428832D01*
X119989803Y-77337521D01*
X120148204Y-77260357D01*
X120285525Y-77208652D01*
X120367809Y-77193171D01*
X120442577Y-77214641D01*
G37*
G36*
X111677265Y-77232172D02*
G01*
X111962316Y-77233194D01*
X112185488Y-77235423D01*
X112354977Y-77239288D01*
X112478981Y-77245217D01*
X112565698Y-77253640D01*
X112623323Y-77264986D01*
X112660055Y-77279684D01*
X112684090Y-77298164D01*
X112689142Y-77303498D01*
X112740136Y-77389530D01*
X112753205Y-77450262D01*
X112743499Y-77543049D01*
X112718398Y-77683097D01*
X112682134Y-77853361D01*
X112638937Y-78036796D01*
X112593039Y-78216357D01*
X112548669Y-78374998D01*
X112510061Y-78495674D01*
X112481443Y-78561339D01*
X112475883Y-78567490D01*
X112408951Y-78583283D01*
X112293644Y-78586077D01*
X112196209Y-78579272D01*
X111971171Y-78554903D01*
X111971171Y-79496660D01*
X111970857Y-79792619D01*
X111969423Y-80019901D01*
X111966130Y-80188100D01*
X111960236Y-80306813D01*
X111951005Y-80385635D01*
X111937694Y-80434161D01*
X111919566Y-80461988D01*
X111895881Y-80478711D01*
X111895470Y-80478931D01*
X111829585Y-80493572D01*
X111699903Y-80505704D01*
X111520882Y-80514468D01*
X111306981Y-80519006D01*
X111213365Y-80519445D01*
X110969154Y-80517910D01*
X110792084Y-80512669D01*
X110671068Y-80502768D01*
X110595021Y-80487252D01*
X110552858Y-80465168D01*
X110549854Y-80462337D01*
X110531620Y-80433209D01*
X110518347Y-80381250D01*
X110509694Y-80297110D01*
X110505319Y-80171440D01*
X110504879Y-79994889D01*
X110508032Y-79758108D01*
X110513845Y-79477651D01*
X110534946Y-78550073D01*
X110216019Y-78574667D01*
X110059592Y-78584581D01*
X109946250Y-78579924D01*
X109870446Y-78550695D01*
X109826634Y-78486895D01*
X109809269Y-78378523D01*
X109812804Y-78215580D01*
X109831695Y-77988065D01*
X109840340Y-77897257D01*
X109859057Y-77703777D01*
X109875100Y-77541045D01*
X109887023Y-77423479D01*
X109893384Y-77365495D01*
X109893963Y-77361917D01*
X109920209Y-77332472D01*
X109958404Y-77293427D01*
X109983629Y-77276473D01*
X110027089Y-77262887D01*
X110096739Y-77252312D01*
X110200533Y-77244388D01*
X110346427Y-77238758D01*
X110542374Y-77235061D01*
X110796330Y-77232940D01*
X111116249Y-77232035D01*
X111322138Y-77231926D01*
X111677265Y-77232172D01*
G37*
G36*
X117344932Y-77233461D02*
G01*
X117503342Y-77237802D01*
X117609803Y-77247007D01*
X117677467Y-77262531D01*
X117719483Y-77285829D01*
X117734595Y-77300416D01*
X117764438Y-77350055D01*
X117822281Y-77460832D01*
X117903828Y-77623657D01*
X118004789Y-77829443D01*
X118120867Y-78069102D01*
X118247771Y-78333543D01*
X118381207Y-78613680D01*
X118516881Y-78900425D01*
X118650499Y-79184687D01*
X118777768Y-79457380D01*
X118894395Y-79709414D01*
X118996085Y-79931702D01*
X119078547Y-80115155D01*
X119137485Y-80250685D01*
X119168606Y-80329202D01*
X119172404Y-80343919D01*
X119146766Y-80412159D01*
X119110902Y-80457944D01*
X119074363Y-80481879D01*
X119012380Y-80498907D01*
X118913187Y-80510092D01*
X118765016Y-80516492D01*
X118556099Y-80519171D01*
X118428798Y-80519445D01*
X118181850Y-80518875D01*
X118000702Y-80514150D01*
X117872882Y-80500751D01*
X117785918Y-80474157D01*
X117727335Y-80429848D01*
X117684663Y-80363303D01*
X117645427Y-80270003D01*
X117630125Y-80229997D01*
X117561307Y-80049800D01*
X117178490Y-80049800D01*
X116795673Y-80049800D01*
X116726871Y-80235701D01*
X116674776Y-80354079D01*
X116620180Y-80444741D01*
X116596662Y-80470524D01*
X116534375Y-80492902D01*
X116409375Y-80508236D01*
X116216402Y-80516939D01*
X115975247Y-80519445D01*
X115752185Y-80518523D01*
X115593705Y-80514640D01*
X115486121Y-80506124D01*
X115415751Y-80491300D01*
X115368913Y-80468496D01*
X115337209Y-80441416D01*
X115317030Y-80424421D01*
X115299875Y-80411193D01*
X115287835Y-80395382D01*
X115283001Y-80370642D01*
X115287465Y-80330623D01*
X115303316Y-80268978D01*
X115332648Y-80179357D01*
X115377550Y-80055414D01*
X115440113Y-79890799D01*
X115522430Y-79679165D01*
X115626590Y-79414164D01*
X115754686Y-79089446D01*
X115908808Y-78698664D01*
X115923871Y-78660432D01*
X116061834Y-78310518D01*
X116174309Y-78026338D01*
X116264373Y-77800752D01*
X116335106Y-77626619D01*
X116389584Y-77496797D01*
X116430886Y-77404146D01*
X116462090Y-77341525D01*
X116486274Y-77301793D01*
X116506517Y-77277809D01*
X116525896Y-77262432D01*
X116526722Y-77261878D01*
X116579714Y-77251452D01*
X116695531Y-77242624D01*
X116858728Y-77236157D01*
X117053861Y-77232813D01*
X117121423Y-77232525D01*
X117344932Y-77233461D01*
G37*
G36*
X107274564Y-77232092D02*
G01*
X107349271Y-77232223D01*
X107748920Y-77234999D01*
X108078557Y-77243600D01*
X108346287Y-77258920D01*
X108560214Y-77281852D01*
X108728445Y-77313289D01*
X108859086Y-77354125D01*
X108960242Y-77405253D01*
X108968665Y-77410712D01*
X109245533Y-77626454D01*
X109446316Y-77855642D01*
X109570657Y-78096182D01*
X109618199Y-78345978D01*
X109588585Y-78602935D01*
X109481459Y-78864957D01*
X109296462Y-79129950D01*
X109267245Y-79163861D01*
X109110712Y-79341691D01*
X109189091Y-79495327D01*
X109249216Y-79597894D01*
X109341000Y-79737091D01*
X109447774Y-79887970D01*
X109484344Y-79937248D01*
X109604155Y-80102243D01*
X109674700Y-80223681D01*
X109691014Y-80310667D01*
X109648136Y-80372308D01*
X109541103Y-80417709D01*
X109364951Y-80455977D01*
X109185652Y-80485294D01*
X108931031Y-80523216D01*
X108740838Y-80546328D01*
X108602545Y-80554119D01*
X108503623Y-80546077D01*
X108431543Y-80521692D01*
X108373777Y-80480452D01*
X108344087Y-80450955D01*
X108270696Y-80366738D01*
X108170813Y-80244443D01*
X108064609Y-80108836D01*
X108052428Y-80092885D01*
X107861772Y-79842441D01*
X107861772Y-80102669D01*
X107858322Y-80251512D01*
X107840856Y-80359949D01*
X107798699Y-80434362D01*
X107721176Y-80481134D01*
X107597611Y-80506650D01*
X107417330Y-80517293D01*
X107169657Y-80519445D01*
X107164784Y-80519445D01*
X106913941Y-80516544D01*
X106733574Y-80507413D01*
X106616081Y-80491414D01*
X106554155Y-80468122D01*
X106531611Y-80446063D01*
X106514584Y-80410615D01*
X106502403Y-80351881D01*
X106494398Y-80259962D01*
X106489898Y-80124959D01*
X106488233Y-79936973D01*
X106488734Y-79686107D01*
X106489697Y-79516344D01*
X106489284Y-79209472D01*
X106484761Y-78883514D01*
X106479750Y-78682800D01*
X107890006Y-78682800D01*
X107901383Y-78725195D01*
X107935375Y-78721220D01*
X107948933Y-78714383D01*
X108024482Y-78649459D01*
X108055738Y-78604939D01*
X108072688Y-78529774D01*
X108046851Y-78494518D01*
X107965773Y-78439978D01*
X107922195Y-78443424D01*
X107901579Y-78512889D01*
X107895056Y-78578420D01*
X107890006Y-78682800D01*
X106479750Y-78682800D01*
X106476734Y-78562025D01*
X106465810Y-78268560D01*
X106452594Y-78026676D01*
X106450703Y-77999745D01*
X106431981Y-77759606D01*
X106420803Y-77575279D01*
X106425751Y-77439435D01*
X106455405Y-77344745D01*
X106518344Y-77283879D01*
X106623150Y-77249511D01*
X106778401Y-77234309D01*
X106992679Y-77230946D01*
X107274564Y-77232092D01*
G37*
G36*
X99608173Y-77232456D02*
G01*
X99756950Y-77251397D01*
X99859196Y-77281277D01*
X99886507Y-77300416D01*
X99924392Y-77361190D01*
X99984769Y-77477979D01*
X100059709Y-77634678D01*
X100141281Y-77815183D01*
X100151520Y-77838552D01*
X100230495Y-78016698D01*
X100300372Y-78169226D01*
X100354280Y-78281498D01*
X100385350Y-78338873D01*
X100387799Y-78342043D01*
X100414999Y-78320660D01*
X100470214Y-78239861D01*
X100546922Y-78110475D01*
X100638599Y-77943327D01*
X100706125Y-77813691D01*
X100993205Y-77251495D01*
X101447285Y-77240518D01*
X101649737Y-77237368D01*
X101788156Y-77240434D01*
X101876639Y-77251151D01*
X101929279Y-77270953D01*
X101953186Y-77291983D01*
X101975449Y-77351287D01*
X102003574Y-77476271D01*
X102035346Y-77654757D01*
X102068550Y-77874567D01*
X102093929Y-78066133D01*
X102144071Y-78438382D01*
X102200911Y-78810619D01*
X102261692Y-79167583D01*
X102323656Y-79494013D01*
X102384049Y-79774648D01*
X102440111Y-79994228D01*
X102445659Y-80013204D01*
X102508590Y-80225117D01*
X102733677Y-79658028D01*
X102817174Y-79447325D01*
X102921112Y-79184510D01*
X103037303Y-78890321D01*
X103157557Y-78585497D01*
X103273685Y-78290776D01*
X103302684Y-78217113D01*
X103401593Y-77969276D01*
X103494072Y-77744050D01*
X103575450Y-77552298D01*
X103641057Y-77404885D01*
X103686221Y-77312675D01*
X103702284Y-77287606D01*
X103744545Y-77264213D01*
X103824071Y-77247959D01*
X103951866Y-77237846D01*
X104138932Y-77232878D01*
X104316591Y-77231926D01*
X104541675Y-77233084D01*
X104701555Y-77237519D01*
X104809282Y-77246671D01*
X104877903Y-77261982D01*
X104920469Y-77284893D01*
X104936753Y-77300416D01*
X104966596Y-77350055D01*
X105024438Y-77460832D01*
X105105986Y-77623657D01*
X105206946Y-77829443D01*
X105323025Y-78069102D01*
X105449929Y-78333543D01*
X105583364Y-78613680D01*
X105719038Y-78900425D01*
X105852656Y-79184687D01*
X105979925Y-79457380D01*
X106096552Y-79709414D01*
X106198243Y-79931702D01*
X106280704Y-80115155D01*
X106339642Y-80250685D01*
X106370763Y-80329202D01*
X106374561Y-80343919D01*
X106348923Y-80412159D01*
X106313059Y-80457944D01*
X106276520Y-80481879D01*
X106214537Y-80498907D01*
X106115344Y-80510092D01*
X105967173Y-80516492D01*
X105758256Y-80519171D01*
X105630955Y-80519445D01*
X105384007Y-80518875D01*
X105202859Y-80514150D01*
X105075039Y-80500751D01*
X104988075Y-80474157D01*
X104929493Y-80429848D01*
X104886820Y-80363303D01*
X104847585Y-80270003D01*
X104832282Y-80229997D01*
X104763464Y-80049800D01*
X104379260Y-80049800D01*
X103995057Y-80049800D01*
X103923460Y-80248904D01*
X103870368Y-80368469D01*
X103812408Y-80457758D01*
X103781389Y-80485725D01*
X103715993Y-80498819D01*
X103586440Y-80507140D01*
X103406730Y-80510243D01*
X103190862Y-80507687D01*
X103134803Y-80506170D01*
X102928600Y-80500082D01*
X102749564Y-80494974D01*
X102612605Y-80491258D01*
X102532635Y-80489345D01*
X102519553Y-80489178D01*
X102469148Y-80490211D01*
X102354211Y-80492895D01*
X102188460Y-80496899D01*
X101985612Y-80501893D01*
X101815085Y-80506147D01*
X101552034Y-80511177D01*
X101357164Y-80510881D01*
X101220533Y-80504790D01*
X101132198Y-80492434D01*
X101082217Y-80473344D01*
X101079437Y-80471409D01*
X101031102Y-80402160D01*
X100982449Y-80273682D01*
X100949617Y-80146832D01*
X100917324Y-80002636D01*
X100889221Y-79884259D01*
X100871252Y-79816705D01*
X100870937Y-79815741D01*
X100842518Y-79817918D01*
X100780661Y-79884454D01*
X100689187Y-80010873D01*
X100637051Y-80089701D01*
X100540057Y-80235223D01*
X100452880Y-80358097D01*
X100387632Y-80441648D01*
X100363506Y-80466384D01*
X100295600Y-80497057D01*
X100224627Y-80480236D01*
X100143282Y-80409764D01*
X100044258Y-80279487D01*
X99932092Y-80102890D01*
X99840380Y-79957708D01*
X99761761Y-79845129D01*
X99705313Y-79777403D01*
X99681294Y-79764515D01*
X99659192Y-79815086D01*
X99625623Y-79920786D01*
X99587159Y-80060579D01*
X99579953Y-80088808D01*
X99538966Y-80245051D01*
X99498409Y-80358031D01*
X99445605Y-80434763D01*
X99367880Y-80482257D01*
X99252557Y-80507526D01*
X99086961Y-80517583D01*
X98858415Y-80519441D01*
X98801525Y-80519445D01*
X98575586Y-80518423D01*
X98414534Y-80514338D01*
X98304997Y-80505659D01*
X98233604Y-80490860D01*
X98186982Y-80468411D01*
X98160782Y-80446190D01*
X98142888Y-80425712D01*
X98130529Y-80399799D01*
X98125082Y-80361125D01*
X98127920Y-80302362D01*
X98140419Y-80216184D01*
X98163956Y-80095264D01*
X98199905Y-79932276D01*
X98249642Y-79719892D01*
X98314542Y-79450787D01*
X98395981Y-79117633D01*
X98456354Y-78871744D01*
X98544076Y-78519344D01*
X98626553Y-78196980D01*
X98701690Y-77912272D01*
X98767396Y-77672837D01*
X98821576Y-77486295D01*
X98862136Y-77360262D01*
X98886984Y-77302358D01*
X98887909Y-77301240D01*
X98960090Y-77265741D01*
X99088823Y-77241096D01*
X99253493Y-77227322D01*
X99433481Y-77224436D01*
X99608173Y-77232456D01*
G37*
%TO.C,C15*%
X186396600Y-65450267D02*
X186396600Y-65157733D01*
X187416600Y-65450267D02*
X187416600Y-65157733D01*
%TO.C,Y1*%
X158667010Y-86401868D02*
X156828532Y-84563390D01*
X156828532Y-84563390D02*
X154565790Y-86826132D01*
%TO.C,C5*%
X162175802Y-100032051D02*
X161968949Y-99825198D01*
X162897051Y-99310802D02*
X162690198Y-99103949D01*
%TO.C,J9*%
X177066000Y-90380000D02*
X177066000Y-91440000D01*
X176006000Y-90380000D02*
X177066000Y-90380000D01*
X175006000Y-90380000D02*
X172946000Y-90380000D01*
X175006000Y-90380000D02*
X175006000Y-92500000D01*
X172946000Y-90380000D02*
X172946000Y-92500000D01*
X175006000Y-92500000D02*
X172946000Y-92500000D01*
%TO.C,U1*%
X158444638Y-93270101D02*
X158780514Y-92934225D01*
X163885825Y-88500666D02*
X163549949Y-88164790D01*
X158780514Y-93605977D02*
X158444638Y-93270101D01*
X168319384Y-92934225D02*
X168655260Y-93270101D01*
X163214073Y-98039536D02*
X163549949Y-98375412D01*
X168655260Y-93270101D02*
X168319384Y-93605977D01*
X163549949Y-98375412D02*
X163885825Y-98039536D01*
%TO.C,C13*%
X182125233Y-88948800D02*
X182417767Y-88948800D01*
X182125233Y-89968800D02*
X182417767Y-89968800D01*
%TO.C,J2*%
X84741700Y-78866900D02*
X84741700Y-76866900D01*
X85991700Y-78866900D02*
X84741700Y-78866900D01*
X85131700Y-78476900D02*
X92601700Y-78476900D01*
X92601700Y-78476900D02*
X92601700Y-68096900D01*
X86091700Y-77326900D02*
X86091700Y-74326900D01*
X87441700Y-77326900D02*
X87441700Y-76576900D01*
X91741700Y-77326900D02*
X87441700Y-77326900D01*
X87091700Y-77076900D02*
X86091700Y-77326900D01*
X87091700Y-76576900D02*
X87091700Y-77076900D01*
X87441700Y-76576900D02*
X87091700Y-76576900D01*
X91741700Y-76576900D02*
X91741700Y-77326900D01*
X87091700Y-75076900D02*
X87441700Y-75076900D01*
X87441700Y-75076900D02*
X87441700Y-74326900D01*
X87091700Y-74576900D02*
X87091700Y-75076900D01*
X86091700Y-74326900D02*
X87091700Y-74576900D01*
X87441700Y-74326900D02*
X91741700Y-74326900D01*
X91741700Y-74326900D02*
X91741700Y-75076900D01*
X86091700Y-72246900D02*
X86091700Y-69246900D01*
X87441700Y-72246900D02*
X87441700Y-71496900D01*
X91741700Y-72246900D02*
X87441700Y-72246900D01*
X87091700Y-71996900D02*
X86091700Y-72246900D01*
X87091700Y-71496900D02*
X87091700Y-71996900D01*
X87441700Y-71496900D02*
X87091700Y-71496900D01*
X91741700Y-71496900D02*
X91741700Y-72246900D01*
X87091700Y-69996900D02*
X87441700Y-69996900D01*
X87441700Y-69996900D02*
X87441700Y-69246900D01*
X87091700Y-69496900D02*
X87091700Y-69996900D01*
X86091700Y-69246900D02*
X87091700Y-69496900D01*
X87441700Y-69246900D02*
X91741700Y-69246900D01*
X91741700Y-69246900D02*
X91741700Y-69996900D01*
X85131700Y-68096900D02*
X85131700Y-78476900D01*
X92601700Y-68096900D02*
X85131700Y-68096900D01*
X91741545Y-75077253D02*
G75*
G03*
X91741700Y-76576900I1700155J-749647D01*
G01*
X91741545Y-69997253D02*
G75*
G03*
X91741700Y-71496900I1700155J-749647D01*
G01*
%TO.C,C12*%
X151391233Y-93520800D02*
X151683767Y-93520800D01*
X151391233Y-94540800D02*
X151683767Y-94540800D01*
%TO.C,R8*%
X190881724Y-99328500D02*
X190372276Y-99328500D01*
X190881724Y-98283500D02*
X190372276Y-98283500D01*
%TO.C,J7*%
X163460000Y-106536000D02*
X163460000Y-109036000D01*
X163460000Y-109036000D02*
X165960000Y-109036000D01*
X163760000Y-104716000D02*
X163760000Y-108736000D01*
X163760000Y-106426000D02*
X164260000Y-106426000D01*
X163760000Y-107236000D02*
X164760000Y-107236000D01*
X163760000Y-108736000D02*
X178980000Y-108736000D01*
X164260000Y-105216000D02*
X178480000Y-105216000D01*
X164260000Y-106426000D02*
X164260000Y-105216000D01*
X164760000Y-107236000D02*
X164760000Y-108736000D01*
X177980000Y-107236000D02*
X177980000Y-108736000D01*
X178480000Y-105216000D02*
X178480000Y-106426000D01*
X178480000Y-106426000D02*
X178980000Y-106426000D01*
X178980000Y-104716000D02*
X163760000Y-104716000D01*
X178980000Y-107236000D02*
X177980000Y-107236000D01*
X178980000Y-108736000D02*
X178980000Y-104716000D01*
%TO.C,J5*%
X140640000Y-106586800D02*
X140640000Y-109086800D01*
X140640000Y-109086800D02*
X143140000Y-109086800D01*
X140940000Y-104766800D02*
X140940000Y-108786800D01*
X140940000Y-106476800D02*
X141440000Y-106476800D01*
X140940000Y-107286800D02*
X141940000Y-107286800D01*
X140940000Y-108786800D02*
X148660000Y-108786800D01*
X141440000Y-105266800D02*
X148160000Y-105266800D01*
X141440000Y-106476800D02*
X141440000Y-105266800D01*
X141940000Y-107286800D02*
X141940000Y-108786800D01*
X147660000Y-107286800D02*
X147660000Y-108786800D01*
X148160000Y-105266800D02*
X148160000Y-106476800D01*
X148160000Y-106476800D02*
X148660000Y-106476800D01*
X148660000Y-104766800D02*
X140940000Y-104766800D01*
X148660000Y-107286800D02*
X147660000Y-107286800D01*
X148660000Y-108786800D02*
X148660000Y-104766800D01*
%TO.C,C14*%
X187381933Y-95959200D02*
X187674467Y-95959200D01*
X187381933Y-96979200D02*
X187674467Y-96979200D01*
%TO.C,J8*%
X149610000Y-106536000D02*
X149610000Y-109036000D01*
X149610000Y-109036000D02*
X152110000Y-109036000D01*
X149910000Y-104716000D02*
X149910000Y-108736000D01*
X149910000Y-106426000D02*
X150410000Y-106426000D01*
X149910000Y-107236000D02*
X150910000Y-107236000D01*
X149910000Y-108736000D02*
X162630000Y-108736000D01*
X150410000Y-105216000D02*
X162130000Y-105216000D01*
X150410000Y-106426000D02*
X150410000Y-105216000D01*
X150910000Y-107236000D02*
X150910000Y-108736000D01*
X161630000Y-107236000D02*
X161630000Y-108736000D01*
X162130000Y-105216000D02*
X162130000Y-106426000D01*
X162130000Y-106426000D02*
X162630000Y-106426000D01*
X162630000Y-104716000D02*
X149910000Y-104716000D01*
X162630000Y-107236000D02*
X161630000Y-107236000D01*
X162630000Y-108736000D02*
X162630000Y-104716000D01*
%TO.C,U6*%
X181390000Y-85256800D02*
X181390000Y-87056800D01*
X184610000Y-87056800D02*
X184610000Y-84606800D01*
%TO.C,U3*%
X145140000Y-89670000D02*
X145610000Y-89670000D01*
X145610000Y-89670000D02*
X145610000Y-92500000D01*
X151570000Y-89670000D02*
X151570000Y-90770000D01*
X152040000Y-89670000D02*
X151570000Y-89670000D01*
X145140000Y-83250000D02*
X145140000Y-89670000D01*
X152040000Y-83250000D02*
X152040000Y-89670000D01*
%TO.C,R4*%
X176440000Y-99287064D02*
X176440000Y-98832936D01*
X177910000Y-99287064D02*
X177910000Y-98832936D01*
%TO.C,R12*%
X180923476Y-93584500D02*
X181432924Y-93584500D01*
X180923476Y-94629500D02*
X181432924Y-94629500D01*
%TO.C,D1*%
X113440200Y-48826800D02*
X113440200Y-51096800D01*
X113440200Y-51096800D02*
X117500200Y-51096800D01*
X117500200Y-48826800D02*
X113440200Y-48826800D01*
D13*
%TO.C,PS1*%
X85052000Y-81904000D02*
X137452000Y-81904000D01*
X85052000Y-109104000D02*
X85052000Y-81904000D01*
X137452000Y-81904000D02*
X137452000Y-109104000D01*
X137452000Y-109104000D02*
X85052000Y-109104000D01*
D14*
%TO.C,R3*%
X158984827Y-89100975D02*
X158747775Y-89338027D01*
X158447425Y-88563573D02*
X158210373Y-88800625D01*
%TO.C,D2*%
X114316000Y-59764000D02*
X116316000Y-59764000D01*
X114316000Y-59764000D02*
X114316000Y-55754000D01*
X116316000Y-59764000D02*
X116316000Y-55754000D01*
%TO.C,U2*%
X187960000Y-106115000D02*
X190885000Y-106115000D01*
X187960000Y-106115000D02*
X186460000Y-106115000D01*
X187960000Y-102895000D02*
X189460000Y-102895000D01*
X187960000Y-102895000D02*
X186460000Y-102895000D01*
%TO.C,R10*%
X118899000Y-51255664D02*
X118899000Y-50801536D01*
X120369000Y-51255664D02*
X120369000Y-50801536D01*
%TO.C,R11*%
X181432924Y-93105500D02*
X180923476Y-93105500D01*
X181432924Y-92060500D02*
X180923476Y-92060500D01*
%TO.C,R6*%
X136637500Y-69342724D02*
X136637500Y-68833276D01*
X137682500Y-69342724D02*
X137682500Y-68833276D01*
%TO.C,R5*%
X152131500Y-78232724D02*
X152131500Y-77723276D01*
X153176500Y-78232724D02*
X153176500Y-77723276D01*
%TO.C,C9*%
X158616734Y-90149749D02*
X158780549Y-89985934D01*
X159125851Y-90658866D02*
X159289666Y-90495051D01*
%TD*%
M02*
