%TF.GenerationSoftware,KiCad,Pcbnew,7.0.9*%
%TF.CreationDate,2024-10-09T10:00:48+02:00*%
%TF.ProjectId,_ramk_r V2,c172616d-6bf6-4722-9056-322e6b696361,rev?*%
%TF.SameCoordinates,Original*%
%TF.FileFunction,Paste,Top*%
%TF.FilePolarity,Positive*%
%FSLAX46Y46*%
G04 Gerber Fmt 4.6, Leading zero omitted, Abs format (unit mm)*
G04 Created by KiCad (PCBNEW 7.0.9) date 2024-10-09 10:00:48*
%MOMM*%
%LPD*%
G01*
G04 APERTURE LIST*
G04 Aperture macros list*
%AMRoundRect*
0 Rectangle with rounded corners*
0 $1 Rounding radius*
0 $2 $3 $4 $5 $6 $7 $8 $9 X,Y pos of 4 corners*
0 Add a 4 corners polygon primitive as box body*
4,1,4,$2,$3,$4,$5,$6,$7,$8,$9,$2,$3,0*
0 Add four circle primitives for the rounded corners*
1,1,$1+$1,$2,$3*
1,1,$1+$1,$4,$5*
1,1,$1+$1,$6,$7*
1,1,$1+$1,$8,$9*
0 Add four rect primitives between the rounded corners*
20,1,$1+$1,$2,$3,$4,$5,0*
20,1,$1+$1,$4,$5,$6,$7,0*
20,1,$1+$1,$6,$7,$8,$9,0*
20,1,$1+$1,$8,$9,$2,$3,0*%
%AMRotRect*
0 Rectangle, with rotation*
0 The origin of the aperture is its center*
0 $1 length*
0 $2 width*
0 $3 Rotation angle, in degrees counterclockwise*
0 Add horizontal line*
21,1,$1,$2,0,0,$3*%
G04 Aperture macros list end*
%ADD10RoundRect,0.237500X-0.300000X-0.237500X0.300000X-0.237500X0.300000X0.237500X-0.300000X0.237500X0*%
%ADD11RoundRect,0.250000X0.350000X0.450000X-0.350000X0.450000X-0.350000X-0.450000X0.350000X-0.450000X0*%
%ADD12RoundRect,0.237500X0.008839X0.344715X-0.344715X-0.008839X-0.008839X-0.344715X0.344715X0.008839X0*%
%ADD13RoundRect,0.155000X-0.040659X-0.259862X0.259862X0.040659X0.040659X0.259862X-0.259862X-0.040659X0*%
%ADD14RoundRect,0.250000X0.450000X-0.350000X0.450000X0.350000X-0.450000X0.350000X-0.450000X-0.350000X0*%
%ADD15RoundRect,0.237500X-0.035355X-0.371231X0.371231X0.035355X0.035355X0.371231X-0.371231X-0.035355X0*%
%ADD16RoundRect,0.075000X-0.910000X-0.225000X0.910000X-0.225000X0.910000X0.225000X-0.910000X0.225000X0*%
%ADD17RoundRect,0.237500X-0.287500X-0.237500X0.287500X-0.237500X0.287500X0.237500X-0.287500X0.237500X0*%
%ADD18RoundRect,0.250000X-1.500000X-0.550000X1.500000X-0.550000X1.500000X0.550000X-1.500000X0.550000X0*%
%ADD19RoundRect,0.073750X-0.221250X0.911250X-0.221250X-0.911250X0.221250X-0.911250X0.221250X0.911250X0*%
%ADD20RoundRect,0.155000X0.040659X0.259862X-0.259862X-0.040659X-0.040659X-0.259862X0.259862X0.040659X0*%
%ADD21RoundRect,0.250000X-0.574524X-0.097227X-0.097227X-0.574524X0.574524X0.097227X0.097227X0.574524X0*%
%ADD22RoundRect,0.237500X0.002821X0.344816X-0.344508X-0.014854X-0.002821X-0.344816X0.344508X0.014854X0*%
%ADD23RoundRect,0.250000X-0.450000X0.350000X-0.450000X-0.350000X0.450000X-0.350000X0.450000X0.350000X0*%
%ADD24RoundRect,0.237500X-0.380070X0.044194X0.044194X-0.380070X0.380070X-0.044194X-0.044194X0.380070X0*%
%ADD25RoundRect,0.150000X0.150000X-0.587500X0.150000X0.587500X-0.150000X0.587500X-0.150000X-0.587500X0*%
%ADD26RoundRect,0.237500X0.044194X0.380070X-0.380070X-0.044194X-0.044194X-0.380070X0.380070X0.044194X0*%
%ADD27RoundRect,0.237500X0.250000X0.237500X-0.250000X0.237500X-0.250000X-0.237500X0.250000X-0.237500X0*%
%ADD28RoundRect,0.237500X0.237500X-0.300000X0.237500X0.300000X-0.237500X0.300000X-0.237500X-0.300000X0*%
%ADD29RotRect,1.100000X0.900000X225.000000*%
%ADD30RoundRect,0.237500X0.380070X-0.044194X-0.044194X0.380070X-0.380070X0.044194X0.044194X-0.380070X0*%
%ADD31RoundRect,0.250000X-0.445477X0.000000X0.000000X-0.445477X0.445477X0.000000X0.000000X0.445477X0*%
%ADD32RoundRect,0.062500X-0.309359X0.220971X0.220971X-0.309359X0.309359X-0.220971X-0.220971X0.309359X0*%
%ADD33RoundRect,0.062500X-0.309359X-0.220971X-0.220971X-0.309359X0.309359X0.220971X0.220971X0.309359X0*%
%ADD34R,0.650000X1.560000*%
%ADD35RoundRect,0.200000X0.200000X-0.900000X0.200000X0.900000X-0.200000X0.900000X-0.200000X-0.900000X0*%
%ADD36RoundRect,0.250000X1.125000X-1.275000X1.125000X1.275000X-1.125000X1.275000X-1.125000X-1.275000X0*%
%ADD37RoundRect,0.237500X-0.250000X-0.237500X0.250000X-0.237500X0.250000X0.237500X-0.250000X0.237500X0*%
%ADD38RoundRect,0.250001X-0.462499X-0.624999X0.462499X-0.624999X0.462499X0.624999X-0.462499X0.624999X0*%
%ADD39RoundRect,0.160000X0.026517X0.252791X-0.252791X-0.026517X-0.026517X-0.252791X0.252791X0.026517X0*%
%ADD40RoundRect,0.225000X0.375000X-0.225000X0.375000X0.225000X-0.375000X0.225000X-0.375000X-0.225000X0*%
%ADD41RoundRect,0.075000X0.650000X0.075000X-0.650000X0.075000X-0.650000X-0.075000X0.650000X-0.075000X0*%
%ADD42RoundRect,0.237500X0.237500X-0.250000X0.237500X0.250000X-0.237500X0.250000X-0.237500X-0.250000X0*%
G04 APERTURE END LIST*
D10*
%TO.C,C8*%
X184049500Y-101600000D03*
X185774500Y-101600000D03*
%TD*%
D11*
%TO.C,R1*%
X183880000Y-96520000D03*
X181880000Y-96520000D03*
%TD*%
D12*
%TO.C,R14*%
X178953235Y-84698765D03*
X177662765Y-85989235D03*
%TD*%
D13*
%TO.C,C2*%
X158755117Y-87370883D03*
X159557683Y-86568317D03*
%TD*%
D14*
%TO.C,R2*%
X179476400Y-100085400D03*
X179476400Y-98085400D03*
%TD*%
D15*
%TO.C,FB2*%
X154041882Y-92084118D03*
X155279318Y-90846682D03*
%TD*%
D16*
%TO.C,U7*%
X185490000Y-90805000D03*
X185490000Y-92075000D03*
X185490000Y-93345000D03*
X185490000Y-94615000D03*
X190430000Y-94615000D03*
X190430000Y-93345000D03*
X190430000Y-92075000D03*
X190430000Y-90805000D03*
%TD*%
D17*
%TO.C,FB1*%
X182010000Y-99060000D03*
X183760000Y-99060000D03*
%TD*%
D18*
%TO.C,C10*%
X140075000Y-97326800D03*
X145675000Y-97326800D03*
%TD*%
D19*
%TO.C,U9*%
X192393000Y-64173000D03*
X191123000Y-64173000D03*
X189853000Y-64173000D03*
X188583000Y-64173000D03*
X188583000Y-69123000D03*
X189853000Y-69123000D03*
X191123000Y-69123000D03*
X192393000Y-69123000D03*
%TD*%
D20*
%TO.C,C3*%
X157474883Y-88498717D03*
X156672317Y-89301283D03*
%TD*%
D21*
%TO.C,C7*%
X158524377Y-98453377D03*
X159991623Y-99920623D03*
%TD*%
D22*
%TO.C,R13*%
X177671876Y-83671602D03*
X176404124Y-84984398D03*
%TD*%
D10*
%TO.C,C11*%
X147220600Y-94030800D03*
X148945600Y-94030800D03*
%TD*%
D23*
%TO.C,R9*%
X119634000Y-62830200D03*
X119634000Y-64830200D03*
%TD*%
D24*
%TO.C,C4*%
X164286920Y-86359720D03*
X165506680Y-87579480D03*
%TD*%
D25*
%TO.C,Q1*%
X117668000Y-60373500D03*
X119568000Y-60373500D03*
X118618000Y-58498500D03*
%TD*%
D26*
%TO.C,C1*%
X162179280Y-86512120D03*
X160959520Y-87731880D03*
%TD*%
D27*
%TO.C,R7*%
X187450100Y-89052400D03*
X185625100Y-89052400D03*
%TD*%
D26*
%TO.C,C6*%
X171170880Y-92785920D03*
X169951120Y-94005680D03*
%TD*%
D28*
%TO.C,C15*%
X186906600Y-66166500D03*
X186906600Y-64441500D03*
%TD*%
D29*
%TO.C,Y1*%
X156757821Y-85553340D03*
X155555740Y-86755421D03*
X156474979Y-87674660D03*
X157677060Y-86472579D03*
%TD*%
D30*
%TO.C,C5*%
X163042880Y-100177880D03*
X161823120Y-98958120D03*
%TD*%
D31*
%TO.C,U1*%
X163549949Y-90300253D03*
X162560000Y-91290202D03*
X161570050Y-92280152D03*
X160580101Y-93270101D03*
X164539898Y-91290202D03*
X163549949Y-92280152D03*
X162560000Y-93270101D03*
X161570050Y-94260050D03*
X165529848Y-92280152D03*
X164539898Y-93270101D03*
X163549949Y-94260050D03*
X162560000Y-95250000D03*
X166519797Y-93270101D03*
X165529848Y-94260050D03*
X164539898Y-95250000D03*
X163549949Y-96239949D03*
D32*
X163063813Y-88894878D03*
X162710260Y-89248431D03*
X162356706Y-89601985D03*
X162003153Y-89955538D03*
X161649600Y-90309091D03*
X161296046Y-90662645D03*
X160942493Y-91016198D03*
X160588939Y-91369752D03*
X160235386Y-91723305D03*
X159881833Y-92076858D03*
X159528279Y-92430412D03*
X159174726Y-92783965D03*
D33*
X159174726Y-93756237D03*
X159528279Y-94109790D03*
X159881833Y-94463344D03*
X160235386Y-94816897D03*
X160588939Y-95170450D03*
X160942493Y-95524004D03*
X161296046Y-95877557D03*
X161649600Y-96231111D03*
X162003153Y-96584664D03*
X162356706Y-96938217D03*
X162710260Y-97291771D03*
X163063813Y-97645324D03*
D32*
X164036085Y-97645324D03*
X164389638Y-97291771D03*
X164743192Y-96938217D03*
X165096745Y-96584664D03*
X165450298Y-96231111D03*
X165803852Y-95877557D03*
X166157405Y-95524004D03*
X166510959Y-95170450D03*
X166864512Y-94816897D03*
X167218065Y-94463344D03*
X167571619Y-94109790D03*
X167925172Y-93756237D03*
D33*
X167925172Y-92783965D03*
X167571619Y-92430412D03*
X167218065Y-92076858D03*
X166864512Y-91723305D03*
X166510959Y-91369752D03*
X166157405Y-91016198D03*
X165803852Y-90662645D03*
X165450298Y-90309091D03*
X165096745Y-89955538D03*
X164743192Y-89601985D03*
X164389638Y-89248431D03*
X164036085Y-88894878D03*
%TD*%
D10*
%TO.C,C13*%
X181409000Y-89458800D03*
X183134000Y-89458800D03*
%TD*%
%TO.C,C12*%
X150675000Y-94030800D03*
X152400000Y-94030800D03*
%TD*%
D27*
%TO.C,R8*%
X191539500Y-98806000D03*
X189714500Y-98806000D03*
%TD*%
D10*
%TO.C,C14*%
X186665700Y-96469200D03*
X188390700Y-96469200D03*
%TD*%
D34*
%TO.C,U6*%
X183950000Y-84806800D03*
X183000000Y-84806800D03*
X182050000Y-84806800D03*
X182050000Y-87506800D03*
X183950000Y-87506800D03*
%TD*%
D35*
%TO.C,U3*%
X146310000Y-91400000D03*
X147450000Y-91400000D03*
X148590000Y-91400000D03*
D36*
X147065000Y-86775000D03*
X150115000Y-86775000D03*
X147065000Y-83425000D03*
X150115000Y-83425000D03*
D35*
X149730000Y-91400000D03*
X150870000Y-91400000D03*
%TD*%
D14*
%TO.C,R4*%
X177175000Y-100060000D03*
X177175000Y-98060000D03*
%TD*%
D37*
%TO.C,R12*%
X180265700Y-94107000D03*
X182090700Y-94107000D03*
%TD*%
D38*
%TO.C,D1*%
X114412700Y-49961800D03*
X117387700Y-49961800D03*
%TD*%
D39*
%TO.C,R3*%
X159020096Y-88528304D03*
X158175104Y-89373296D03*
%TD*%
D40*
%TO.C,D2*%
X115316000Y-59054000D03*
X115316000Y-55754000D03*
%TD*%
D41*
%TO.C,U2*%
X190160000Y-105505000D03*
X190160000Y-105005000D03*
X190160000Y-104505000D03*
X190160000Y-104005000D03*
X190160000Y-103505000D03*
X185760000Y-103505000D03*
X185760000Y-104005000D03*
X185760000Y-104505000D03*
X185760000Y-105005000D03*
X185760000Y-105505000D03*
%TD*%
D14*
%TO.C,R10*%
X119634000Y-52028600D03*
X119634000Y-50028600D03*
%TD*%
D27*
%TO.C,R11*%
X182090700Y-92583000D03*
X180265700Y-92583000D03*
%TD*%
D42*
%TO.C,R6*%
X137160000Y-70000500D03*
X137160000Y-68175500D03*
%TD*%
%TO.C,R5*%
X152654000Y-78890500D03*
X152654000Y-77065500D03*
%TD*%
D13*
%TO.C,C9*%
X158551917Y-90723683D03*
X159354483Y-89921117D03*
%TD*%
M02*
