%TF.GenerationSoftware,KiCad,Pcbnew,7.0.9*%
%TF.CreationDate,2024-09-23T19:58:59+02:00*%
%TF.ProjectId,SmartCaso,536d6172-7443-4617-936f-2e6b69636164,rev?*%
%TF.SameCoordinates,Original*%
%TF.FileFunction,Paste,Top*%
%TF.FilePolarity,Positive*%
%FSLAX46Y46*%
G04 Gerber Fmt 4.6, Leading zero omitted, Abs format (unit mm)*
G04 Created by KiCad (PCBNEW 7.0.9) date 2024-09-23 19:58:59*
%MOMM*%
%LPD*%
G01*
G04 APERTURE LIST*
G04 Aperture macros list*
%AMRoundRect*
0 Rectangle with rounded corners*
0 $1 Rounding radius*
0 $2 $3 $4 $5 $6 $7 $8 $9 X,Y pos of 4 corners*
0 Add a 4 corners polygon primitive as box body*
4,1,4,$2,$3,$4,$5,$6,$7,$8,$9,$2,$3,0*
0 Add four circle primitives for the rounded corners*
1,1,$1+$1,$2,$3*
1,1,$1+$1,$4,$5*
1,1,$1+$1,$6,$7*
1,1,$1+$1,$8,$9*
0 Add four rect primitives between the rounded corners*
20,1,$1+$1,$2,$3,$4,$5,0*
20,1,$1+$1,$4,$5,$6,$7,0*
20,1,$1+$1,$6,$7,$8,$9,0*
20,1,$1+$1,$8,$9,$2,$3,0*%
G04 Aperture macros list end*
%ADD10C,0.010000*%
%ADD11RoundRect,0.250000X0.350000X0.450000X-0.350000X0.450000X-0.350000X-0.450000X0.350000X-0.450000X0*%
%ADD12RoundRect,0.250000X-0.350000X-0.450000X0.350000X-0.450000X0.350000X0.450000X-0.350000X0.450000X0*%
%ADD13RoundRect,0.250000X-0.475000X0.337500X-0.475000X-0.337500X0.475000X-0.337500X0.475000X0.337500X0*%
%ADD14RoundRect,0.075000X0.225000X-0.910000X0.225000X0.910000X-0.225000X0.910000X-0.225000X-0.910000X0*%
%ADD15RoundRect,0.250000X1.500000X0.650000X-1.500000X0.650000X-1.500000X-0.650000X1.500000X-0.650000X0*%
%ADD16R,1.016000X3.050000*%
%ADD17RoundRect,0.250000X0.475000X-0.337500X0.475000X0.337500X-0.475000X0.337500X-0.475000X-0.337500X0*%
%ADD18RoundRect,0.250000X-0.450000X0.350000X-0.450000X-0.350000X0.450000X-0.350000X0.450000X0.350000X0*%
%ADD19R,2.000000X0.640000*%
%ADD20RoundRect,0.250000X-0.325000X-0.450000X0.325000X-0.450000X0.325000X0.450000X-0.325000X0.450000X0*%
%ADD21R,5.400000X2.900000*%
%ADD22RoundRect,0.250000X0.450000X-0.350000X0.450000X0.350000X-0.450000X0.350000X-0.450000X-0.350000X0*%
%ADD23RoundRect,0.073750X-0.221250X0.911250X-0.221250X-0.911250X0.221250X-0.911250X0.221250X0.911250X0*%
%ADD24RoundRect,0.250000X-1.000000X1.950000X-1.000000X-1.950000X1.000000X-1.950000X1.000000X1.950000X0*%
%ADD25RoundRect,0.150000X0.150000X-0.587500X0.150000X0.587500X-0.150000X0.587500X-0.150000X-0.587500X0*%
%ADD26RoundRect,0.250000X-0.337500X-0.475000X0.337500X-0.475000X0.337500X0.475000X-0.337500X0.475000X0*%
%ADD27RoundRect,0.250001X0.462499X0.624999X-0.462499X0.624999X-0.462499X-0.624999X0.462499X-0.624999X0*%
%ADD28RoundRect,0.150000X-0.587500X-0.150000X0.587500X-0.150000X0.587500X0.150000X-0.587500X0.150000X0*%
%ADD29RoundRect,0.075000X-0.075000X0.650000X-0.075000X-0.650000X0.075000X-0.650000X0.075000X0.650000X0*%
G04 APERTURE END LIST*
%TO.C,U1*%
D10*
X140963000Y-104425000D02*
X139763000Y-104425000D01*
X139763000Y-102775000D01*
X140963000Y-102775000D01*
X140963000Y-104425000D01*
G36*
X140963000Y-104425000D02*
G01*
X139763000Y-104425000D01*
X139763000Y-102775000D01*
X140963000Y-102775000D01*
X140963000Y-104425000D01*
G37*
X142511400Y-104425000D02*
X141311400Y-104425000D01*
X141311400Y-102775000D01*
X142511400Y-102775000D01*
X142511400Y-104425000D01*
G36*
X142511400Y-104425000D02*
G01*
X141311400Y-104425000D01*
X141311400Y-102775000D01*
X142511400Y-102775000D01*
X142511400Y-104425000D01*
G37*
X144059800Y-104425000D02*
X142859800Y-104425000D01*
X142859800Y-102775000D01*
X144059800Y-102775000D01*
X144059800Y-104425000D01*
G36*
X144059800Y-104425000D02*
G01*
X142859800Y-104425000D01*
X142859800Y-102775000D01*
X144059800Y-102775000D01*
X144059800Y-104425000D01*
G37*
X145608200Y-104425000D02*
X144408200Y-104425000D01*
X144408200Y-102775000D01*
X145608200Y-102775000D01*
X145608200Y-104425000D01*
G36*
X145608200Y-104425000D02*
G01*
X144408200Y-104425000D01*
X144408200Y-102775000D01*
X145608200Y-102775000D01*
X145608200Y-104425000D01*
G37*
X147156600Y-104425000D02*
X145956600Y-104425000D01*
X145956600Y-102775000D01*
X147156600Y-102775000D01*
X147156600Y-104425000D01*
G36*
X147156600Y-104425000D02*
G01*
X145956600Y-104425000D01*
X145956600Y-102775000D01*
X147156600Y-102775000D01*
X147156600Y-104425000D01*
G37*
X148705000Y-104425000D02*
X147505000Y-104425000D01*
X147505000Y-102775000D01*
X148705000Y-102775000D01*
X148705000Y-104425000D01*
G36*
X148705000Y-104425000D02*
G01*
X147505000Y-104425000D01*
X147505000Y-102775000D01*
X148705000Y-102775000D01*
X148705000Y-104425000D01*
G37*
X140963000Y-101919000D02*
X139763000Y-101919000D01*
X139763000Y-100269000D01*
X140963000Y-100269000D01*
X140963000Y-101919000D01*
G36*
X140963000Y-101919000D02*
G01*
X139763000Y-101919000D01*
X139763000Y-100269000D01*
X140963000Y-100269000D01*
X140963000Y-101919000D01*
G37*
X142511400Y-101919000D02*
X141311400Y-101919000D01*
X141311400Y-100269000D01*
X142511400Y-100269000D01*
X142511400Y-101919000D01*
G36*
X142511400Y-101919000D02*
G01*
X141311400Y-101919000D01*
X141311400Y-100269000D01*
X142511400Y-100269000D01*
X142511400Y-101919000D01*
G37*
X144059800Y-101919000D02*
X142859800Y-101919000D01*
X142859800Y-100269000D01*
X144059800Y-100269000D01*
X144059800Y-101919000D01*
G36*
X144059800Y-101919000D02*
G01*
X142859800Y-101919000D01*
X142859800Y-100269000D01*
X144059800Y-100269000D01*
X144059800Y-101919000D01*
G37*
X145608200Y-101919000D02*
X144408200Y-101919000D01*
X144408200Y-100269000D01*
X145608200Y-100269000D01*
X145608200Y-101919000D01*
G36*
X145608200Y-101919000D02*
G01*
X144408200Y-101919000D01*
X144408200Y-100269000D01*
X145608200Y-100269000D01*
X145608200Y-101919000D01*
G37*
X147156600Y-101919000D02*
X145956600Y-101919000D01*
X145956600Y-100269000D01*
X147156600Y-100269000D01*
X147156600Y-101919000D01*
G36*
X147156600Y-101919000D02*
G01*
X145956600Y-101919000D01*
X145956600Y-100269000D01*
X147156600Y-100269000D01*
X147156600Y-101919000D01*
G37*
X148705000Y-101919000D02*
X147505000Y-101919000D01*
X147505000Y-100269000D01*
X148705000Y-100269000D01*
X148705000Y-101919000D01*
G36*
X148705000Y-101919000D02*
G01*
X147505000Y-101919000D01*
X147505000Y-100269000D01*
X148705000Y-100269000D01*
X148705000Y-101919000D01*
G37*
X140963000Y-99413000D02*
X139763000Y-99413000D01*
X139763000Y-97763000D01*
X140963000Y-97763000D01*
X140963000Y-99413000D01*
G36*
X140963000Y-99413000D02*
G01*
X139763000Y-99413000D01*
X139763000Y-97763000D01*
X140963000Y-97763000D01*
X140963000Y-99413000D01*
G37*
X142511400Y-99413000D02*
X141311400Y-99413000D01*
X141311400Y-97763000D01*
X142511400Y-97763000D01*
X142511400Y-99413000D01*
G36*
X142511400Y-99413000D02*
G01*
X141311400Y-99413000D01*
X141311400Y-97763000D01*
X142511400Y-97763000D01*
X142511400Y-99413000D01*
G37*
X144059800Y-99413000D02*
X142859800Y-99413000D01*
X142859800Y-97763000D01*
X144059800Y-97763000D01*
X144059800Y-99413000D01*
G36*
X144059800Y-99413000D02*
G01*
X142859800Y-99413000D01*
X142859800Y-97763000D01*
X144059800Y-97763000D01*
X144059800Y-99413000D01*
G37*
X145608200Y-99413000D02*
X144408200Y-99413000D01*
X144408200Y-97763000D01*
X145608200Y-97763000D01*
X145608200Y-99413000D01*
G36*
X145608200Y-99413000D02*
G01*
X144408200Y-99413000D01*
X144408200Y-97763000D01*
X145608200Y-97763000D01*
X145608200Y-99413000D01*
G37*
X147156600Y-99413000D02*
X145956600Y-99413000D01*
X145956600Y-97763000D01*
X147156600Y-97763000D01*
X147156600Y-99413000D01*
G36*
X147156600Y-99413000D02*
G01*
X145956600Y-99413000D01*
X145956600Y-97763000D01*
X147156600Y-97763000D01*
X147156600Y-99413000D01*
G37*
X148705000Y-99413000D02*
X147505000Y-99413000D01*
X147505000Y-97763000D01*
X148705000Y-97763000D01*
X148705000Y-99413000D01*
G36*
X148705000Y-99413000D02*
G01*
X147505000Y-99413000D01*
X147505000Y-97763000D01*
X148705000Y-97763000D01*
X148705000Y-99413000D01*
G37*
%TD*%
D11*
%TO.C,R10*%
X157600000Y-67000000D03*
X155600000Y-67000000D03*
%TD*%
D12*
%TO.C,R8*%
X170600000Y-67450000D03*
X172600000Y-67450000D03*
%TD*%
D13*
%TO.C,C6*%
X55400000Y-74675000D03*
X55400000Y-72600000D03*
%TD*%
D14*
%TO.C,U6*%
X66929000Y-84004000D03*
X68199000Y-84004000D03*
X69469000Y-84004000D03*
X70739000Y-84004000D03*
X70739000Y-79064000D03*
X69469000Y-79064000D03*
X68199000Y-79064000D03*
X66929000Y-79064000D03*
%TD*%
D15*
%TO.C,D3*%
X146986000Y-116560000D03*
X141986000Y-116560000D03*
%TD*%
D16*
%TO.C,U1*%
X140830000Y-111399000D03*
X142532000Y-111399000D03*
X144234000Y-111399000D03*
X145936000Y-111399000D03*
X147638000Y-111399000D03*
%TD*%
D17*
%TO.C,C7*%
X72970000Y-83587500D03*
X72970000Y-81512500D03*
%TD*%
%TO.C,C4*%
X136770000Y-112747500D03*
X136770000Y-110672500D03*
%TD*%
D12*
%TO.C,R11*%
X86270000Y-74660000D03*
X88270000Y-74660000D03*
%TD*%
D18*
%TO.C,R4*%
X155050000Y-98270000D03*
X155050000Y-100270000D03*
%TD*%
%TO.C,R12*%
X90590000Y-76830000D03*
X90590000Y-78830000D03*
%TD*%
D19*
%TO.C,U4*%
X134176000Y-83076000D03*
X134176000Y-85616000D03*
X140476000Y-85616000D03*
X140476000Y-83076000D03*
%TD*%
D13*
%TO.C,C5*%
X116078000Y-64494500D03*
X116078000Y-66569500D03*
%TD*%
D20*
%TO.C,FB1*%
X58919000Y-73406000D03*
X60969000Y-73406000D03*
%TD*%
D21*
%TO.C,L1*%
X157734000Y-116598000D03*
X157734000Y-106898000D03*
%TD*%
D22*
%TO.C,R1*%
X138342000Y-90426000D03*
X138342000Y-88426000D03*
%TD*%
D12*
%TO.C,R9*%
X93964000Y-72898000D03*
X91964000Y-72898000D03*
%TD*%
D11*
%TO.C,R3*%
X130960000Y-81552000D03*
X128960000Y-81552000D03*
%TD*%
D23*
%TO.C,U5*%
X113411000Y-69986000D03*
X112141000Y-69986000D03*
X110871000Y-69986000D03*
X109601000Y-69986000D03*
X109601000Y-65036000D03*
X110871000Y-65036000D03*
X112141000Y-65036000D03*
X113411000Y-65036000D03*
%TD*%
D12*
%TO.C,R2*%
X172974000Y-98552000D03*
X174974000Y-98552000D03*
%TD*%
D24*
%TO.C,C1*%
X132296000Y-101166000D03*
X132296000Y-108566000D03*
%TD*%
D25*
%TO.C,D5*%
X84130000Y-78555000D03*
X86030000Y-78555000D03*
X85080000Y-76680000D03*
%TD*%
D26*
%TO.C,C3*%
X160062500Y-98170000D03*
X162137500Y-98170000D03*
%TD*%
D27*
%TO.C,F2*%
X79760000Y-72940000D03*
X76785000Y-72940000D03*
%TD*%
D28*
%TO.C,Q1*%
X140785000Y-91016000D03*
X140785000Y-92916000D03*
X142660000Y-91966000D03*
%TD*%
D29*
%TO.C,U3*%
X58150000Y-76794000D03*
X57650000Y-76794000D03*
X57150000Y-76794000D03*
X56650000Y-76794000D03*
X56150000Y-76794000D03*
X56150000Y-81194000D03*
X56650000Y-81194000D03*
X57150000Y-81194000D03*
X57650000Y-81194000D03*
X58150000Y-81194000D03*
%TD*%
D24*
%TO.C,C2*%
X169380000Y-101684000D03*
X169380000Y-109084000D03*
%TD*%
D11*
%TO.C,R7*%
X65262000Y-59436000D03*
X63262000Y-59436000D03*
%TD*%
D12*
%TO.C,R6*%
X96790000Y-59690000D03*
X98790000Y-59690000D03*
%TD*%
M02*
