%TF.GenerationSoftware,KiCad,Pcbnew,7.0.9*%
%TF.CreationDate,2024-09-23T19:58:59+02:00*%
%TF.ProjectId,SmartCaso,536d6172-7443-4617-936f-2e6b69636164,rev?*%
%TF.SameCoordinates,Original*%
%TF.FileFunction,Soldermask,Bot*%
%TF.FilePolarity,Negative*%
%FSLAX46Y46*%
G04 Gerber Fmt 4.6, Leading zero omitted, Abs format (unit mm)*
G04 Created by KiCad (PCBNEW 7.0.9) date 2024-09-23 19:58:59*
%MOMM*%
%LPD*%
G01*
G04 APERTURE LIST*
G04 Aperture macros list*
%AMRoundRect*
0 Rectangle with rounded corners*
0 $1 Rounding radius*
0 $2 $3 $4 $5 $6 $7 $8 $9 X,Y pos of 4 corners*
0 Add a 4 corners polygon primitive as box body*
4,1,4,$2,$3,$4,$5,$6,$7,$8,$9,$2,$3,0*
0 Add four circle primitives for the rounded corners*
1,1,$1+$1,$2,$3*
1,1,$1+$1,$4,$5*
1,1,$1+$1,$6,$7*
1,1,$1+$1,$8,$9*
0 Add four rect primitives between the rounded corners*
20,1,$1+$1,$2,$3,$4,$5,0*
20,1,$1+$1,$4,$5,$6,$7,0*
20,1,$1+$1,$6,$7,$8,$9,0*
20,1,$1+$1,$8,$9,$2,$3,0*%
G04 Aperture macros list end*
%ADD10C,2.154000*%
%ADD11RoundRect,0.102000X-1.050000X-1.050000X1.050000X-1.050000X1.050000X1.050000X-1.050000X1.050000X0*%
%ADD12RoundRect,0.250000X-1.550000X0.650000X-1.550000X-0.650000X1.550000X-0.650000X1.550000X0.650000X0*%
%ADD13O,3.600000X1.800000*%
%ADD14O,1.600000X1.600000*%
%ADD15R,1.600000X1.600000*%
%ADD16O,1.700000X2.000000*%
%ADD17RoundRect,0.250000X0.600000X0.750000X-0.600000X0.750000X-0.600000X-0.750000X0.600000X-0.750000X0*%
%ADD18O,1.950000X1.700000*%
%ADD19RoundRect,0.250000X-0.725000X0.600000X-0.725000X-0.600000X0.725000X-0.600000X0.725000X0.600000X0*%
%ADD20R,1.800000X1.800000*%
%ADD21C,1.800000*%
%ADD22O,1.700000X1.950000*%
%ADD23RoundRect,0.250000X0.600000X0.725000X-0.600000X0.725000X-0.600000X-0.725000X0.600000X-0.725000X0*%
%ADD24C,1.752600*%
%ADD25C,3.000000*%
%ADD26C,2.700000*%
%ADD27R,2.000000X1.905000*%
%ADD28O,2.000000X1.905000*%
%ADD29C,2.200000*%
%ADD30RoundRect,0.250000X-0.750000X0.600000X-0.750000X-0.600000X0.750000X-0.600000X0.750000X0.600000X0*%
%ADD31O,2.000000X1.700000*%
%ADD32C,1.440000*%
%ADD33RoundRect,0.250000X1.550000X-0.650000X1.550000X0.650000X-1.550000X0.650000X-1.550000X-0.650000X0*%
%ADD34C,1.712000*%
%ADD35RoundRect,0.102000X0.754000X0.754000X-0.754000X0.754000X-0.754000X-0.754000X0.754000X-0.754000X0*%
%ADD36C,2.750000*%
%ADD37C,1.600000*%
%ADD38R,2.600000X2.600000*%
%ADD39O,2.600000X2.600000*%
G04 APERTURE END LIST*
D10*
%TO.C,S1*%
X154070000Y-82410000D03*
X166270000Y-82410000D03*
X166270000Y-94410000D03*
X154070000Y-94410000D03*
D11*
X152070000Y-88410000D03*
%TD*%
D12*
%TO.C,PWR*%
X50000000Y-106800000D03*
D13*
X50000000Y-111880000D03*
%TD*%
D14*
%TO.C,D1*%
X145962000Y-91966000D03*
D15*
X145962000Y-84346000D03*
%TD*%
D16*
%TO.C,J1*%
X111252000Y-54400000D03*
D17*
X113752000Y-54400000D03*
%TD*%
D18*
%TO.C,PRESSURE*%
X49530000Y-99996000D03*
X49530000Y-97496000D03*
D19*
X49530000Y-94996000D03*
%TD*%
D20*
%TO.C,D2*%
X178562000Y-95753000D03*
D21*
X178562000Y-98293000D03*
%TD*%
D22*
%TO.C,SCALES*%
X95430000Y-83000000D03*
X97930000Y-83000000D03*
X100430000Y-83000000D03*
X102930000Y-83000000D03*
D23*
X105430000Y-83000000D03*
%TD*%
D24*
%TO.C,PS1*%
X58500000Y-98748000D03*
X58500000Y-107748000D03*
X109500000Y-89748000D03*
X109500000Y-116748000D03*
%TD*%
D18*
%TO.C,J7*%
X49576000Y-88586000D03*
X49576000Y-86086000D03*
X49576000Y-83586000D03*
D19*
X49576000Y-81086000D03*
%TD*%
D18*
%TO.C,DIMMER*%
X49530000Y-74636000D03*
X49530000Y-72136000D03*
X49530000Y-69636000D03*
D19*
X49530000Y-67136000D03*
%TD*%
D15*
%TO.C,STM32_Black-Pill1*%
X103757500Y-54316100D03*
D14*
X101217500Y-54316100D03*
X98677500Y-54316100D03*
X96137500Y-54316100D03*
X93597500Y-54316100D03*
X91057500Y-54316100D03*
X88517500Y-54316100D03*
X85977500Y-54316100D03*
X83437500Y-54316100D03*
X80897500Y-54316100D03*
X78357500Y-54316100D03*
X75817500Y-54316100D03*
X73277500Y-54316100D03*
X70737500Y-54316100D03*
X68197500Y-54316100D03*
X65657500Y-54316100D03*
X63117500Y-54316100D03*
X60577500Y-54316100D03*
X58037500Y-54316100D03*
X55497500Y-54316100D03*
X103757500Y-69556100D03*
X101217500Y-69536100D03*
X98677500Y-69536100D03*
X96137500Y-69536100D03*
X93597500Y-69536100D03*
X91057500Y-69536100D03*
X88517500Y-69536100D03*
X85977500Y-69536100D03*
X83437500Y-69536100D03*
X80897500Y-69536100D03*
X78357500Y-69536100D03*
X75817500Y-69536100D03*
X73277500Y-69536100D03*
X70737500Y-69536100D03*
X68197500Y-69536100D03*
X65657500Y-69536100D03*
X63117500Y-69536100D03*
X60577500Y-69536100D03*
X58037500Y-69536100D03*
X55497500Y-69536100D03*
%TD*%
D25*
%TO.C,F1*%
X120750000Y-94800000D03*
X120750000Y-117300000D03*
D26*
X120750000Y-106050000D03*
%TD*%
D27*
%TO.C,U8*%
X176530000Y-102362000D03*
D28*
X176530000Y-104902000D03*
X176530000Y-107442000D03*
%TD*%
D29*
%TO.C,H4*%
X49022000Y-52832000D03*
%TD*%
D30*
%TO.C,BOILER*%
X49530000Y-58166000D03*
D31*
X49530000Y-60666000D03*
%TD*%
D32*
%TO.C,RV1*%
X163068000Y-102374000D03*
X160528000Y-102374000D03*
X157988000Y-102374000D03*
%TD*%
D27*
%TO.C,U7*%
X81026000Y-82550000D03*
D28*
X81026000Y-80010000D03*
X81026000Y-77470000D03*
%TD*%
D13*
%TO.C,VALVE*%
X174644500Y-85340000D03*
D33*
X174644500Y-90420000D03*
%TD*%
D34*
%TO.C,U2*%
X125940000Y-78232000D03*
X125940000Y-75692000D03*
X128480000Y-78232000D03*
X128480000Y-75692000D03*
X131020000Y-78232000D03*
X131020000Y-75692000D03*
X133560000Y-78232000D03*
X133560000Y-75692000D03*
X136100000Y-78232000D03*
X136100000Y-75692000D03*
X138640000Y-78232000D03*
X138640000Y-75692000D03*
X141180000Y-78232000D03*
X141180000Y-75692000D03*
X143720000Y-78232000D03*
X143720000Y-75692000D03*
X146260000Y-78232000D03*
X146260000Y-75692000D03*
X148800000Y-78232000D03*
X148800000Y-75692000D03*
X151340000Y-78232000D03*
X151340000Y-75692000D03*
X153880000Y-78232000D03*
X153880000Y-75692000D03*
X156420000Y-78232000D03*
X156420000Y-75692000D03*
X158960000Y-78232000D03*
X158960000Y-75692000D03*
X161500000Y-78232000D03*
X161500000Y-75692000D03*
X164040000Y-78232000D03*
X164040000Y-75692000D03*
X166580000Y-78232000D03*
X166580000Y-75692000D03*
X169120000Y-78232000D03*
X169120000Y-75692000D03*
X171660000Y-78232000D03*
X171660000Y-75692000D03*
X174200000Y-78232000D03*
D35*
X174200000Y-75692000D03*
D36*
X121070000Y-53962000D03*
X121070000Y-76962000D03*
X179070000Y-53962000D03*
X179070000Y-76962000D03*
%TD*%
D37*
%TO.C,R5*%
X66040000Y-74676000D03*
D14*
X73660000Y-74676000D03*
%TD*%
D38*
%TO.C,D4*%
X130820000Y-88200000D03*
D39*
X115580000Y-88200000D03*
%TD*%
D37*
%TO.C,R13*%
X62738000Y-83566000D03*
D14*
X62738000Y-75946000D03*
%TD*%
D29*
%TO.C,H2*%
X180086000Y-117094000D03*
%TD*%
%TO.C,H1*%
X48768000Y-117348000D03*
%TD*%
M02*
